<svg width="24" height="24" viewBox="0 0 24 24" fill="none" xmlns="http://www.w3.org/2000/svg">
<g clip-path="url(#clip0_82_2779)">
<path d="M20.9704 19.1375V8.97033H23.4826C23.763 8.97033 24 8.72938 24 8.45289V4.46737C24 4.18692 23.7591 3.94992 23.4826 3.94992H20.9704V1.79719C20.9704 0.8018 20.1725 0.00390625 19.1771 0.00390625H4.82291C3.82752 0.00390625 3.02962 0.8018 3.02962 1.79719V3.98942H0.517446C0.236998 3.98942 0 4.23037 0 4.50687V8.49239C0 8.77283 0.240948 9.00983 0.517446 9.00983H3.02962V19.177C3.02962 20.1724 3.82752 20.9703 4.82291 20.9703H5.02041V22.9651H0.556945C0.276498 22.9651 0.0394997 23.206 0.0394997 23.4825C0.0394997 23.759 0.280448 24 0.556945 24H23.4826C23.763 24 24 23.759 24 23.4825C24 23.206 23.7591 22.9651 23.4826 22.9651H19.497V20.9308C20.3344 20.7728 20.9704 20.0144 20.9704 19.1375ZM22.9651 4.98482V7.97494H20.9704V4.98482H22.9651ZM4.02502 1.79324C4.02502 1.35479 4.38446 0.995348 4.82291 0.995348H19.1771C19.6155 0.995348 19.975 1.35479 19.975 1.79324V13.9552H4.02502V1.79324ZM1.03489 7.97494V4.98482H3.02962V7.97494H1.03489ZM4.02502 19.1375V14.9506H19.971V19.1375C19.971 19.576 19.6116 19.9354 19.1731 19.9354H4.82291C4.38446 19.9354 4.02502 19.576 4.02502 19.1375ZM15.9855 20.9308V22.9256H8.53193V20.9308H15.9855ZM6.01975 22.9256V20.9308H7.53654V22.9256H6.01975ZM16.9849 22.9256V20.9308H18.5016V22.9256H16.9849Z" fill="black"/>
<path d="M8.01356 17.4631C8.01356 16.6257 7.33417 15.9463 6.49678 15.9463C5.65938 15.9463 5.02344 16.6257 5.02344 17.4631C5.02344 18.3005 5.70283 18.9799 6.54022 18.9799C7.37762 18.9799 8.01356 18.261 8.01356 17.4631ZM6.01883 17.4631C6.01883 17.1826 6.25978 16.9456 6.53627 16.9456C6.81277 16.9456 7.05372 17.1866 7.05372 17.4631C7.05372 17.7396 6.81277 17.9805 6.53627 17.9805C6.25978 17.9805 6.01883 17.7001 6.01883 17.4631Z" fill="black"/>
<path d="M17.5012 18.9359C18.3386 18.9359 19.0179 18.2565 19.0179 17.4191C19.0179 16.5817 18.3386 15.9023 17.5012 15.9023C16.6638 15.9023 15.9844 16.5817 15.9844 17.4191C15.9844 18.2565 16.6638 18.9359 17.5012 18.9359ZM17.5012 16.9451C17.7816 16.9451 18.0186 17.1861 18.0186 17.4626C18.0186 17.7391 17.7777 17.98 17.5012 17.98C17.2247 17.98 16.9837 17.7391 16.9837 17.4626C16.9837 17.1861 17.2247 16.9451 17.5012 16.9451Z" fill="black"/>
<path d="M8.53307 3.98509H15.5087C15.7892 3.98509 16.0262 3.74414 16.0262 3.46764C16.0262 3.19114 15.7852 2.9502 15.5087 2.9502H8.53307C8.25262 2.9502 8.01562 3.19114 8.01562 3.46764C8.01562 3.74414 8.25657 3.98509 8.53307 3.98509Z" fill="black"/>
</g>
<defs>
<clipPath id="clip0_82_2779">
<rect width="24" height="24" fill="white"/>
</clipPath>
</defs>
</svg>
