<svg width="140" height="60" viewBox="0 0 140 60" fill="none" xmlns="http://www.w3.org/2000/svg">
<g clip-path="url(#clip0_119_454)">
<path d="M58.4766 15.6019C58.3604 16.4421 58.0379 17.1659 57.3024 17.6183C56.2701 18.2646 55.0443 17.502 54.7863 16.4291C54.5798 15.5761 53.2766 15.9638 53.483 16.8169C53.8701 18.4197 55.3669 19.3761 56.9798 19.1435C58.5669 18.9108 59.5734 17.4632 59.7927 15.9509C59.9217 15.0978 58.6056 14.7488 58.4766 15.6148V15.6019Z" fill="#FF850C"/>
<path d="M68.4516 17.553C67.3548 16.5578 65.6774 16.6224 64.3741 16.0149C64.258 14.955 63.9999 13.921 63.587 12.9516C61.3677 7.7297 53.458 7.1222 48.787 9.70729C46.9677 10.2372 45.6774 12.1631 44.8129 13.753C44.7225 13.9081 44.6709 14.089 44.6064 14.2571C44.5935 14.2571 44.5806 14.2571 44.5677 14.2571C35.4709 15.2265 26.7354 10.0434 19.1741 5.48067C14.6709 2.74047 7.30317 -2.14536 2.02575 1.04723C-2.81296 3.98131 2.24511 11.2842 4.50317 13.921C6.65801 16.4415 9.76769 18.1605 13.1483 19.2721C13.0322 19.2721 12.929 19.2592 12.8129 19.2463C9.67737 19.0783 6.74834 18.9619 3.94834 20.5647C0.451561 22.5811 2.24511 27.1179 5.31608 28.3458C8.94188 29.7935 13.187 30.3363 17.0322 30.9955C17.8451 31.1377 18.6451 31.2153 19.4451 31.254C15.6129 33.2058 11.7161 37.7297 17.458 40.2243C17.6516 40.3019 17.8451 40.3536 18.0387 40.4182C13.6774 42.9516 10.4387 46.4415 7.54834 50.6035C6.33543 52.3484 2.02576 57.9451 5.22576 59.7676C7.65156 61.1506 12.5548 55.5022 13.9612 54.3518C16.6193 52.1674 18.6838 49.4272 21.4064 47.2945C22.9548 46.0795 24.2838 45.0455 25.5225 43.8176C25.2516 45.136 25.0064 47.1007 26.0258 48.0701C26.1161 48.1605 26.2193 48.2252 26.3225 48.2898C25.5354 48.6905 24.7612 49.1558 24.0258 49.7375C21.3161 51.8572 19.9483 55.3988 18.0903 58.2036C17.6 58.9404 18.787 59.5996 19.2774 58.8758C21.2258 55.9417 22.6322 52.5552 25.4709 50.332C28.2451 48.1605 32.4516 47.7211 35.8193 47.4367C36.4129 47.385 36.9935 47.3592 37.587 47.3333C37.9999 47.2687 38.4258 47.2558 38.8645 47.3075C40.2193 47.2945 41.5612 47.3075 42.9032 47.3592C42.9161 47.4238 42.9419 47.4884 42.9806 47.553C45.5225 51.547 52.2322 54.5199 56.8 52.8396C58.4 52.245 57.9225 50.6681 56.8 49.8796C55.3806 48.8844 53.8064 48.2769 52.2193 47.7211C53.2387 47.7211 54.258 47.734 55.2774 47.6952C55.6516 47.6952 55.8967 47.6565 55.8967 47.6565C57.3419 47.7211 58.1548 47.553 59.2774 47.1136C60.929 46.3639 62.1935 45.0843 63.3806 43.223C63.6774 42.7706 63.2645 42.2278 62.7741 42.2148C60.3096 42.1244 57.6645 42.2148 55.1354 42.6931C55.0193 42.5509 54.8645 42.4475 54.6322 42.4346C52.9806 42.3182 51.3677 42.6802 49.7032 42.6155C47.9483 42.538 46.3225 42.2924 44.5677 42.5509C42.1161 42.9128 39.7419 44.1537 38 45.9115C36.3612 45.9632 34.7225 46.0795 33.0967 46.3381C31.8709 46.5319 30.6709 46.7646 29.5096 47.0748C29.5225 47.036 29.5483 47.0102 29.5741 46.9843C30.4516 45.3299 30.529 43.2747 30.0129 41.4652C32.0258 42.2148 34.4516 42.3312 36.4387 42.4604C40.4258 42.7318 45.0451 41.8658 48.8258 40.6509C56.0645 38.2984 61.6258 31.1894 63.2258 23.9253C63.2516 23.7831 63.2258 23.6668 63.1999 23.5634C63.8322 23.3954 64.4774 23.3695 65.1225 23.279C65.8967 23.1627 66.6064 22.9042 67.329 22.6198C68.129 22.2967 70.3096 21.4307 70.1935 20.2674C70.0903 19.2592 69.2 18.2252 68.4645 17.553H68.4516ZM52.7096 49.2592C53.3935 49.5436 54.0774 49.9055 54.7483 50.2286C55.6774 50.6939 57.1225 51.4178 55.3419 51.8831C51.9354 52.7491 46.7741 50.2286 44.5548 47.4238C45.4967 47.4755 46.4258 47.5272 47.3677 47.566C47.5225 47.6435 47.7161 47.6694 47.8967 47.5918C47.9225 47.5918 47.9483 47.5918 47.9741 47.5918C49.5354 48.2122 51.1483 48.6129 52.7096 49.2592ZM61.4967 43.5591C60.529 44.8387 59.4709 45.6918 58.0774 46.1442C55.2258 46.4673 52.3741 46.4415 49.5096 46.3122C52.8903 43.9598 57.4064 43.4945 61.4967 43.5591ZM46.4645 43.74C47.8838 43.6496 49.3806 43.9727 50.7999 44.0244C50.8258 44.0244 50.8516 44.0244 50.8774 44.0244C49.8322 44.5026 48.8516 45.1101 47.9483 45.8469C47.7161 46.0795 47.458 46.2347 47.1354 46.2734C46.9935 46.3251 46.8258 46.3251 46.658 46.2734C46.5677 46.2605 46.4774 46.2217 46.3999 46.17C46.3741 46.17 46.3612 46.17 46.3354 46.17C46.3096 46.17 46.2967 46.17 46.2709 46.17C46.2064 46.17 46.1548 46.1571 46.1032 46.1312C46.0774 46.1312 46.0516 46.1312 46.0258 46.1183C44.0516 46.002 42.0645 45.8986 40.0903 45.8857C41.9225 44.5414 44.1419 43.8564 46.4645 43.7271V43.74ZM6.14188 13.753C4.37414 12.0468 1.57414 7.67799 1.45801 5.26093C1.13543 -1.00792 9.29027 1.91324 12.1161 3.30919C21.7032 8.06576 31.587 15.9503 42.7096 15.7047C38.0903 19.8538 31.4451 19.6211 25.4967 19.7762C25.3806 19.647 12.9032 20.2674 6.14188 13.753ZM7.75479 27.7512C5.66447 27.2859 1.63866 25.4764 4.15479 22.1804C5.52253 20.3967 8.5935 20.4742 10.5806 20.4871C13.7419 20.513 16.9548 20.7198 20.1032 20.9654C27.6516 21.547 37.9612 22.0511 43.8838 16.4156C43.7032 16.9843 43.587 17.5918 43.3548 18.1218C41.5096 22.1416 36.929 24.2355 33.2129 26.0451C30.258 27.4798 27.2516 28.4492 24.2064 29.4703C18.6838 30.4785 13.2129 28.9533 7.74188 27.7512H7.75479ZM16.1161 35.5453C17.3935 32.6241 22.1548 31.5513 24.8903 30.7758C25.0967 30.7241 25.2903 30.6465 25.4967 30.5819C25.7419 30.5173 25.9741 30.4656 26.2193 30.401C26.3096 30.3751 26.3741 30.3363 26.4258 30.2976C29.0064 29.4574 31.458 28.3975 33.9096 27.2084C36.6709 25.877 39.7161 24.3518 42.0258 22.1545C42.0516 22.1545 42.0774 22.1416 42.0903 22.1287C42.3483 21.9348 42.5806 21.728 42.787 21.5212C42.0258 23.2144 41.0709 24.8947 40.387 26.4328C38.8516 29.9227 37.1999 33.2316 34.1548 35.6358C31.8451 37.4583 29.0064 38.6086 26.1677 39.3066C24.129 39.8107 14.0258 40.3148 16.1032 35.5582L16.1161 35.5453ZM18.6193 47.8245C15.458 50.4742 12.7225 53.6151 9.56124 56.3036C8.50317 57.1954 4.78705 60.0649 5.88382 56.1873C6.47737 54.0416 8.12898 52.1545 9.38059 50.3708C12.0903 46.4802 15.4064 43.3393 19.5999 41.1162C19.6258 41.1162 19.6387 41.0903 19.6516 41.0774C19.729 41.0515 19.8064 41.0257 19.8709 40.974C22.0258 41.3747 24.3225 41.2066 26.5419 40.6638C24.2709 43.6108 21.4451 45.485 18.6322 47.8503L18.6193 47.8245ZM28.6838 45.4979C28.4516 46.4156 27.1741 48.2381 26.7483 46.4932C26.3999 45.0714 26.9677 41.659 28.2193 40.6121C29.0322 42.1631 29.1096 43.7917 28.6838 45.485V45.4979ZM50.3483 38.5569C47.1999 40.2502 43.3677 40.625 39.8709 40.9223C37.0193 41.1679 32.1935 41.4652 29.4451 39.7073C31.4322 38.9188 33.3032 37.8977 34.8645 36.7991C37.587 34.8732 39.2387 32.0425 40.6709 29.0955C41.8451 26.6914 43.5483 23.8348 44.529 21.0688C44.658 21.5341 44.7999 21.9994 44.9548 22.4259C46.8258 27.4669 53.7935 30.1812 58.6322 27.6737C59.6903 27.1179 60.5935 26.3682 61.3806 25.4893C59.587 31.1248 55.587 35.778 50.3483 38.5828V38.5569ZM60.1032 25.011C56.7354 28.7207 50.8774 27.3247 47.7677 24.2355C45.7935 22.2579 45.4064 19.4919 45.4838 16.868C45.4838 16.351 45.6387 15.653 45.8838 14.9292C45.9096 14.8128 45.9096 14.6836 45.9612 14.5673C46.2322 13.74 46.658 13.0033 47.2258 12.3829C47.4193 12.1373 49.7548 10.5733 50.7999 10.3277C54.529 9.00932 59.6387 9.48756 61.8322 12.6155C64.3225 16.1571 62.8258 22.0382 60.1032 25.024V25.011ZM65.8193 21.715C65.0709 21.9736 64.2709 21.9865 63.4838 22.1028C64.0774 20.6422 64.4 19.0653 64.4258 17.4884C65.0064 17.6952 65.6129 17.8374 66.2193 17.9925C67.5354 18.3157 68.0516 19.0912 68.7741 20.164C68.9677 20.4484 66.0903 21.6116 65.8193 21.715Z" fill="#FF850C"/>
<path d="M48.8512 45.7439C48.8512 45.7439 49.1738 45.0589 48.2577 45.5759C48.0512 45.6922 47.3415 46.248 46.0254 46.1446L46.6318 46.7004L48.2706 46.1446L48.5415 45.9378" fill="#FF850C"/>
<path d="M81.536 15.6C81.6521 16.4401 81.9747 17.1639 82.7102 17.6163C83.7424 18.2626 84.9682 17.5 85.2263 16.4272C85.4327 15.5741 86.736 15.9619 86.5295 16.815C86.1424 18.4177 84.6456 19.3742 83.0327 19.1415C81.4327 18.9089 80.4392 17.4612 80.2198 15.9489C80.0908 15.0959 81.4069 14.7469 81.536 15.6129V15.6Z" fill="#FF850C"/>
<path d="M69.8326 20.2535C69.7165 21.4168 71.8971 22.2828 72.6971 22.6059C73.4197 22.9032 74.1294 23.1488 74.9036 23.2651C75.5487 23.3685 76.1939 23.3944 76.8261 23.5495C76.7874 23.6529 76.7745 23.7692 76.8003 23.9114C78.4003 31.1884 83.9487 38.2974 91.2003 40.6369C94.9681 41.8649 99.6003 42.7179 103.587 42.4465C105.575 42.3173 108 42.2009 110.013 41.4513C109.497 43.2608 109.575 45.316 110.452 46.9704C110.465 47.0092 110.491 47.0351 110.516 47.0609C109.355 46.7378 108.168 46.518 106.929 46.3242C105.304 46.0656 103.665 45.9364 102.026 45.8976C100.284 44.1397 97.91 42.8989 95.4584 42.537C93.7036 42.2785 92.0778 42.537 90.3229 42.6016C88.6584 42.6662 87.0455 42.3043 85.3939 42.4207C85.1745 42.4336 85.0068 42.537 84.8907 42.6792C82.3616 42.188 79.7165 42.1105 77.2519 42.2009C76.7745 42.2139 76.3616 42.7567 76.6455 43.2091C77.8326 45.0704 79.0971 46.3629 80.7487 47.0997C81.8842 47.5391 82.6842 47.7072 84.1294 47.6426C84.1294 47.6426 84.3874 47.6684 84.7487 47.6813C85.7681 47.7201 86.7874 47.7201 87.8068 47.7072C86.2197 48.263 84.6455 48.8705 83.2261 49.8657C82.0907 50.6542 81.6132 52.2311 83.2261 52.8257C87.8068 54.506 94.5036 51.5331 97.0455 47.5391C97.0842 47.4745 97.11 47.4099 97.1229 47.3453C98.4648 47.2936 99.8197 47.2677 101.162 47.2936C101.6 47.2419 102.026 47.2548 102.439 47.3194C103.033 47.3453 103.613 47.3711 104.207 47.4228C107.562 47.7072 111.781 48.1466 114.555 50.3181C117.394 52.5413 118.8 55.9148 120.749 58.8619C121.226 59.5857 122.413 58.9265 121.936 58.1897C120.078 55.3849 118.71 51.8433 116 49.7236C115.265 49.1419 114.491 48.6766 113.704 48.2759C113.807 48.2113 113.91 48.1596 114 48.0562C115.007 47.0868 114.775 45.1221 114.504 43.8037C115.755 45.0316 117.071 46.0656 118.62 47.2806C121.342 49.4133 123.407 52.1535 126.065 54.3379C127.458 55.4883 132.375 61.1367 134.8 59.7537C138 57.9312 133.691 52.3216 132.478 50.5896C129.587 46.4405 126.349 42.9377 121.987 40.4043C122.181 40.3397 122.387 40.288 122.568 40.2104C128.31 37.7158 124.413 33.1919 120.581 31.2401C121.368 31.2014 122.181 31.1238 122.994 30.9816C126.839 30.3224 131.084 29.7796 134.71 28.3319C137.781 27.104 139.575 22.5671 136.078 20.5508C133.278 18.9351 130.349 19.0643 127.213 19.2324C127.097 19.2324 126.994 19.2453 126.878 19.2582C130.258 18.1466 133.368 16.4276 135.523 13.9071C137.781 11.2703 142.852 3.96741 138 1.03332C132.723 -2.17219 125.355 2.72656 120.852 5.44091C113.304 10.0036 104.568 15.1867 95.4584 14.2173C95.4455 14.2173 95.4326 14.2173 95.4197 14.2173C95.3552 14.0493 95.2907 13.8812 95.2003 13.7132C94.3487 12.1363 93.0584 10.1975 91.2261 9.66753C86.5552 7.08244 78.6326 7.70286 76.4261 12.9118C76.0132 13.8812 75.7552 14.9153 75.639 15.9752C74.3358 16.5827 72.6713 16.518 71.5616 17.5133C70.8261 18.1725 69.9358 19.2195 69.8326 20.2276V20.2535ZM92.039 47.6038C92.039 47.6038 92.0907 47.6038 92.1165 47.6038C92.2971 47.6813 92.4778 47.6555 92.6455 47.5779C93.5874 47.5262 94.5165 47.4745 95.4584 47.4357C93.239 50.2406 88.0778 52.761 84.6713 51.895C82.8907 51.4426 84.3358 50.7059 85.2649 50.2406C85.9358 49.9174 86.6197 49.5426 87.3036 49.2712C88.8649 48.6378 90.4907 48.2242 92.039 47.6038ZM90.4907 46.3112C87.6261 46.4405 84.7745 46.4534 81.9229 46.1432C80.5294 45.6908 79.4713 44.8377 78.5036 43.5581C82.5939 43.5064 87.1229 43.9717 90.4907 46.3112ZM99.91 45.8976C97.9358 45.9105 95.9616 46.0139 93.9745 46.1303C93.9487 46.1303 93.9229 46.1303 93.8971 46.1432C93.8455 46.1561 93.7939 46.182 93.7294 46.182C93.7036 46.182 93.6777 46.182 93.6648 46.182C93.639 46.182 93.6261 46.182 93.6003 46.182C93.5229 46.2337 93.4455 46.2595 93.3423 46.2854C93.1745 46.35 93.0068 46.35 92.8648 46.2854C92.5423 46.2466 92.2713 46.0915 92.0519 45.8588C91.1487 45.1221 90.1681 44.5146 89.1229 44.0363C89.1487 44.0363 89.1745 44.0363 89.2003 44.0363C90.6326 43.9717 92.1165 43.6615 93.5358 43.752C95.8455 43.8812 98.0778 44.5663 99.91 45.9105V45.8976ZM114.504 19.7752C108.555 19.6072 101.91 19.8528 97.2907 15.7037C108.413 15.9493 118.297 8.0777 127.884 3.30821C130.71 1.89933 138.878 -1.0089 138.555 5.24703C138.426 7.66409 135.626 12.0458 133.871 13.7391C127.11 20.2535 114.62 19.6331 114.516 19.7623L114.504 19.7752ZM115.794 29.4693C112.762 28.4482 109.742 27.4917 106.787 26.0441C103.071 24.2345 98.4907 22.1406 96.6455 18.1208C96.4003 17.5908 96.2971 16.9833 96.1165 16.4146C102.039 22.0501 112.349 21.5331 119.897 20.9644C123.058 20.7188 126.258 20.512 129.42 20.4861C131.407 20.4732 134.491 20.3957 135.845 22.1794C138.362 25.4625 134.336 27.2849 132.245 27.7503C126.775 28.9523 121.304 30.4775 115.781 29.4693H115.794ZM113.833 39.3056C110.994 38.6076 108.155 37.4573 105.845 35.6348C102.8 33.2177 101.149 29.9217 99.6132 26.4319C98.9294 24.8937 97.9745 23.2134 97.2132 21.5202C97.4197 21.7399 97.639 21.9467 97.91 22.1277C97.9358 22.1406 97.9616 22.1406 97.9745 22.1535C100.271 24.3509 103.329 25.8761 106.091 27.2074C108.542 28.3836 110.994 29.4564 113.575 30.2966C113.639 30.3354 113.704 30.3871 113.781 30.4C114.026 30.4646 114.258 30.5292 114.504 30.5809C114.71 30.6456 114.904 30.7102 115.11 30.7748C117.845 31.5374 122.607 32.6232 123.884 35.5443C125.975 40.3009 115.871 39.7968 113.82 39.2927L113.833 39.3056ZM113.471 40.6369C115.704 41.1798 117.987 41.3608 120.142 40.9472C120.207 40.9989 120.284 41.0247 120.362 41.0506C120.387 41.0635 120.387 41.0893 120.413 41.0893C124.607 43.3125 127.923 46.4534 130.633 50.344C131.871 52.1406 133.523 54.0277 134.129 56.1604C135.226 60.051 131.497 57.1815 130.452 56.2768C127.278 53.6012 124.542 50.4474 121.394 47.7977C118.568 45.4323 115.755 43.5581 113.484 40.6111L113.471 40.6369ZM111.794 40.624C113.045 41.671 113.6 45.0704 113.265 46.5051C112.839 48.2371 111.562 46.4276 111.329 45.5098C110.904 43.8166 110.981 42.188 111.794 40.6369V40.624ZM78.6326 25.4625C79.4197 26.3414 80.3229 27.104 81.381 27.6469C86.2068 30.1673 93.1745 27.44 95.0584 22.3991C95.2132 21.9726 95.3552 21.5202 95.4842 21.0419C96.4648 23.8209 98.1681 26.6774 99.3423 29.0687C100.775 32.0157 102.426 34.8463 105.149 36.7722C106.71 37.8838 108.581 38.9049 110.568 39.6805C107.82 41.4383 102.994 41.141 100.142 40.8955C96.6455 40.5852 92.8261 40.2104 89.6648 38.5301C84.4261 35.7253 80.4261 31.0721 78.6326 25.4366V25.4625ZM78.181 12.6016C80.3745 9.47365 85.4842 8.99541 89.2132 10.3138C90.2584 10.5723 92.5939 12.1234 92.7874 12.369C93.3423 12.9894 93.781 13.7261 94.0519 14.5534C94.0907 14.6697 94.1036 14.7989 94.1294 14.9153C94.3745 15.6391 94.5165 16.3371 94.5294 16.8541C94.5939 19.4909 94.2197 22.244 92.2455 24.2216C89.1358 27.3237 83.2907 28.7067 79.91 24.9971C77.1874 22.0114 75.6907 16.1303 78.181 12.5887V12.6016ZM71.2261 20.163C71.9487 19.1031 72.4648 18.3276 73.781 17.9915C74.3874 17.8364 74.9939 17.6942 75.5745 17.4874C75.6003 19.0643 75.9229 20.6413 76.5165 22.1018C75.7294 21.9855 74.9423 21.9726 74.181 21.7141C73.8971 21.6236 71.0326 20.4474 71.2261 20.163Z" fill="#FF850C"/>
<path d="M91.1625 45.742C91.1625 45.742 90.8399 45.0569 91.7561 45.5739C91.9625 45.6903 92.6722 46.2461 93.9883 46.1427L93.3819 46.6984L91.7561 46.1427L91.4851 45.9358" fill="#FF850C"/>
</g>
<defs>
<clipPath id="clip0_119_454">
<rect width="140" height="60" fill="white"/>
</clipPath>
</defs>
</svg>
