<svg xmlns="http://www.w3.org/2000/svg" width="100" height="100" viewBox="0 0 100 100">
  <path d="M 49.20 10.00 L 48.40 10.80 L 47.60 10.80 L 46.80 11.60 L 46.80 12.40 L 46.00 13.20 L 46.00 14.00 L 45.20 14.80 L 45.20 15.60 L 44.40 16.40 L 44.40 17.20 L 43.60 18.00 L 43.60 18.80 L 42.00 20.40 L 42.00 21.20 L 40.40 22.80 L 40.40 23.60 L 37.20 26.80 L 37.20 27.60 L 34.80 30.00 L 34.80 33.20 L 35.60 34.00 L 35.60 34.80 L 40.40 39.60 L 41.20 39.60 L 42.00 40.40 L 45.20 40.40 L 46.00 39.60 L 46.80 39.60 L 47.60 40.40 L 47.60 50.00 L 46.80 50.80 L 46.80 87.60 L 47.60 88.40 L 48.40 88.40 L 49.20 89.20 L 62.80 89.20 L 64.40 87.60 L 64.40 12.40 L 63.60 11.60 L 63.60 10.80 L 62.80 10.80 L 62.00 10.00 Z M 50.00 13.20 L 60.40 13.20 L 61.20 14.00 L 61.20 16.40 L 62.00 17.20 L 62.00 41.20 L 61.20 42.00 L 61.20 57.20 L 62.00 58.00 L 62.00 84.40 L 60.40 86.00 L 58.80 86.00 L 58.00 86.80 L 57.20 86.00 L 50.00 86.00 L 49.20 85.20 L 49.20 76.40 L 50.00 75.60 L 50.00 46.80 L 50.80 46.00 L 50.80 33.20 L 50.00 32.40 L 49.20 32.40 L 44.40 37.20 L 42.80 37.20 L 38.00 32.40 L 38.00 30.80 L 41.20 27.60 L 41.20 26.80 L 43.60 24.40 L 43.60 23.60 L 45.20 22.00 L 45.20 21.20 L 46.00 20.40 L 46.00 19.60 L 47.60 18.00 L 47.60 17.20 L 48.40 16.40 L 48.40 15.60 L 49.20 14.80 L 49.20 14.00 Z " fill="black" fill-rule="evenodd" stroke="none"/>
</svg>