<svg xmlns="http://www.w3.org/2000/svg" width="100" height="100" viewBox="0 0 100 100">
  <path d="M 26.70 10.78 L 25.92 11.55 L 24.37 11.55 L 23.59 12.33 L 23.59 13.11 L 22.82 13.88 L 22.82 14.66 L 22.04 15.44 L 22.04 16.21 L 21.26 16.99 L 21.26 17.77 L 20.49 18.54 L 20.49 19.32 L 18.93 20.87 L 18.93 21.65 L 16.60 23.98 L 16.60 24.76 L 13.50 27.86 L 13.50 28.64 L 11.17 30.97 L 11.17 33.30 L 11.94 34.08 L 11.94 34.85 L 17.38 40.29 L 18.16 40.29 L 18.93 41.07 L 20.49 41.07 L 21.26 40.29 L 22.04 40.29 L 22.82 39.51 L 23.59 40.29 L 23.59 58.16 L 22.82 58.93 L 22.82 86.12 L 24.37 87.67 L 25.15 87.67 L 25.92 88.45 L 37.57 88.45 L 38.35 87.67 L 39.13 87.67 L 39.90 86.89 L 39.90 85.34 L 40.68 84.56 L 40.68 14.66 L 39.90 13.88 L 39.90 13.11 L 38.35 11.55 L 37.57 11.55 L 36.80 10.78 Z M 26.70 13.88 L 36.02 13.88 L 37.57 15.44 L 37.57 84.56 L 36.80 85.34 L 26.70 85.34 L 25.92 84.56 L 25.92 58.93 L 26.70 58.16 L 26.70 33.30 L 25.15 33.30 L 20.49 37.96 L 19.71 37.96 L 14.27 32.52 L 15.83 30.97 L 15.83 30.19 L 18.16 27.86 L 18.16 27.09 L 20.49 24.76 L 20.49 23.98 L 22.04 22.43 L 22.04 21.65 L 22.82 20.87 L 22.82 20.10 L 23.59 19.32 L 23.59 18.54 L 25.15 16.99 L 25.15 16.21 L 25.92 15.44 L 25.92 14.66 Z M 65.53 10.00 L 64.76 10.78 L 62.43 10.78 L 61.65 11.55 L 60.10 11.55 L 59.32 12.33 L 58.54 12.33 L 52.33 18.54 L 52.33 19.32 L 51.55 20.10 L 51.55 20.87 L 50.00 22.43 L 50.00 23.98 L 49.22 24.76 L 49.22 25.53 L 48.45 26.31 L 48.45 27.86 L 47.67 28.64 L 47.67 30.19 L 46.89 30.97 L 46.89 33.30 L 46.12 34.08 L 46.12 36.41 L 45.34 37.18 L 45.34 41.07 L 44.56 41.84 L 44.56 58.16 L 45.34 58.93 L 45.34 62.04 L 46.12 62.82 L 46.12 65.92 L 46.89 66.70 L 46.89 69.03 L 47.67 69.81 L 47.67 72.14 L 48.45 72.91 L 48.45 73.69 L 49.22 74.47 L 49.22 75.24 L 50.00 76.02 L 50.00 77.57 L 51.55 79.13 L 51.55 79.90 L 53.11 81.46 L 53.11 82.23 L 56.99 86.12 L 57.77 86.12 L 59.32 87.67 L 60.87 87.67 L 61.65 88.45 L 63.20 88.45 L 63.98 89.22 L 67.86 89.22 L 68.64 88.45 L 70.97 88.45 L 71.75 87.67 L 73.30 87.67 L 74.85 86.12 L 75.63 86.12 L 79.51 82.23 L 79.51 81.46 L 81.07 79.90 L 81.07 79.13 L 81.84 78.35 L 81.84 77.57 L 82.62 76.80 L 82.62 76.02 L 83.40 75.24 L 83.40 74.47 L 84.17 73.69 L 84.17 72.14 L 84.95 71.36 L 84.95 69.81 L 85.73 69.03 L 85.73 66.70 L 86.50 65.92 L 86.50 63.59 L 87.28 62.82 L 87.28 56.60 L 88.06 55.83 L 88.06 41.84 L 87.28 41.07 L 87.28 35.63 L 86.50 34.85 L 86.50 32.52 L 85.73 31.75 L 85.73 29.42 L 84.95 28.64 L 84.95 27.09 L 84.17 26.31 L 84.17 25.53 L 83.40 24.76 L 83.40 23.98 L 82.62 23.20 L 82.62 21.65 L 81.07 20.10 L 81.07 19.32 L 79.51 17.77 L 79.51 16.99 L 75.63 13.11 L 74.85 13.11 L 74.08 12.33 L 73.30 12.33 L 72.52 11.55 L 71.75 11.55 L 70.97 10.78 L 67.86 10.78 L 67.09 10.00 Z M 64.76 13.11 L 67.86 13.11 L 68.64 13.88 L 70.19 13.88 L 70.97 14.66 L 71.75 14.66 L 72.52 15.44 L 73.30 15.44 L 77.96 20.10 L 77.96 20.87 L 78.74 21.65 L 78.74 22.43 L 80.29 23.98 L 80.29 25.53 L 81.07 26.31 L 81.07 27.09 L 81.84 27.86 L 81.84 29.42 L 82.62 30.19 L 82.62 31.75 L 83.40 32.52 L 83.40 35.63 L 84.17 36.41 L 84.17 40.29 L 84.95 41.07 L 84.95 57.38 L 84.17 58.16 L 84.17 62.04 L 83.40 62.82 L 83.40 65.92 L 82.62 66.70 L 82.62 69.03 L 81.84 69.81 L 81.84 71.36 L 81.07 72.14 L 81.07 72.91 L 80.29 73.69 L 80.29 74.47 L 79.51 75.24 L 79.51 76.02 L 78.74 76.80 L 78.74 77.57 L 77.18 79.13 L 77.18 79.90 L 72.52 84.56 L 71.75 84.56 L 70.97 85.34 L 69.42 85.34 L 68.64 86.12 L 63.98 86.12 L 63.20 85.34 L 61.65 85.34 L 60.87 84.56 L 60.10 84.56 L 54.66 79.13 L 54.66 78.35 L 53.11 76.80 L 53.11 76.02 L 52.33 75.24 L 52.33 74.47 L 51.55 73.69 L 51.55 72.14 L 50.78 71.36 L 50.78 69.81 L 50.00 69.03 L 50.00 67.48 L 49.22 66.70 L 49.22 63.59 L 48.45 62.82 L 48.45 58.93 L 47.67 58.16 L 47.67 41.84 L 48.45 41.07 L 48.45 37.96 L 49.22 37.18 L 49.22 34.08 L 50.00 33.30 L 50.00 30.97 L 50.78 30.19 L 50.78 28.64 L 51.55 27.86 L 51.55 26.31 L 52.33 25.53 L 52.33 24.76 L 53.11 23.98 L 53.11 23.20 L 53.88 22.43 L 53.88 21.65 L 57.77 17.77 L 57.77 16.99 L 58.54 16.21 L 59.32 16.21 L 60.87 14.66 L 61.65 14.66 L 62.43 13.88 L 63.98 13.88 Z M 65.53 26.31 L 64.76 27.09 L 63.98 27.09 L 63.20 27.86 L 62.43 27.86 L 62.43 28.64 L 60.10 30.97 L 60.10 31.75 L 59.32 32.52 L 59.32 34.08 L 58.54 34.85 L 58.54 36.41 L 57.77 37.18 L 57.77 40.29 L 56.99 41.07 L 56.99 48.06 L 56.21 48.83 L 56.21 51.17 L 56.99 51.94 L 56.99 58.93 L 57.77 59.71 L 57.77 62.82 L 58.54 63.59 L 58.54 65.15 L 59.32 65.92 L 59.32 66.70 L 60.10 67.48 L 60.10 68.25 L 63.20 71.36 L 63.98 71.36 L 64.76 72.14 L 67.86 72.14 L 68.64 71.36 L 69.42 71.36 L 72.52 68.25 L 72.52 66.70 L 73.30 65.92 L 73.30 65.15 L 74.08 64.37 L 74.08 62.82 L 74.85 62.04 L 74.85 58.16 L 75.63 57.38 L 75.63 41.07 L 74.85 40.29 L 74.85 37.18 L 74.08 36.41 L 74.08 34.08 L 73.30 33.30 L 73.30 32.52 L 72.52 31.75 L 72.52 30.97 L 71.75 30.19 L 71.75 29.42 L 70.19 27.86 L 69.42 27.86 L 68.64 27.09 L 67.86 27.09 L 67.09 26.31 Z M 66.31 29.42 L 67.09 30.19 L 67.86 30.19 L 69.42 31.75 L 69.42 32.52 L 70.19 33.30 L 70.19 34.08 L 70.97 34.85 L 70.97 37.18 L 71.75 37.96 L 71.75 41.07 L 72.52 41.84 L 72.52 48.06 L 73.30 48.83 L 73.30 50.39 L 72.52 51.17 L 72.52 57.38 L 71.75 58.16 L 71.75 61.26 L 70.97 62.04 L 70.97 63.59 L 70.19 64.37 L 70.19 65.92 L 67.09 69.03 L 65.53 69.03 L 64.76 68.25 L 63.98 68.25 L 63.20 67.48 L 63.20 66.70 L 62.43 65.92 L 62.43 65.15 L 61.65 64.37 L 61.65 62.82 L 60.87 62.04 L 60.87 59.71 L 60.10 58.93 L 60.10 51.17 L 59.32 50.39 L 59.32 49.61 L 60.10 48.83 L 60.10 41.07 L 60.87 40.29 L 60.87 37.96 L 61.65 37.18 L 61.65 34.85 L 62.43 34.08 L 62.43 33.30 L 63.20 32.52 L 63.20 31.75 L 64.76 30.19 L 65.53 30.19 Z " fill="black" fill-rule="evenodd" stroke="none"/>
</svg>