<svg xmlns="http://www.w3.org/2000/svg" width="100" height="100" viewBox="0 0 100 100">
  <path d="M 65.05 10.00 L 63.47 11.58 L 63.47 12.38 L 62.67 13.17 L 62.67 13.96 L 61.88 14.75 L 61.88 15.54 L 61.09 16.34 L 61.09 17.13 L 60.30 17.92 L 60.30 18.71 L 58.71 20.30 L 58.71 21.09 L 56.34 23.47 L 56.34 24.26 L 53.17 27.43 L 53.17 28.22 L 51.58 29.80 L 51.58 33.76 L 54.75 36.93 L 54.75 37.72 L 55.54 37.72 L 57.92 40.10 L 58.71 40.10 L 59.50 40.89 L 60.30 40.89 L 61.09 40.10 L 61.88 40.10 L 62.67 39.31 L 63.47 39.31 L 64.26 40.10 L 64.26 43.27 L 63.47 44.06 L 63.47 63.86 L 62.67 64.65 L 62.67 86.04 L 63.47 86.83 L 63.47 87.62 L 64.26 88.42 L 66.63 88.42 L 67.43 89.21 L 76.93 89.21 L 77.72 88.42 L 79.31 88.42 L 80.10 87.62 L 80.10 86.83 L 80.89 86.04 L 80.89 13.17 L 80.10 12.38 L 80.10 11.58 L 79.31 10.79 L 78.51 10.79 L 77.72 10.00 Z M 66.63 13.17 L 76.93 13.17 L 77.72 13.96 L 77.72 85.25 L 76.93 86.04 L 66.63 86.04 L 65.84 85.25 L 65.84 60.69 L 66.63 59.90 L 66.63 32.97 L 65.84 32.18 L 61.09 36.93 L 58.71 36.93 L 57.13 35.35 L 57.13 34.55 L 56.34 34.55 L 55.54 33.76 L 55.54 32.97 L 54.75 32.18 L 54.75 30.59 L 57.13 28.22 L 57.13 27.43 L 60.30 24.26 L 60.30 23.47 L 61.88 21.88 L 61.88 21.09 L 62.67 20.30 L 62.67 19.50 L 63.47 18.71 L 63.47 17.92 L 65.05 16.34 L 65.05 14.75 Z M 32.57 10.00 L 30.20 12.38 L 30.20 13.17 L 29.41 13.96 L 29.41 15.54 L 27.82 17.13 L 27.82 17.92 L 27.03 18.71 L 27.03 19.50 L 25.45 21.09 L 25.45 21.88 L 22.28 25.05 L 22.28 25.84 L 19.11 29.01 L 19.11 29.80 L 18.32 30.59 L 18.32 32.18 L 19.11 32.97 L 19.11 33.76 L 21.49 36.14 L 21.49 36.93 L 22.28 37.72 L 23.07 37.72 L 25.45 40.10 L 29.41 40.10 L 30.20 39.31 L 30.99 40.10 L 30.99 54.36 L 30.20 55.15 L 30.20 86.83 L 31.78 88.42 L 33.37 88.42 L 34.16 89.21 L 44.46 89.21 L 45.25 88.42 L 46.04 88.42 L 47.62 86.83 L 47.62 84.46 L 48.42 83.66 L 48.42 61.49 L 47.62 60.69 L 47.62 36.14 L 48.42 35.35 L 48.42 13.96 L 47.62 13.17 L 47.62 11.58 L 46.83 10.79 L 46.04 10.79 L 45.25 10.00 Z M 34.16 13.17 L 44.46 13.17 L 45.25 13.96 L 45.25 84.46 L 43.66 86.04 L 34.95 86.04 L 34.16 85.25 L 33.37 85.25 L 32.57 84.46 L 32.57 72.57 L 33.37 71.78 L 33.37 53.56 L 34.16 52.77 L 34.16 32.97 L 33.37 32.18 L 30.99 34.55 L 30.20 34.55 L 27.82 36.93 L 26.24 36.93 L 21.49 32.18 L 21.49 31.39 L 23.86 29.01 L 23.86 28.22 L 27.03 25.05 L 27.03 24.26 L 28.61 22.67 L 28.61 21.88 L 29.41 21.09 L 29.41 20.30 L 30.99 18.71 L 30.99 17.92 L 31.78 17.13 L 31.78 16.34 L 32.57 15.54 L 32.57 14.75 Z " fill="black" fill-rule="evenodd" stroke="none"/>
</svg>