<svg xmlns="http://www.w3.org/2000/svg" width="100" height="100" viewBox="0 0 100 100">
  <path d="M 27.25 10.78 L 26.47 11.57 L 25.69 11.57 L 24.90 12.35 L 24.90 13.92 L 24.12 14.71 L 24.12 15.49 L 22.55 17.06 L 22.55 17.84 L 21.76 18.63 L 21.76 19.41 L 20.20 20.98 L 20.20 21.76 L 18.63 23.33 L 18.63 24.12 L 14.71 28.04 L 14.71 28.82 L 13.14 30.39 L 13.14 33.53 L 13.92 34.31 L 13.92 35.10 L 18.63 39.80 L 19.41 39.80 L 20.20 40.59 L 23.33 40.59 L 24.12 39.80 L 24.90 39.80 L 25.69 40.59 L 25.69 42.16 L 24.90 42.94 L 24.90 69.61 L 24.12 70.39 L 24.12 85.29 L 24.90 86.08 L 24.90 86.86 L 26.47 88.43 L 28.04 88.43 L 28.82 89.22 L 38.24 89.22 L 39.02 88.43 L 40.59 88.43 L 41.37 87.65 L 41.37 86.86 L 42.16 86.08 L 42.16 13.14 L 39.80 10.78 Z M 28.04 13.92 L 38.24 13.92 L 39.02 14.71 L 39.02 85.29 L 38.24 86.08 L 28.82 86.08 L 27.25 84.51 L 27.25 66.47 L 28.04 65.69 L 28.04 40.59 L 28.82 39.80 L 28.82 35.10 L 28.04 34.31 L 28.04 32.75 L 27.25 32.75 L 22.55 37.45 L 20.98 37.45 L 16.27 32.75 L 16.27 31.18 L 19.41 28.04 L 19.41 27.25 L 22.55 24.12 L 22.55 23.33 L 23.33 22.55 L 23.33 21.76 L 24.90 20.20 L 24.90 19.41 L 25.69 18.63 L 25.69 17.84 L 26.47 17.06 L 26.47 16.27 L 27.25 15.49 L 27.25 14.71 Z M 60.20 10.78 L 59.41 11.57 L 57.06 12.35 L 55.49 13.92 L 54.71 13.92 L 51.57 17.06 L 51.57 17.84 L 50.00 19.41 L 50.00 20.20 L 47.65 24.12 L 47.65 26.47 L 46.86 27.25 L 46.86 34.31 L 48.43 35.88 L 50.78 35.88 L 51.57 36.67 L 54.71 36.67 L 55.49 37.45 L 59.41 37.45 L 60.98 35.88 L 60.98 33.53 L 61.76 32.75 L 62.55 30.39 L 64.90 28.04 L 67.25 28.04 L 68.82 29.61 L 68.82 30.39 L 69.61 31.18 L 69.61 37.45 L 68.82 38.24 L 68.82 39.80 L 68.04 40.59 L 68.04 42.16 L 67.25 42.94 L 67.25 43.73 L 66.47 44.51 L 65.69 46.86 L 64.12 48.43 L 63.33 50.78 L 61.76 52.35 L 61.76 53.14 L 60.20 54.71 L 60.20 55.49 L 58.63 57.06 L 58.63 57.84 L 56.27 60.20 L 56.27 60.98 L 53.92 63.33 L 53.92 64.12 L 51.57 66.47 L 51.57 67.25 L 48.43 71.18 L 48.43 72.75 L 47.65 73.53 L 47.65 85.29 L 48.43 86.08 L 48.43 86.86 L 50.00 88.43 L 52.35 88.43 L 53.14 89.22 L 53.92 88.43 L 83.73 88.43 L 85.29 86.86 L 85.29 86.08 L 86.08 85.29 L 86.08 72.75 L 85.29 71.96 L 85.29 71.18 L 84.51 71.18 L 83.73 70.39 L 69.61 70.39 L 68.82 69.61 L 71.18 67.25 L 71.18 66.47 L 72.75 64.90 L 72.75 64.12 L 74.31 62.55 L 74.31 61.76 L 76.67 59.41 L 77.45 57.06 L 80.59 53.14 L 80.59 52.35 L 82.16 50.00 L 82.16 48.43 L 84.51 44.51 L 84.51 42.94 L 85.29 42.16 L 85.29 39.02 L 86.08 38.24 L 86.08 28.04 L 85.29 27.25 L 85.29 24.12 L 84.51 23.33 L 84.51 22.55 L 83.73 21.76 L 83.73 20.20 L 82.16 18.63 L 82.16 17.84 L 77.45 13.14 L 76.67 13.14 L 75.10 11.57 L 73.53 11.57 L 72.75 10.78 L 71.18 10.78 L 70.39 10.00 L 63.33 10.00 L 62.55 10.78 Z M 60.98 13.92 L 63.33 13.92 L 64.12 13.14 L 69.61 13.14 L 70.39 13.92 L 71.96 13.92 L 72.75 14.71 L 75.10 15.49 L 79.80 20.20 L 79.80 20.98 L 80.59 21.76 L 80.59 22.55 L 82.16 24.90 L 82.16 27.25 L 82.94 28.04 L 82.94 38.24 L 82.16 39.02 L 82.16 41.37 L 81.37 42.16 L 81.37 43.73 L 80.59 44.51 L 80.59 45.29 L 79.80 46.08 L 79.80 47.65 L 79.02 48.43 L 78.24 50.78 L 76.67 52.35 L 75.88 54.71 L 74.31 56.27 L 74.31 57.06 L 72.75 58.63 L 72.75 59.41 L 70.39 61.76 L 70.39 62.55 L 68.04 64.90 L 68.04 65.69 L 66.47 67.25 L 66.47 68.04 L 64.90 69.61 L 64.90 70.39 L 64.12 71.18 L 64.12 73.53 L 82.16 73.53 L 82.94 74.31 L 82.94 84.51 L 82.16 85.29 L 68.82 85.29 L 68.04 86.08 L 52.35 86.08 L 50.78 84.51 L 50.78 73.53 L 51.57 72.75 L 51.57 71.96 L 53.92 69.61 L 53.92 68.82 L 55.49 67.25 L 55.49 66.47 L 57.84 64.12 L 57.84 63.33 L 60.20 60.98 L 60.20 60.20 L 62.55 57.84 L 62.55 57.06 L 65.69 53.14 L 66.47 50.78 L 68.04 49.22 L 68.04 48.43 L 68.82 47.65 L 68.82 46.86 L 69.61 46.08 L 69.61 45.29 L 71.18 42.94 L 71.18 41.37 L 71.96 40.59 L 71.96 39.02 L 72.75 38.24 L 72.75 30.39 L 71.96 29.61 L 71.18 27.25 L 69.61 25.69 L 68.82 25.69 L 68.04 24.90 L 64.12 24.90 L 63.33 25.69 L 62.55 25.69 L 60.20 28.04 L 60.20 28.82 L 58.63 31.18 L 58.63 33.53 L 57.84 34.31 L 55.49 34.31 L 54.71 33.53 L 51.57 33.53 L 50.00 31.96 L 50.00 27.25 L 50.78 26.47 L 50.78 24.90 L 51.57 24.12 L 51.57 23.33 L 52.35 22.55 L 53.14 20.20 L 57.06 16.27 L 57.84 16.27 L 59.41 14.71 L 60.20 14.71 Z " fill="black" fill-rule="evenodd" stroke="none"/>
</svg>