<svg xmlns="http://www.w3.org/2000/svg" width="100" height="100" viewBox="0 0 100 100">
  <path d="M 27.25 10.78 L 26.47 11.57 L 25.69 11.57 L 24.90 12.35 L 24.90 13.14 L 24.12 13.92 L 24.12 14.71 L 23.33 15.49 L 23.33 16.27 L 22.55 17.06 L 22.55 17.84 L 21.76 18.63 L 21.76 19.41 L 20.20 20.98 L 20.20 21.76 L 17.84 24.12 L 17.84 24.90 L 14.71 28.04 L 14.71 28.82 L 13.14 30.39 L 13.14 31.18 L 12.35 31.96 L 12.35 32.75 L 13.14 33.53 L 13.14 34.31 L 19.41 40.59 L 23.33 40.59 L 24.12 39.80 L 24.90 40.59 L 24.90 61.76 L 24.12 62.55 L 24.12 86.86 L 25.69 88.43 L 27.25 88.43 L 28.04 89.22 L 38.24 89.22 L 39.02 88.43 L 40.59 88.43 L 41.37 87.65 L 41.37 86.86 L 42.16 86.08 L 42.16 13.92 L 41.37 13.14 L 41.37 12.35 L 39.80 10.78 Z M 28.04 13.92 L 38.24 13.92 L 39.02 14.71 L 39.02 85.29 L 38.24 86.08 L 28.04 86.08 L 27.25 85.29 L 27.25 59.41 L 28.04 58.63 L 28.04 33.53 L 27.25 32.75 L 22.55 37.45 L 20.98 37.45 L 20.20 36.67 L 19.41 36.67 L 17.06 34.31 L 17.06 33.53 L 16.27 32.75 L 16.27 31.18 L 18.63 28.82 L 18.63 28.04 L 21.76 24.90 L 21.76 24.12 L 23.33 22.55 L 23.33 21.76 L 24.90 20.20 L 24.90 19.41 L 25.69 18.63 L 25.69 17.84 L 26.47 17.06 L 26.47 16.27 L 27.25 15.49 L 27.25 14.71 Z M 59.41 10.00 L 58.63 10.78 L 56.27 10.78 L 55.49 11.57 L 54.71 11.57 L 53.92 12.35 L 51.57 13.14 L 46.08 18.63 L 46.08 20.98 L 46.86 21.76 L 46.86 22.55 L 48.43 24.12 L 48.43 24.90 L 51.57 28.04 L 51.57 28.82 L 53.92 30.39 L 55.49 30.39 L 56.27 29.61 L 57.06 29.61 L 59.41 27.25 L 60.20 27.25 L 60.98 26.47 L 64.12 26.47 L 66.47 28.82 L 66.47 29.61 L 67.25 30.39 L 67.25 31.96 L 66.47 32.75 L 66.47 33.53 L 63.33 36.67 L 62.55 36.67 L 61.76 37.45 L 59.41 37.45 L 58.63 38.24 L 57.06 38.24 L 55.49 39.80 L 55.49 51.57 L 57.06 53.14 L 63.33 53.14 L 64.12 53.92 L 66.47 54.71 L 68.82 57.06 L 68.82 57.84 L 70.39 60.20 L 70.39 66.47 L 69.61 67.25 L 68.82 69.61 L 67.25 71.18 L 65.69 71.18 L 64.90 71.96 L 64.12 71.96 L 63.33 71.18 L 62.55 71.18 L 60.20 68.82 L 60.20 67.25 L 58.63 64.90 L 57.84 64.90 L 57.06 64.12 L 55.49 64.12 L 54.71 64.90 L 53.92 64.90 L 53.14 65.69 L 52.35 65.69 L 51.57 66.47 L 50.78 66.47 L 50.00 67.25 L 47.65 68.04 L 45.29 70.39 L 45.29 73.53 L 46.08 74.31 L 46.08 75.88 L 46.86 76.67 L 46.86 77.45 L 47.65 78.24 L 48.43 80.59 L 50.78 82.94 L 50.78 83.73 L 54.71 86.86 L 55.49 86.86 L 59.41 89.22 L 70.39 89.22 L 71.18 88.43 L 72.75 88.43 L 73.53 87.65 L 75.88 86.86 L 77.45 85.29 L 78.24 85.29 L 82.94 80.59 L 82.94 79.80 L 85.29 75.88 L 85.29 74.31 L 86.08 73.53 L 86.08 71.18 L 86.86 70.39 L 86.86 58.63 L 86.08 57.84 L 86.08 55.49 L 85.29 54.71 L 85.29 53.14 L 84.51 52.35 L 84.51 51.57 L 82.94 50.00 L 82.94 49.22 L 81.37 47.65 L 81.37 46.86 L 79.02 44.51 L 78.24 44.51 L 77.45 43.73 L 79.02 42.16 L 79.02 41.37 L 80.59 39.80 L 80.59 39.02 L 81.37 38.24 L 81.37 36.67 L 82.16 35.88 L 82.16 32.75 L 82.94 31.96 L 82.94 27.25 L 82.16 26.47 L 82.16 23.33 L 81.37 22.55 L 81.37 20.98 L 80.59 20.20 L 80.59 19.41 L 79.02 17.84 L 79.02 17.06 L 75.88 13.92 L 75.10 13.92 L 73.53 12.35 L 72.75 12.35 L 70.39 10.78 L 68.04 10.78 L 67.25 10.00 Z M 60.20 13.14 L 66.47 13.14 L 67.25 13.92 L 68.82 13.92 L 69.61 14.71 L 71.18 14.71 L 72.75 16.27 L 73.53 16.27 L 76.67 19.41 L 76.67 20.20 L 78.24 21.76 L 78.24 22.55 L 79.02 23.33 L 79.02 25.69 L 79.80 26.47 L 79.80 32.75 L 79.02 33.53 L 79.02 35.10 L 78.24 35.88 L 78.24 37.45 L 76.67 39.02 L 76.67 39.80 L 73.53 42.94 L 73.53 44.51 L 75.88 46.86 L 76.67 46.86 L 79.80 50.00 L 79.80 50.78 L 81.37 52.35 L 81.37 53.14 L 82.16 53.92 L 82.16 55.49 L 82.94 56.27 L 82.94 57.84 L 83.73 58.63 L 83.73 71.18 L 82.94 71.96 L 82.94 73.53 L 82.16 74.31 L 82.16 75.10 L 81.37 75.88 L 80.59 78.24 L 75.10 83.73 L 74.31 83.73 L 73.53 84.51 L 72.75 84.51 L 70.39 86.08 L 60.20 86.08 L 59.41 85.29 L 58.63 85.29 L 57.84 84.51 L 55.49 83.73 L 51.57 79.80 L 51.57 79.02 L 50.78 78.24 L 50.78 77.45 L 49.22 75.10 L 49.22 73.53 L 48.43 72.75 L 48.43 71.96 L 50.00 70.39 L 50.78 70.39 L 51.57 69.61 L 52.35 69.61 L 54.71 68.04 L 56.27 68.04 L 57.06 68.82 L 57.84 71.18 L 60.98 74.31 L 63.33 74.31 L 64.12 75.10 L 64.90 75.10 L 65.69 74.31 L 68.04 74.31 L 68.82 73.53 L 69.61 73.53 L 72.75 69.61 L 72.75 67.25 L 73.53 66.47 L 73.53 60.20 L 72.75 59.41 L 72.75 57.84 L 71.96 57.06 L 71.18 54.71 L 68.82 52.35 L 68.04 52.35 L 65.69 50.78 L 60.20 50.78 L 58.63 49.22 L 58.63 46.08 L 57.84 45.29 L 57.84 42.94 L 60.20 40.59 L 62.55 40.59 L 63.33 39.80 L 65.69 39.02 L 68.82 35.88 L 68.82 35.10 L 69.61 34.31 L 69.61 28.04 L 68.82 27.25 L 68.82 26.47 L 66.47 24.12 L 65.69 24.12 L 64.90 23.33 L 60.20 23.33 L 59.41 24.12 L 57.06 24.90 L 54.71 27.25 L 53.14 25.69 L 53.14 24.90 L 50.78 22.55 L 50.78 21.76 L 49.22 20.20 L 53.92 15.49 L 54.71 15.49 L 55.49 14.71 L 57.06 14.71 L 57.84 13.92 L 59.41 13.92 Z " fill="black" fill-rule="evenodd" stroke="none"/>
</svg>