<svg xmlns="http://www.w3.org/2000/svg" width="100" height="100" viewBox="0 0 100 100">
  <path d="M 56.73 10.00 L 55.15 12.38 L 55.15 13.96 L 54.36 14.75 L 54.36 16.34 L 53.56 17.13 L 53.56 18.71 L 52.77 19.50 L 52.77 21.88 L 51.98 22.67 L 51.98 24.26 L 50.40 26.63 L 50.40 28.22 L 49.60 29.01 L 49.60 30.59 L 48.81 31.39 L 48.81 32.97 L 48.02 33.76 L 48.02 35.35 L 47.23 36.14 L 47.23 37.72 L 46.44 38.51 L 46.44 39.31 L 45.64 40.10 L 45.64 41.68 L 44.06 44.06 L 44.06 48.81 L 43.27 49.60 L 43.27 52.77 L 44.06 53.56 L 44.06 54.36 L 46.44 55.94 L 66.24 55.94 L 67.03 56.73 L 67.03 86.83 L 68.61 88.42 L 69.41 88.42 L 70.20 89.21 L 77.33 89.21 L 78.12 88.42 L 80.50 88.42 L 82.08 86.83 L 82.08 56.73 L 82.87 55.94 L 86.04 55.94 L 86.83 55.15 L 87.62 55.15 L 87.62 54.36 L 88.42 53.56 L 88.42 42.48 L 87.62 41.68 L 87.62 40.89 L 86.83 40.89 L 86.04 40.10 L 82.87 40.10 L 82.08 39.31 L 82.08 21.09 L 82.87 20.30 L 82.87 15.54 L 82.08 14.75 L 82.08 11.58 L 80.50 10.00 L 69.41 10.00 L 68.61 10.79 L 66.24 10.79 L 65.45 10.00 Z M 66.24 27.43 L 67.03 28.22 L 67.03 39.31 L 66.24 40.10 L 63.07 40.10 L 62.28 39.31 L 62.28 37.72 L 63.07 36.93 L 63.07 35.35 L 63.86 34.55 L 63.86 32.97 L 64.65 32.18 L 64.65 30.59 L 65.45 29.80 L 65.45 28.22 Z M 59.90 12.38 L 60.69 13.17 L 65.45 13.17 L 66.24 13.96 L 66.24 17.13 L 65.45 17.92 L 65.45 19.50 L 64.65 20.30 L 64.65 21.88 L 63.86 22.67 L 63.86 25.05 L 63.07 25.84 L 63.07 27.43 L 62.28 28.22 L 62.28 29.80 L 61.49 30.59 L 61.49 32.18 L 60.69 32.97 L 60.69 34.55 L 59.11 36.93 L 59.11 38.51 L 58.32 39.31 L 58.32 40.89 L 57.52 41.68 L 57.52 42.48 L 58.32 43.27 L 69.41 43.27 L 70.20 42.48 L 70.20 14.75 L 71.78 13.17 L 72.57 13.17 L 73.37 12.38 L 77.33 12.38 L 79.70 13.96 L 79.70 25.05 L 78.91 25.84 L 78.91 41.68 L 80.50 43.27 L 84.46 43.27 L 85.25 44.06 L 85.25 51.98 L 82.87 53.56 L 79.70 53.56 L 78.91 54.36 L 78.91 85.25 L 78.12 86.04 L 70.99 86.04 L 70.20 85.25 L 70.20 55.15 L 69.41 54.36 L 69.41 53.56 L 68.61 53.56 L 67.82 52.77 L 47.23 52.77 L 46.44 51.98 L 46.44 48.81 L 47.23 48.02 L 47.23 44.85 L 48.02 44.06 L 48.02 42.48 L 49.60 40.10 L 49.60 38.51 L 50.40 37.72 L 50.40 36.14 L 51.19 35.35 L 51.19 33.76 L 51.98 32.97 L 51.98 31.39 L 53.56 29.01 L 53.56 27.43 L 54.36 26.63 L 54.36 25.05 L 55.15 24.26 L 55.15 22.67 L 55.94 21.88 L 55.94 20.30 L 56.73 19.50 L 56.73 17.92 L 57.52 17.13 L 57.52 15.54 L 58.32 14.75 L 58.32 13.96 Z M 25.05 10.00 L 24.26 10.79 L 23.47 10.79 L 22.67 11.58 L 22.67 12.38 L 21.88 13.17 L 21.88 13.96 L 21.09 14.75 L 21.09 15.54 L 20.30 16.34 L 20.30 17.13 L 19.50 17.92 L 19.50 18.71 L 17.92 20.30 L 17.92 21.09 L 16.34 22.67 L 16.34 23.47 L 13.17 26.63 L 13.17 27.43 L 10.79 29.80 L 10.79 32.97 L 11.58 33.76 L 11.58 34.55 L 16.34 39.31 L 17.13 39.31 L 17.92 40.10 L 21.09 40.10 L 21.88 39.31 L 22.67 39.31 L 23.47 40.10 L 23.47 41.68 L 22.67 42.48 L 22.67 66.24 L 21.88 67.03 L 21.88 86.04 L 22.67 86.83 L 22.67 87.62 L 23.47 88.42 L 25.05 88.42 L 25.84 89.21 L 36.14 89.21 L 36.93 88.42 L 38.51 88.42 L 39.31 87.62 L 39.31 86.83 L 40.10 86.04 L 40.10 12.38 L 37.72 10.00 Z M 25.84 13.17 L 36.14 13.17 L 36.93 13.96 L 36.93 85.25 L 36.14 86.04 L 26.63 86.04 L 25.05 84.46 L 25.05 62.28 L 25.84 61.49 L 25.84 40.10 L 26.63 39.31 L 26.63 34.55 L 25.84 33.76 L 25.84 32.18 L 25.05 32.18 L 20.30 36.93 L 18.71 36.93 L 13.96 32.18 L 13.96 30.59 L 17.92 26.63 L 17.92 25.84 L 20.30 23.47 L 20.30 22.67 L 21.09 21.88 L 21.09 21.09 L 22.67 19.50 L 22.67 18.71 L 23.47 17.92 L 23.47 17.13 L 24.26 16.34 L 24.26 15.54 L 25.05 14.75 L 25.05 13.96 Z " fill="black" fill-rule="evenodd" stroke="none"/>
</svg>