<svg xmlns="http://www.w3.org/2000/svg" width="100" height="100" viewBox="0 0 100 100">
  <path d="M 81.29 10.00 L 67.03 10.00 L 66.24 10.79 L 51.19 10.79 L 50.40 11.58 L 49.60 11.58 L 48.02 13.96 L 48.02 47.23 L 48.81 48.02 L 48.81 49.60 L 49.60 50.40 L 49.60 51.19 L 51.19 52.77 L 52.77 52.77 L 53.56 53.56 L 57.52 53.56 L 58.32 52.77 L 59.90 52.77 L 60.69 51.98 L 63.86 51.98 L 64.65 52.77 L 67.03 53.56 L 68.61 55.15 L 68.61 55.94 L 70.20 58.32 L 70.20 66.24 L 69.41 67.03 L 69.41 67.82 L 67.03 70.20 L 66.24 70.20 L 65.45 70.99 L 62.28 70.99 L 61.49 70.20 L 60.69 70.20 L 56.73 66.24 L 52.77 66.24 L 50.40 68.61 L 50.40 69.41 L 48.81 70.99 L 48.81 71.78 L 47.23 73.37 L 47.23 74.16 L 45.64 76.53 L 45.64 78.12 L 46.44 78.91 L 46.44 79.70 L 48.81 82.08 L 48.81 82.87 L 52.77 86.04 L 53.56 86.04 L 57.52 88.42 L 59.90 88.42 L 60.69 89.21 L 67.82 89.21 L 68.61 88.42 L 70.99 88.42 L 71.78 87.62 L 75.74 86.04 L 82.08 79.70 L 82.08 78.91 L 83.66 77.33 L 83.66 75.74 L 84.46 74.95 L 84.46 74.16 L 85.25 73.37 L 85.25 71.78 L 86.04 70.99 L 86.04 67.82 L 86.83 67.03 L 86.83 57.52 L 86.04 56.73 L 86.04 53.56 L 85.25 52.77 L 85.25 50.40 L 84.46 49.60 L 82.87 45.64 L 81.29 44.06 L 81.29 43.27 L 77.33 39.31 L 76.53 39.31 L 74.95 37.72 L 74.16 37.72 L 73.37 36.93 L 71.78 36.93 L 70.99 36.14 L 68.61 36.14 L 67.82 35.35 L 63.86 35.35 L 63.07 34.55 L 63.07 28.22 L 63.86 27.43 L 74.95 27.43 L 75.74 26.63 L 82.08 26.63 L 82.87 25.84 L 82.87 25.05 L 83.66 24.26 L 83.66 13.17 L 82.87 12.38 L 82.87 11.58 Z M 79.70 13.17 L 80.50 13.96 L 80.50 17.13 L 81.29 17.92 L 81.29 19.50 L 80.50 20.30 L 80.50 22.67 L 79.70 23.47 L 72.57 23.47 L 71.78 24.26 L 61.49 24.26 L 59.90 26.63 L 59.90 33.76 L 60.69 34.55 L 60.69 38.51 L 67.03 38.51 L 67.82 39.31 L 70.20 39.31 L 70.99 40.10 L 71.78 40.10 L 72.57 40.89 L 74.95 41.68 L 78.91 45.64 L 78.91 46.44 L 80.50 48.02 L 80.50 48.81 L 82.08 51.19 L 82.08 52.77 L 82.87 53.56 L 82.87 55.94 L 83.66 56.73 L 83.66 67.82 L 82.87 68.61 L 82.87 70.99 L 82.08 71.78 L 82.08 73.37 L 81.29 74.16 L 81.29 74.95 L 79.70 76.53 L 79.70 77.33 L 73.37 83.66 L 72.57 83.66 L 70.20 85.25 L 68.61 85.25 L 67.82 86.04 L 59.90 86.04 L 59.11 85.25 L 57.52 85.25 L 56.73 84.46 L 55.94 84.46 L 54.36 82.87 L 53.56 82.87 L 50.40 79.70 L 50.40 78.91 L 49.60 78.12 L 49.60 75.74 L 51.19 74.16 L 51.19 73.37 L 54.36 69.41 L 55.15 69.41 L 58.32 72.57 L 59.11 72.57 L 59.90 73.37 L 61.49 73.37 L 62.28 74.16 L 66.24 74.16 L 67.03 73.37 L 69.41 72.57 L 72.57 68.61 L 72.57 67.03 L 73.37 66.24 L 73.37 58.32 L 72.57 57.52 L 72.57 55.94 L 71.78 55.15 L 71.78 54.36 L 69.41 51.98 L 69.41 51.19 L 68.61 51.19 L 67.03 49.60 L 65.45 49.60 L 64.65 48.81 L 59.90 48.81 L 59.11 49.60 L 57.52 49.60 L 56.73 50.40 L 54.36 50.40 L 51.98 48.81 L 51.98 48.02 L 51.19 47.23 L 51.19 14.75 L 51.98 13.96 L 67.03 13.96 L 67.82 13.17 Z M 26.63 10.00 L 25.84 10.79 L 25.05 10.79 L 25.05 11.58 L 24.26 12.38 L 24.26 13.17 L 23.47 13.96 L 23.47 14.75 L 22.67 15.54 L 22.67 16.34 L 21.88 17.13 L 21.88 17.92 L 20.30 19.50 L 20.30 20.30 L 18.71 21.88 L 18.71 22.67 L 16.34 25.05 L 16.34 25.84 L 13.17 29.01 L 13.17 29.80 L 12.38 30.59 L 12.38 32.97 L 13.17 33.76 L 13.17 34.55 L 17.92 39.31 L 18.71 39.31 L 19.50 40.10 L 22.67 40.10 L 23.47 39.31 L 24.26 39.31 L 25.05 40.10 L 25.05 51.19 L 24.26 51.98 L 24.26 78.91 L 23.47 79.70 L 23.47 85.25 L 24.26 86.04 L 24.26 86.83 L 25.84 88.42 L 27.43 88.42 L 28.22 89.21 L 38.51 89.21 L 39.31 88.42 L 40.10 88.42 L 41.68 86.83 L 41.68 83.66 L 42.48 82.87 L 42.48 70.99 L 41.68 70.20 L 41.68 12.38 L 39.31 10.00 Z M 28.22 13.17 L 37.72 13.17 L 38.51 13.96 L 38.51 22.67 L 39.31 23.47 L 39.31 32.97 L 38.51 33.76 L 38.51 61.49 L 39.31 62.28 L 39.31 83.66 L 38.51 84.46 L 38.51 85.25 L 37.72 86.04 L 28.22 86.04 L 26.63 84.46 L 26.63 76.53 L 27.43 75.74 L 27.43 50.40 L 28.22 49.60 L 28.22 32.97 L 27.43 32.18 L 26.63 32.18 L 21.88 36.93 L 20.30 36.93 L 15.54 32.18 L 15.54 31.39 L 17.13 29.80 L 17.13 29.01 L 20.30 25.84 L 20.30 25.05 L 21.88 23.47 L 21.88 22.67 L 23.47 21.09 L 23.47 20.30 L 25.05 18.71 L 25.05 17.92 L 25.84 17.13 L 25.84 16.34 L 26.63 15.54 L 26.63 14.75 Z " fill="black" fill-rule="evenodd" stroke="none"/>
</svg>