<svg xmlns="http://www.w3.org/2000/svg" width="100" height="100" viewBox="0 0 100 100">
  <path d="M 25.69 10.78 L 23.33 13.14 L 23.33 13.92 L 22.55 14.71 L 22.55 15.49 L 21.76 16.27 L 21.76 17.06 L 20.98 17.84 L 20.98 18.63 L 19.41 20.20 L 19.41 20.98 L 17.84 22.55 L 17.84 23.33 L 15.49 25.69 L 15.49 26.47 L 12.35 29.61 L 12.35 30.39 L 11.57 31.18 L 11.57 33.53 L 12.35 34.31 L 12.35 35.10 L 17.06 39.80 L 17.84 39.80 L 18.63 40.59 L 19.41 40.59 L 20.20 41.37 L 20.98 40.59 L 22.55 40.59 L 23.33 39.80 L 24.12 40.59 L 24.12 54.71 L 23.33 55.49 L 23.33 75.88 L 22.55 76.67 L 22.55 84.51 L 23.33 85.29 L 23.33 86.86 L 24.90 88.43 L 26.47 88.43 L 27.25 89.22 L 37.45 89.22 L 38.24 88.43 L 39.02 88.43 L 40.59 86.86 L 40.59 84.51 L 41.37 83.73 L 41.37 56.27 L 40.59 55.49 L 40.59 44.51 L 41.37 43.73 L 41.37 16.27 L 40.59 15.49 L 40.59 12.35 L 39.80 11.57 L 39.02 11.57 L 38.24 10.78 Z M 27.25 13.92 L 36.67 13.92 L 38.24 15.49 L 38.24 85.29 L 37.45 86.08 L 27.25 86.08 L 25.69 84.51 L 25.69 70.39 L 26.47 69.61 L 26.47 48.43 L 27.25 47.65 L 27.25 33.53 L 26.47 32.75 L 22.55 36.67 L 21.76 36.67 L 20.98 37.45 L 19.41 37.45 L 14.71 32.75 L 14.71 31.96 L 17.06 29.61 L 17.06 28.82 L 20.20 25.69 L 20.20 24.90 L 21.76 23.33 L 21.76 22.55 L 23.33 20.98 L 23.33 20.20 L 24.12 19.41 L 24.12 18.63 L 24.90 17.84 L 24.90 17.06 L 25.69 16.27 L 25.69 15.49 Z M 76.67 10.00 L 72.75 10.00 L 71.96 10.78 L 70.39 10.78 L 69.61 11.57 L 68.04 11.57 L 67.25 12.35 L 66.47 12.35 L 64.90 13.92 L 64.12 13.92 L 61.76 16.27 L 60.98 16.27 L 57.84 19.41 L 57.84 20.20 L 54.71 23.33 L 54.71 24.12 L 53.92 24.90 L 53.92 25.69 L 52.35 27.25 L 52.35 28.04 L 51.57 28.82 L 51.57 29.61 L 50.00 31.96 L 50.00 33.53 L 49.22 34.31 L 49.22 35.88 L 48.43 36.67 L 48.43 38.24 L 47.65 39.02 L 47.65 40.59 L 46.86 41.37 L 46.86 44.51 L 46.08 45.29 L 46.08 50.00 L 45.29 50.78 L 45.29 63.33 L 46.08 64.12 L 46.08 68.04 L 46.86 68.82 L 46.86 71.18 L 47.65 71.96 L 47.65 73.53 L 48.43 74.31 L 48.43 75.88 L 49.22 76.67 L 49.22 77.45 L 50.00 78.24 L 50.00 79.02 L 51.57 80.59 L 51.57 81.37 L 56.27 86.08 L 57.06 86.08 L 58.63 87.65 L 59.41 87.65 L 60.20 88.43 L 61.76 88.43 L 62.55 89.22 L 72.75 89.22 L 73.53 88.43 L 75.10 88.43 L 75.88 87.65 L 76.67 87.65 L 77.45 86.86 L 78.24 86.86 L 83.73 81.37 L 83.73 80.59 L 84.51 79.80 L 84.51 79.02 L 86.08 76.67 L 86.08 75.10 L 86.86 74.31 L 86.86 71.96 L 87.65 71.18 L 87.65 59.41 L 86.86 58.63 L 86.86 56.27 L 86.08 55.49 L 86.08 53.92 L 85.29 53.14 L 85.29 52.35 L 84.51 51.57 L 84.51 50.78 L 82.16 48.43 L 82.16 47.65 L 81.37 46.86 L 80.59 46.86 L 78.24 44.51 L 77.45 44.51 L 76.67 43.73 L 75.10 43.73 L 74.31 42.94 L 71.18 42.94 L 70.39 42.16 L 68.82 42.16 L 68.04 42.94 L 65.69 42.94 L 64.90 43.73 L 64.12 43.73 L 63.33 42.94 L 63.33 41.37 L 64.12 40.59 L 64.12 39.02 L 64.90 38.24 L 64.90 37.45 L 65.69 36.67 L 65.69 35.88 L 66.47 35.10 L 66.47 34.31 L 71.18 29.61 L 71.96 29.61 L 73.53 28.04 L 74.31 28.04 L 76.67 26.47 L 78.24 26.47 L 79.02 25.69 L 79.80 25.69 L 81.37 24.12 L 81.37 20.98 L 80.59 20.20 L 80.59 17.84 L 79.80 17.06 L 79.80 15.49 L 79.02 14.71 L 79.02 13.14 L 78.24 12.35 L 78.24 11.57 Z M 75.10 13.14 L 75.88 13.92 L 75.88 15.49 L 77.45 17.84 L 77.45 20.20 L 78.24 20.98 L 78.24 22.55 L 77.45 23.33 L 75.88 23.33 L 75.10 24.12 L 74.31 24.12 L 73.53 24.90 L 72.75 24.90 L 71.96 25.69 L 71.18 25.69 L 69.61 27.25 L 68.82 27.25 L 65.69 30.39 L 65.69 31.18 L 63.33 33.53 L 63.33 34.31 L 62.55 35.10 L 62.55 35.88 L 60.98 38.24 L 60.98 39.80 L 60.20 40.59 L 60.20 42.16 L 59.41 42.94 L 59.41 46.86 L 58.63 47.65 L 59.41 48.43 L 59.41 49.22 L 60.98 49.22 L 62.55 47.65 L 63.33 47.65 L 65.69 46.08 L 68.82 46.08 L 69.61 45.29 L 70.39 45.29 L 71.18 46.08 L 73.53 46.08 L 74.31 46.86 L 75.88 46.86 L 77.45 48.43 L 78.24 48.43 L 80.59 50.78 L 80.59 51.57 L 82.16 53.14 L 82.16 53.92 L 83.73 56.27 L 83.73 58.63 L 84.51 59.41 L 84.51 71.18 L 83.73 71.96 L 83.73 74.31 L 82.94 75.10 L 82.94 75.88 L 82.16 76.67 L 82.16 77.45 L 81.37 78.24 L 81.37 79.02 L 79.02 81.37 L 79.02 82.16 L 78.24 82.94 L 77.45 82.94 L 75.88 84.51 L 75.10 84.51 L 72.75 86.08 L 62.55 86.08 L 61.76 85.29 L 60.98 85.29 L 60.20 84.51 L 59.41 84.51 L 53.14 78.24 L 53.14 77.45 L 52.35 76.67 L 52.35 75.88 L 50.78 73.53 L 50.78 71.96 L 50.00 71.18 L 50.00 68.82 L 49.22 68.04 L 49.22 62.55 L 48.43 61.76 L 48.43 52.35 L 49.22 51.57 L 49.22 46.08 L 50.00 45.29 L 50.00 42.16 L 50.78 41.37 L 50.78 39.02 L 51.57 38.24 L 51.57 36.67 L 52.35 35.88 L 52.35 34.31 L 53.14 33.53 L 53.14 32.75 L 53.92 31.96 L 53.92 31.18 L 54.71 30.39 L 54.71 29.61 L 55.49 28.82 L 55.49 28.04 L 57.06 26.47 L 57.06 25.69 L 60.20 22.55 L 60.20 21.76 L 63.33 18.63 L 64.12 18.63 L 66.47 16.27 L 67.25 16.27 L 68.04 15.49 L 68.82 15.49 L 71.18 13.92 L 72.75 13.92 L 73.53 13.14 Z M 65.69 55.49 L 64.90 56.27 L 64.12 56.27 L 61.76 58.63 L 61.76 59.41 L 60.98 60.20 L 60.98 60.98 L 60.20 61.76 L 60.20 68.82 L 60.98 69.61 L 60.98 71.18 L 61.76 71.96 L 61.76 72.75 L 64.90 75.88 L 66.47 75.88 L 67.25 76.67 L 68.82 76.67 L 69.61 75.88 L 71.18 75.88 L 72.75 74.31 L 73.53 74.31 L 73.53 73.53 L 75.10 71.96 L 75.10 70.39 L 75.88 69.61 L 75.88 62.55 L 75.10 61.76 L 75.10 60.20 L 74.31 59.41 L 74.31 58.63 L 71.96 56.27 L 71.18 56.27 L 70.39 55.49 Z M 66.47 58.63 L 69.61 58.63 L 71.96 60.98 L 71.96 61.76 L 72.75 62.55 L 72.75 69.61 L 71.96 70.39 L 71.96 71.18 L 71.18 71.96 L 70.39 71.96 L 69.61 72.75 L 68.82 72.75 L 68.04 73.53 L 67.25 72.75 L 66.47 72.75 L 64.12 70.39 L 64.12 68.82 L 63.33 68.04 L 63.33 62.55 L 64.12 61.76 L 64.12 60.98 Z " fill="black" fill-rule="evenodd" stroke="none"/>
</svg>