<svg xmlns="http://www.w3.org/2000/svg" width="100" height="100" viewBox="0 0 100 100">
  <path d="M 83.27 10.00 L 69.01 10.00 L 68.22 10.79 L 49.21 10.79 L 46.83 12.38 L 46.83 26.63 L 49.21 29.01 L 61.88 29.01 L 62.67 28.22 L 67.43 28.22 L 68.22 29.01 L 68.22 30.59 L 67.43 31.39 L 67.43 32.97 L 65.84 35.35 L 65.84 36.93 L 65.05 37.72 L 65.05 39.31 L 64.26 40.10 L 64.26 41.68 L 63.47 42.48 L 63.47 44.06 L 62.67 44.85 L 62.67 46.44 L 61.09 48.81 L 61.09 51.19 L 60.30 51.98 L 60.30 53.56 L 59.50 54.36 L 59.50 55.94 L 58.71 56.73 L 58.71 58.32 L 57.92 59.11 L 57.92 60.69 L 57.13 61.49 L 57.13 63.86 L 56.34 64.65 L 56.34 66.24 L 55.54 67.03 L 55.54 69.41 L 54.75 70.20 L 54.75 71.78 L 53.96 72.57 L 53.96 74.95 L 53.17 75.74 L 53.17 78.12 L 52.38 78.91 L 52.38 81.29 L 51.58 82.08 L 51.58 86.04 L 53.17 87.62 L 53.96 87.62 L 54.75 88.42 L 60.30 88.42 L 61.09 89.21 L 66.63 89.21 L 67.43 88.42 L 68.22 88.42 L 69.80 86.04 L 69.80 83.66 L 70.59 82.87 L 70.59 80.50 L 71.39 79.70 L 71.39 76.53 L 72.18 75.74 L 72.18 72.57 L 72.97 71.78 L 72.97 69.41 L 73.76 68.61 L 73.76 66.24 L 74.55 65.45 L 74.55 63.07 L 75.35 62.28 L 75.35 59.90 L 76.14 59.11 L 76.14 56.73 L 76.93 55.94 L 76.93 53.56 L 77.72 52.77 L 77.72 51.19 L 78.51 50.40 L 78.51 48.02 L 79.31 47.23 L 79.31 45.64 L 80.10 44.85 L 80.10 43.27 L 80.89 42.48 L 80.89 40.89 L 81.68 40.10 L 81.68 38.51 L 82.48 37.72 L 82.48 36.14 L 83.27 35.35 L 83.27 33.76 L 84.85 31.39 L 84.85 29.80 L 85.64 29.01 L 85.64 27.43 L 86.44 26.63 L 86.44 13.17 L 85.64 12.38 L 85.64 11.58 Z M 82.48 13.17 L 83.27 13.96 L 83.27 26.63 L 82.48 27.43 L 82.48 29.01 L 81.68 29.80 L 81.68 31.39 L 80.10 33.76 L 80.10 35.35 L 79.31 36.14 L 79.31 37.72 L 77.72 40.10 L 77.72 42.48 L 76.93 43.27 L 76.93 44.85 L 76.14 45.64 L 76.14 47.23 L 75.35 48.02 L 75.35 50.40 L 74.55 51.19 L 74.55 52.77 L 73.76 53.56 L 73.76 55.94 L 72.97 56.73 L 72.97 58.32 L 72.18 59.11 L 72.18 61.49 L 71.39 62.28 L 71.39 64.65 L 70.59 65.45 L 70.59 68.61 L 69.80 69.41 L 69.80 71.78 L 69.01 72.57 L 69.01 75.74 L 68.22 76.53 L 68.22 78.91 L 67.43 79.70 L 67.43 82.87 L 66.63 83.66 L 66.63 85.25 L 65.84 86.04 L 59.50 86.04 L 58.71 85.25 L 55.54 85.25 L 54.75 84.46 L 54.75 82.87 L 55.54 82.08 L 55.54 78.91 L 56.34 78.12 L 56.34 75.74 L 57.13 74.95 L 57.13 73.37 L 57.92 72.57 L 57.92 70.20 L 58.71 69.41 L 58.71 67.82 L 59.50 67.03 L 59.50 64.65 L 60.30 63.86 L 60.30 62.28 L 61.09 61.49 L 61.09 59.90 L 61.88 59.11 L 61.88 56.73 L 62.67 55.94 L 62.67 54.36 L 63.47 53.56 L 63.47 51.98 L 64.26 51.19 L 64.26 49.60 L 65.05 48.81 L 65.05 47.23 L 65.84 46.44 L 65.84 44.85 L 66.63 44.06 L 66.63 42.48 L 67.43 41.68 L 67.43 40.10 L 68.22 39.31 L 68.22 37.72 L 69.80 35.35 L 69.80 33.76 L 70.59 32.97 L 70.59 31.39 L 71.39 30.59 L 71.39 29.01 L 72.18 28.22 L 72.18 25.84 L 50.00 25.84 L 49.21 25.05 L 49.21 14.75 L 50.00 13.96 L 67.43 13.96 L 68.22 13.17 Z M 27.82 10.00 L 27.03 10.79 L 26.24 10.79 L 25.45 11.58 L 25.45 12.38 L 23.86 13.96 L 23.86 15.54 L 22.28 17.13 L 22.28 17.92 L 21.49 18.71 L 21.49 19.50 L 19.90 21.09 L 19.90 21.88 L 17.52 24.26 L 17.52 25.05 L 14.36 28.22 L 14.36 29.01 L 13.56 29.80 L 13.56 30.59 L 12.77 31.39 L 12.77 32.18 L 13.56 32.97 L 13.56 33.76 L 19.90 40.10 L 23.86 40.10 L 24.65 39.31 L 25.45 40.10 L 25.45 59.11 L 24.65 59.90 L 24.65 86.83 L 26.24 88.42 L 27.82 88.42 L 28.61 89.21 L 38.91 89.21 L 39.70 88.42 L 41.29 88.42 L 42.08 87.62 L 42.08 86.83 L 42.87 86.04 L 42.87 13.17 L 42.08 12.38 L 42.08 11.58 L 41.29 10.79 L 40.50 10.79 L 39.70 10.00 Z M 28.61 13.17 L 38.91 13.17 L 39.70 13.96 L 39.70 85.25 L 38.91 86.04 L 28.61 86.04 L 27.82 85.25 L 27.82 57.52 L 28.61 56.73 L 28.61 32.97 L 27.82 32.18 L 24.65 35.35 L 23.86 35.35 L 22.28 36.93 L 20.69 36.93 L 16.73 32.97 L 16.73 32.18 L 15.94 31.39 L 19.11 28.22 L 19.11 27.43 L 21.49 25.05 L 21.49 24.26 L 23.07 22.67 L 23.07 21.88 L 24.65 20.30 L 24.65 19.50 L 25.45 18.71 L 25.45 17.92 L 26.24 17.13 L 26.24 16.34 L 27.82 14.75 L 27.82 13.96 Z " fill="black" fill-rule="evenodd" stroke="none"/>
</svg>