<svg xmlns="http://www.w3.org/2000/svg" width="100" height="100" viewBox="0 0 100 100">
  <path d="M 26.31 10.78 L 25.53 11.55 L 24.76 11.55 L 23.98 12.33 L 23.98 13.11 L 23.20 13.88 L 23.20 14.66 L 22.43 15.44 L 22.43 16.21 L 21.65 16.99 L 21.65 17.77 L 20.87 18.54 L 20.87 19.32 L 19.32 20.87 L 19.32 21.65 L 17.77 23.20 L 17.77 23.98 L 13.88 27.86 L 13.88 28.64 L 12.33 30.19 L 12.33 34.08 L 18.54 40.29 L 19.32 40.29 L 20.10 41.07 L 20.87 41.07 L 21.65 40.29 L 22.43 40.29 L 23.20 39.51 L 23.98 39.51 L 24.76 40.29 L 24.76 42.62 L 23.98 43.40 L 23.98 65.92 L 23.20 66.70 L 23.20 85.34 L 23.98 86.12 L 23.98 86.89 L 24.76 87.67 L 26.31 87.67 L 27.09 88.45 L 37.96 88.45 L 38.74 87.67 L 39.51 87.67 L 41.07 86.12 L 41.07 13.88 L 40.29 13.11 L 40.29 12.33 L 39.51 11.55 L 37.96 11.55 L 37.18 10.78 Z M 27.09 13.88 L 37.18 13.88 L 37.96 14.66 L 37.96 84.56 L 37.18 85.34 L 27.09 85.34 L 26.31 84.56 L 26.31 65.15 L 27.09 64.37 L 27.09 44.95 L 27.86 44.17 L 27.86 34.08 L 27.09 33.30 L 25.53 33.30 L 21.65 37.18 L 20.10 37.18 L 18.54 35.63 L 17.77 35.63 L 16.99 34.85 L 16.99 34.08 L 15.44 32.52 L 15.44 30.97 L 18.54 27.86 L 18.54 27.09 L 21.65 23.98 L 21.65 23.20 L 22.43 22.43 L 22.43 21.65 L 23.98 20.10 L 23.98 19.32 L 24.76 18.54 L 24.76 17.77 L 25.53 16.99 L 25.53 16.21 L 26.31 15.44 L 26.31 14.66 Z M 60.49 10.00 L 59.71 10.78 L 58.93 10.78 L 58.16 11.55 L 57.38 11.55 L 56.60 12.33 L 55.83 12.33 L 51.17 16.99 L 51.17 17.77 L 49.61 19.32 L 49.61 20.87 L 48.83 21.65 L 48.83 23.20 L 48.06 23.98 L 48.06 33.30 L 48.83 34.08 L 48.83 36.41 L 49.61 37.18 L 49.61 38.74 L 50.39 39.51 L 50.39 40.29 L 51.17 41.07 L 51.17 41.84 L 52.72 43.40 L 52.72 44.17 L 53.50 44.95 L 53.50 45.73 L 51.17 48.06 L 51.17 48.83 L 49.61 50.39 L 49.61 51.17 L 48.06 52.72 L 48.06 53.50 L 46.50 55.83 L 46.50 58.16 L 45.73 58.93 L 45.73 62.04 L 44.95 62.82 L 44.95 69.81 L 45.73 70.58 L 45.73 72.91 L 46.50 73.69 L 46.50 76.02 L 47.28 76.80 L 47.28 77.57 L 48.06 78.35 L 48.06 79.13 L 49.61 80.68 L 49.61 81.46 L 53.50 85.34 L 54.27 85.34 L 55.83 86.89 L 56.60 86.89 L 57.38 87.67 L 58.93 87.67 L 59.71 88.45 L 61.26 88.45 L 62.04 89.22 L 69.03 89.22 L 69.81 88.45 L 71.36 88.45 L 72.14 87.67 L 73.69 87.67 L 74.47 86.89 L 75.24 86.89 L 76.02 86.12 L 76.80 86.12 L 79.13 83.79 L 79.90 83.79 L 81.46 82.23 L 81.46 81.46 L 83.79 79.13 L 83.79 78.35 L 85.34 76.02 L 85.34 73.69 L 86.12 72.91 L 86.12 70.58 L 86.89 69.81 L 86.89 62.82 L 86.12 62.04 L 86.12 58.93 L 85.34 58.16 L 85.34 56.60 L 84.56 55.83 L 84.56 54.27 L 83.79 53.50 L 83.79 52.72 L 82.23 51.17 L 82.23 50.39 L 80.68 48.83 L 80.68 48.06 L 77.57 44.95 L 77.57 44.17 L 79.90 41.84 L 79.90 41.07 L 80.68 40.29 L 80.68 39.51 L 82.23 37.18 L 82.23 35.63 L 83.01 34.85 L 83.01 31.75 L 83.79 30.97 L 83.79 26.31 L 83.01 25.53 L 83.01 23.20 L 82.23 22.43 L 82.23 20.10 L 81.46 19.32 L 81.46 18.54 L 79.90 16.99 L 79.90 16.21 L 76.80 13.11 L 76.02 13.11 L 74.47 11.55 L 73.69 11.55 L 72.91 10.78 L 71.36 10.78 L 70.58 10.00 Z M 64.37 12.33 L 66.70 12.33 L 67.48 13.11 L 70.58 13.11 L 71.36 13.88 L 72.14 13.88 L 72.91 14.66 L 73.69 14.66 L 77.57 18.54 L 77.57 19.32 L 78.35 20.10 L 78.35 20.87 L 79.13 21.65 L 79.13 22.43 L 79.90 23.20 L 79.90 26.31 L 80.68 27.09 L 80.68 30.97 L 79.90 31.75 L 79.90 34.85 L 79.13 35.63 L 79.13 36.41 L 78.35 37.18 L 78.35 37.96 L 77.57 38.74 L 77.57 39.51 L 74.47 42.62 L 74.47 43.40 L 72.91 44.95 L 78.35 50.39 L 78.35 51.17 L 79.90 52.72 L 79.90 53.50 L 81.46 55.05 L 81.46 56.60 L 82.23 57.38 L 82.23 58.93 L 83.01 59.71 L 83.01 62.82 L 83.79 63.59 L 83.79 69.03 L 83.01 69.81 L 83.01 72.91 L 82.23 73.69 L 82.23 74.47 L 81.46 75.24 L 81.46 76.80 L 75.24 83.01 L 74.47 83.01 L 72.91 84.56 L 71.36 84.56 L 70.58 85.34 L 69.03 85.34 L 68.25 86.12 L 62.82 86.12 L 62.04 85.34 L 59.71 85.34 L 58.93 84.56 L 58.16 84.56 L 56.60 83.01 L 55.83 83.01 L 51.94 79.13 L 51.94 78.35 L 50.39 76.80 L 50.39 76.02 L 49.61 75.24 L 49.61 73.69 L 48.83 72.91 L 48.83 70.58 L 48.06 69.81 L 48.06 62.82 L 48.83 62.04 L 48.83 58.93 L 49.61 58.16 L 49.61 57.38 L 50.39 56.60 L 50.39 55.05 L 51.94 53.50 L 51.94 52.72 L 53.50 51.17 L 53.50 50.39 L 56.60 47.28 L 56.60 46.50 L 57.38 45.73 L 57.38 44.95 L 56.60 44.17 L 56.60 43.40 L 55.05 41.84 L 55.05 41.07 L 53.50 39.51 L 53.50 38.74 L 52.72 37.96 L 52.72 36.41 L 51.94 35.63 L 51.94 34.08 L 51.17 33.30 L 51.17 24.76 L 51.94 23.98 L 51.94 22.43 L 52.72 21.65 L 52.72 20.10 L 55.05 17.77 L 55.05 16.99 L 56.60 15.44 L 57.38 15.44 L 58.93 13.88 L 60.49 13.88 L 61.26 13.11 L 63.59 13.11 Z M 63.59 53.50 L 62.82 54.27 L 62.04 54.27 L 61.26 55.05 L 61.26 55.83 L 59.71 57.38 L 59.71 58.16 L 58.93 58.93 L 58.93 60.49 L 58.16 61.26 L 58.16 69.81 L 58.93 70.58 L 58.93 71.36 L 59.71 72.14 L 59.71 72.91 L 62.04 75.24 L 62.82 75.24 L 63.59 76.02 L 67.48 76.02 L 68.25 75.24 L 69.03 75.24 L 72.14 72.14 L 72.14 71.36 L 72.91 70.58 L 72.91 69.03 L 73.69 68.25 L 73.69 62.04 L 72.91 61.26 L 72.91 59.71 L 72.14 58.93 L 72.14 58.16 L 70.58 56.60 L 70.58 55.83 L 69.81 55.05 L 69.03 55.05 L 67.48 53.50 Z M 65.15 56.60 L 66.70 56.60 L 69.03 58.93 L 69.03 59.71 L 69.81 60.49 L 69.81 62.04 L 70.58 62.82 L 70.58 67.48 L 69.81 68.25 L 69.81 69.81 L 67.48 72.14 L 66.70 72.14 L 65.92 72.91 L 65.15 72.91 L 64.37 72.14 L 63.59 72.14 L 62.04 70.58 L 62.04 69.81 L 61.26 69.03 L 61.26 62.04 L 62.04 61.26 L 62.04 59.71 Z M 64.37 20.87 L 63.59 21.65 L 62.82 21.65 L 60.49 23.98 L 60.49 24.76 L 59.71 25.53 L 59.71 32.52 L 60.49 33.30 L 60.49 34.85 L 62.04 36.41 L 62.04 37.18 L 62.82 37.18 L 63.59 37.96 L 67.48 37.96 L 68.25 37.18 L 69.03 37.18 L 69.03 36.41 L 70.58 34.85 L 70.58 34.08 L 71.36 33.30 L 71.36 31.75 L 72.14 30.97 L 72.14 27.86 L 71.36 27.09 L 71.36 25.53 L 70.58 24.76 L 70.58 23.98 L 68.25 21.65 L 66.70 21.65 L 65.92 20.87 Z M 65.15 23.98 L 65.92 24.76 L 66.70 24.76 L 68.25 26.31 L 68.25 27.09 L 69.03 27.86 L 69.03 30.19 L 68.25 30.97 L 68.25 32.52 L 65.92 34.85 L 65.15 34.85 L 63.59 33.30 L 63.59 32.52 L 62.82 31.75 L 62.82 26.31 Z " fill="black" fill-rule="evenodd" stroke="none"/>
</svg>