<svg xmlns="http://www.w3.org/2000/svg" width="100" height="100" viewBox="0 0 100 100">
  <path d="M 26.47 10.78 L 25.69 11.57 L 24.90 11.57 L 23.33 13.14 L 23.33 13.92 L 22.55 14.71 L 22.55 15.49 L 21.76 16.27 L 21.76 17.06 L 20.98 17.84 L 20.98 18.63 L 20.20 19.41 L 20.20 20.20 L 18.63 21.76 L 18.63 22.55 L 16.27 24.90 L 16.27 25.69 L 13.14 28.82 L 13.14 29.61 L 12.35 30.39 L 12.35 31.18 L 11.57 31.96 L 12.35 32.75 L 12.35 34.31 L 18.63 40.59 L 22.55 40.59 L 23.33 39.80 L 24.12 40.59 L 24.12 60.98 L 23.33 61.76 L 23.33 86.86 L 24.90 88.43 L 25.69 88.43 L 26.47 89.22 L 37.45 89.22 L 38.24 88.43 L 39.80 88.43 L 40.59 87.65 L 40.59 86.86 L 41.37 86.08 L 41.37 13.92 L 40.59 13.14 L 40.59 12.35 L 39.80 11.57 L 38.24 11.57 L 37.45 10.78 Z M 27.25 13.92 L 37.45 13.92 L 38.24 14.71 L 38.24 85.29 L 37.45 86.08 L 27.25 86.08 L 26.47 85.29 L 26.47 60.98 L 27.25 60.20 L 27.25 36.67 L 28.04 35.88 L 28.04 35.10 L 27.25 34.31 L 27.25 33.53 L 26.47 32.75 L 22.55 36.67 L 21.76 36.67 L 20.98 37.45 L 19.41 37.45 L 15.49 33.53 L 15.49 31.18 L 17.84 28.82 L 17.84 28.04 L 20.20 25.69 L 20.20 24.90 L 21.76 23.33 L 21.76 22.55 L 23.33 20.98 L 23.33 20.20 L 24.12 19.41 L 24.12 18.63 L 24.90 17.84 L 24.90 17.06 L 25.69 16.27 L 25.69 15.49 Z M 68.82 10.00 L 62.55 10.00 L 61.76 10.78 L 59.41 10.78 L 58.63 11.57 L 57.84 11.57 L 57.06 12.35 L 56.27 12.35 L 55.49 13.14 L 54.71 13.14 L 50.00 17.84 L 50.00 18.63 L 49.22 19.41 L 49.22 20.20 L 47.65 21.76 L 47.65 23.33 L 46.86 24.12 L 46.86 25.69 L 46.08 26.47 L 46.08 28.82 L 45.29 29.61 L 45.29 39.02 L 46.08 39.80 L 46.08 42.94 L 46.86 43.73 L 46.86 45.29 L 47.65 46.08 L 47.65 46.86 L 48.43 47.65 L 48.43 48.43 L 49.22 49.22 L 49.22 50.00 L 53.92 54.71 L 54.71 54.71 L 56.27 56.27 L 57.84 56.27 L 58.63 57.06 L 60.98 57.06 L 61.76 57.84 L 65.69 57.84 L 66.47 57.06 L 68.04 57.06 L 68.82 57.84 L 68.04 58.63 L 68.04 59.41 L 67.25 60.20 L 67.25 60.98 L 66.47 61.76 L 66.47 62.55 L 65.69 63.33 L 65.69 64.12 L 64.12 65.69 L 64.12 66.47 L 60.98 69.61 L 60.20 69.61 L 58.63 71.18 L 57.84 71.18 L 57.06 71.96 L 56.27 71.96 L 53.92 73.53 L 52.35 73.53 L 50.78 75.10 L 50.78 79.02 L 52.35 81.37 L 52.35 83.73 L 53.14 84.51 L 53.14 86.08 L 53.92 86.86 L 53.92 87.65 L 56.27 89.22 L 59.41 89.22 L 60.20 88.43 L 61.76 88.43 L 62.55 87.65 L 63.33 87.65 L 64.12 86.86 L 64.90 86.86 L 65.69 86.08 L 66.47 86.08 L 67.25 85.29 L 68.04 85.29 L 70.39 82.94 L 71.18 82.94 L 75.10 79.02 L 75.10 78.24 L 77.45 75.88 L 77.45 75.10 L 79.02 73.53 L 79.02 72.75 L 79.80 71.96 L 79.80 71.18 L 80.59 70.39 L 80.59 69.61 L 81.37 68.82 L 81.37 68.04 L 82.94 65.69 L 82.94 64.12 L 83.73 63.33 L 83.73 61.76 L 84.51 60.98 L 84.51 59.41 L 85.29 58.63 L 85.29 56.27 L 86.08 55.49 L 86.08 52.35 L 86.86 51.57 L 86.86 42.94 L 87.65 42.16 L 87.65 38.24 L 86.86 37.45 L 86.86 30.39 L 86.08 29.61 L 86.08 27.25 L 85.29 26.47 L 85.29 24.90 L 84.51 24.12 L 84.51 22.55 L 83.73 21.76 L 83.73 20.98 L 82.94 20.20 L 82.94 19.41 L 80.59 17.06 L 80.59 16.27 L 79.02 14.71 L 78.24 14.71 L 76.67 13.14 L 75.88 13.14 L 74.31 11.57 L 72.75 11.57 L 71.96 10.78 L 69.61 10.78 Z M 69.61 13.14 L 70.39 13.92 L 71.96 13.92 L 72.75 14.71 L 73.53 14.71 L 75.10 16.27 L 75.88 16.27 L 79.02 19.41 L 79.02 20.20 L 80.59 21.76 L 80.59 22.55 L 81.37 23.33 L 81.37 24.90 L 82.94 27.25 L 82.94 30.39 L 83.73 31.18 L 83.73 35.88 L 84.51 36.67 L 84.51 43.73 L 83.73 44.51 L 83.73 50.00 L 82.94 50.78 L 82.94 54.71 L 82.16 55.49 L 82.16 57.84 L 81.37 58.63 L 81.37 60.98 L 79.80 63.33 L 79.80 64.90 L 79.02 65.69 L 79.02 66.47 L 78.24 67.25 L 78.24 68.04 L 77.45 68.82 L 77.45 69.61 L 76.67 70.39 L 76.67 71.18 L 75.10 72.75 L 75.10 73.53 L 71.96 76.67 L 71.96 77.45 L 69.61 79.80 L 68.82 79.80 L 65.69 82.94 L 64.90 82.94 L 64.12 83.73 L 63.33 83.73 L 62.55 84.51 L 61.76 84.51 L 59.41 86.08 L 57.06 86.08 L 56.27 85.29 L 56.27 83.73 L 55.49 82.94 L 55.49 81.37 L 54.71 80.59 L 54.71 79.02 L 53.92 78.24 L 53.92 77.45 L 55.49 75.88 L 56.27 75.88 L 57.06 75.10 L 57.84 75.10 L 58.63 74.31 L 59.41 74.31 L 60.20 73.53 L 60.98 73.53 L 63.33 71.18 L 64.12 71.18 L 65.69 69.61 L 65.69 68.82 L 68.82 65.69 L 68.82 64.90 L 69.61 64.12 L 69.61 63.33 L 71.18 60.98 L 71.18 59.41 L 71.96 58.63 L 71.96 56.27 L 72.75 55.49 L 72.75 51.57 L 71.96 51.57 L 71.18 52.35 L 70.39 52.35 L 68.82 53.92 L 66.47 53.92 L 65.69 54.71 L 61.76 54.71 L 60.98 53.92 L 58.63 53.92 L 57.84 53.14 L 57.06 53.14 L 55.49 51.57 L 54.71 51.57 L 53.92 50.78 L 53.92 50.00 L 51.57 47.65 L 51.57 46.86 L 50.00 44.51 L 50.00 42.94 L 49.22 42.16 L 49.22 39.80 L 48.43 39.02 L 48.43 30.39 L 49.22 29.61 L 49.22 26.47 L 50.78 24.12 L 50.78 22.55 L 52.35 20.98 L 52.35 20.20 L 57.06 15.49 L 57.84 15.49 L 60.20 13.92 L 61.76 13.92 L 62.55 13.14 Z M 62.55 23.33 L 58.63 27.25 L 58.63 28.82 L 57.84 29.61 L 57.84 31.96 L 57.06 32.75 L 57.06 35.88 L 57.84 36.67 L 57.84 39.02 L 58.63 39.80 L 58.63 40.59 L 60.20 42.16 L 60.20 42.94 L 60.98 42.94 L 62.55 44.51 L 68.04 44.51 L 68.82 43.73 L 69.61 43.73 L 71.96 41.37 L 71.96 40.59 L 72.75 39.80 L 72.75 39.02 L 73.53 38.24 L 73.53 30.39 L 72.75 29.61 L 72.75 28.04 L 71.96 27.25 L 71.96 26.47 L 69.61 24.12 L 68.82 24.12 L 68.04 23.33 Z M 64.12 26.47 L 67.25 26.47 L 69.61 28.82 L 69.61 30.39 L 70.39 31.18 L 70.39 37.45 L 69.61 38.24 L 69.61 39.02 L 67.25 41.37 L 64.12 41.37 L 63.33 40.59 L 62.55 40.59 L 61.76 39.80 L 61.76 39.02 L 60.98 38.24 L 60.98 35.88 L 60.20 35.10 L 60.20 32.75 L 60.98 31.96 L 60.98 29.61 Z " fill="black" fill-rule="evenodd" stroke="none"/>
</svg>