<svg xmlns="http://www.w3.org/2000/svg" width="100" height="100" viewBox="0 0 100 100">
  <path d="M 46.04 10.00 L 45.25 10.79 L 43.66 10.79 L 42.87 11.58 L 41.29 11.58 L 40.50 12.38 L 39.70 12.38 L 37.33 14.75 L 36.53 14.75 L 34.95 16.34 L 34.95 17.13 L 32.57 19.50 L 32.57 20.30 L 31.78 21.09 L 31.78 22.67 L 30.20 25.05 L 30.20 27.43 L 29.41 28.22 L 29.41 33.76 L 30.20 34.55 L 30.20 35.35 L 30.99 35.35 L 31.78 36.14 L 33.37 36.14 L 34.16 36.93 L 38.12 36.93 L 38.91 37.72 L 42.08 37.72 L 43.66 36.14 L 43.66 35.35 L 44.46 34.55 L 44.46 32.18 L 45.25 31.39 L 45.25 30.59 L 47.62 28.22 L 50.79 28.22 L 52.38 29.80 L 52.38 31.39 L 53.17 32.18 L 53.17 36.14 L 52.38 36.93 L 52.38 39.31 L 50.79 41.68 L 50.79 43.27 L 50.00 44.06 L 50.00 44.85 L 49.21 45.64 L 48.42 48.02 L 46.83 49.60 L 46.83 50.40 L 45.25 51.98 L 45.25 52.77 L 43.66 54.36 L 43.66 55.15 L 42.08 56.73 L 42.08 57.52 L 39.70 59.90 L 39.70 60.69 L 37.33 63.07 L 37.33 63.86 L 32.57 69.41 L 32.57 70.20 L 30.99 72.57 L 30.99 87.62 L 33.37 89.21 L 66.63 89.21 L 67.43 88.42 L 68.22 88.42 L 69.80 86.04 L 69.80 74.16 L 69.01 73.37 L 69.01 71.78 L 68.22 70.99 L 66.63 70.99 L 65.84 70.20 L 60.30 70.20 L 59.50 70.99 L 52.38 70.99 L 51.58 70.20 L 53.96 67.82 L 53.96 67.03 L 56.34 64.65 L 56.34 63.86 L 58.71 61.49 L 58.71 60.69 L 60.30 59.11 L 61.09 56.73 L 62.67 55.15 L 62.67 54.36 L 63.47 53.56 L 63.47 52.77 L 64.26 51.98 L 64.26 51.19 L 65.05 50.40 L 65.05 49.60 L 67.43 45.64 L 67.43 44.06 L 68.22 43.27 L 68.22 40.89 L 69.01 40.10 L 69.01 35.35 L 69.80 34.55 L 69.80 31.39 L 69.01 30.59 L 69.01 25.84 L 68.22 25.05 L 68.22 23.47 L 67.43 22.67 L 67.43 21.88 L 66.63 21.09 L 65.84 18.71 L 64.26 17.13 L 64.26 16.34 L 61.88 13.96 L 61.09 13.96 L 59.50 12.38 L 58.71 12.38 L 56.34 10.79 L 54.75 10.79 L 53.96 10.00 Z M 43.66 13.96 L 46.04 13.96 L 46.83 13.17 L 53.17 13.17 L 53.96 13.96 L 55.54 13.96 L 56.34 14.75 L 58.71 15.54 L 62.67 19.50 L 62.67 20.30 L 64.26 21.88 L 64.26 22.67 L 65.05 23.47 L 65.05 25.05 L 65.84 25.84 L 65.84 29.80 L 66.63 30.59 L 66.63 35.35 L 65.84 36.14 L 65.84 40.10 L 65.05 40.89 L 65.05 42.48 L 64.26 43.27 L 64.26 44.85 L 63.47 45.64 L 63.47 47.23 L 62.67 48.02 L 62.67 48.81 L 61.09 50.40 L 61.09 51.19 L 60.30 51.98 L 59.50 54.36 L 57.92 55.94 L 57.92 56.73 L 56.34 58.32 L 56.34 59.11 L 53.96 61.49 L 53.96 62.28 L 51.58 64.65 L 51.58 65.45 L 50.00 67.03 L 50.00 67.82 L 48.42 69.41 L 48.42 70.20 L 46.83 72.57 L 47.62 73.37 L 47.62 74.16 L 60.30 74.16 L 61.09 73.37 L 65.05 73.37 L 66.63 74.95 L 66.63 85.25 L 65.84 86.04 L 34.95 86.04 L 33.37 84.46 L 33.37 76.53 L 34.16 75.74 L 34.16 73.37 L 34.95 72.57 L 34.95 71.78 L 37.33 69.41 L 37.33 68.61 L 39.70 66.24 L 39.70 65.45 L 42.08 63.07 L 42.08 62.28 L 43.66 60.69 L 43.66 59.90 L 46.04 57.52 L 46.04 56.73 L 47.62 55.15 L 47.62 54.36 L 50.79 50.40 L 50.79 49.60 L 51.58 48.81 L 51.58 48.02 L 53.96 44.06 L 53.96 42.48 L 55.54 40.10 L 55.54 36.14 L 56.34 35.35 L 56.34 32.18 L 55.54 31.39 L 55.54 29.01 L 53.96 27.43 L 53.96 26.63 L 51.58 25.05 L 46.83 25.05 L 46.04 25.84 L 45.25 25.84 L 42.87 28.22 L 42.87 29.01 L 42.08 29.80 L 42.08 31.39 L 41.29 32.18 L 41.29 33.76 L 40.50 34.55 L 38.12 34.55 L 37.33 33.76 L 34.95 33.76 L 32.57 32.18 L 32.57 28.22 L 33.37 27.43 L 33.37 25.84 L 34.16 25.05 L 34.16 23.47 L 34.95 22.67 L 34.95 21.88 L 36.53 20.30 L 36.53 19.50 L 39.70 16.34 L 40.50 16.34 L 42.08 14.75 L 42.87 14.75 Z " fill="black" fill-rule="evenodd" stroke="none"/>
</svg>