<svg xmlns="http://www.w3.org/2000/svg" width="100" height="100" viewBox="0 0 100 100">
  <path d="M 66.94 12.88 L 66.22 13.60 L 64.05 13.60 L 63.33 14.32 L 62.61 14.32 L 61.89 15.05 L 61.17 15.05 L 56.13 20.09 L 56.13 20.81 L 55.41 21.53 L 55.41 22.25 L 53.96 23.69 L 53.96 24.41 L 53.24 25.14 L 53.24 25.86 L 52.52 26.58 L 52.52 28.02 L 51.80 28.74 L 51.80 30.18 L 51.08 30.90 L 51.08 32.34 L 50.36 33.06 L 50.36 35.23 L 49.64 35.95 L 49.64 39.55 L 48.92 40.27 L 48.92 59.01 L 49.64 59.73 L 49.64 63.33 L 50.36 64.05 L 50.36 66.22 L 51.08 66.94 L 51.08 69.10 L 51.80 69.82 L 51.80 71.26 L 52.52 71.98 L 52.52 72.70 L 53.24 73.42 L 53.24 74.14 L 53.96 74.86 L 53.96 75.59 L 54.68 76.31 L 54.68 77.03 L 56.13 78.47 L 56.13 79.19 L 60.45 83.51 L 61.17 83.51 L 62.61 84.95 L 64.05 84.95 L 64.77 85.68 L 66.94 85.68 L 67.66 86.40 L 70.54 86.40 L 71.26 85.68 L 73.42 85.68 L 74.14 84.95 L 74.86 84.95 L 75.59 84.23 L 76.31 84.23 L 77.75 82.79 L 78.47 82.79 L 79.19 82.07 L 79.19 81.35 L 82.07 78.47 L 82.07 77.75 L 83.51 76.31 L 83.51 75.59 L 84.23 74.86 L 84.23 74.14 L 84.95 73.42 L 84.95 71.98 L 85.68 71.26 L 85.68 69.82 L 86.40 69.10 L 86.40 68.38 L 87.12 67.66 L 87.12 64.77 L 87.84 64.05 L 87.84 61.89 L 88.56 61.17 L 88.56 53.24 L 89.28 52.52 L 89.28 45.32 L 88.56 44.59 L 88.56 38.11 L 87.84 37.39 L 87.84 34.50 L 87.12 33.78 L 87.12 31.62 L 86.40 30.90 L 86.40 29.46 L 85.68 28.74 L 85.68 27.30 L 84.95 26.58 L 84.95 25.86 L 84.23 25.14 L 84.23 24.41 L 83.51 23.69 L 83.51 22.97 L 82.79 22.25 L 82.79 21.53 L 81.35 20.09 L 81.35 19.37 L 77.75 15.77 L 77.03 15.77 L 75.59 14.32 L 74.86 14.32 L 74.14 13.60 L 71.98 13.60 L 71.26 12.88 Z M 66.94 15.77 L 71.98 15.77 L 72.70 16.49 L 73.42 16.49 L 74.14 17.21 L 74.86 17.21 L 79.19 21.53 L 79.19 22.25 L 80.63 23.69 L 80.63 24.41 L 81.35 25.14 L 81.35 25.86 L 82.07 26.58 L 82.07 27.30 L 82.79 28.02 L 82.79 28.74 L 83.51 29.46 L 83.51 31.62 L 84.23 32.34 L 84.23 33.78 L 84.95 34.50 L 84.95 37.39 L 85.68 38.11 L 85.68 43.87 L 86.40 44.59 L 86.40 53.24 L 85.68 53.96 L 85.68 59.73 L 84.95 60.45 L 84.95 64.05 L 84.23 64.77 L 84.23 66.94 L 83.51 67.66 L 83.51 69.10 L 82.79 69.82 L 82.79 70.54 L 82.07 71.26 L 82.07 72.70 L 81.35 73.42 L 81.35 74.14 L 80.63 74.86 L 80.63 75.59 L 79.19 77.03 L 79.19 77.75 L 76.31 80.63 L 75.59 80.63 L 74.14 82.07 L 73.42 82.07 L 72.70 82.79 L 70.54 82.79 L 69.82 83.51 L 67.66 83.51 L 66.94 82.79 L 64.77 82.79 L 64.05 82.07 L 63.33 82.07 L 57.57 76.31 L 57.57 75.59 L 56.85 74.86 L 56.85 74.14 L 55.41 72.70 L 55.41 71.26 L 54.68 70.54 L 54.68 69.82 L 53.96 69.10 L 53.96 67.66 L 53.24 66.94 L 53.24 64.05 L 52.52 63.33 L 52.52 60.45 L 51.80 59.73 L 51.80 52.52 L 51.08 51.80 L 51.08 48.20 L 51.80 47.48 L 51.80 40.27 L 52.52 39.55 L 52.52 36.67 L 53.24 35.95 L 53.24 33.06 L 53.96 32.34 L 53.96 30.90 L 54.68 30.18 L 54.68 28.74 L 55.41 28.02 L 55.41 27.30 L 56.13 26.58 L 56.13 25.86 L 56.85 25.14 L 56.85 24.41 L 58.29 22.97 L 58.29 22.25 L 62.61 17.93 L 63.33 17.93 L 64.77 16.49 L 66.22 16.49 Z M 66.94 28.02 L 66.22 28.74 L 65.50 28.74 L 64.05 30.18 L 64.05 30.90 L 62.61 32.34 L 62.61 33.78 L 61.89 34.50 L 61.89 35.95 L 61.17 36.67 L 61.17 38.83 L 60.45 39.55 L 60.45 42.43 L 59.73 43.15 L 59.73 56.13 L 60.45 56.85 L 60.45 59.73 L 61.17 60.45 L 61.17 62.61 L 61.89 63.33 L 61.89 64.05 L 62.61 64.77 L 62.61 66.22 L 66.22 69.82 L 66.94 69.82 L 67.66 70.54 L 69.82 70.54 L 70.54 69.82 L 71.26 69.82 L 71.98 69.10 L 72.70 69.10 L 73.42 68.38 L 73.42 67.66 L 74.86 66.22 L 74.86 65.50 L 75.59 64.77 L 75.59 63.33 L 76.31 62.61 L 76.31 60.45 L 77.03 59.73 L 77.03 56.13 L 77.75 55.41 L 77.75 43.15 L 77.03 42.43 L 77.03 38.83 L 76.31 38.11 L 76.31 35.95 L 75.59 35.23 L 75.59 33.78 L 74.86 33.06 L 74.86 32.34 L 74.14 31.62 L 74.14 30.90 L 71.98 28.74 L 71.26 28.74 L 70.54 28.02 Z M 67.66 30.90 L 69.82 30.90 L 71.98 33.06 L 71.98 33.78 L 72.70 34.50 L 72.70 35.95 L 73.42 36.67 L 73.42 38.11 L 74.14 38.83 L 74.14 41.71 L 74.86 42.43 L 74.86 56.13 L 74.14 56.85 L 74.14 59.73 L 73.42 60.45 L 73.42 61.89 L 72.70 62.61 L 72.70 64.05 L 71.26 65.50 L 71.26 66.22 L 70.54 66.94 L 69.82 66.94 L 69.10 67.66 L 68.38 67.66 L 67.66 66.94 L 66.94 66.94 L 66.22 66.22 L 66.22 65.50 L 64.77 64.05 L 64.77 62.61 L 64.05 61.89 L 64.05 60.45 L 63.33 59.73 L 63.33 56.13 L 62.61 55.41 L 62.61 43.87 L 63.33 43.15 L 63.33 39.55 L 64.05 38.83 L 64.05 36.67 L 64.77 35.95 L 64.77 35.23 L 65.50 34.50 L 65.50 33.78 L 66.22 33.06 L 66.22 32.34 Z M 23.69 13.60 L 22.97 14.32 L 21.53 14.32 L 20.81 15.05 L 20.09 15.05 L 18.65 16.49 L 17.93 16.49 L 14.32 20.09 L 13.60 22.25 L 12.16 23.69 L 12.16 25.14 L 11.44 25.86 L 11.44 27.30 L 10.72 28.02 L 10.72 30.18 L 10.00 30.90 L 10.00 33.78 L 10.72 34.50 L 10.72 35.23 L 12.16 36.67 L 13.60 36.67 L 14.32 37.39 L 17.21 37.39 L 17.93 38.11 L 22.25 38.11 L 23.69 35.95 L 23.69 33.78 L 24.41 33.06 L 24.41 32.34 L 27.30 29.46 L 29.46 29.46 L 30.90 30.90 L 30.90 31.62 L 31.62 32.34 L 31.62 38.11 L 30.90 38.83 L 30.90 40.27 L 30.18 40.99 L 30.18 41.71 L 29.46 42.43 L 29.46 43.15 L 28.74 43.87 L 28.74 44.59 L 28.02 45.32 L 28.02 46.04 L 27.30 46.76 L 26.58 48.92 L 25.14 50.36 L 25.14 51.08 L 23.69 52.52 L 23.69 53.24 L 22.25 54.68 L 22.25 55.41 L 20.09 57.57 L 20.09 58.29 L 18.65 59.73 L 18.65 60.45 L 16.49 62.61 L 16.49 63.33 L 15.05 64.77 L 15.05 65.50 L 13.60 66.94 L 13.60 67.66 L 12.16 69.10 L 12.16 69.82 L 11.44 70.54 L 11.44 82.79 L 12.16 83.51 L 12.16 84.23 L 12.88 84.23 L 13.60 84.95 L 44.59 84.95 L 46.04 83.51 L 46.04 81.35 L 46.76 80.63 L 46.76 72.70 L 46.04 71.98 L 46.04 69.82 L 44.59 68.38 L 31.62 68.38 L 30.90 67.66 L 31.62 66.94 L 31.62 66.22 L 33.78 64.05 L 33.78 63.33 L 35.23 61.89 L 35.23 61.17 L 37.39 59.01 L 37.39 58.29 L 38.83 56.85 L 38.83 56.13 L 40.27 54.68 L 40.27 53.96 L 40.99 53.24 L 40.99 52.52 L 41.71 51.80 L 41.71 51.08 L 42.43 50.36 L 42.43 49.64 L 44.59 46.04 L 44.59 44.59 L 45.32 43.87 L 45.32 41.71 L 46.04 40.99 L 46.04 38.11 L 46.76 37.39 L 46.76 30.18 L 46.04 29.46 L 46.04 27.30 L 45.32 26.58 L 45.32 24.41 L 44.59 23.69 L 43.87 21.53 L 42.43 20.09 L 42.43 19.37 L 38.83 15.77 L 38.11 15.77 L 34.50 13.60 L 31.62 13.60 L 30.90 12.88 L 26.58 12.88 L 25.86 13.60 Z M 23.69 16.49 L 25.86 16.49 L 26.58 15.77 L 31.62 15.77 L 32.34 16.49 L 33.78 16.49 L 34.50 17.21 L 36.67 17.93 L 40.99 22.25 L 40.99 22.97 L 42.43 25.14 L 42.43 26.58 L 43.15 27.30 L 43.15 29.46 L 43.87 30.18 L 43.87 38.11 L 43.15 38.83 L 43.15 40.99 L 42.43 41.71 L 42.43 43.15 L 41.71 43.87 L 41.71 45.32 L 40.99 46.04 L 40.99 46.76 L 40.27 47.48 L 40.27 48.20 L 39.55 48.92 L 38.83 51.08 L 37.39 52.52 L 36.67 54.68 L 35.23 56.13 L 35.23 56.85 L 33.06 59.01 L 33.06 59.73 L 31.62 61.17 L 31.62 61.89 L 30.18 63.33 L 30.18 64.05 L 28.02 66.22 L 28.02 66.94 L 26.58 69.10 L 26.58 71.26 L 40.27 71.26 L 40.99 70.54 L 42.43 70.54 L 43.87 71.98 L 43.87 80.63 L 42.43 82.79 L 40.27 82.79 L 39.55 82.07 L 36.67 82.07 L 35.95 82.79 L 15.77 82.79 L 14.32 81.35 L 14.32 71.26 L 15.05 70.54 L 15.05 69.82 L 16.49 68.38 L 16.49 67.66 L 18.65 65.50 L 18.65 64.77 L 20.09 63.33 L 20.09 62.61 L 24.41 57.57 L 24.41 56.85 L 25.86 55.41 L 25.86 54.68 L 28.74 51.08 L 29.46 48.92 L 30.90 47.48 L 30.90 46.76 L 31.62 46.04 L 31.62 44.59 L 32.34 43.87 L 32.34 43.15 L 33.06 42.43 L 33.06 40.99 L 33.78 40.27 L 33.78 38.11 L 34.50 37.39 L 34.50 31.62 L 33.78 30.90 L 33.06 28.74 L 31.62 27.30 L 30.90 27.30 L 30.18 26.58 L 26.58 26.58 L 25.86 27.30 L 23.69 28.02 L 23.69 28.74 L 22.25 30.18 L 22.25 30.90 L 21.53 31.62 L 21.53 33.06 L 20.09 35.23 L 17.21 35.23 L 16.49 34.50 L 14.32 34.50 L 12.88 33.06 L 12.88 30.90 L 13.60 30.18 L 13.60 28.02 L 14.32 27.30 L 14.32 25.86 L 15.05 25.14 L 15.77 22.97 L 20.81 17.93 L 21.53 17.93 Z " fill="black" fill-rule="evenodd" stroke="none"/>
</svg>