<svg xmlns="http://www.w3.org/2000/svg" width="100" height="100" viewBox="0 0 100 100">
  <path d="M 70.00 10.78 L 69.22 11.57 L 68.43 11.57 L 66.86 13.14 L 66.86 13.92 L 66.08 14.71 L 66.08 15.49 L 65.29 16.27 L 65.29 17.06 L 64.51 17.84 L 64.51 18.63 L 62.94 20.20 L 62.94 20.98 L 61.37 22.55 L 61.37 23.33 L 59.80 24.90 L 59.80 25.69 L 55.88 29.61 L 55.88 31.18 L 55.10 31.96 L 55.10 32.75 L 55.88 33.53 L 55.88 34.31 L 56.67 35.10 L 56.67 35.88 L 59.80 39.02 L 60.59 39.02 L 62.16 40.59 L 62.94 40.59 L 63.73 41.37 L 64.51 41.37 L 65.29 40.59 L 66.08 40.59 L 66.86 39.80 L 67.65 40.59 L 67.65 54.71 L 66.86 55.49 L 66.86 86.86 L 68.43 88.43 L 69.22 88.43 L 70.00 89.22 L 80.98 89.22 L 81.76 88.43 L 82.55 88.43 L 84.12 86.86 L 84.12 86.08 L 84.90 85.29 L 84.90 61.76 L 84.12 60.98 L 84.12 38.24 L 84.90 37.45 L 84.90 13.92 L 84.12 13.14 L 84.12 12.35 L 83.33 11.57 L 81.76 11.57 L 80.98 10.78 Z M 70.78 13.92 L 80.98 13.92 L 81.76 14.71 L 81.76 84.51 L 80.20 86.08 L 70.78 86.08 L 70.00 85.29 L 70.00 53.14 L 70.78 52.35 L 70.78 33.53 L 70.00 32.75 L 68.43 34.31 L 67.65 34.31 L 67.65 35.10 L 66.86 35.88 L 66.08 35.88 L 64.51 37.45 L 62.94 37.45 L 58.24 32.75 L 58.24 31.96 L 60.59 29.61 L 60.59 28.82 L 63.73 25.69 L 63.73 24.90 L 65.29 23.33 L 65.29 22.55 L 66.86 20.98 L 66.86 20.20 L 67.65 19.41 L 67.65 18.63 L 68.43 17.84 L 68.43 16.27 Z M 28.43 10.78 L 27.65 11.57 L 26.86 11.57 L 26.08 12.35 L 23.73 13.14 L 17.45 19.41 L 17.45 20.20 L 15.88 22.55 L 15.88 24.12 L 15.10 24.90 L 15.10 27.25 L 14.31 28.04 L 14.31 34.31 L 15.10 35.10 L 15.88 35.10 L 16.67 35.88 L 18.24 35.88 L 19.02 36.67 L 22.16 36.67 L 22.94 37.45 L 26.86 37.45 L 28.43 35.88 L 28.43 34.31 L 29.22 33.53 L 29.22 31.18 L 32.35 28.04 L 34.71 28.04 L 37.06 30.39 L 37.06 31.18 L 37.84 31.96 L 37.84 35.10 L 37.06 35.88 L 37.06 38.24 L 36.27 39.02 L 36.27 40.59 L 35.49 41.37 L 35.49 42.16 L 34.71 42.94 L 34.71 43.73 L 33.92 44.51 L 33.92 45.29 L 33.14 46.08 L 33.14 46.86 L 32.35 47.65 L 31.57 50.00 L 30.00 51.57 L 30.00 52.35 L 28.43 53.92 L 28.43 54.71 L 26.08 57.06 L 26.08 57.84 L 24.51 59.41 L 24.51 60.20 L 19.80 65.69 L 19.80 66.47 L 18.24 68.04 L 18.24 68.82 L 16.67 70.39 L 16.67 71.18 L 15.88 71.96 L 15.88 73.53 L 15.10 74.31 L 15.10 84.51 L 15.88 85.29 L 15.88 86.86 L 17.45 88.43 L 51.18 88.43 L 53.53 86.08 L 53.53 72.75 L 52.75 71.96 L 52.75 71.18 L 51.96 71.18 L 51.18 70.39 L 37.06 70.39 L 36.27 69.61 L 37.84 68.04 L 37.84 67.25 L 40.20 64.90 L 40.20 64.12 L 42.55 61.76 L 42.55 60.98 L 44.12 59.41 L 44.12 58.63 L 47.25 54.71 L 47.25 53.92 L 48.04 53.14 L 48.04 52.35 L 48.82 51.57 L 48.82 50.78 L 51.18 46.86 L 51.18 45.29 L 51.96 44.51 L 51.96 42.94 L 52.75 42.16 L 52.75 39.02 L 53.53 38.24 L 53.53 28.04 L 52.75 27.25 L 52.75 24.90 L 51.96 24.12 L 51.96 22.55 L 51.18 21.76 L 51.18 20.20 L 49.61 18.63 L 49.61 17.84 L 44.90 13.14 L 44.12 13.14 L 40.20 10.78 L 37.84 10.78 L 37.06 10.00 L 32.35 10.00 L 31.57 10.78 Z M 29.22 13.92 L 31.57 13.92 L 32.35 13.14 L 37.06 13.14 L 37.84 13.92 L 39.41 13.92 L 40.20 14.71 L 42.55 15.49 L 47.25 20.20 L 47.25 20.98 L 48.04 21.76 L 48.04 22.55 L 49.61 24.90 L 49.61 26.47 L 50.39 27.25 L 50.39 38.24 L 49.61 39.02 L 49.61 42.16 L 48.04 44.51 L 48.04 46.08 L 47.25 46.86 L 47.25 47.65 L 46.47 48.43 L 46.47 49.22 L 45.69 50.00 L 44.90 52.35 L 43.33 53.92 L 43.33 54.71 L 41.76 56.27 L 41.76 57.06 L 40.20 58.63 L 40.20 59.41 L 38.63 60.98 L 38.63 61.76 L 36.27 64.12 L 36.27 64.90 L 33.92 67.25 L 33.92 68.04 L 32.35 69.61 L 32.35 70.39 L 31.57 71.18 L 31.57 73.53 L 49.61 73.53 L 50.39 74.31 L 50.39 84.51 L 49.61 85.29 L 41.76 85.29 L 40.98 86.08 L 20.59 86.08 L 18.24 84.51 L 18.24 74.31 L 19.02 73.53 L 19.80 71.18 L 22.16 68.82 L 22.16 68.04 L 23.73 66.47 L 23.73 65.69 L 28.43 60.20 L 28.43 59.41 L 30.00 57.84 L 30.00 57.06 L 32.35 54.71 L 32.35 53.92 L 33.92 52.35 L 34.71 50.00 L 36.27 48.43 L 36.27 47.65 L 37.84 45.29 L 37.84 43.73 L 39.41 41.37 L 39.41 39.80 L 40.20 39.02 L 40.20 35.88 L 40.98 35.10 L 40.98 32.75 L 40.20 31.96 L 40.20 29.61 L 39.41 28.82 L 39.41 28.04 L 37.06 25.69 L 36.27 25.69 L 35.49 24.90 L 31.57 24.90 L 30.78 25.69 L 30.00 25.69 L 27.65 28.04 L 27.65 28.82 L 26.08 31.18 L 26.08 33.53 L 25.29 34.31 L 22.16 34.31 L 21.37 33.53 L 19.02 33.53 L 17.45 31.96 L 17.45 28.04 L 18.24 27.25 L 18.24 24.90 L 19.02 24.12 L 19.80 21.76 L 24.51 16.27 L 25.29 16.27 L 26.08 15.49 L 26.86 15.49 Z " fill="black" fill-rule="evenodd" stroke="none"/>
</svg>