<svg xmlns="http://www.w3.org/2000/svg" width="100" height="100" viewBox="0 0 100 100">
  <path d="M 65.09 12.64 L 64.34 13.40 L 62.83 13.40 L 62.08 14.15 L 61.32 14.15 L 59.81 15.66 L 59.06 15.66 L 55.28 19.43 L 55.28 20.19 L 53.77 21.70 L 53.77 22.45 L 52.26 24.72 L 52.26 26.23 L 51.51 26.98 L 51.51 30.00 L 50.75 30.75 L 50.75 34.53 L 53.02 36.79 L 54.53 36.79 L 55.28 37.55 L 58.30 37.55 L 59.06 38.30 L 62.83 38.30 L 63.58 37.55 L 64.34 37.55 L 64.34 36.79 L 65.09 36.04 L 65.09 33.77 L 65.85 33.02 L 65.85 32.26 L 68.87 29.25 L 71.13 29.25 L 72.64 30.75 L 72.64 31.51 L 73.40 32.26 L 73.40 37.55 L 72.64 38.30 L 72.64 40.57 L 71.89 41.32 L 71.89 42.08 L 71.13 42.83 L 71.13 43.58 L 70.38 44.34 L 70.38 45.09 L 69.62 45.85 L 69.62 46.60 L 68.87 47.36 L 68.11 49.62 L 66.60 51.13 L 66.60 51.89 L 65.09 53.40 L 65.09 54.15 L 63.58 55.66 L 63.58 56.42 L 61.32 58.68 L 61.32 59.43 L 56.79 64.72 L 56.79 65.47 L 55.28 66.98 L 55.28 67.74 L 53.77 69.25 L 53.77 70.00 L 52.26 72.26 L 52.26 85.09 L 54.53 87.36 L 86.98 87.36 L 88.49 85.85 L 88.49 84.34 L 89.25 83.58 L 89.25 76.04 L 88.49 75.28 L 88.49 71.51 L 86.98 70.00 L 73.40 70.00 L 72.64 69.25 L 73.40 68.49 L 73.40 67.74 L 75.66 65.47 L 75.66 64.72 L 77.92 62.45 L 77.92 61.70 L 79.43 60.19 L 79.43 59.43 L 80.94 57.92 L 80.94 57.17 L 82.45 55.66 L 82.45 54.91 L 83.21 54.15 L 83.21 53.40 L 83.96 52.64 L 83.96 51.89 L 84.72 51.13 L 84.72 50.38 L 86.98 46.60 L 86.98 45.09 L 87.74 44.34 L 87.74 42.08 L 88.49 41.32 L 88.49 37.55 L 89.25 36.79 L 89.25 30.75 L 88.49 30.00 L 88.49 26.98 L 87.74 26.23 L 87.74 24.72 L 86.98 23.96 L 86.98 22.45 L 86.23 21.70 L 86.23 20.94 L 84.72 19.43 L 84.72 18.68 L 80.94 14.91 L 80.19 14.91 L 76.42 12.64 L 73.40 12.64 L 72.64 11.89 L 68.11 11.89 L 67.36 12.64 Z M 65.09 15.66 L 67.36 15.66 L 68.11 14.91 L 73.40 14.91 L 74.15 15.66 L 75.66 15.66 L 76.42 16.42 L 78.68 17.17 L 83.21 21.70 L 83.21 22.45 L 84.72 24.72 L 84.72 26.23 L 85.47 26.98 L 85.47 29.25 L 86.23 30.00 L 86.23 37.55 L 85.47 38.30 L 85.47 41.32 L 84.72 42.08 L 84.72 43.58 L 83.96 44.34 L 83.96 45.85 L 83.21 46.60 L 83.21 47.36 L 82.45 48.11 L 82.45 48.87 L 81.70 49.62 L 81.70 50.38 L 80.94 51.13 L 80.19 53.40 L 78.68 54.91 L 78.68 55.66 L 77.17 57.17 L 77.17 57.92 L 75.66 59.43 L 75.66 60.19 L 74.15 61.70 L 74.15 62.45 L 69.62 67.74 L 69.62 68.49 L 68.11 70.75 L 68.11 73.02 L 83.96 73.02 L 84.72 72.26 L 86.23 73.77 L 86.23 83.58 L 85.47 84.34 L 76.42 84.34 L 75.66 85.09 L 56.79 85.09 L 55.28 83.58 L 55.28 73.02 L 56.04 72.26 L 56.04 71.51 L 57.55 70.00 L 57.55 69.25 L 59.06 67.74 L 59.06 66.98 L 61.32 64.72 L 61.32 63.96 L 62.83 62.45 L 62.83 61.70 L 65.85 58.68 L 65.85 57.92 L 67.36 56.42 L 67.36 55.66 L 70.38 51.89 L 70.38 51.13 L 71.13 50.38 L 71.89 48.11 L 73.40 46.60 L 73.40 45.09 L 74.91 42.83 L 74.91 41.32 L 75.66 40.57 L 75.66 39.06 L 76.42 38.30 L 76.42 31.51 L 75.66 30.75 L 74.91 28.49 L 73.40 26.98 L 72.64 26.98 L 71.89 26.23 L 68.11 26.23 L 67.36 26.98 L 66.60 26.98 L 63.58 30.00 L 63.58 30.75 L 62.83 31.51 L 62.83 33.02 L 61.32 35.28 L 58.30 35.28 L 57.55 34.53 L 55.28 34.53 L 53.77 33.02 L 53.77 31.51 L 54.53 30.75 L 54.53 27.74 L 55.28 26.98 L 55.28 25.47 L 56.04 24.72 L 56.79 22.45 L 62.08 17.17 L 62.83 17.17 Z M 24.34 12.64 L 23.58 13.40 L 22.08 13.40 L 21.32 14.15 L 20.57 14.15 L 19.06 15.66 L 18.30 15.66 L 14.53 19.43 L 14.53 20.19 L 13.02 21.70 L 13.02 22.45 L 11.51 24.72 L 11.51 26.23 L 10.75 26.98 L 10.75 30.75 L 10.00 31.51 L 10.00 33.77 L 10.75 34.53 L 10.75 35.28 L 12.26 36.79 L 13.77 36.79 L 14.53 37.55 L 17.55 37.55 L 18.30 38.30 L 22.08 38.30 L 22.83 37.55 L 23.58 37.55 L 23.58 36.79 L 24.34 36.04 L 24.34 33.77 L 25.09 33.02 L 25.85 30.75 L 28.11 29.25 L 30.38 29.25 L 31.89 30.75 L 31.89 31.51 L 32.64 32.26 L 32.64 37.55 L 31.89 38.30 L 31.89 40.57 L 31.13 41.32 L 31.13 42.08 L 30.38 42.83 L 30.38 43.58 L 29.62 44.34 L 29.62 45.09 L 28.87 45.85 L 28.87 46.60 L 28.11 47.36 L 27.36 49.62 L 25.85 51.13 L 25.85 51.89 L 24.34 53.40 L 24.34 54.15 L 22.83 55.66 L 22.83 56.42 L 18.30 61.70 L 18.30 62.45 L 16.79 63.96 L 16.79 64.72 L 15.28 66.23 L 15.28 66.98 L 13.77 68.49 L 13.77 69.25 L 12.26 70.75 L 12.26 71.51 L 11.51 72.26 L 11.51 85.09 L 13.02 87.36 L 46.23 87.36 L 47.74 85.85 L 47.74 83.58 L 48.49 82.83 L 48.49 76.04 L 47.74 75.28 L 47.74 71.51 L 46.23 70.00 L 31.89 70.00 L 31.13 69.25 L 34.15 66.23 L 34.15 65.47 L 35.66 63.96 L 35.66 63.21 L 37.92 60.94 L 37.92 60.19 L 40.94 56.42 L 41.70 54.15 L 43.21 52.64 L 43.21 51.89 L 45.47 48.11 L 45.47 46.60 L 46.23 45.85 L 46.23 44.34 L 46.98 43.58 L 46.98 41.32 L 47.74 40.57 L 47.74 36.79 L 48.49 36.04 L 48.49 31.51 L 47.74 30.75 L 47.74 26.98 L 46.98 26.23 L 46.98 24.72 L 46.23 23.96 L 46.23 22.45 L 45.47 21.70 L 45.47 20.94 L 43.96 19.43 L 43.96 18.68 L 40.94 15.66 L 40.19 15.66 L 38.68 14.15 L 37.92 14.15 L 37.17 13.40 L 35.66 13.40 L 34.91 12.64 L 32.64 12.64 L 31.89 11.89 L 27.36 11.89 L 26.60 12.64 Z M 24.34 15.66 L 26.60 15.66 L 27.36 14.91 L 31.89 14.91 L 32.64 15.66 L 34.91 15.66 L 35.66 16.42 L 37.92 17.17 L 41.70 20.94 L 41.70 21.70 L 43.21 23.21 L 43.21 24.72 L 44.72 26.98 L 44.72 30.75 L 45.47 31.51 L 45.47 36.79 L 44.72 37.55 L 44.72 40.57 L 43.96 41.32 L 43.96 43.58 L 43.21 44.34 L 43.21 45.85 L 42.45 46.60 L 42.45 47.36 L 41.70 48.11 L 40.94 50.38 L 39.43 51.89 L 38.68 54.15 L 37.17 55.66 L 37.17 56.42 L 35.66 57.92 L 35.66 58.68 L 34.15 60.19 L 34.15 60.94 L 31.89 63.21 L 31.89 63.96 L 30.38 65.47 L 30.38 66.23 L 28.87 67.74 L 28.87 68.49 L 27.36 70.00 L 27.36 70.75 L 26.60 71.51 L 26.60 72.26 L 27.36 73.02 L 43.96 73.02 L 44.72 73.77 L 44.72 76.04 L 45.47 76.79 L 45.47 82.08 L 43.96 84.34 L 36.42 84.34 L 35.66 85.09 L 16.04 85.09 L 14.53 83.58 L 14.53 73.02 L 15.28 72.26 L 15.28 71.51 L 16.79 70.00 L 16.79 69.25 L 18.30 67.74 L 18.30 66.98 L 20.57 64.72 L 20.57 63.96 L 22.83 61.70 L 22.83 60.94 L 24.34 59.43 L 24.34 58.68 L 26.60 56.42 L 26.60 55.66 L 29.62 51.89 L 29.62 51.13 L 30.38 50.38 L 30.38 49.62 L 31.13 48.87 L 31.13 48.11 L 31.89 47.36 L 31.89 46.60 L 32.64 45.85 L 32.64 45.09 L 34.15 42.83 L 34.15 41.32 L 34.91 40.57 L 34.91 39.06 L 35.66 38.30 L 35.66 31.51 L 34.91 30.75 L 34.15 28.49 L 32.64 26.98 L 31.89 26.98 L 31.13 26.23 L 27.36 26.23 L 26.60 26.98 L 24.34 27.74 L 23.58 28.49 L 23.58 29.25 L 22.08 30.75 L 22.08 32.26 L 21.32 33.02 L 21.32 34.53 L 20.57 35.28 L 17.55 35.28 L 16.79 34.53 L 14.53 34.53 L 13.02 33.02 L 13.02 30.75 L 13.77 30.00 L 13.77 27.74 L 14.53 26.98 L 14.53 25.47 L 15.28 24.72 L 16.04 22.45 L 21.32 17.17 L 22.08 17.17 Z " fill="black" fill-rule="evenodd" stroke="none"/>
</svg>