<svg xmlns="http://www.w3.org/2000/svg" width="100" height="100" viewBox="0 0 100 100">
  <path d="M 63.83 11.50 L 63.08 12.24 L 60.09 12.24 L 59.35 12.99 L 58.60 12.99 L 57.85 13.74 L 57.10 13.74 L 56.36 14.49 L 54.11 15.23 L 51.12 18.22 L 51.12 18.97 L 50.37 19.72 L 50.37 22.71 L 51.12 23.46 L 51.12 24.21 L 53.36 26.45 L 53.36 27.20 L 57.10 30.93 L 59.35 30.93 L 60.84 29.44 L 61.59 29.44 L 63.08 27.94 L 63.83 27.94 L 64.58 27.20 L 67.57 27.20 L 69.07 28.69 L 69.07 29.44 L 69.81 30.19 L 69.81 33.93 L 66.82 36.92 L 66.07 36.92 L 65.33 37.66 L 63.83 37.66 L 63.08 38.41 L 60.84 38.41 L 60.09 39.16 L 59.35 39.16 L 59.35 39.91 L 58.60 40.65 L 58.60 49.63 L 59.35 50.37 L 59.35 51.12 L 60.84 52.62 L 64.58 52.62 L 65.33 53.36 L 67.57 53.36 L 68.32 54.11 L 69.07 54.11 L 72.06 57.10 L 72.06 57.85 L 72.80 58.60 L 72.80 60.09 L 73.55 60.84 L 73.55 63.83 L 72.80 64.58 L 72.80 66.07 L 72.06 66.82 L 72.06 67.57 L 69.81 69.81 L 68.32 69.81 L 67.57 70.56 L 66.82 69.81 L 65.33 69.81 L 63.83 68.32 L 63.83 66.82 L 63.08 66.07 L 62.34 63.83 L 61.59 63.83 L 60.84 63.08 L 60.09 63.08 L 59.35 63.83 L 57.10 63.83 L 56.36 64.58 L 55.61 64.58 L 54.86 65.33 L 54.11 65.33 L 53.36 66.07 L 51.12 66.82 L 49.63 68.32 L 49.63 73.55 L 50.37 74.30 L 50.37 75.05 L 51.12 75.79 L 51.12 76.54 L 51.87 77.29 L 52.62 79.53 L 57.85 84.77 L 58.60 84.77 L 60.84 86.26 L 62.34 86.26 L 63.08 87.01 L 66.07 87.01 L 66.82 87.76 L 69.81 87.76 L 70.56 87.01 L 73.55 87.01 L 74.30 86.26 L 75.79 86.26 L 76.54 85.51 L 77.29 85.51 L 78.79 84.02 L 79.53 84.02 L 81.03 82.52 L 81.78 82.52 L 83.27 81.03 L 83.27 80.28 L 85.51 78.04 L 85.51 77.29 L 87.76 73.55 L 87.76 72.06 L 88.50 71.31 L 88.50 67.57 L 89.25 66.82 L 89.25 60.84 L 88.50 60.09 L 88.50 56.36 L 87.76 55.61 L 87.76 54.11 L 87.01 53.36 L 87.01 51.87 L 85.51 50.37 L 85.51 49.63 L 84.02 48.13 L 84.02 47.38 L 80.28 43.64 L 80.28 42.90 L 82.52 40.65 L 82.52 39.91 L 84.02 37.66 L 84.02 35.42 L 84.77 34.67 L 84.77 24.95 L 84.02 24.21 L 84.02 22.71 L 83.27 21.96 L 82.52 19.72 L 79.53 15.98 L 78.79 15.98 L 77.29 14.49 L 76.54 14.49 L 72.80 12.24 L 70.56 12.24 L 69.81 11.50 Z M 63.83 14.49 L 69.81 14.49 L 70.56 15.23 L 72.80 15.23 L 73.55 15.98 L 74.30 15.98 L 75.79 17.48 L 76.54 17.48 L 78.79 19.72 L 78.79 20.47 L 80.28 21.96 L 80.28 22.71 L 81.78 24.95 L 81.78 34.67 L 81.03 35.42 L 81.03 36.92 L 80.28 37.66 L 80.28 38.41 L 77.29 41.40 L 77.29 42.15 L 75.79 43.64 L 82.52 50.37 L 82.52 51.12 L 84.02 52.62 L 84.02 54.11 L 84.77 54.86 L 84.77 56.36 L 85.51 57.10 L 85.51 59.35 L 86.26 60.09 L 86.26 66.82 L 85.51 67.57 L 85.51 70.56 L 84.77 71.31 L 84.77 72.80 L 84.02 73.55 L 83.27 75.79 L 81.03 78.04 L 81.03 78.79 L 79.53 80.28 L 78.79 80.28 L 76.54 82.52 L 75.79 82.52 L 75.05 83.27 L 73.55 83.27 L 72.80 84.02 L 70.56 84.02 L 69.81 84.77 L 66.07 84.77 L 65.33 84.02 L 63.08 84.02 L 62.34 83.27 L 60.09 82.52 L 54.86 77.29 L 54.86 76.54 L 53.36 75.05 L 53.36 74.30 L 52.62 73.55 L 52.62 72.06 L 51.87 71.31 L 51.87 70.56 L 53.36 69.07 L 54.11 69.07 L 54.86 68.32 L 55.61 68.32 L 56.36 67.57 L 57.10 67.57 L 59.35 66.07 L 60.84 67.57 L 60.84 69.07 L 61.59 69.81 L 61.59 70.56 L 63.08 72.06 L 63.83 72.06 L 64.58 72.80 L 66.07 72.80 L 66.82 73.55 L 68.32 73.55 L 69.07 72.80 L 70.56 72.80 L 71.31 72.06 L 72.06 72.06 L 75.05 69.07 L 75.05 67.57 L 75.79 66.82 L 75.79 65.33 L 76.54 64.58 L 76.54 60.84 L 75.79 60.09 L 75.79 57.85 L 75.05 57.10 L 74.30 54.86 L 71.31 51.87 L 70.56 51.87 L 68.32 50.37 L 65.33 50.37 L 64.58 49.63 L 62.34 49.63 L 61.59 48.88 L 61.59 42.15 L 63.83 40.65 L 65.33 40.65 L 66.07 39.91 L 67.57 39.91 L 69.07 38.41 L 69.81 38.41 L 72.06 36.17 L 72.06 34.67 L 72.80 33.93 L 72.80 29.44 L 72.06 28.69 L 72.06 27.20 L 70.56 25.70 L 69.81 25.70 L 67.57 24.21 L 63.83 24.21 L 63.08 24.95 L 61.59 24.95 L 60.09 26.45 L 57.85 27.20 L 54.86 24.21 L 54.86 23.46 L 53.36 21.96 L 53.36 20.47 L 56.36 17.48 L 57.10 17.48 L 58.60 15.98 L 60.09 15.98 L 60.84 15.23 L 63.08 15.23 Z M 23.46 12.24 L 22.71 12.99 L 21.21 12.99 L 19.72 14.49 L 18.97 14.49 L 16.73 16.73 L 15.98 16.73 L 15.23 17.48 L 15.23 18.22 L 13.74 19.72 L 13.74 20.47 L 12.99 21.21 L 12.99 21.96 L 11.50 23.46 L 11.50 24.95 L 10.75 25.70 L 10.75 27.94 L 10.00 28.69 L 10.00 34.67 L 10.75 35.42 L 11.50 35.42 L 12.24 36.17 L 13.74 36.17 L 14.49 36.92 L 16.73 36.92 L 17.48 37.66 L 21.96 37.66 L 23.46 36.17 L 23.46 34.67 L 24.21 33.93 L 24.21 31.68 L 27.20 28.69 L 29.44 28.69 L 31.68 30.93 L 31.68 32.43 L 32.43 33.18 L 32.43 35.42 L 31.68 36.17 L 31.68 38.41 L 30.93 39.16 L 30.93 40.65 L 29.44 42.90 L 29.44 44.39 L 27.94 45.89 L 27.20 48.13 L 25.70 49.63 L 25.70 50.37 L 24.95 51.12 L 24.95 51.87 L 23.46 53.36 L 23.46 54.11 L 21.21 56.36 L 21.21 57.10 L 16.73 62.34 L 16.73 63.08 L 15.23 64.58 L 15.23 65.33 L 13.74 66.82 L 13.74 67.57 L 12.24 69.07 L 12.24 69.81 L 10.75 72.06 L 10.75 83.27 L 11.50 84.02 L 11.50 84.77 L 12.99 86.26 L 45.14 86.26 L 47.38 84.02 L 47.38 72.06 L 46.64 71.31 L 46.64 69.81 L 45.89 69.81 L 45.14 69.07 L 31.68 69.07 L 30.93 68.32 L 32.43 66.82 L 32.43 66.07 L 34.67 63.83 L 34.67 63.08 L 36.92 60.84 L 36.92 60.09 L 38.41 58.60 L 38.41 57.85 L 41.40 54.11 L 41.40 53.36 L 42.15 52.62 L 42.15 51.87 L 42.90 51.12 L 42.90 50.37 L 45.14 46.64 L 45.14 45.14 L 45.89 44.39 L 45.89 42.90 L 46.64 42.15 L 46.64 39.91 L 47.38 39.16 L 47.38 28.69 L 46.64 27.94 L 46.64 25.70 L 45.89 24.95 L 45.89 23.46 L 45.14 22.71 L 45.14 21.96 L 44.39 21.21 L 43.64 18.97 L 39.16 14.49 L 38.41 14.49 L 34.67 12.24 L 32.43 12.24 L 31.68 11.50 L 26.45 11.50 L 25.70 12.24 Z M 23.46 15.23 L 25.70 15.23 L 26.45 14.49 L 31.68 14.49 L 32.43 15.23 L 34.67 15.23 L 35.42 15.98 L 36.17 15.98 L 41.40 21.21 L 41.40 21.96 L 42.90 23.46 L 42.90 24.95 L 43.64 25.70 L 43.64 27.20 L 44.39 27.94 L 44.39 39.16 L 43.64 39.91 L 43.64 42.15 L 42.15 44.39 L 42.15 45.89 L 41.40 46.64 L 41.40 47.38 L 40.65 48.13 L 40.65 48.88 L 39.91 49.63 L 39.16 51.87 L 37.66 53.36 L 37.66 54.11 L 36.17 55.61 L 36.17 56.36 L 34.67 57.85 L 34.67 58.60 L 32.43 60.84 L 32.43 61.59 L 30.93 63.08 L 30.93 63.83 L 28.69 66.07 L 28.69 66.82 L 27.20 68.32 L 27.20 69.07 L 26.45 69.81 L 26.45 72.06 L 39.91 72.06 L 40.65 71.31 L 42.90 71.31 L 44.39 72.80 L 44.39 82.52 L 43.64 83.27 L 35.42 83.27 L 34.67 84.02 L 15.23 84.02 L 13.74 82.52 L 13.74 72.06 L 15.23 70.56 L 15.23 69.81 L 16.73 68.32 L 16.73 67.57 L 18.22 66.07 L 18.22 65.33 L 20.47 63.08 L 20.47 62.34 L 22.71 60.09 L 22.71 59.35 L 27.20 54.11 L 27.94 51.87 L 29.44 50.37 L 29.44 49.63 L 30.19 48.88 L 30.19 48.13 L 30.93 47.38 L 30.93 46.64 L 31.68 45.89 L 31.68 45.14 L 32.43 44.39 L 32.43 43.64 L 33.93 41.40 L 33.93 39.16 L 34.67 38.41 L 34.67 30.19 L 33.93 29.44 L 33.93 28.69 L 31.68 26.45 L 30.93 26.45 L 30.19 25.70 L 27.20 25.70 L 26.45 26.45 L 24.21 27.20 L 22.71 28.69 L 22.71 29.44 L 21.21 31.68 L 21.21 33.18 L 19.72 34.67 L 17.48 34.67 L 16.73 33.93 L 13.74 33.93 L 12.99 33.18 L 12.99 28.69 L 13.74 27.94 L 13.74 25.70 L 14.49 24.95 L 15.23 22.71 L 16.73 21.21 L 16.73 20.47 L 19.72 17.48 L 20.47 17.48 L 21.96 15.98 L 22.71 15.98 Z " fill="black" fill-rule="evenodd" stroke="none"/>
</svg>