<svg xmlns="http://www.w3.org/2000/svg" width="100" height="100" viewBox="0 0 100 100">
  <path d="M 60.91 13.64 L 59.45 15.09 L 59.45 15.82 L 58.73 16.55 L 58.73 18.00 L 58.00 18.73 L 58.00 20.18 L 57.27 20.91 L 57.27 22.36 L 56.55 23.09 L 56.55 24.55 L 55.82 25.27 L 55.82 26.73 L 55.09 27.45 L 55.09 28.91 L 54.36 29.64 L 54.36 31.09 L 53.64 31.82 L 53.64 33.27 L 52.18 35.45 L 52.18 36.91 L 51.45 37.64 L 51.45 39.09 L 50.73 39.82 L 50.73 40.55 L 50.00 41.27 L 50.00 42.73 L 48.55 44.91 L 48.55 48.55 L 47.82 49.27 L 47.82 52.18 L 48.55 52.91 L 48.55 54.36 L 50.00 55.82 L 53.64 55.82 L 54.36 56.55 L 67.45 56.55 L 68.18 55.82 L 68.91 55.82 L 69.64 56.55 L 69.64 84.18 L 71.09 85.64 L 71.82 85.64 L 72.55 86.36 L 79.82 86.36 L 80.55 85.64 L 82.00 85.64 L 83.45 84.18 L 83.45 78.36 L 84.18 77.64 L 83.45 76.91 L 83.45 57.27 L 84.18 56.55 L 86.36 56.55 L 87.09 55.82 L 87.82 55.82 L 89.27 54.36 L 89.27 43.45 L 87.09 41.27 L 84.18 41.27 L 83.45 40.55 L 83.45 27.45 L 84.18 26.73 L 84.18 16.55 L 83.45 15.82 L 83.45 15.09 L 82.00 13.64 L 72.55 13.64 L 71.82 14.36 L 67.45 14.36 L 66.73 13.64 Z M 68.91 29.64 L 69.64 30.36 L 69.64 40.55 L 68.91 41.27 L 66.00 41.27 L 65.27 40.55 L 65.27 39.09 L 66.00 38.36 L 66.00 36.91 L 66.73 36.18 L 66.73 34.73 L 67.45 34.00 L 67.45 33.27 L 68.18 32.55 L 68.18 30.36 Z M 62.36 16.55 L 66.73 16.55 L 67.45 17.27 L 68.18 17.27 L 68.91 18.00 L 68.91 20.18 L 68.18 20.91 L 68.18 23.09 L 67.45 23.82 L 67.45 25.27 L 66.73 26.00 L 66.73 27.45 L 66.00 28.18 L 66.00 29.64 L 65.27 30.36 L 65.27 31.82 L 64.55 32.55 L 64.55 34.00 L 63.09 36.18 L 63.09 37.64 L 62.36 38.36 L 62.36 39.82 L 61.64 40.55 L 61.64 42.00 L 60.91 42.73 L 60.91 43.45 L 61.64 44.18 L 71.82 44.18 L 72.55 43.45 L 72.55 18.00 L 74.00 16.55 L 80.55 16.55 L 81.27 17.27 L 81.27 28.91 L 80.55 29.64 L 80.55 43.45 L 81.27 44.18 L 85.64 44.18 L 87.09 45.64 L 87.09 50.00 L 86.36 50.73 L 86.36 52.91 L 85.64 53.64 L 82.00 53.64 L 80.55 55.09 L 80.55 71.09 L 81.27 71.82 L 81.27 81.27 L 79.82 83.45 L 73.27 83.45 L 72.55 82.73 L 72.55 55.09 L 71.82 54.36 L 71.82 53.64 L 52.91 53.64 L 50.73 52.18 L 50.73 47.82 L 51.45 47.09 L 51.45 45.64 L 52.18 44.91 L 52.18 43.45 L 53.64 41.27 L 53.64 39.82 L 55.09 37.64 L 55.09 36.18 L 55.82 35.45 L 55.82 34.00 L 56.55 33.27 L 56.55 31.82 L 57.27 31.09 L 57.27 29.64 L 58.00 28.91 L 58.00 27.45 L 58.73 26.73 L 58.73 25.27 L 59.45 24.55 L 59.45 23.09 L 60.18 22.36 L 60.18 20.91 L 60.91 20.18 L 60.91 18.73 Z M 23.82 13.64 L 23.09 14.36 L 21.64 14.36 L 20.91 15.09 L 20.18 15.09 L 18.73 16.55 L 18.00 16.55 L 14.36 20.18 L 13.64 22.36 L 12.18 23.82 L 12.18 25.27 L 11.45 26.00 L 11.45 27.45 L 10.73 28.18 L 10.73 31.82 L 10.00 32.55 L 10.00 34.00 L 11.45 36.18 L 12.18 36.18 L 14.36 37.64 L 17.27 37.64 L 18.00 38.36 L 22.36 38.36 L 23.82 36.18 L 23.82 34.00 L 24.55 33.27 L 24.55 32.55 L 27.45 29.64 L 29.64 29.64 L 31.09 31.09 L 31.09 31.82 L 31.82 32.55 L 31.82 38.36 L 31.09 39.09 L 31.09 40.55 L 28.91 44.18 L 28.91 45.64 L 27.45 47.09 L 27.45 47.82 L 26.73 48.55 L 26.00 50.73 L 23.82 52.91 L 23.82 53.64 L 22.36 55.09 L 22.36 55.82 L 18.00 60.91 L 18.00 61.64 L 16.55 63.09 L 16.55 63.82 L 14.36 66.00 L 14.36 66.73 L 12.91 68.18 L 12.91 68.91 L 11.45 71.09 L 11.45 83.45 L 12.18 84.18 L 12.18 84.91 L 12.91 84.91 L 13.64 85.64 L 44.91 85.64 L 46.36 83.45 L 46.36 70.36 L 44.91 68.91 L 31.82 68.91 L 31.09 68.18 L 32.55 66.73 L 32.55 66.00 L 34.00 64.55 L 34.00 63.82 L 36.18 61.64 L 36.18 60.91 L 39.09 57.27 L 39.82 55.09 L 41.27 53.64 L 41.27 52.91 L 42.00 52.18 L 42.00 51.45 L 42.73 50.73 L 42.73 50.00 L 44.91 46.36 L 44.91 44.91 L 45.64 44.18 L 45.64 42.00 L 46.36 41.27 L 46.36 37.64 L 47.09 36.91 L 47.09 31.09 L 46.36 30.36 L 46.36 27.45 L 45.64 26.73 L 45.64 25.27 L 44.18 23.09 L 44.18 21.64 L 42.73 20.18 L 42.73 19.45 L 39.09 15.82 L 38.36 15.82 L 36.18 14.36 L 34.73 14.36 L 34.00 13.64 L 31.82 13.64 L 31.09 12.91 L 26.73 12.91 L 26.00 13.64 Z M 26.00 15.82 L 31.82 15.82 L 32.55 16.55 L 34.00 16.55 L 34.73 17.27 L 36.91 18.00 L 40.55 21.64 L 40.55 22.36 L 42.00 23.82 L 42.00 24.55 L 42.73 25.27 L 42.73 26.73 L 43.45 27.45 L 43.45 29.64 L 44.18 30.36 L 44.18 37.64 L 43.45 38.36 L 43.45 41.27 L 42.73 42.00 L 42.73 43.45 L 42.00 44.18 L 42.00 45.64 L 41.27 46.36 L 41.27 47.09 L 40.55 47.82 L 40.55 48.55 L 39.82 49.27 L 39.09 51.45 L 37.64 52.91 L 36.91 55.09 L 35.45 56.55 L 35.45 57.27 L 34.00 58.73 L 34.00 59.45 L 32.55 60.91 L 32.55 61.64 L 30.36 63.82 L 30.36 64.55 L 28.18 66.73 L 28.18 67.45 L 26.73 68.91 L 26.73 71.82 L 40.55 71.82 L 41.27 71.09 L 42.73 71.09 L 43.45 71.82 L 43.45 82.00 L 42.73 82.73 L 34.73 82.73 L 34.00 83.45 L 15.82 83.45 L 14.36 82.00 L 14.36 71.82 L 15.09 71.09 L 15.09 70.36 L 16.55 68.91 L 16.55 68.18 L 18.00 66.73 L 18.00 66.00 L 20.18 63.82 L 20.18 63.09 L 22.36 60.91 L 22.36 60.18 L 23.82 58.73 L 23.82 58.00 L 26.00 55.82 L 26.00 55.09 L 28.91 51.45 L 29.64 49.27 L 31.09 47.82 L 31.09 47.09 L 32.55 44.91 L 32.55 43.45 L 34.00 41.27 L 34.00 39.09 L 34.73 38.36 L 34.73 32.55 L 34.00 31.82 L 34.00 30.36 L 33.27 29.64 L 33.27 28.91 L 32.55 28.18 L 31.82 28.18 L 30.36 26.73 L 26.73 26.73 L 26.00 27.45 L 25.27 27.45 L 22.36 30.36 L 22.36 31.09 L 21.64 31.82 L 21.64 33.27 L 20.18 35.45 L 17.27 35.45 L 16.55 34.73 L 14.36 34.73 L 12.91 33.27 L 12.91 31.82 L 13.64 31.09 L 13.64 28.18 L 14.36 27.45 L 14.36 26.00 L 15.09 25.27 L 15.82 23.09 L 20.91 18.00 L 21.64 18.00 L 23.82 16.55 L 25.27 16.55 Z " fill="black" fill-rule="evenodd" stroke="none"/>
</svg>