<svg xmlns="http://www.w3.org/2000/svg" width="100" height="100" viewBox="0 0 100 100">
  <path d="M 83.21 11.89 L 74.91 11.89 L 74.15 12.64 L 62.08 12.64 L 61.32 13.40 L 54.53 13.40 L 53.77 14.15 L 53.02 14.15 L 53.02 15.66 L 52.26 16.42 L 52.26 39.06 L 53.02 39.81 L 53.02 50.38 L 55.28 52.64 L 56.04 52.64 L 58.30 54.15 L 59.81 54.15 L 60.57 53.40 L 62.08 53.40 L 62.83 52.64 L 68.11 52.64 L 68.87 53.40 L 69.62 53.40 L 72.64 56.42 L 72.64 57.92 L 73.40 58.68 L 73.40 64.72 L 72.64 65.47 L 71.89 67.74 L 70.38 69.25 L 69.62 69.25 L 68.87 70.00 L 65.09 70.00 L 63.58 68.49 L 62.83 68.49 L 61.32 66.98 L 61.32 66.23 L 60.57 66.23 L 59.81 65.47 L 56.79 65.47 L 54.53 67.74 L 53.77 70.00 L 52.26 71.51 L 52.26 72.26 L 50.75 74.53 L 50.75 76.04 L 50.00 76.79 L 50.75 77.55 L 50.75 79.06 L 56.04 84.34 L 56.79 84.34 L 58.30 85.85 L 59.81 85.85 L 60.57 86.60 L 62.08 86.60 L 62.83 87.36 L 73.40 87.36 L 74.15 86.60 L 77.92 85.09 L 79.43 83.58 L 80.19 83.58 L 83.21 80.57 L 83.21 79.81 L 84.72 78.30 L 84.72 77.55 L 87.74 72.26 L 87.74 70.00 L 88.49 69.25 L 88.49 66.23 L 89.25 65.47 L 89.25 57.92 L 88.49 57.17 L 88.49 54.15 L 87.74 53.40 L 87.74 51.13 L 86.98 50.38 L 86.98 49.62 L 86.23 48.87 L 84.72 45.09 L 81.70 42.08 L 81.70 41.32 L 80.94 41.32 L 77.17 38.30 L 75.66 38.30 L 73.40 36.79 L 68.11 36.79 L 66.60 34.53 L 66.60 29.25 L 67.36 28.49 L 83.21 28.49 L 85.47 26.98 L 85.47 26.23 L 86.23 25.47 L 86.23 14.91 L 85.47 14.15 L 85.47 13.40 Z M 82.45 14.91 L 83.21 15.66 L 83.21 24.72 L 82.45 25.47 L 65.85 25.47 L 65.09 26.23 L 64.34 26.23 L 64.34 26.98 L 63.58 27.74 L 63.58 37.55 L 65.09 39.81 L 72.64 39.81 L 73.40 40.57 L 74.91 40.57 L 75.66 41.32 L 76.42 41.32 L 82.45 47.36 L 82.45 48.11 L 83.96 49.62 L 83.96 51.13 L 84.72 51.89 L 84.72 53.40 L 85.47 54.15 L 85.47 57.17 L 86.23 57.92 L 86.23 65.47 L 85.47 66.23 L 85.47 69.25 L 84.72 70.00 L 84.72 71.51 L 83.96 72.26 L 83.96 73.77 L 82.45 75.28 L 82.45 76.04 L 80.94 77.55 L 80.94 78.30 L 77.92 81.32 L 77.17 81.32 L 75.66 82.83 L 74.91 82.83 L 72.64 84.34 L 71.13 84.34 L 70.38 85.09 L 65.09 85.09 L 64.34 84.34 L 62.83 84.34 L 62.08 83.58 L 60.57 83.58 L 59.06 82.08 L 58.30 82.08 L 56.79 80.57 L 56.04 80.57 L 53.77 78.30 L 53.77 77.55 L 53.02 76.79 L 53.77 76.04 L 53.77 75.28 L 54.53 74.53 L 55.28 72.26 L 58.30 68.49 L 59.06 68.49 L 62.08 71.51 L 62.83 71.51 L 65.09 73.02 L 70.38 73.02 L 71.13 72.26 L 71.89 72.26 L 74.15 70.00 L 74.15 69.25 L 76.42 65.47 L 76.42 57.92 L 75.66 57.17 L 75.66 55.66 L 74.15 54.15 L 74.15 53.40 L 71.89 51.13 L 71.13 51.13 L 68.87 49.62 L 62.08 49.62 L 61.32 50.38 L 59.81 50.38 L 59.06 51.13 L 58.30 50.38 L 57.55 50.38 L 56.04 48.87 L 56.04 48.11 L 55.28 47.36 L 55.28 16.42 L 56.04 15.66 L 71.89 15.66 L 72.64 14.91 Z M 25.85 11.89 L 25.09 12.64 L 23.58 12.64 L 22.83 13.40 L 21.32 13.40 L 20.57 14.15 L 19.81 14.15 L 17.55 16.42 L 16.79 16.42 L 16.79 17.17 L 16.04 17.92 L 15.28 17.92 L 15.28 18.68 L 12.26 22.45 L 12.26 23.96 L 10.75 26.23 L 10.75 28.49 L 10.00 29.25 L 10.00 34.53 L 10.75 35.28 L 10.75 36.04 L 11.51 36.04 L 12.26 36.79 L 13.77 36.79 L 14.53 37.55 L 17.55 37.55 L 18.30 38.30 L 22.08 38.30 L 23.58 36.79 L 23.58 35.28 L 24.34 34.53 L 24.34 32.26 L 27.36 29.25 L 30.38 29.25 L 32.64 33.02 L 32.64 36.79 L 31.89 37.55 L 31.89 39.06 L 31.13 39.81 L 31.13 41.32 L 29.62 43.58 L 29.62 45.09 L 28.11 46.60 L 28.11 47.36 L 27.36 48.11 L 26.60 50.38 L 25.09 51.89 L 25.09 52.64 L 22.83 54.91 L 22.83 55.66 L 21.32 57.17 L 21.32 57.92 L 19.06 60.19 L 19.06 60.94 L 14.53 66.23 L 14.53 66.98 L 13.02 68.49 L 13.02 69.25 L 11.51 71.51 L 11.51 73.02 L 10.75 73.77 L 10.75 83.58 L 11.51 84.34 L 11.51 85.85 L 13.02 87.36 L 45.47 87.36 L 47.74 85.09 L 47.74 72.26 L 46.98 71.51 L 46.98 70.75 L 46.23 70.00 L 31.89 70.00 L 31.13 69.25 L 32.64 67.74 L 32.64 66.98 L 34.91 64.72 L 34.91 63.96 L 37.17 61.70 L 37.17 60.94 L 38.68 59.43 L 38.68 58.68 L 41.70 54.91 L 41.70 54.15 L 42.45 53.40 L 42.45 52.64 L 43.21 51.89 L 43.21 51.13 L 43.96 50.38 L 43.96 49.62 L 46.23 45.85 L 46.23 44.34 L 46.98 43.58 L 46.98 40.57 L 47.74 39.81 L 47.74 27.74 L 46.98 26.98 L 46.98 24.72 L 46.23 23.96 L 46.23 23.21 L 45.47 22.45 L 44.72 20.19 L 43.21 18.68 L 43.21 17.92 L 40.94 15.66 L 40.19 15.66 L 38.68 14.15 L 37.92 14.15 L 35.66 12.64 L 34.15 12.64 L 33.40 11.89 Z M 25.85 14.91 L 32.64 14.91 L 33.40 15.66 L 34.91 15.66 L 35.66 16.42 L 37.92 17.17 L 41.70 20.94 L 41.70 21.70 L 42.45 22.45 L 42.45 23.21 L 43.96 25.47 L 43.96 26.98 L 44.72 27.74 L 44.72 39.81 L 43.96 40.57 L 43.96 42.83 L 43.21 43.58 L 43.21 45.09 L 42.45 45.85 L 42.45 46.60 L 41.70 47.36 L 41.70 48.11 L 40.94 48.87 L 40.94 49.62 L 40.19 50.38 L 39.43 52.64 L 37.92 54.15 L 37.92 54.91 L 36.42 56.42 L 36.42 57.17 L 34.91 58.68 L 34.91 59.43 L 32.64 61.70 L 32.64 62.45 L 31.13 63.96 L 31.13 64.72 L 28.87 66.98 L 28.87 67.74 L 27.36 69.25 L 27.36 70.00 L 26.60 70.75 L 26.60 73.02 L 43.96 73.02 L 44.72 73.77 L 44.72 83.58 L 43.96 84.34 L 14.53 84.34 L 13.77 83.58 L 13.77 74.53 L 14.53 73.77 L 14.53 72.26 L 15.28 71.51 L 15.28 70.75 L 16.79 69.25 L 16.79 68.49 L 19.06 66.23 L 19.06 65.47 L 21.32 63.21 L 21.32 62.45 L 23.58 60.19 L 23.58 59.43 L 25.85 57.17 L 25.85 56.42 L 27.36 54.91 L 27.36 54.15 L 30.38 50.38 L 30.38 49.62 L 31.13 48.87 L 31.13 48.11 L 31.89 47.36 L 31.89 46.60 L 33.40 44.34 L 33.40 42.83 L 34.91 40.57 L 34.91 37.55 L 35.66 36.79 L 35.66 33.02 L 34.91 32.26 L 34.91 30.00 L 34.15 29.25 L 34.15 28.49 L 32.64 26.98 L 31.89 26.98 L 31.13 26.23 L 26.60 26.23 L 25.85 26.98 L 25.09 26.98 L 22.83 29.25 L 22.83 30.00 L 21.32 32.26 L 21.32 34.53 L 20.57 35.28 L 16.79 35.28 L 16.04 34.53 L 13.77 34.53 L 13.02 33.77 L 13.02 29.25 L 13.77 28.49 L 13.77 26.98 L 14.53 26.23 L 14.53 24.72 L 15.28 23.96 L 15.28 23.21 L 16.79 21.70 L 16.79 20.94 L 19.81 17.92 L 20.57 17.92 L 22.08 16.42 L 22.83 16.42 L 23.58 15.66 L 25.09 15.66 Z " fill="black" fill-rule="evenodd" stroke="none"/>
</svg>