<svg xmlns="http://www.w3.org/2000/svg" width="100" height="100" viewBox="0 0 100 100">
  <path d="M 78.99 12.57 L 74.59 12.57 L 73.85 13.30 L 72.39 13.30 L 71.65 14.04 L 70.18 14.04 L 68.72 15.50 L 67.98 15.50 L 67.25 16.24 L 66.51 16.24 L 64.31 18.44 L 63.58 18.44 L 61.38 20.64 L 61.38 21.38 L 58.44 24.31 L 58.44 25.05 L 56.97 26.51 L 56.97 27.25 L 56.24 27.98 L 56.24 28.72 L 55.50 29.45 L 55.50 30.18 L 54.77 30.92 L 54.77 31.65 L 53.30 33.85 L 53.30 35.32 L 52.57 36.06 L 52.57 37.52 L 51.83 38.26 L 51.83 40.46 L 51.10 41.19 L 51.10 43.39 L 50.37 44.13 L 50.37 48.53 L 49.63 49.27 L 49.63 61.74 L 50.37 62.48 L 50.37 66.88 L 51.10 67.61 L 51.10 69.82 L 51.83 70.55 L 51.83 72.02 L 52.57 72.75 L 52.57 74.22 L 53.30 74.95 L 53.30 75.69 L 54.77 77.16 L 54.77 77.89 L 55.50 78.62 L 55.50 79.36 L 60.64 84.50 L 61.38 84.50 L 63.58 85.96 L 65.78 85.96 L 66.51 86.70 L 74.59 86.70 L 75.32 85.96 L 76.79 85.96 L 77.52 85.23 L 78.26 85.23 L 78.99 84.50 L 79.72 84.50 L 81.19 83.03 L 81.93 83.03 L 83.39 81.56 L 83.39 80.83 L 85.60 78.62 L 85.60 77.89 L 87.06 75.69 L 87.06 74.22 L 88.53 72.02 L 88.53 68.35 L 89.27 67.61 L 89.27 61.01 L 88.53 60.28 L 88.53 57.34 L 87.80 56.61 L 87.80 54.40 L 87.06 53.67 L 87.06 52.94 L 86.33 52.20 L 86.33 51.47 L 85.60 50.73 L 85.60 50.00 L 80.46 44.86 L 79.72 44.86 L 77.52 43.39 L 76.06 43.39 L 75.32 42.66 L 68.72 42.66 L 67.98 43.39 L 66.51 43.39 L 65.78 42.66 L 66.51 41.93 L 66.51 40.46 L 67.25 39.72 L 67.25 38.99 L 67.98 38.26 L 67.98 37.52 L 68.72 36.79 L 68.72 36.06 L 70.18 34.59 L 70.18 33.85 L 73.85 30.18 L 74.59 30.18 L 76.06 28.72 L 76.79 28.72 L 77.52 27.98 L 78.99 27.98 L 79.72 27.25 L 81.19 27.25 L 83.39 25.05 L 83.39 23.58 L 82.66 22.84 L 82.66 20.64 L 81.93 19.91 L 81.93 18.44 L 81.19 17.71 L 81.19 15.50 L 80.46 14.77 L 80.46 14.04 Z M 77.52 15.50 L 78.26 16.24 L 78.26 17.71 L 78.99 18.44 L 78.99 20.64 L 79.72 21.38 L 79.72 22.84 L 80.46 23.58 L 78.26 25.05 L 76.79 25.05 L 76.06 25.78 L 75.32 25.78 L 74.59 26.51 L 73.85 26.51 L 72.39 27.98 L 71.65 27.98 L 67.98 31.65 L 67.98 32.39 L 66.51 33.85 L 66.51 34.59 L 65.78 35.32 L 65.78 36.06 L 65.05 36.79 L 65.05 37.52 L 63.58 39.72 L 63.58 41.19 L 62.84 41.93 L 62.84 44.13 L 62.11 44.86 L 62.11 48.53 L 63.58 48.53 L 64.31 47.80 L 65.05 47.80 L 67.25 46.33 L 68.72 46.33 L 69.45 45.60 L 74.59 45.60 L 75.32 46.33 L 76.79 46.33 L 77.52 47.06 L 78.26 47.06 L 83.39 52.20 L 83.39 52.94 L 84.86 55.14 L 84.86 56.61 L 85.60 57.34 L 85.60 59.54 L 86.33 60.28 L 86.33 68.35 L 85.60 69.08 L 85.60 71.28 L 84.86 72.02 L 84.86 73.49 L 84.13 74.22 L 84.13 74.95 L 83.39 75.69 L 83.39 76.42 L 81.19 78.62 L 81.19 79.36 L 79.72 80.83 L 78.99 80.83 L 77.52 82.29 L 76.79 82.29 L 74.59 83.76 L 65.78 83.76 L 65.05 83.03 L 64.31 83.03 L 63.58 82.29 L 62.84 82.29 L 57.71 77.16 L 57.71 76.42 L 56.24 74.95 L 56.24 74.22 L 55.50 73.49 L 55.50 72.02 L 54.04 69.82 L 54.04 66.88 L 53.30 66.15 L 53.30 63.21 L 52.57 62.48 L 52.57 48.53 L 53.30 47.80 L 53.30 44.86 L 54.04 44.13 L 54.04 41.19 L 54.77 40.46 L 54.77 38.99 L 55.50 38.26 L 55.50 36.79 L 56.24 36.06 L 56.24 34.59 L 56.97 33.85 L 56.97 33.12 L 57.71 32.39 L 57.71 31.65 L 58.44 30.92 L 58.44 30.18 L 59.17 29.45 L 59.17 28.72 L 60.64 27.25 L 60.64 26.51 L 63.58 23.58 L 63.58 22.84 L 65.05 21.38 L 65.78 21.38 L 68.72 18.44 L 69.45 18.44 L 70.92 16.97 L 71.65 16.97 L 72.39 16.24 L 73.85 16.24 L 74.59 15.50 Z M 68.72 54.40 L 67.98 55.14 L 67.25 55.14 L 64.31 58.07 L 64.31 58.81 L 63.58 59.54 L 63.58 61.01 L 62.84 61.74 L 62.84 66.15 L 63.58 66.88 L 63.58 69.08 L 64.31 69.82 L 64.31 70.55 L 67.25 73.49 L 67.98 73.49 L 68.72 74.22 L 72.39 74.22 L 73.12 73.49 L 73.85 73.49 L 74.59 72.75 L 75.32 72.75 L 76.06 72.02 L 76.06 71.28 L 76.79 70.55 L 76.79 69.82 L 77.52 69.08 L 77.52 67.61 L 78.26 66.88 L 78.26 62.48 L 77.52 61.74 L 77.52 59.54 L 76.79 58.81 L 76.79 58.07 L 73.85 55.14 L 73.12 55.14 L 72.39 54.40 Z M 69.45 57.34 L 70.92 57.34 L 71.65 58.07 L 72.39 58.07 L 74.59 60.28 L 74.59 61.74 L 75.32 62.48 L 75.32 66.15 L 74.59 66.88 L 74.59 68.35 L 71.65 71.28 L 69.45 71.28 L 66.51 68.35 L 66.51 66.88 L 65.78 66.15 L 65.78 62.48 L 66.51 61.74 L 66.51 60.28 Z M 25.41 12.57 L 24.68 13.30 L 23.21 13.30 L 22.48 14.04 L 21.01 14.04 L 19.54 15.50 L 18.81 15.50 L 14.40 19.91 L 14.40 20.64 L 12.94 22.11 L 12.94 22.84 L 11.47 25.05 L 11.47 26.51 L 10.73 27.25 L 10.73 30.92 L 10.00 31.65 L 10.00 33.85 L 10.73 34.59 L 10.73 35.32 L 12.20 36.79 L 13.67 36.79 L 14.40 37.52 L 17.34 37.52 L 18.07 38.26 L 21.74 38.26 L 23.21 36.79 L 23.21 36.06 L 23.94 35.32 L 23.94 33.12 L 24.68 32.39 L 24.68 31.65 L 26.88 29.45 L 29.82 29.45 L 31.28 30.92 L 31.28 31.65 L 32.02 32.39 L 32.02 37.52 L 31.28 38.26 L 31.28 39.72 L 30.55 40.46 L 30.55 41.93 L 29.82 42.66 L 29.82 43.39 L 29.08 44.13 L 29.08 44.86 L 28.35 45.60 L 27.61 47.80 L 26.15 49.27 L 26.15 50.00 L 24.68 51.47 L 24.68 52.20 L 23.21 53.67 L 23.21 54.40 L 21.74 55.87 L 21.74 56.61 L 17.34 61.74 L 17.34 62.48 L 15.87 63.94 L 15.87 64.68 L 13.67 66.88 L 13.67 67.61 L 11.47 71.28 L 11.47 84.50 L 13.67 85.96 L 44.50 85.96 L 45.23 85.23 L 45.96 85.23 L 45.96 84.50 L 46.70 83.76 L 46.70 71.28 L 45.96 70.55 L 45.96 69.82 L 45.23 69.08 L 32.02 69.08 L 31.28 68.35 L 31.28 67.61 L 33.49 65.41 L 33.49 64.68 L 37.89 59.54 L 38.62 57.34 L 41.56 53.67 L 41.56 52.94 L 42.29 52.20 L 42.29 51.47 L 43.03 50.73 L 43.03 50.00 L 45.23 46.33 L 45.23 44.86 L 45.96 44.13 L 45.96 41.93 L 46.70 41.19 L 46.70 37.52 L 47.43 36.79 L 47.43 31.65 L 46.70 30.92 L 46.70 27.25 L 45.96 26.51 L 45.96 25.05 L 45.23 24.31 L 45.23 22.84 L 44.50 22.11 L 44.50 21.38 L 43.03 19.91 L 43.03 19.17 L 39.36 15.50 L 38.62 15.50 L 34.95 13.30 L 33.49 13.30 L 32.75 12.57 Z M 25.41 15.50 L 32.75 15.50 L 33.49 16.24 L 34.95 16.24 L 36.42 17.71 L 37.16 17.71 L 41.56 22.11 L 41.56 22.84 L 43.03 25.05 L 43.03 26.51 L 43.76 27.25 L 43.76 30.18 L 44.50 30.92 L 44.50 36.79 L 43.76 37.52 L 43.76 41.19 L 43.03 41.93 L 43.03 43.39 L 42.29 44.13 L 42.29 45.60 L 41.56 46.33 L 41.56 47.06 L 40.83 47.80 L 40.83 48.53 L 40.09 49.27 L 39.36 51.47 L 37.89 52.94 L 37.89 53.67 L 36.42 55.14 L 36.42 55.87 L 34.95 57.34 L 34.95 58.07 L 33.49 59.54 L 33.49 60.28 L 29.08 65.41 L 29.08 66.15 L 27.61 67.61 L 27.61 68.35 L 26.15 70.55 L 26.15 71.28 L 26.88 72.02 L 43.03 72.02 L 43.76 72.75 L 43.76 82.29 L 43.03 83.03 L 15.14 83.03 L 14.40 82.29 L 14.40 72.02 L 15.14 71.28 L 15.87 69.08 L 17.34 67.61 L 17.34 66.88 L 19.54 64.68 L 19.54 63.94 L 23.94 58.81 L 23.94 58.07 L 25.41 56.61 L 25.41 55.87 L 26.88 54.40 L 26.88 53.67 L 28.35 52.20 L 28.35 51.47 L 31.28 47.80 L 31.28 47.06 L 32.75 44.86 L 32.75 43.39 L 33.49 42.66 L 33.49 41.19 L 34.22 40.46 L 34.22 38.99 L 34.95 38.26 L 34.95 31.65 L 34.22 30.92 L 34.22 29.45 L 32.02 27.25 L 31.28 27.25 L 30.55 26.51 L 26.15 26.51 L 25.41 27.25 L 24.68 27.25 L 21.74 30.92 L 21.74 32.39 L 21.01 33.12 L 21.01 34.59 L 20.28 35.32 L 17.34 35.32 L 16.61 34.59 L 14.40 34.59 L 12.94 33.12 L 12.94 30.18 L 13.67 29.45 L 13.67 27.25 L 14.40 26.51 L 14.40 25.78 L 15.14 25.05 L 15.87 22.84 L 21.01 17.71 L 21.74 17.71 L 23.21 16.24 L 24.68 16.24 Z " fill="black" fill-rule="evenodd" stroke="none"/>
</svg>