<svg xmlns="http://www.w3.org/2000/svg" width="100" height="100" viewBox="0 0 100 100">
  <path d="M 86.95 12.29 L 85.43 12.29 L 84.67 11.52 L 77.05 11.52 L 76.29 12.29 L 61.81 12.29 L 61.05 13.05 L 52.67 13.05 L 51.14 14.57 L 51.14 16.10 L 50.38 16.86 L 50.38 23.71 L 51.14 24.48 L 51.14 28.29 L 52.67 29.81 L 70.95 29.81 L 71.71 30.57 L 70.95 31.33 L 70.95 32.86 L 69.43 35.14 L 69.43 36.67 L 68.67 37.43 L 68.67 38.95 L 67.14 41.24 L 67.14 42.76 L 66.38 43.52 L 66.38 45.05 L 65.62 45.81 L 65.62 47.33 L 64.86 48.10 L 64.86 49.62 L 64.10 50.38 L 64.10 51.90 L 63.33 52.67 L 63.33 54.19 L 62.57 54.95 L 62.57 56.48 L 61.81 57.24 L 61.81 59.52 L 61.05 60.29 L 61.05 61.81 L 60.29 62.57 L 60.29 64.86 L 59.52 65.62 L 59.52 67.14 L 58.76 67.90 L 58.76 70.19 L 58.00 70.95 L 58.00 72.48 L 57.24 73.24 L 57.24 75.52 L 56.48 76.29 L 56.48 78.57 L 55.71 79.33 L 55.71 81.62 L 54.95 82.38 L 54.95 84.67 L 57.24 86.95 L 61.05 86.95 L 61.81 87.71 L 70.95 87.71 L 72.48 85.43 L 72.48 83.90 L 73.24 83.14 L 73.24 80.10 L 74.00 79.33 L 74.00 77.05 L 74.76 76.29 L 74.76 73.24 L 75.52 72.48 L 75.52 70.19 L 76.29 69.43 L 76.29 67.14 L 77.05 66.38 L 77.05 64.10 L 77.81 63.33 L 77.81 61.05 L 78.57 60.29 L 78.57 58.00 L 79.33 57.24 L 79.33 55.71 L 80.10 54.95 L 80.10 52.67 L 80.86 51.90 L 80.86 50.38 L 81.62 49.62 L 81.62 47.33 L 82.38 46.57 L 82.38 45.05 L 83.14 44.29 L 83.14 42.76 L 83.90 42.00 L 83.90 40.48 L 84.67 39.71 L 84.67 38.19 L 85.43 37.43 L 85.43 35.90 L 86.19 35.14 L 86.19 33.62 L 86.95 32.86 L 86.95 31.33 L 87.71 30.57 L 87.71 29.81 L 88.48 29.05 L 88.48 27.52 L 89.24 26.76 L 89.24 16.86 L 88.48 16.10 L 88.48 13.81 Z M 84.67 14.57 L 86.19 16.10 L 86.19 26.00 L 85.43 26.76 L 85.43 28.29 L 84.67 29.05 L 84.67 30.57 L 83.90 31.33 L 83.90 32.86 L 82.38 35.14 L 82.38 36.67 L 81.62 37.43 L 81.62 38.95 L 80.86 39.71 L 80.86 41.24 L 80.10 42.00 L 80.10 43.52 L 79.33 44.29 L 79.33 45.81 L 78.57 46.57 L 78.57 48.86 L 77.81 49.62 L 77.81 51.14 L 77.05 51.90 L 77.05 54.19 L 76.29 54.95 L 76.29 57.24 L 75.52 58.00 L 75.52 59.52 L 74.76 60.29 L 74.76 62.57 L 74.00 63.33 L 74.00 65.62 L 73.24 66.38 L 73.24 68.67 L 72.48 69.43 L 72.48 72.48 L 71.71 73.24 L 71.71 75.52 L 70.95 76.29 L 70.95 79.33 L 70.19 80.10 L 70.19 82.38 L 69.43 83.14 L 69.43 84.67 L 68.67 85.43 L 67.90 85.43 L 67.14 84.67 L 60.29 84.67 L 58.00 83.14 L 58.00 82.38 L 58.76 81.62 L 58.76 79.33 L 59.52 78.57 L 59.52 76.29 L 60.29 75.52 L 60.29 74.00 L 61.05 73.24 L 61.05 70.95 L 61.81 70.19 L 61.81 68.67 L 62.57 67.90 L 62.57 65.62 L 63.33 64.86 L 63.33 63.33 L 64.10 62.57 L 64.10 60.29 L 64.86 59.52 L 64.86 58.00 L 65.62 57.24 L 65.62 55.71 L 66.38 54.95 L 66.38 53.43 L 67.14 52.67 L 67.14 51.14 L 67.90 50.38 L 67.90 48.86 L 68.67 48.10 L 68.67 46.57 L 69.43 45.81 L 69.43 44.29 L 70.19 43.52 L 70.19 42.00 L 70.95 41.24 L 70.95 39.71 L 72.48 37.43 L 72.48 35.90 L 73.24 35.14 L 73.24 33.62 L 74.76 31.33 L 74.76 29.05 L 75.52 28.29 L 74.76 27.52 L 74.76 26.76 L 54.19 26.76 L 53.43 26.00 L 53.43 16.10 L 54.19 15.33 L 72.48 15.33 L 73.24 14.57 Z M 23.71 12.29 L 22.95 13.05 L 21.43 13.05 L 19.90 14.57 L 19.14 14.57 L 14.57 19.14 L 14.57 19.90 L 13.05 21.43 L 13.05 22.19 L 11.52 24.48 L 11.52 26.76 L 10.76 27.52 L 10.76 30.57 L 10.00 31.33 L 10.00 33.62 L 11.52 35.90 L 12.29 35.90 L 14.57 37.43 L 17.62 37.43 L 18.38 38.19 L 22.19 38.19 L 22.95 37.43 L 23.71 37.43 L 23.71 36.67 L 24.48 35.90 L 24.48 32.86 L 25.24 32.10 L 25.24 31.33 L 27.52 29.05 L 30.57 29.05 L 32.10 30.57 L 32.10 31.33 L 32.86 32.10 L 32.86 37.43 L 32.10 38.19 L 32.10 40.48 L 31.33 41.24 L 31.33 42.00 L 30.57 42.76 L 30.57 43.52 L 29.81 44.29 L 29.81 45.05 L 29.05 45.81 L 28.29 48.10 L 26.76 49.62 L 26.76 50.38 L 25.24 51.90 L 25.24 52.67 L 23.71 54.19 L 23.71 54.95 L 19.14 60.29 L 19.14 61.05 L 17.62 62.57 L 17.62 63.33 L 15.33 65.62 L 15.33 66.38 L 13.81 67.90 L 13.81 68.67 L 12.29 70.19 L 12.29 70.95 L 11.52 71.71 L 11.52 85.43 L 12.29 86.19 L 12.29 86.95 L 13.05 86.95 L 13.81 87.71 L 45.81 87.71 L 48.10 85.43 L 48.10 71.71 L 46.57 70.19 L 32.10 70.19 L 31.33 69.43 L 33.62 67.14 L 33.62 66.38 L 35.90 64.10 L 35.90 63.33 L 38.19 61.05 L 38.19 60.29 L 41.24 56.48 L 41.24 55.71 L 42.00 54.95 L 42.00 54.19 L 43.52 52.67 L 43.52 51.90 L 45.05 49.62 L 45.05 48.10 L 46.57 45.81 L 46.57 44.29 L 47.33 43.52 L 47.33 41.24 L 48.10 40.48 L 48.10 35.90 L 48.86 35.14 L 48.86 32.86 L 48.10 32.10 L 48.10 26.76 L 47.33 26.00 L 47.33 24.48 L 46.57 23.71 L 46.57 22.19 L 45.05 20.67 L 44.29 18.38 L 40.48 14.57 L 39.71 14.57 L 35.90 12.29 L 34.38 12.29 L 33.62 11.52 L 26.76 11.52 L 26.00 12.29 Z M 26.00 14.57 L 33.62 14.57 L 34.38 15.33 L 35.90 15.33 L 37.43 16.86 L 38.19 16.86 L 42.76 21.43 L 42.76 22.19 L 44.29 24.48 L 44.29 26.00 L 45.05 26.76 L 45.05 29.81 L 45.81 30.57 L 45.81 36.67 L 45.05 37.43 L 45.05 40.48 L 44.29 41.24 L 44.29 43.52 L 42.76 45.81 L 42.76 47.33 L 41.24 48.86 L 41.24 50.38 L 39.71 51.90 L 38.95 54.19 L 37.43 55.71 L 37.43 56.48 L 35.90 58.00 L 35.90 58.76 L 33.62 61.05 L 33.62 61.81 L 31.33 64.10 L 31.33 64.86 L 29.81 66.38 L 29.81 67.14 L 28.29 68.67 L 28.29 69.43 L 26.76 71.71 L 26.76 72.48 L 27.52 73.24 L 44.29 73.24 L 45.81 74.76 L 45.81 81.62 L 45.05 82.38 L 45.05 83.90 L 44.29 84.67 L 15.33 84.67 L 14.57 83.90 L 14.57 82.38 L 13.81 81.62 L 13.81 75.52 L 14.57 74.76 L 14.57 73.24 L 15.33 72.48 L 16.10 70.19 L 17.62 68.67 L 17.62 67.90 L 19.90 65.62 L 19.90 64.86 L 24.48 59.52 L 24.48 58.76 L 26.00 57.24 L 26.00 56.48 L 27.52 54.95 L 27.52 54.19 L 30.57 50.38 L 30.57 49.62 L 31.33 48.86 L 31.33 48.10 L 32.10 47.33 L 32.10 46.57 L 32.86 45.81 L 32.86 45.05 L 34.38 42.76 L 34.38 41.24 L 35.14 40.48 L 35.14 38.19 L 35.90 37.43 L 35.90 32.10 L 35.14 31.33 L 35.14 29.81 L 34.38 29.05 L 34.38 28.29 L 32.86 26.76 L 32.10 26.76 L 31.33 26.00 L 26.76 26.00 L 25.24 27.52 L 24.48 27.52 L 23.71 28.29 L 23.71 29.05 L 22.19 30.57 L 22.19 32.10 L 21.43 32.86 L 21.43 34.38 L 20.67 35.14 L 17.62 35.14 L 16.86 34.38 L 14.57 34.38 L 13.05 32.86 L 13.05 30.57 L 13.81 29.81 L 13.81 26.76 L 14.57 26.00 L 14.57 25.24 L 15.33 24.48 L 16.10 22.19 L 22.19 16.10 L 22.95 16.10 L 23.71 15.33 L 25.24 15.33 Z " fill="black" fill-rule="evenodd" stroke="none"/>
</svg>