<svg xmlns="http://www.w3.org/2000/svg" width="100" height="100" viewBox="0 0 100 100">
  <path d="M 24.95 11.87 L 24.21 12.62 L 22.71 12.62 L 21.96 13.36 L 21.21 13.36 L 20.47 14.11 L 18.22 14.86 L 13.74 19.35 L 13.74 20.09 L 12.99 20.84 L 12.99 21.59 L 10.75 25.33 L 10.75 26.82 L 10.00 27.57 L 10.00 35.05 L 13.74 37.29 L 16.73 37.29 L 17.48 38.04 L 21.96 38.04 L 23.46 35.79 L 23.46 33.55 L 24.21 32.80 L 24.95 30.56 L 26.45 29.07 L 29.44 29.07 L 30.93 30.56 L 30.93 31.31 L 31.68 32.06 L 31.68 38.04 L 30.93 38.79 L 30.93 40.28 L 29.44 42.52 L 29.44 44.02 L 27.94 45.51 L 27.94 46.26 L 27.20 47.01 L 26.45 49.25 L 24.95 50.75 L 24.95 51.50 L 23.46 52.99 L 23.46 53.74 L 21.21 55.98 L 21.21 56.73 L 19.72 58.22 L 19.72 58.97 L 15.23 64.21 L 15.23 64.95 L 13.74 66.45 L 13.74 67.20 L 12.24 68.69 L 12.24 69.44 L 10.75 71.68 L 10.75 84.39 L 12.99 86.64 L 44.39 86.64 L 46.64 85.14 L 46.64 83.64 L 47.38 82.90 L 47.38 73.93 L 46.64 73.18 L 46.64 70.93 L 45.14 69.44 L 31.68 69.44 L 30.93 68.69 L 30.93 67.94 L 33.18 65.70 L 33.18 64.95 L 36.17 61.96 L 36.17 61.21 L 37.66 59.72 L 37.66 58.97 L 40.65 55.23 L 40.65 54.49 L 41.40 53.74 L 41.40 52.99 L 42.15 52.24 L 42.15 51.50 L 42.90 50.75 L 42.90 50.00 L 45.14 46.26 L 45.14 44.77 L 45.89 44.02 L 45.89 42.52 L 46.64 41.78 L 46.64 38.04 L 47.38 37.29 L 47.38 30.56 L 46.64 29.81 L 46.64 26.07 L 45.89 25.33 L 45.89 23.83 L 45.14 23.08 L 45.14 22.34 L 44.39 21.59 L 43.64 19.35 L 39.16 14.86 L 38.41 14.86 L 36.92 13.36 L 35.42 13.36 L 33.18 11.87 Z M 24.95 14.86 L 32.43 14.86 L 33.18 15.61 L 34.67 15.61 L 36.17 17.10 L 36.92 17.10 L 41.40 21.59 L 41.40 22.34 L 42.90 24.58 L 42.90 26.07 L 43.64 26.82 L 43.64 29.07 L 44.39 29.81 L 44.39 37.29 L 43.64 38.04 L 43.64 41.03 L 42.90 41.78 L 42.90 43.27 L 42.15 44.02 L 42.15 45.51 L 41.40 46.26 L 41.40 47.01 L 40.65 47.76 L 40.65 48.50 L 39.91 49.25 L 39.16 51.50 L 37.66 52.99 L 36.92 55.23 L 35.42 56.73 L 35.42 57.48 L 33.18 59.72 L 33.18 60.47 L 30.93 62.71 L 30.93 63.46 L 29.44 64.95 L 29.44 65.70 L 27.20 67.94 L 27.20 68.69 L 25.70 70.93 L 25.70 71.68 L 26.45 72.43 L 43.64 72.43 L 44.39 73.18 L 44.39 82.90 L 43.64 83.64 L 14.49 83.64 L 13.74 82.90 L 13.74 72.43 L 14.49 71.68 L 14.49 70.93 L 15.98 69.44 L 15.98 68.69 L 17.48 67.20 L 17.48 66.45 L 19.72 64.21 L 19.72 63.46 L 21.96 61.21 L 21.96 60.47 L 23.46 58.97 L 23.46 58.22 L 25.70 55.98 L 25.70 55.23 L 28.69 51.50 L 29.44 49.25 L 30.93 47.76 L 30.93 47.01 L 31.68 46.26 L 31.68 45.51 L 33.18 43.27 L 33.18 41.78 L 33.93 41.03 L 33.93 38.79 L 34.67 38.04 L 34.67 30.56 L 33.93 29.81 L 33.93 29.07 L 30.93 26.07 L 25.70 26.07 L 24.21 27.57 L 23.46 27.57 L 23.46 28.32 L 21.96 29.81 L 21.96 30.56 L 21.21 31.31 L 21.21 32.80 L 19.72 35.05 L 16.73 35.05 L 15.98 34.30 L 13.74 34.30 L 12.24 32.80 L 12.24 31.31 L 12.99 30.56 L 12.99 27.57 L 13.74 26.82 L 13.74 25.33 L 14.49 24.58 L 15.23 22.34 L 20.47 17.10 L 21.21 17.10 L 22.71 15.61 L 24.21 15.61 Z M 70.56 11.12 L 67.57 11.12 L 66.82 11.87 L 63.83 11.87 L 63.08 12.62 L 62.34 12.62 L 61.59 13.36 L 60.84 13.36 L 60.09 14.11 L 59.35 14.11 L 55.61 17.85 L 55.61 18.60 L 54.86 19.35 L 54.86 20.09 L 53.36 22.34 L 53.36 23.83 L 52.62 24.58 L 52.62 35.79 L 53.36 36.54 L 53.36 38.04 L 54.11 38.79 L 54.11 40.28 L 54.86 41.03 L 54.86 41.78 L 56.36 43.27 L 56.36 44.02 L 57.85 45.51 L 56.36 47.01 L 56.36 47.76 L 54.11 50.00 L 54.11 50.75 L 53.36 51.50 L 53.36 52.24 L 52.62 52.99 L 52.62 53.74 L 51.87 54.49 L 51.87 55.23 L 50.37 57.48 L 50.37 59.72 L 49.63 60.47 L 49.63 70.93 L 50.37 71.68 L 50.37 73.93 L 51.87 76.17 L 51.87 77.66 L 53.36 79.16 L 53.36 79.91 L 57.85 84.39 L 58.60 84.39 L 59.35 85.14 L 60.09 85.14 L 62.34 86.64 L 63.83 86.64 L 64.58 87.38 L 68.32 87.38 L 69.07 88.13 L 69.81 87.38 L 74.30 87.38 L 75.05 86.64 L 76.54 86.64 L 77.29 85.89 L 78.04 85.89 L 78.79 85.14 L 79.53 85.14 L 80.28 84.39 L 81.03 84.39 L 85.51 79.91 L 85.51 79.16 L 87.01 77.66 L 87.01 76.92 L 87.76 76.17 L 87.76 74.67 L 88.50 73.93 L 88.50 72.43 L 89.25 71.68 L 89.25 60.47 L 88.50 59.72 L 88.50 57.48 L 87.76 56.73 L 87.76 55.98 L 87.01 55.23 L 87.01 53.74 L 85.51 52.24 L 85.51 51.50 L 84.77 50.75 L 84.77 50.00 L 80.28 45.51 L 81.78 44.02 L 81.78 43.27 L 83.27 41.78 L 83.27 41.03 L 84.02 40.28 L 84.02 39.53 L 85.51 37.29 L 85.51 35.05 L 86.26 34.30 L 86.26 26.07 L 85.51 25.33 L 85.51 23.08 L 84.77 22.34 L 84.77 20.84 L 84.02 20.09 L 84.02 19.35 L 82.52 17.85 L 82.52 17.10 L 80.28 14.86 L 79.53 14.86 L 78.04 13.36 L 77.29 13.36 L 76.54 12.62 L 75.05 12.62 L 74.30 11.87 L 71.31 11.87 Z M 67.57 14.11 L 71.31 14.11 L 72.06 14.86 L 74.30 14.86 L 75.05 15.61 L 75.79 15.61 L 77.29 17.10 L 78.04 17.10 L 80.28 19.35 L 80.28 20.09 L 81.78 21.59 L 81.78 22.34 L 82.52 23.08 L 82.52 24.58 L 83.27 25.33 L 83.27 33.55 L 82.52 34.30 L 82.52 35.79 L 81.78 36.54 L 81.78 38.04 L 81.03 38.79 L 81.03 39.53 L 79.53 41.03 L 79.53 41.78 L 76.54 44.77 L 76.54 46.26 L 82.52 52.24 L 82.52 52.99 L 84.02 54.49 L 84.02 55.23 L 84.77 55.98 L 84.77 57.48 L 85.51 58.22 L 85.51 59.72 L 86.26 60.47 L 86.26 70.93 L 85.51 71.68 L 85.51 73.18 L 84.77 73.93 L 84.77 75.42 L 83.27 76.92 L 83.27 77.66 L 79.53 81.40 L 78.79 81.40 L 77.29 82.90 L 76.54 82.90 L 75.79 83.64 L 75.05 83.64 L 74.30 84.39 L 71.31 84.39 L 70.56 85.14 L 67.57 85.14 L 66.82 84.39 L 64.58 84.39 L 63.83 83.64 L 62.34 83.64 L 60.84 82.15 L 60.09 82.15 L 55.61 77.66 L 55.61 76.92 L 54.86 76.17 L 54.86 75.42 L 54.11 74.67 L 54.11 73.93 L 53.36 73.18 L 53.36 70.93 L 52.62 70.19 L 52.62 61.21 L 53.36 60.47 L 53.36 58.22 L 54.11 57.48 L 54.11 56.73 L 54.86 55.98 L 54.86 54.49 L 56.36 52.99 L 56.36 52.24 L 59.35 49.25 L 59.35 48.50 L 61.59 46.26 L 61.59 45.51 L 60.09 44.02 L 60.09 43.27 L 58.60 41.78 L 58.60 41.03 L 57.10 39.53 L 57.10 38.79 L 56.36 38.04 L 56.36 36.54 L 55.61 35.79 L 55.61 32.80 L 54.86 32.06 L 54.86 29.07 L 55.61 28.32 L 55.61 24.58 L 56.36 23.83 L 56.36 23.08 L 57.10 22.34 L 57.10 21.59 L 57.85 20.84 L 57.85 20.09 L 62.34 15.61 L 63.83 15.61 L 64.58 14.86 L 66.82 14.86 Z M 71.31 53.74 L 67.57 53.74 L 66.82 54.49 L 66.07 54.49 L 63.83 56.73 L 63.83 57.48 L 63.08 58.22 L 63.08 59.72 L 62.34 60.47 L 62.34 61.96 L 61.59 62.71 L 61.59 66.45 L 62.34 67.20 L 62.34 69.44 L 63.08 70.19 L 63.08 71.68 L 65.33 73.93 L 66.07 73.93 L 66.82 74.67 L 68.32 74.67 L 69.07 75.42 L 69.81 74.67 L 72.06 74.67 L 72.80 73.93 L 73.55 73.93 L 74.30 73.18 L 74.30 72.43 L 75.79 70.93 L 75.79 70.19 L 76.54 69.44 L 76.54 67.94 L 77.29 67.20 L 77.29 63.46 L 76.54 62.71 L 76.54 60.47 L 75.79 59.72 L 75.79 58.97 L 75.05 58.22 L 75.05 57.48 Z M 68.32 56.73 L 69.81 56.73 L 72.80 59.72 L 72.80 60.47 L 73.55 61.21 L 73.55 63.46 L 74.30 64.21 L 74.30 65.70 L 73.55 66.45 L 73.55 68.69 L 72.80 69.44 L 72.80 70.19 L 71.31 71.68 L 70.56 71.68 L 69.81 72.43 L 69.07 72.43 L 68.32 71.68 L 67.57 71.68 L 66.07 70.19 L 66.07 69.44 L 65.33 68.69 L 65.33 66.45 L 64.58 65.70 L 64.58 64.21 L 65.33 63.46 L 65.33 60.47 L 66.82 58.97 L 66.82 58.22 Z M 68.32 22.34 L 67.57 23.08 L 66.82 23.08 L 66.07 23.83 L 65.33 23.83 L 64.58 24.58 L 64.58 25.33 L 63.83 26.07 L 63.83 26.82 L 63.08 27.57 L 63.08 32.80 L 63.83 33.55 L 63.83 35.05 L 65.33 36.54 L 65.33 37.29 L 66.82 38.79 L 67.57 38.79 L 68.32 39.53 L 69.81 39.53 L 70.56 38.79 L 71.31 38.79 L 73.55 36.54 L 73.55 35.79 L 74.30 35.05 L 74.30 34.30 L 75.05 33.55 L 75.05 27.57 L 74.30 26.82 L 74.30 25.33 L 72.06 23.08 L 70.56 23.08 L 69.81 22.34 Z M 69.07 25.33 L 69.81 25.33 L 72.06 27.57 L 72.06 32.80 L 70.56 34.30 L 70.56 35.05 L 69.81 35.79 L 68.32 35.79 L 67.57 35.05 L 67.57 34.30 L 66.82 33.55 L 66.82 32.80 L 66.07 32.06 L 66.07 28.32 L 66.82 27.57 L 66.82 26.82 L 67.57 26.07 L 68.32 26.07 Z " fill="black" fill-rule="evenodd" stroke="none"/>
</svg>