<svg xmlns="http://www.w3.org/2000/svg" width="100" height="100" viewBox="0 0 100 100">
  <path d="M 72.96 12.22 L 65.56 12.22 L 64.81 12.96 L 63.33 12.96 L 62.59 13.70 L 61.11 13.70 L 60.37 14.44 L 59.63 14.44 L 54.44 19.63 L 54.44 20.37 L 52.96 21.85 L 52.96 22.59 L 51.48 24.81 L 51.48 26.30 L 50.74 27.04 L 50.74 30.00 L 50.00 30.74 L 50.00 39.63 L 50.74 40.37 L 50.74 43.33 L 51.48 44.07 L 51.48 45.56 L 52.22 46.30 L 52.22 47.04 L 52.96 47.78 L 52.96 48.52 L 54.44 50.00 L 54.44 50.74 L 58.15 54.44 L 58.89 54.44 L 60.37 55.93 L 61.85 55.93 L 62.59 56.67 L 65.56 56.67 L 66.30 57.41 L 68.52 57.41 L 69.26 56.67 L 71.48 56.67 L 72.22 57.41 L 71.48 58.15 L 71.48 58.89 L 70.74 59.63 L 70.74 60.37 L 70.00 61.11 L 70.00 61.85 L 69.26 62.59 L 69.26 63.33 L 63.33 69.26 L 62.59 69.26 L 61.11 70.74 L 60.37 70.74 L 59.63 71.48 L 58.15 71.48 L 57.41 72.22 L 56.67 72.22 L 55.19 73.70 L 55.19 76.67 L 55.93 77.41 L 55.93 78.89 L 56.67 79.63 L 56.67 81.85 L 57.41 82.59 L 57.41 84.07 L 58.15 84.81 L 58.15 85.56 L 60.37 87.04 L 62.59 87.04 L 63.33 86.30 L 65.56 86.30 L 66.30 85.56 L 67.04 85.56 L 67.78 84.81 L 68.52 84.81 L 69.26 84.07 L 70.00 84.07 L 70.74 83.33 L 71.48 83.33 L 75.19 79.63 L 75.93 79.63 L 75.93 78.89 L 79.63 75.19 L 79.63 74.44 L 81.11 72.96 L 81.11 72.22 L 82.59 70.74 L 82.59 70.00 L 83.33 69.26 L 83.33 68.52 L 84.81 66.30 L 84.81 64.81 L 85.56 64.07 L 85.56 62.59 L 86.30 61.85 L 86.30 60.37 L 87.04 59.63 L 87.04 58.15 L 87.78 57.41 L 87.78 55.19 L 88.52 54.44 L 88.52 50.74 L 89.26 50.00 L 89.26 32.22 L 88.52 31.48 L 88.52 28.52 L 87.78 27.78 L 87.78 26.30 L 87.04 25.56 L 87.04 24.07 L 86.30 23.33 L 86.30 22.59 L 85.56 21.85 L 85.56 21.11 L 84.07 19.63 L 84.07 18.89 L 81.11 15.93 L 80.37 15.93 L 78.89 14.44 L 78.15 14.44 L 75.93 12.96 L 73.70 12.96 Z M 73.70 15.19 L 74.44 15.93 L 75.19 15.93 L 75.93 16.67 L 76.67 16.67 L 77.41 17.41 L 78.15 17.41 L 82.59 21.85 L 82.59 22.59 L 83.33 23.33 L 83.33 24.07 L 84.07 24.81 L 84.07 25.56 L 84.81 26.30 L 84.81 27.78 L 85.56 28.52 L 85.56 31.48 L 86.30 32.22 L 86.30 50.00 L 85.56 50.74 L 85.56 53.70 L 84.81 54.44 L 84.81 56.67 L 84.07 57.41 L 84.07 59.63 L 83.33 60.37 L 83.33 61.85 L 82.59 62.59 L 82.59 63.33 L 81.85 64.07 L 81.85 65.56 L 81.11 66.30 L 81.11 67.04 L 79.63 68.52 L 79.63 69.26 L 78.89 70.00 L 78.89 70.74 L 77.41 72.22 L 77.41 72.96 L 70.00 80.37 L 69.26 80.37 L 67.78 81.85 L 67.04 81.85 L 66.30 82.59 L 65.56 82.59 L 64.81 83.33 L 62.59 83.33 L 61.85 84.07 L 61.11 84.07 L 60.37 83.33 L 60.37 81.85 L 59.63 81.11 L 59.63 79.63 L 58.89 78.89 L 58.89 77.41 L 58.15 76.67 L 58.15 75.19 L 58.89 74.44 L 59.63 74.44 L 60.37 73.70 L 61.85 73.70 L 62.59 72.96 L 63.33 72.96 L 64.81 71.48 L 65.56 71.48 L 69.26 67.78 L 70.00 67.78 L 70.00 67.04 L 71.48 65.56 L 71.48 64.81 L 72.96 63.33 L 72.96 62.59 L 73.70 61.85 L 73.70 60.37 L 74.44 59.63 L 74.44 58.15 L 75.19 57.41 L 75.19 55.93 L 75.93 55.19 L 75.93 52.22 L 75.19 51.48 L 74.44 52.22 L 73.70 52.22 L 72.96 52.96 L 72.22 52.96 L 71.48 53.70 L 68.52 53.70 L 67.78 54.44 L 67.04 54.44 L 66.30 53.70 L 63.33 53.70 L 62.59 52.96 L 61.85 52.96 L 61.11 52.22 L 60.37 52.22 L 55.93 47.78 L 55.93 47.04 L 55.19 46.30 L 55.19 45.56 L 54.44 44.81 L 54.44 43.33 L 53.70 42.59 L 53.70 40.37 L 52.96 39.63 L 52.96 30.74 L 53.70 30.00 L 53.70 27.78 L 54.44 27.04 L 54.44 25.56 L 55.19 24.81 L 55.19 24.07 L 55.93 23.33 L 55.93 22.59 L 61.11 17.41 L 61.85 17.41 L 63.33 15.93 L 64.81 15.93 L 65.56 15.19 Z M 66.30 24.81 L 65.56 25.56 L 64.81 25.56 L 64.07 26.30 L 64.07 27.04 L 62.59 28.52 L 62.59 29.26 L 61.85 30.00 L 61.85 32.22 L 61.11 32.96 L 61.11 36.67 L 61.85 37.41 L 61.85 39.63 L 62.59 40.37 L 62.59 41.11 L 65.56 44.07 L 66.30 44.07 L 67.04 44.81 L 71.48 44.81 L 72.22 44.07 L 72.96 44.07 L 75.19 41.85 L 75.19 41.11 L 75.93 40.37 L 75.93 39.63 L 76.67 38.89 L 76.67 31.48 L 75.93 30.74 L 75.93 29.26 L 75.19 28.52 L 75.19 27.78 L 72.96 25.56 L 72.22 25.56 L 71.48 24.81 Z M 69.26 27.04 L 70.00 27.78 L 70.74 27.78 L 72.96 30.00 L 72.96 30.74 L 73.70 31.48 L 73.70 38.15 L 72.96 38.89 L 72.96 39.63 L 70.74 41.85 L 67.78 41.85 L 64.81 38.89 L 64.81 37.41 L 64.07 36.67 L 64.07 33.70 L 64.81 32.96 L 64.81 30.74 L 67.78 27.78 L 68.52 27.78 Z M 25.56 12.22 L 24.81 12.96 L 23.33 12.96 L 22.59 13.70 L 21.11 13.70 L 19.63 15.19 L 18.89 15.19 L 14.44 19.63 L 14.44 20.37 L 12.96 21.85 L 12.96 22.59 L 11.48 24.81 L 11.48 27.04 L 10.74 27.78 L 10.74 30.74 L 10.00 31.48 L 10.00 34.44 L 12.22 36.67 L 13.70 36.67 L 14.44 37.41 L 17.41 37.41 L 18.15 38.15 L 21.85 38.15 L 22.59 37.41 L 23.33 37.41 L 23.33 36.67 L 24.07 35.93 L 24.07 32.96 L 24.81 32.22 L 24.81 31.48 L 27.04 29.26 L 30.00 29.26 L 32.22 31.48 L 32.22 37.41 L 31.48 38.15 L 31.48 40.37 L 30.74 41.11 L 30.74 41.85 L 30.00 42.59 L 30.00 43.33 L 29.26 44.07 L 29.26 44.81 L 28.52 45.56 L 28.52 46.30 L 27.78 47.04 L 27.04 49.26 L 25.56 50.74 L 25.56 51.48 L 23.33 53.70 L 23.33 54.44 L 21.85 55.93 L 21.85 56.67 L 20.37 58.15 L 20.37 58.89 L 15.93 64.07 L 15.93 64.81 L 14.44 66.30 L 14.44 67.04 L 12.96 68.52 L 12.96 69.26 L 11.48 71.48 L 11.48 84.07 L 13.70 86.30 L 45.56 86.30 L 47.04 84.81 L 47.04 83.33 L 47.78 82.59 L 47.78 72.96 L 47.04 72.22 L 47.04 70.00 L 46.30 70.00 L 45.56 69.26 L 32.22 69.26 L 31.48 68.52 L 31.48 67.78 L 33.70 65.56 L 33.70 64.81 L 35.93 62.59 L 35.93 61.85 L 38.15 59.63 L 38.15 58.89 L 41.11 55.19 L 41.11 54.44 L 41.85 53.70 L 41.85 52.96 L 42.59 52.22 L 42.59 51.48 L 43.33 50.74 L 43.33 50.00 L 45.56 46.30 L 45.56 44.81 L 46.30 44.07 L 46.30 41.85 L 47.04 41.11 L 47.04 37.41 L 47.78 36.67 L 47.78 30.74 L 47.04 30.00 L 47.04 26.30 L 46.30 25.56 L 46.30 24.07 L 45.56 23.33 L 45.56 22.59 L 44.81 21.85 L 44.07 19.63 L 39.63 15.19 L 38.89 15.19 L 37.41 13.70 L 35.93 13.70 L 35.19 12.96 L 33.70 12.96 L 32.96 12.22 Z M 25.56 15.19 L 32.96 15.19 L 33.70 15.93 L 35.19 15.93 L 36.67 17.41 L 37.41 17.41 L 41.85 21.85 L 41.85 22.59 L 43.33 24.81 L 43.33 26.30 L 44.07 27.04 L 44.07 29.26 L 44.81 30.00 L 44.81 38.15 L 44.07 38.89 L 44.07 41.11 L 43.33 41.85 L 43.33 43.33 L 42.59 44.07 L 42.59 45.56 L 41.85 46.30 L 41.85 47.04 L 41.11 47.78 L 41.11 48.52 L 40.37 49.26 L 39.63 51.48 L 38.15 52.96 L 37.41 55.19 L 35.93 56.67 L 35.93 57.41 L 33.70 59.63 L 33.70 60.37 L 32.22 61.85 L 32.22 62.59 L 30.00 64.81 L 30.00 65.56 L 27.04 69.26 L 27.04 72.22 L 44.07 72.22 L 44.81 72.96 L 44.81 82.59 L 44.07 83.33 L 15.19 83.33 L 14.44 82.59 L 14.44 72.22 L 15.19 71.48 L 15.19 70.74 L 16.67 69.26 L 16.67 68.52 L 18.15 67.04 L 18.15 66.30 L 19.63 64.81 L 19.63 64.07 L 22.59 61.11 L 22.59 60.37 L 24.07 58.89 L 24.07 58.15 L 26.30 55.93 L 26.30 55.19 L 29.26 51.48 L 29.26 50.74 L 30.00 50.00 L 30.74 47.78 L 32.22 46.30 L 32.22 44.81 L 33.70 42.59 L 33.70 41.11 L 34.44 40.37 L 34.44 38.89 L 35.19 38.15 L 35.19 31.48 L 34.44 30.74 L 33.70 28.52 L 32.22 27.04 L 31.48 27.04 L 30.74 26.30 L 26.30 26.30 L 25.56 27.04 L 24.81 27.04 L 23.33 28.52 L 23.33 29.26 L 21.85 31.48 L 21.85 32.96 L 20.37 35.19 L 17.41 35.19 L 16.67 34.44 L 14.44 34.44 L 12.96 32.96 L 12.96 31.48 L 13.70 30.74 L 13.70 27.78 L 14.44 27.04 L 14.44 25.56 L 15.19 24.81 L 15.93 22.59 L 21.85 16.67 L 22.59 16.67 L 23.33 15.93 L 24.81 15.93 Z " fill="black" fill-rule="evenodd" stroke="none"/>
</svg>