<svg xmlns="http://www.w3.org/2000/svg" width="100" height="100" viewBox="0 0 100 100">
  <path d="M 42.55 10.00 L 41.76 10.78 L 40.20 10.78 L 39.41 11.57 L 37.84 11.57 L 37.06 12.35 L 36.27 12.35 L 34.71 13.92 L 33.92 13.92 L 30.00 17.84 L 30.00 21.76 L 31.57 23.33 L 31.57 24.12 L 34.71 27.25 L 34.71 28.04 L 36.27 29.61 L 37.06 29.61 L 37.84 30.39 L 40.20 29.61 L 42.55 27.25 L 43.33 27.25 L 44.12 26.47 L 48.04 26.47 L 50.39 28.82 L 50.39 32.75 L 49.61 33.53 L 49.61 34.31 L 48.04 35.88 L 47.25 35.88 L 44.90 37.45 L 42.55 37.45 L 41.76 38.24 L 40.20 38.24 L 38.63 39.80 L 38.63 47.65 L 39.41 48.43 L 39.41 51.57 L 40.20 52.35 L 40.98 52.35 L 41.76 53.14 L 45.69 53.14 L 46.47 53.92 L 48.82 53.92 L 52.75 57.84 L 52.75 58.63 L 53.53 59.41 L 53.53 61.76 L 54.31 62.55 L 54.31 64.12 L 53.53 64.90 L 53.53 67.25 L 52.75 68.04 L 52.75 68.82 L 51.18 70.39 L 50.39 70.39 L 49.61 71.18 L 46.47 71.18 L 43.33 68.04 L 43.33 67.25 L 41.76 64.90 L 37.06 64.90 L 36.27 65.69 L 35.49 65.69 L 34.71 66.47 L 32.35 67.25 L 30.78 68.82 L 30.00 68.82 L 30.00 69.61 L 29.22 70.39 L 29.22 74.31 L 30.00 75.10 L 30.00 76.67 L 30.78 77.45 L 31.57 79.80 L 33.14 81.37 L 33.14 82.16 L 36.27 85.29 L 37.06 85.29 L 38.63 86.86 L 39.41 86.86 L 41.76 88.43 L 44.12 88.43 L 44.90 89.22 L 52.75 89.22 L 53.53 88.43 L 55.10 88.43 L 55.88 87.65 L 57.45 87.65 L 58.24 86.86 L 59.02 86.86 L 60.59 85.29 L 61.37 85.29 L 65.29 81.37 L 65.29 80.59 L 66.86 79.02 L 66.86 78.24 L 69.22 74.31 L 69.22 71.96 L 70.00 71.18 L 70.00 58.63 L 69.22 57.84 L 69.22 55.49 L 68.43 54.71 L 68.43 53.14 L 67.65 52.35 L 66.86 50.00 L 65.29 48.43 L 65.29 47.65 L 61.37 43.73 L 61.37 42.94 L 62.94 41.37 L 62.94 40.59 L 65.29 36.67 L 65.29 35.10 L 66.08 34.31 L 66.08 24.90 L 65.29 24.12 L 65.29 22.55 L 64.51 21.76 L 64.51 20.20 L 62.94 18.63 L 62.94 17.84 L 58.24 13.14 L 57.45 13.14 L 55.88 11.57 L 54.31 11.57 L 53.53 10.78 L 51.96 10.78 L 51.18 10.00 Z M 43.33 13.14 L 51.18 13.14 L 51.96 13.92 L 53.53 13.92 L 54.31 14.71 L 56.67 15.49 L 59.80 18.63 L 59.80 19.41 L 61.37 20.98 L 61.37 21.76 L 62.16 22.55 L 62.16 24.12 L 62.94 24.90 L 62.94 28.04 L 63.73 28.82 L 63.73 29.61 L 62.94 30.39 L 62.94 34.31 L 62.16 35.10 L 62.16 35.88 L 61.37 36.67 L 60.59 39.02 L 56.67 42.94 L 56.67 43.73 L 63.73 50.78 L 63.73 51.57 L 64.51 52.35 L 64.51 53.14 L 66.08 55.49 L 66.08 57.06 L 66.86 57.84 L 66.86 71.18 L 66.08 71.96 L 66.08 73.53 L 65.29 74.31 L 65.29 75.10 L 64.51 75.88 L 63.73 78.24 L 59.02 82.94 L 58.24 82.94 L 56.67 84.51 L 55.88 84.51 L 55.10 85.29 L 52.75 85.29 L 51.96 86.08 L 44.90 86.08 L 44.12 85.29 L 42.55 85.29 L 41.76 84.51 L 39.41 83.73 L 34.71 79.02 L 34.71 78.24 L 33.92 77.45 L 33.92 76.67 L 32.35 74.31 L 32.35 71.18 L 33.14 70.39 L 33.92 70.39 L 34.71 69.61 L 35.49 69.61 L 36.27 68.82 L 37.06 68.82 L 39.41 67.25 L 40.98 68.82 L 40.98 70.39 L 44.12 73.53 L 44.90 73.53 L 45.69 74.31 L 50.39 74.31 L 51.18 73.53 L 53.53 72.75 L 56.67 68.04 L 56.67 58.63 L 55.88 57.84 L 55.10 55.49 L 51.18 51.57 L 49.61 51.57 L 48.82 50.78 L 46.47 50.78 L 45.69 50.00 L 42.55 50.00 L 41.76 49.22 L 41.76 41.37 L 42.55 40.59 L 44.90 40.59 L 45.69 39.80 L 47.25 39.80 L 48.04 39.02 L 50.39 38.24 L 51.96 36.67 L 51.96 35.88 L 53.53 34.31 L 53.53 28.04 L 52.75 27.25 L 52.75 26.47 L 50.39 24.12 L 49.61 24.12 L 48.82 23.33 L 43.33 23.33 L 42.55 24.12 L 40.20 24.90 L 38.63 26.47 L 37.84 26.47 L 37.06 25.69 L 37.06 24.90 L 33.92 21.76 L 33.92 20.98 L 33.14 20.20 L 33.14 19.41 L 37.06 15.49 L 37.84 15.49 L 40.20 13.92 L 42.55 13.92 Z " fill="black" fill-rule="evenodd" stroke="none"/>
</svg>