<svg xmlns="http://www.w3.org/2000/svg" width="100" height="100" viewBox="0 0 100 100">
  <path d="M 66.64 13.89 L 65.93 14.60 L 64.51 14.60 L 63.81 15.31 L 63.10 15.31 L 62.39 16.02 L 61.68 16.02 L 57.43 20.27 L 57.43 20.97 L 56.02 22.39 L 56.02 23.10 L 55.31 23.81 L 55.31 24.51 L 53.89 25.93 L 53.89 27.35 L 53.19 28.05 L 53.19 29.47 L 52.48 30.18 L 52.48 31.59 L 51.77 32.30 L 51.77 34.42 L 51.06 35.13 L 51.06 37.26 L 50.35 37.96 L 50.35 42.92 L 49.65 43.63 L 49.65 57.08 L 50.35 57.79 L 50.35 62.74 L 51.06 63.45 L 51.06 65.58 L 51.77 66.28 L 51.77 68.41 L 52.48 69.12 L 52.48 70.53 L 53.19 71.24 L 53.19 71.95 L 53.89 72.65 L 53.89 73.36 L 54.60 74.07 L 54.60 75.49 L 56.02 76.90 L 56.02 77.61 L 57.43 79.03 L 57.43 79.73 L 60.27 82.57 L 60.97 82.57 L 62.39 83.98 L 63.10 83.98 L 63.81 84.69 L 65.22 84.69 L 65.93 85.40 L 73.72 85.40 L 74.42 84.69 L 75.84 84.69 L 77.26 83.27 L 77.96 83.27 L 82.21 79.03 L 82.21 78.32 L 83.63 76.90 L 83.63 76.19 L 84.34 75.49 L 84.34 74.78 L 85.04 74.07 L 85.04 73.36 L 85.75 72.65 L 85.75 71.24 L 86.46 70.53 L 86.46 69.12 L 87.17 68.41 L 87.17 66.28 L 87.88 65.58 L 87.88 63.45 L 88.58 62.74 L 88.58 58.50 L 89.29 57.79 L 89.29 41.50 L 88.58 40.80 L 88.58 37.26 L 87.88 36.55 L 87.88 33.72 L 87.17 33.01 L 87.17 31.59 L 86.46 30.88 L 86.46 28.76 L 85.75 28.05 L 85.75 27.35 L 85.04 26.64 L 85.04 25.93 L 84.34 25.22 L 84.34 23.81 L 82.92 22.39 L 82.92 21.68 L 81.50 20.27 L 81.50 19.56 L 78.67 16.73 L 77.96 16.73 L 76.55 15.31 L 75.84 15.31 L 75.13 14.60 L 73.72 14.60 L 73.01 13.89 Z M 66.64 16.73 L 73.01 16.73 L 73.72 17.43 L 74.42 17.43 L 75.84 18.85 L 76.55 18.85 L 79.38 21.68 L 79.38 22.39 L 80.80 23.81 L 80.80 24.51 L 82.21 25.93 L 82.21 27.35 L 82.92 28.05 L 82.92 28.76 L 83.63 29.47 L 83.63 30.88 L 84.34 31.59 L 84.34 33.01 L 85.04 33.72 L 85.04 36.55 L 85.75 37.26 L 85.75 40.80 L 86.46 41.50 L 86.46 57.79 L 85.75 58.50 L 85.75 62.04 L 85.04 62.74 L 85.04 65.58 L 84.34 66.28 L 84.34 67.70 L 83.63 68.41 L 83.63 69.82 L 82.92 70.53 L 82.92 71.95 L 82.21 72.65 L 82.21 73.36 L 81.50 74.07 L 81.50 74.78 L 80.09 76.19 L 80.09 76.90 L 75.84 81.15 L 75.13 81.15 L 73.72 82.57 L 71.59 82.57 L 70.88 83.27 L 68.05 83.27 L 67.35 82.57 L 65.93 82.57 L 65.22 81.86 L 64.51 81.86 L 63.81 81.15 L 63.10 81.15 L 59.56 77.61 L 59.56 76.90 L 58.14 75.49 L 58.14 74.78 L 56.73 73.36 L 56.73 71.95 L 56.02 71.24 L 56.02 70.53 L 55.31 69.82 L 55.31 68.41 L 54.60 67.70 L 54.60 66.28 L 53.89 65.58 L 53.89 63.45 L 53.19 62.74 L 53.19 58.50 L 52.48 57.79 L 52.48 42.21 L 53.19 41.50 L 53.19 37.96 L 53.89 37.26 L 53.89 34.42 L 54.60 33.72 L 54.60 32.30 L 55.31 31.59 L 55.31 30.18 L 56.02 29.47 L 56.02 28.76 L 56.73 28.05 L 56.73 26.64 L 58.14 25.22 L 58.14 24.51 L 59.56 23.10 L 59.56 22.39 L 63.81 18.14 L 64.51 18.14 L 65.22 17.43 L 65.93 17.43 Z M 68.05 28.76 L 67.35 29.47 L 66.64 29.47 L 64.51 31.59 L 64.51 32.30 L 63.81 33.01 L 63.81 33.72 L 63.10 34.42 L 63.10 35.13 L 62.39 35.84 L 62.39 37.96 L 61.68 38.67 L 61.68 40.80 L 60.97 41.50 L 60.97 46.46 L 60.27 47.17 L 60.27 52.12 L 60.97 52.83 L 60.97 58.50 L 61.68 59.20 L 61.68 61.33 L 62.39 62.04 L 62.39 63.45 L 63.10 64.16 L 63.10 65.58 L 63.81 66.28 L 63.81 66.99 L 66.64 69.82 L 67.35 69.82 L 68.05 70.53 L 70.88 70.53 L 71.59 69.82 L 72.30 69.82 L 75.13 66.99 L 75.13 66.28 L 75.84 65.58 L 75.84 64.16 L 76.55 63.45 L 76.55 62.04 L 77.26 61.33 L 77.26 59.20 L 77.96 58.50 L 77.96 52.12 L 78.67 51.42 L 78.67 48.58 L 77.96 47.88 L 77.96 41.50 L 77.26 40.80 L 77.26 37.96 L 76.55 37.26 L 76.55 35.84 L 75.84 35.13 L 75.84 33.72 L 75.13 33.01 L 75.13 32.30 L 73.72 30.88 L 73.72 30.18 L 73.01 29.47 L 72.30 29.47 L 71.59 28.76 Z M 68.76 31.59 L 70.88 31.59 L 72.30 33.01 L 72.30 33.72 L 73.01 34.42 L 73.01 35.13 L 73.72 35.84 L 73.72 37.26 L 74.42 37.96 L 74.42 40.09 L 75.13 40.80 L 75.13 45.75 L 75.84 46.46 L 75.84 52.83 L 75.13 53.54 L 75.13 58.50 L 74.42 59.20 L 74.42 61.33 L 73.72 62.04 L 73.72 63.45 L 73.01 64.16 L 73.01 64.87 L 70.18 67.70 L 68.76 67.70 L 65.93 64.87 L 65.93 64.16 L 65.22 63.45 L 65.22 62.04 L 64.51 61.33 L 64.51 59.20 L 63.81 58.50 L 63.81 54.25 L 63.10 53.54 L 63.10 46.46 L 63.81 45.75 L 63.81 41.50 L 64.51 40.80 L 64.51 38.67 L 65.22 37.96 L 65.22 36.55 L 65.93 35.84 L 65.93 35.13 L 66.64 34.42 L 66.64 33.72 Z M 22.74 13.89 L 22.04 14.60 L 19.91 14.60 L 19.20 15.31 L 18.50 15.31 L 17.79 16.02 L 15.66 16.73 L 14.25 18.14 L 13.54 18.14 L 12.12 19.56 L 12.12 20.27 L 11.42 20.97 L 10.71 23.10 L 11.42 23.81 L 11.42 25.22 L 14.25 28.05 L 14.25 28.76 L 17.79 32.30 L 19.20 32.30 L 19.91 31.59 L 20.62 31.59 L 22.74 29.47 L 23.45 29.47 L 24.16 28.76 L 27.70 28.76 L 29.12 30.18 L 29.12 30.88 L 29.82 31.59 L 29.82 33.72 L 29.12 34.42 L 28.41 36.55 L 24.87 38.67 L 22.04 38.67 L 21.33 39.38 L 19.20 40.09 L 19.20 50.71 L 21.33 52.83 L 26.28 52.83 L 26.99 53.54 L 29.12 54.25 L 31.24 56.37 L 31.24 57.08 L 32.65 59.20 L 32.65 64.87 L 31.95 65.58 L 31.95 66.28 L 29.12 69.12 L 25.58 69.12 L 23.45 66.99 L 23.45 66.28 L 22.74 65.58 L 22.04 63.45 L 19.91 62.74 L 19.20 63.45 L 17.79 63.45 L 17.08 64.16 L 16.37 64.16 L 15.66 64.87 L 14.96 64.87 L 14.25 65.58 L 12.12 66.28 L 10.71 67.70 L 10.71 68.41 L 10.00 69.12 L 10.00 71.24 L 10.71 71.95 L 10.71 73.36 L 11.42 74.07 L 11.42 74.78 L 12.12 75.49 L 12.83 77.61 L 15.66 80.44 L 15.66 81.15 L 16.37 81.15 L 18.50 83.27 L 19.20 83.27 L 21.33 84.69 L 22.74 84.69 L 23.45 85.40 L 32.65 85.40 L 33.36 84.69 L 34.78 84.69 L 35.49 83.98 L 37.61 83.27 L 39.03 81.86 L 39.73 81.86 L 43.27 78.32 L 43.27 77.61 L 44.69 76.19 L 44.69 75.49 L 46.11 73.36 L 46.11 71.95 L 46.81 71.24 L 46.81 69.12 L 47.52 68.41 L 47.52 57.79 L 46.81 57.08 L 46.81 54.96 L 45.40 52.83 L 45.40 51.42 L 43.98 50.00 L 43.98 49.29 L 42.57 47.88 L 42.57 47.17 L 41.86 47.17 L 41.15 46.46 L 41.15 45.75 L 40.44 45.75 L 39.03 44.34 L 39.73 43.63 L 39.73 42.92 L 41.86 40.80 L 41.86 40.09 L 42.57 39.38 L 42.57 37.96 L 43.27 37.26 L 43.27 35.84 L 43.98 35.13 L 43.98 27.35 L 43.27 26.64 L 43.27 25.22 L 42.57 24.51 L 42.57 23.81 L 41.86 23.10 L 41.15 20.97 L 36.90 16.73 L 36.19 16.73 L 34.78 15.31 L 33.36 15.31 L 32.65 14.60 L 31.24 14.60 L 30.53 13.89 Z M 22.74 16.73 L 30.53 16.73 L 31.24 17.43 L 32.65 17.43 L 33.36 18.14 L 34.07 18.14 L 39.03 23.10 L 39.03 23.81 L 40.44 25.93 L 40.44 27.35 L 41.15 28.05 L 41.15 35.13 L 40.44 35.84 L 40.44 37.26 L 39.73 37.96 L 39.73 38.67 L 38.32 40.09 L 38.32 40.80 L 35.49 43.63 L 35.49 45.04 L 36.90 46.46 L 37.61 46.46 L 41.15 50.00 L 41.15 50.71 L 42.57 52.12 L 42.57 52.83 L 43.27 53.54 L 43.27 54.96 L 43.98 55.66 L 43.98 57.08 L 44.69 57.79 L 44.69 68.41 L 43.98 69.12 L 43.98 70.53 L 43.27 71.24 L 43.27 72.65 L 42.57 73.36 L 42.57 74.07 L 41.15 75.49 L 41.15 76.19 L 37.61 79.73 L 36.90 79.73 L 35.49 81.15 L 34.78 81.15 L 32.65 82.57 L 29.82 82.57 L 29.12 83.27 L 26.28 83.27 L 25.58 82.57 L 23.45 82.57 L 22.74 81.86 L 20.62 81.15 L 19.20 79.73 L 18.50 79.73 L 15.66 76.90 L 15.66 76.19 L 14.25 74.78 L 14.25 74.07 L 13.54 73.36 L 13.54 71.95 L 12.83 71.24 L 12.83 69.82 L 14.25 68.41 L 14.96 68.41 L 15.66 67.70 L 16.37 67.70 L 18.50 66.28 L 19.91 66.28 L 20.62 66.99 L 21.33 69.12 L 23.45 71.24 L 24.16 71.24 L 24.87 71.95 L 29.82 71.95 L 30.53 71.24 L 31.24 71.24 L 32.65 69.82 L 33.36 69.82 L 33.36 69.12 L 34.07 68.41 L 34.07 67.70 L 35.49 65.58 L 35.49 58.50 L 34.78 57.79 L 34.78 57.08 L 34.07 56.37 L 33.36 54.25 L 31.24 52.12 L 30.53 52.12 L 28.41 50.71 L 26.99 50.71 L 26.28 50.00 L 22.74 50.00 L 22.04 49.29 L 22.04 44.34 L 21.33 43.63 L 21.33 42.92 L 22.74 41.50 L 24.87 41.50 L 25.58 40.80 L 26.99 40.80 L 27.70 40.09 L 28.41 40.09 L 31.95 36.55 L 31.95 34.42 L 32.65 33.72 L 32.65 31.59 L 31.95 30.88 L 31.95 29.47 L 30.53 28.05 L 30.53 27.35 L 29.82 27.35 L 28.41 25.93 L 23.45 25.93 L 22.74 26.64 L 20.62 27.35 L 19.20 28.76 L 18.50 28.76 L 15.66 25.93 L 15.66 25.22 L 14.25 23.81 L 14.25 21.68 L 15.66 20.27 L 16.37 20.27 L 17.79 18.85 L 18.50 18.85 L 20.62 17.43 L 22.04 17.43 Z " fill="black" fill-rule="evenodd" stroke="none"/>
</svg>