<svg xmlns="http://www.w3.org/2000/svg" width="100" height="100" viewBox="0 0 100 100">
  <path d="M 72.75 10.00 L 71.96 10.78 L 69.61 10.78 L 67.25 13.14 L 67.25 13.92 L 66.47 14.71 L 66.47 15.49 L 65.69 16.27 L 65.69 17.06 L 64.90 17.84 L 64.90 18.63 L 64.12 19.41 L 64.12 20.20 L 62.55 21.76 L 62.55 22.55 L 59.41 25.69 L 59.41 26.47 L 56.27 29.61 L 56.27 34.31 L 60.98 39.02 L 61.76 39.02 L 63.33 40.59 L 65.69 40.59 L 66.47 39.80 L 68.04 39.80 L 68.82 40.59 L 68.82 44.51 L 68.04 45.29 L 68.04 64.12 L 67.25 64.90 L 67.25 86.08 L 69.61 88.43 L 82.94 88.43 L 83.73 87.65 L 84.51 87.65 L 84.51 86.86 L 85.29 86.08 L 85.29 13.14 L 84.51 12.35 L 84.51 11.57 L 83.73 11.57 L 82.94 10.78 L 76.67 10.78 L 75.88 10.00 Z M 71.96 13.14 L 80.59 13.14 L 82.16 14.71 L 82.16 84.51 L 80.59 86.08 L 75.88 86.08 L 75.10 85.29 L 71.18 85.29 L 70.39 84.51 L 70.39 61.76 L 71.18 60.98 L 71.18 32.75 L 70.39 32.75 L 66.47 36.67 L 65.69 36.67 L 64.90 37.45 L 64.12 37.45 L 59.41 32.75 L 59.41 31.18 L 61.76 28.82 L 61.76 28.04 L 64.12 25.69 L 64.12 24.90 L 65.69 23.33 L 65.69 22.55 L 67.25 20.98 L 67.25 20.20 L 68.04 19.41 L 68.04 18.63 L 68.82 17.84 L 68.82 17.06 L 69.61 16.27 L 69.61 15.49 Z M 27.25 10.00 L 26.47 10.78 L 24.90 10.78 L 24.12 11.57 L 22.55 11.57 L 21.76 12.35 L 19.41 13.14 L 14.71 17.84 L 14.71 20.98 L 15.49 21.76 L 15.49 22.55 L 17.06 24.12 L 17.06 24.90 L 21.76 30.39 L 24.12 30.39 L 27.25 27.25 L 28.04 27.25 L 28.82 26.47 L 32.75 26.47 L 35.10 28.82 L 35.10 33.53 L 32.75 35.88 L 31.96 35.88 L 29.61 37.45 L 27.25 37.45 L 26.47 38.24 L 24.90 38.24 L 24.12 39.02 L 24.12 40.59 L 23.33 41.37 L 23.33 48.43 L 24.12 49.22 L 24.12 51.57 L 25.69 53.14 L 31.18 53.14 L 31.96 53.92 L 33.53 53.92 L 37.45 57.84 L 37.45 58.63 L 38.24 59.41 L 38.24 60.98 L 39.02 61.76 L 39.02 65.69 L 38.24 66.47 L 37.45 68.82 L 35.10 71.18 L 31.18 71.18 L 28.82 68.82 L 28.82 68.04 L 28.04 67.25 L 27.25 64.90 L 26.47 64.90 L 25.69 64.12 L 24.90 64.12 L 24.12 64.90 L 22.55 64.90 L 21.76 65.69 L 20.20 65.69 L 19.41 66.47 L 18.63 66.47 L 17.06 68.04 L 16.27 68.04 L 13.92 70.39 L 13.92 74.31 L 14.71 75.10 L 14.71 76.67 L 15.49 77.45 L 15.49 78.24 L 17.06 79.80 L 17.06 80.59 L 18.63 82.16 L 18.63 82.94 L 20.98 85.29 L 21.76 85.29 L 23.33 86.86 L 24.12 86.86 L 26.47 88.43 L 28.04 88.43 L 28.82 89.22 L 38.24 89.22 L 39.02 88.43 L 41.37 88.43 L 42.16 87.65 L 44.51 86.86 L 46.08 85.29 L 46.86 85.29 L 50.00 82.16 L 50.00 81.37 L 51.57 79.80 L 51.57 79.02 L 53.92 75.10 L 53.92 73.53 L 54.71 72.75 L 54.71 70.39 L 55.49 69.61 L 55.49 60.20 L 54.71 59.41 L 54.71 56.27 L 53.92 55.49 L 53.92 53.92 L 53.14 53.14 L 52.35 50.78 L 50.78 49.22 L 50.78 48.43 L 46.08 43.73 L 46.08 42.94 L 48.43 40.59 L 48.43 39.80 L 50.00 37.45 L 50.00 35.88 L 50.78 35.10 L 50.78 31.96 L 51.57 31.18 L 51.57 28.04 L 50.78 27.25 L 50.78 23.33 L 50.00 22.55 L 50.00 21.76 L 49.22 20.98 L 49.22 20.20 L 48.43 19.41 L 47.65 17.06 L 43.73 13.14 L 42.94 13.14 L 39.02 10.78 L 36.67 10.78 L 35.88 10.00 Z M 27.25 13.14 L 35.88 13.14 L 36.67 13.92 L 38.24 13.92 L 39.02 14.71 L 41.37 15.49 L 45.29 19.41 L 45.29 20.20 L 46.86 21.76 L 46.86 23.33 L 47.65 24.12 L 47.65 26.47 L 48.43 27.25 L 48.43 31.96 L 47.65 32.75 L 47.65 34.31 L 46.86 35.10 L 46.86 36.67 L 46.08 37.45 L 46.08 38.24 L 42.16 42.16 L 42.16 42.94 L 41.37 43.73 L 49.22 51.57 L 49.22 52.35 L 50.78 54.71 L 50.78 56.27 L 51.57 57.06 L 51.57 59.41 L 52.35 60.20 L 52.35 68.82 L 51.57 69.61 L 51.57 72.75 L 50.78 73.53 L 50.78 74.31 L 50.00 75.10 L 49.22 77.45 L 47.65 79.02 L 47.65 79.80 L 42.16 84.51 L 41.37 84.51 L 40.59 85.29 L 39.02 85.29 L 38.24 86.08 L 35.10 86.08 L 34.31 86.86 L 32.75 86.86 L 31.96 86.08 L 28.82 86.08 L 28.04 85.29 L 27.25 85.29 L 26.47 84.51 L 24.12 83.73 L 20.20 79.80 L 20.20 79.02 L 18.63 77.45 L 18.63 76.67 L 17.06 74.31 L 17.06 71.96 L 18.63 70.39 L 19.41 70.39 L 20.98 68.82 L 21.76 68.82 L 24.12 67.25 L 25.69 68.82 L 26.47 71.18 L 28.82 73.53 L 29.61 73.53 L 30.39 74.31 L 35.88 74.31 L 36.67 73.53 L 37.45 73.53 L 40.59 70.39 L 40.59 69.61 L 41.37 68.82 L 41.37 66.47 L 42.16 65.69 L 42.16 60.98 L 41.37 60.20 L 41.37 58.63 L 40.59 57.84 L 39.80 55.49 L 35.88 51.57 L 35.10 51.57 L 34.31 50.78 L 31.96 50.78 L 31.18 50.00 L 28.04 50.00 L 26.47 48.43 L 26.47 42.16 L 28.04 40.59 L 30.39 40.59 L 31.18 39.80 L 32.75 39.80 L 33.53 39.02 L 34.31 39.02 L 37.45 35.88 L 37.45 35.10 L 38.24 34.31 L 38.24 28.04 L 37.45 27.25 L 37.45 26.47 L 35.10 24.12 L 34.31 24.12 L 33.53 23.33 L 28.04 23.33 L 27.25 24.12 L 26.47 24.12 L 24.90 25.69 L 22.55 26.47 L 21.76 25.69 L 21.76 24.90 L 19.41 22.55 L 19.41 21.76 L 17.84 20.20 L 17.84 19.41 L 20.98 16.27 L 21.76 16.27 L 23.33 14.71 L 24.12 14.71 L 24.90 13.92 L 26.47 13.92 Z " fill="black" fill-rule="evenodd" stroke="none"/>
</svg>