<svg xmlns="http://www.w3.org/2000/svg" width="100" height="100" viewBox="0 0 100 100">
  <path d="M 41.29 10.00 L 40.50 10.79 L 39.70 10.79 L 39.70 11.58 L 38.12 13.96 L 38.12 16.34 L 37.33 17.13 L 37.33 18.71 L 36.53 19.50 L 36.53 21.88 L 35.74 22.67 L 35.74 24.26 L 34.95 25.05 L 34.95 26.63 L 33.37 29.01 L 33.37 30.59 L 32.57 31.39 L 32.57 32.97 L 31.78 33.76 L 31.78 35.35 L 30.20 37.72 L 30.20 39.31 L 29.41 40.10 L 29.41 41.68 L 28.61 42.48 L 28.61 44.06 L 27.82 44.85 L 27.82 46.44 L 27.03 47.23 L 27.03 53.56 L 28.61 55.94 L 30.20 55.94 L 30.99 56.73 L 49.21 56.73 L 50.00 57.52 L 50.00 86.83 L 51.58 88.42 L 52.38 88.42 L 53.17 89.21 L 61.88 89.21 L 62.67 88.42 L 63.47 88.42 L 65.05 86.83 L 65.05 85.25 L 65.84 84.46 L 65.84 72.57 L 65.05 71.78 L 65.05 57.52 L 65.84 56.73 L 69.01 56.73 L 69.80 55.94 L 70.59 55.94 L 70.59 55.15 L 72.18 52.77 L 72.18 45.64 L 71.39 44.85 L 71.39 42.48 L 69.80 40.89 L 68.22 40.89 L 67.43 40.10 L 65.84 40.10 L 65.05 39.31 L 65.05 32.18 L 65.84 31.39 L 65.84 13.17 L 65.05 12.38 L 65.05 11.58 L 62.67 10.00 L 53.96 10.00 L 53.17 10.79 L 47.62 10.79 L 46.83 10.00 Z M 50.00 26.63 L 50.79 27.43 L 50.79 40.10 L 50.00 40.89 L 46.83 40.89 L 46.04 40.10 L 46.04 37.72 L 46.83 36.93 L 46.83 35.35 L 47.62 34.55 L 47.62 32.18 L 48.42 31.39 L 48.42 29.80 L 49.21 29.01 L 49.21 27.43 Z M 42.87 13.17 L 46.83 13.17 L 47.62 13.96 L 49.21 13.96 L 50.00 14.75 L 50.00 16.34 L 49.21 17.13 L 49.21 18.71 L 48.42 19.50 L 48.42 21.88 L 47.62 22.67 L 47.62 24.26 L 46.83 25.05 L 46.83 26.63 L 46.04 27.43 L 46.04 29.01 L 45.25 29.80 L 45.25 31.39 L 44.46 32.18 L 44.46 33.76 L 43.66 34.55 L 43.66 36.14 L 42.87 36.93 L 42.87 39.31 L 42.08 40.10 L 42.08 41.68 L 41.29 42.48 L 42.87 44.06 L 52.38 44.06 L 53.96 42.48 L 53.96 13.96 L 54.75 13.17 L 61.88 13.17 L 62.67 13.96 L 62.67 43.27 L 63.47 43.27 L 64.26 44.06 L 65.05 44.06 L 65.84 43.27 L 67.43 43.27 L 69.01 44.85 L 69.01 51.98 L 67.43 53.56 L 64.26 53.56 L 63.47 54.36 L 62.67 54.36 L 62.67 55.15 L 61.88 55.94 L 61.88 63.86 L 62.67 64.65 L 62.67 84.46 L 61.09 86.04 L 53.96 86.04 L 53.17 85.25 L 53.17 54.36 L 52.38 53.56 L 30.99 53.56 L 30.20 52.77 L 30.20 48.02 L 30.99 47.23 L 30.99 44.85 L 31.78 44.06 L 31.78 42.48 L 32.57 41.68 L 32.57 40.10 L 34.16 37.72 L 34.16 36.14 L 34.95 35.35 L 34.95 33.76 L 36.53 31.39 L 36.53 29.80 L 37.33 29.01 L 37.33 27.43 L 38.12 26.63 L 38.12 25.05 L 38.91 24.26 L 38.91 22.67 L 39.70 21.88 L 39.70 20.30 L 40.50 19.50 L 40.50 17.13 L 41.29 16.34 L 41.29 14.75 Z " fill="black" fill-rule="evenodd" stroke="none"/>
</svg>