<svg xmlns="http://www.w3.org/2000/svg" width="100" height="100" viewBox="0 0 100 100">
  <path d="M 63.86 10.00 L 53.56 10.00 L 52.77 10.79 L 38.51 10.79 L 37.72 11.58 L 32.97 11.58 L 31.39 13.17 L 31.39 21.09 L 30.59 21.88 L 30.59 29.01 L 31.39 29.80 L 31.39 48.02 L 32.18 48.81 L 32.18 50.40 L 34.55 52.77 L 35.35 52.77 L 37.72 54.36 L 39.31 54.36 L 40.10 53.56 L 41.68 53.56 L 44.06 51.98 L 47.23 51.98 L 48.02 52.77 L 48.81 52.77 L 52.77 56.73 L 52.77 58.32 L 53.56 59.11 L 53.56 65.45 L 52.77 66.24 L 51.98 68.61 L 50.40 70.20 L 49.60 70.20 L 48.81 70.99 L 45.64 70.99 L 44.85 70.20 L 44.06 70.20 L 40.89 67.03 L 40.10 67.03 L 39.31 66.24 L 36.14 66.24 L 33.76 68.61 L 33.76 69.41 L 32.18 70.99 L 32.18 71.78 L 29.01 75.74 L 29.01 78.91 L 30.59 80.50 L 30.59 81.29 L 34.55 85.25 L 35.35 85.25 L 36.93 86.83 L 37.72 86.83 L 40.10 88.42 L 42.48 88.42 L 43.27 89.21 L 51.19 89.21 L 51.98 88.42 L 54.36 88.42 L 55.15 87.62 L 57.52 86.83 L 59.11 85.25 L 59.90 85.25 L 64.65 80.50 L 64.65 79.70 L 65.45 78.91 L 65.45 78.12 L 67.03 76.53 L 67.03 74.95 L 68.61 72.57 L 68.61 70.20 L 69.41 69.41 L 69.41 64.65 L 70.20 63.86 L 70.20 60.69 L 69.41 59.90 L 69.41 55.15 L 68.61 54.36 L 68.61 51.98 L 67.82 51.19 L 67.82 49.60 L 67.03 48.81 L 66.24 46.44 L 64.65 44.85 L 64.65 44.06 L 59.90 39.31 L 59.11 39.31 L 57.52 37.72 L 56.73 37.72 L 55.94 36.93 L 54.36 36.93 L 53.56 36.14 L 51.19 36.14 L 50.40 35.35 L 47.23 35.35 L 46.44 34.55 L 46.44 28.22 L 47.23 27.43 L 55.15 27.43 L 55.94 26.63 L 64.65 26.63 L 66.24 25.05 L 66.24 24.26 L 67.03 23.47 L 67.03 14.75 L 66.24 13.96 L 66.24 11.58 Z M 62.28 13.17 L 63.86 14.75 L 63.86 22.67 L 62.28 24.26 L 44.06 24.26 L 43.27 25.05 L 43.27 37.72 L 44.06 38.51 L 50.40 38.51 L 51.19 39.31 L 53.56 39.31 L 54.36 40.10 L 56.73 40.89 L 63.07 47.23 L 63.07 48.02 L 65.45 51.98 L 65.45 53.56 L 66.24 54.36 L 66.24 58.32 L 67.03 59.11 L 67.03 64.65 L 66.24 65.45 L 66.24 69.41 L 65.45 70.20 L 65.45 71.78 L 64.65 72.57 L 64.65 74.16 L 63.07 75.74 L 62.28 78.12 L 57.52 82.87 L 56.73 82.87 L 55.15 84.46 L 54.36 84.46 L 53.56 85.25 L 51.98 85.25 L 51.19 86.04 L 43.27 86.04 L 42.48 85.25 L 40.89 85.25 L 40.10 84.46 L 37.72 83.66 L 32.18 78.12 L 32.18 76.53 L 32.97 75.74 L 32.97 74.95 L 37.72 69.41 L 38.51 69.41 L 41.68 72.57 L 42.48 72.57 L 44.85 74.16 L 49.60 74.16 L 50.40 73.37 L 51.19 73.37 L 52.77 71.78 L 53.56 71.78 L 54.36 70.99 L 54.36 70.20 L 55.94 67.82 L 55.94 66.24 L 56.73 65.45 L 56.73 59.90 L 55.94 59.11 L 55.94 56.73 L 55.15 55.94 L 54.36 53.56 L 51.19 50.40 L 50.40 50.40 L 49.60 49.60 L 48.02 49.60 L 47.23 48.81 L 43.27 48.81 L 40.89 50.40 L 36.93 50.40 L 34.55 48.02 L 34.55 36.14 L 33.76 35.35 L 33.76 17.13 L 34.55 16.34 L 34.55 14.75 L 35.35 13.96 L 51.19 13.96 L 51.98 13.17 Z " fill="black" fill-rule="evenodd" stroke="none"/>
</svg>