<svg xmlns="http://www.w3.org/2000/svg" width="100" height="100" viewBox="0 0 100 100">
  <path d="M 59.80 10.00 L 54.31 10.00 L 51.96 11.57 L 50.39 11.57 L 48.82 13.14 L 48.04 13.14 L 46.47 14.71 L 45.69 14.71 L 39.41 20.98 L 39.41 21.76 L 37.06 24.12 L 37.06 24.90 L 36.27 25.69 L 36.27 26.47 L 35.49 27.25 L 35.49 28.04 L 34.71 28.82 L 34.71 29.61 L 33.92 30.39 L 33.92 31.18 L 32.35 33.53 L 32.35 35.10 L 31.57 35.88 L 31.57 38.24 L 30.78 39.02 L 30.78 40.59 L 30.00 41.37 L 30.00 44.51 L 29.22 45.29 L 29.22 50.00 L 28.43 50.78 L 28.43 62.55 L 29.22 63.33 L 29.22 67.25 L 30.00 68.04 L 30.00 70.39 L 30.78 71.18 L 30.78 72.75 L 31.57 73.53 L 31.57 75.10 L 32.35 75.88 L 32.35 76.67 L 33.14 77.45 L 33.14 78.24 L 34.71 79.80 L 34.71 80.59 L 39.41 85.29 L 40.20 85.29 L 41.76 86.86 L 42.55 86.86 L 43.33 87.65 L 44.90 87.65 L 45.69 88.43 L 48.04 88.43 L 48.82 89.22 L 52.75 89.22 L 53.53 88.43 L 55.88 88.43 L 56.67 87.65 L 58.24 87.65 L 59.02 86.86 L 59.80 86.86 L 60.59 86.08 L 61.37 86.08 L 66.86 80.59 L 66.86 79.80 L 67.65 79.02 L 67.65 78.24 L 69.22 75.88 L 69.22 74.31 L 70.00 73.53 L 70.00 71.18 L 70.78 70.39 L 70.78 58.63 L 70.00 57.84 L 70.00 55.49 L 69.22 54.71 L 69.22 53.14 L 68.43 52.35 L 68.43 51.57 L 67.65 50.78 L 67.65 50.00 L 62.16 44.51 L 61.37 44.51 L 60.59 43.73 L 59.80 43.73 L 57.45 42.16 L 48.82 42.16 L 48.04 42.94 L 46.47 42.94 L 45.69 42.16 L 47.25 39.80 L 47.25 38.24 L 48.04 37.45 L 48.04 36.67 L 49.61 35.10 L 49.61 34.31 L 51.18 32.75 L 51.18 31.96 L 53.53 29.61 L 54.31 29.61 L 56.67 27.25 L 57.45 27.25 L 59.80 25.69 L 61.37 25.69 L 62.16 24.90 L 63.73 24.90 L 64.51 24.12 L 64.51 20.20 L 63.73 19.41 L 63.73 17.84 L 62.94 17.06 L 62.94 15.49 L 62.16 14.71 L 62.16 13.14 L 61.37 12.35 L 61.37 11.57 Z M 57.45 12.35 L 59.02 13.92 L 59.02 15.49 L 60.59 17.84 L 60.59 20.20 L 61.37 20.98 L 61.37 21.76 L 59.02 23.33 L 57.45 23.33 L 56.67 24.12 L 55.88 24.12 L 55.10 24.90 L 54.31 24.90 L 51.96 27.25 L 51.18 27.25 L 48.82 29.61 L 48.82 30.39 L 46.47 32.75 L 46.47 33.53 L 45.69 34.31 L 45.69 35.10 L 44.12 37.45 L 44.12 39.02 L 43.33 39.80 L 43.33 42.16 L 42.55 42.94 L 42.55 48.43 L 44.12 48.43 L 45.69 46.86 L 46.47 46.86 L 47.25 46.08 L 48.82 46.08 L 49.61 45.29 L 55.88 45.29 L 56.67 46.08 L 58.24 46.08 L 59.02 46.86 L 59.80 46.86 L 61.37 48.43 L 62.16 48.43 L 63.73 50.00 L 63.73 50.78 L 65.29 52.35 L 65.29 53.14 L 66.08 53.92 L 66.08 55.49 L 66.86 56.27 L 66.86 58.63 L 67.65 59.41 L 67.65 70.39 L 66.86 71.18 L 66.86 73.53 L 66.08 74.31 L 66.08 75.10 L 65.29 75.88 L 65.29 76.67 L 64.51 77.45 L 64.51 78.24 L 62.16 80.59 L 62.16 81.37 L 61.37 82.16 L 60.59 82.16 L 59.02 83.73 L 58.24 83.73 L 55.88 85.29 L 54.31 85.29 L 53.53 86.08 L 48.82 86.08 L 48.04 85.29 L 45.69 85.29 L 44.90 84.51 L 44.12 84.51 L 43.33 83.73 L 42.55 83.73 L 36.27 77.45 L 36.27 76.67 L 35.49 75.88 L 35.49 75.10 L 33.92 72.75 L 33.92 71.18 L 33.14 70.39 L 33.14 68.04 L 32.35 67.25 L 32.35 63.33 L 31.57 62.55 L 31.57 50.78 L 32.35 50.00 L 32.35 45.29 L 33.14 44.51 L 33.14 42.16 L 33.92 41.37 L 33.92 39.02 L 34.71 38.24 L 34.71 36.67 L 35.49 35.88 L 35.49 34.31 L 36.27 33.53 L 36.27 32.75 L 37.06 31.96 L 37.06 31.18 L 37.84 30.39 L 37.84 29.61 L 38.63 28.82 L 38.63 28.04 L 39.41 27.25 L 39.41 26.47 L 40.98 24.90 L 40.98 24.12 L 48.82 16.27 L 49.61 16.27 L 51.18 14.71 L 51.96 14.71 L 52.75 13.92 L 54.31 13.92 L 55.10 13.14 L 56.67 13.14 Z M 48.82 54.71 L 48.04 55.49 L 47.25 55.49 L 44.90 57.84 L 44.90 58.63 L 44.12 59.41 L 44.12 60.98 L 43.33 61.76 L 43.33 68.82 L 44.12 69.61 L 44.12 71.18 L 45.69 72.75 L 45.69 73.53 L 46.47 73.53 L 48.04 75.10 L 48.82 75.10 L 49.61 75.88 L 52.75 75.88 L 53.53 75.10 L 54.31 75.10 L 55.88 73.53 L 56.67 73.53 L 56.67 72.75 L 58.24 71.18 L 58.24 69.61 L 59.02 68.82 L 59.02 61.76 L 58.24 60.98 L 58.24 59.41 L 57.45 58.63 L 57.45 57.84 L 55.10 55.49 L 54.31 55.49 L 53.53 54.71 Z M 49.61 57.84 L 52.75 57.84 L 55.10 60.20 L 55.10 60.98 L 55.88 61.76 L 55.88 68.82 L 54.31 70.39 L 54.31 71.18 L 53.53 71.96 L 52.75 71.96 L 51.96 72.75 L 50.39 72.75 L 49.61 71.96 L 48.82 71.96 L 48.04 71.18 L 48.04 70.39 L 47.25 69.61 L 47.25 68.82 L 46.47 68.04 L 46.47 61.76 L 47.25 60.98 L 47.25 60.20 Z " fill="black" fill-rule="evenodd" stroke="none"/>
</svg>