<svg xmlns="http://www.w3.org/2000/svg" width="100" height="100" viewBox="0 0 100 100">
  <path d="M 66.24 10.00 L 53.56 10.00 L 52.77 10.79 L 36.93 10.79 L 36.14 11.58 L 31.39 11.58 L 29.80 13.17 L 29.80 25.84 L 30.59 26.63 L 30.59 27.43 L 32.18 29.01 L 50.40 29.01 L 51.19 29.80 L 51.19 31.39 L 50.40 32.18 L 50.40 33.76 L 48.81 36.14 L 48.81 37.72 L 48.02 38.51 L 48.02 40.10 L 47.23 40.89 L 47.23 42.48 L 46.44 43.27 L 46.44 44.85 L 45.64 45.64 L 45.64 47.23 L 44.06 49.60 L 44.06 51.98 L 43.27 52.77 L 43.27 54.36 L 42.48 55.15 L 42.48 56.73 L 41.68 57.52 L 41.68 59.11 L 40.89 59.90 L 40.89 62.28 L 40.10 63.07 L 40.10 64.65 L 39.31 65.45 L 39.31 67.82 L 38.51 68.61 L 38.51 70.20 L 37.72 70.99 L 37.72 73.37 L 36.93 74.16 L 36.93 75.74 L 36.14 76.53 L 36.14 78.91 L 35.35 79.70 L 35.35 83.66 L 34.55 84.46 L 34.55 85.25 L 35.35 86.04 L 35.35 86.83 L 37.72 88.42 L 42.48 88.42 L 43.27 89.21 L 50.40 89.21 L 51.19 88.42 L 51.98 88.42 L 51.98 87.62 L 52.77 86.83 L 52.77 85.25 L 53.56 84.46 L 53.56 80.50 L 54.36 79.70 L 54.36 76.53 L 55.15 75.74 L 55.15 73.37 L 55.94 72.57 L 55.94 70.20 L 56.73 69.41 L 56.73 67.03 L 57.52 66.24 L 57.52 63.86 L 58.32 63.07 L 58.32 60.69 L 59.11 59.90 L 59.11 58.32 L 59.90 57.52 L 59.90 55.15 L 60.69 54.36 L 60.69 51.98 L 61.49 51.19 L 61.49 48.81 L 62.28 48.02 L 62.28 46.44 L 63.07 45.64 L 63.07 44.06 L 63.86 43.27 L 63.86 41.68 L 64.65 40.89 L 64.65 39.31 L 65.45 38.51 L 65.45 36.93 L 66.24 36.14 L 66.24 34.55 L 67.03 33.76 L 67.03 32.18 L 67.82 31.39 L 67.82 29.80 L 68.61 29.01 L 68.61 27.43 L 69.41 26.63 L 69.41 13.17 L 68.61 12.38 L 68.61 11.58 Z M 65.45 13.17 L 66.24 13.96 L 66.24 26.63 L 65.45 27.43 L 65.45 29.01 L 64.65 29.80 L 64.65 31.39 L 63.86 32.18 L 63.86 33.76 L 62.28 36.14 L 62.28 38.51 L 61.49 39.31 L 61.49 40.89 L 60.69 41.68 L 60.69 43.27 L 59.90 44.06 L 59.90 45.64 L 59.11 46.44 L 59.11 48.02 L 58.32 48.81 L 58.32 51.19 L 57.52 51.98 L 57.52 53.56 L 56.73 54.36 L 56.73 56.73 L 55.94 57.52 L 55.94 59.90 L 55.15 60.69 L 55.15 63.07 L 54.36 63.86 L 54.36 66.24 L 53.56 67.03 L 53.56 69.41 L 52.77 70.20 L 52.77 72.57 L 51.98 73.37 L 51.98 75.74 L 51.19 76.53 L 51.19 79.70 L 50.40 80.50 L 50.40 83.66 L 48.81 86.04 L 42.48 86.04 L 41.68 85.25 L 39.31 85.25 L 38.51 84.46 L 38.51 80.50 L 39.31 79.70 L 39.31 77.33 L 40.10 76.53 L 40.10 74.16 L 40.89 73.37 L 40.89 71.78 L 41.68 70.99 L 41.68 68.61 L 42.48 67.82 L 42.48 66.24 L 43.27 65.45 L 43.27 63.07 L 44.06 62.28 L 44.06 60.69 L 44.85 59.90 L 44.85 58.32 L 45.64 57.52 L 45.64 55.94 L 46.44 55.15 L 46.44 52.77 L 47.23 51.98 L 47.23 50.40 L 48.02 49.60 L 48.02 48.02 L 48.81 47.23 L 48.81 45.64 L 49.60 44.85 L 49.60 43.27 L 51.19 40.89 L 51.19 39.31 L 51.98 38.51 L 51.98 36.93 L 52.77 36.14 L 52.77 34.55 L 53.56 33.76 L 53.56 32.18 L 55.15 29.80 L 55.15 25.84 L 33.76 25.84 L 32.97 25.05 L 32.97 14.75 L 33.76 13.96 L 49.60 13.96 L 50.40 13.17 Z " fill="black" fill-rule="evenodd" stroke="none"/>
</svg>