<svg xmlns="http://www.w3.org/2000/svg" width="100" height="100" viewBox="0 0 100 100">
  <path d="M 46.12 10.00 L 45.34 10.78 L 43.01 10.78 L 42.23 11.55 L 41.46 11.55 L 40.68 12.33 L 39.90 12.33 L 39.13 13.11 L 38.35 13.11 L 35.24 16.21 L 35.24 16.99 L 33.69 18.54 L 33.69 19.32 L 32.91 20.10 L 32.91 21.65 L 32.14 22.43 L 32.14 24.76 L 31.36 25.53 L 31.36 32.52 L 32.14 33.30 L 32.14 36.41 L 32.91 37.18 L 32.91 38.74 L 33.69 39.51 L 33.69 40.29 L 34.47 41.07 L 34.47 41.84 L 35.24 42.62 L 35.24 43.40 L 37.57 45.73 L 34.47 48.83 L 34.47 49.61 L 32.91 51.17 L 32.91 51.94 L 32.14 52.72 L 32.14 53.50 L 30.58 55.83 L 30.58 57.38 L 29.81 58.16 L 29.81 60.49 L 29.03 61.26 L 29.03 72.91 L 29.81 73.69 L 29.81 75.24 L 30.58 76.02 L 30.58 77.57 L 31.36 78.35 L 31.36 79.13 L 32.91 80.68 L 32.91 81.46 L 36.80 85.34 L 37.57 85.34 L 39.13 86.89 L 39.90 86.89 L 40.68 87.67 L 42.23 87.67 L 43.01 88.45 L 45.34 88.45 L 46.12 89.22 L 52.33 89.22 L 53.11 88.45 L 55.44 88.45 L 56.21 87.67 L 56.99 87.67 L 57.77 86.89 L 58.54 86.89 L 59.32 86.12 L 60.10 86.12 L 60.87 85.34 L 61.65 85.34 L 65.53 81.46 L 65.53 80.68 L 67.09 79.13 L 67.09 78.35 L 68.64 76.02 L 68.64 74.47 L 69.42 73.69 L 69.42 71.36 L 70.19 70.58 L 70.19 62.82 L 69.42 62.04 L 69.42 58.93 L 68.64 58.16 L 68.64 56.60 L 67.86 55.83 L 67.86 54.27 L 67.09 53.50 L 67.09 52.72 L 65.53 51.17 L 65.53 50.39 L 63.20 48.06 L 63.20 47.28 L 61.65 45.73 L 61.65 44.17 L 63.98 41.84 L 63.98 41.07 L 65.53 38.74 L 65.53 37.18 L 66.31 36.41 L 66.31 34.85 L 67.09 34.08 L 67.09 24.76 L 66.31 23.98 L 66.31 22.43 L 65.53 21.65 L 65.53 20.10 L 64.76 19.32 L 64.76 18.54 L 63.20 16.99 L 63.20 16.21 L 60.10 13.11 L 59.32 13.11 L 58.54 12.33 L 57.77 12.33 L 55.44 10.78 L 53.11 10.78 L 52.33 10.00 Z M 45.34 13.11 L 53.11 13.11 L 53.88 13.88 L 54.66 13.88 L 55.44 14.66 L 56.21 14.66 L 56.99 15.44 L 57.77 15.44 L 61.65 19.32 L 61.65 20.10 L 62.43 20.87 L 62.43 21.65 L 63.20 22.43 L 63.20 23.98 L 63.98 24.76 L 63.98 33.30 L 63.20 34.08 L 63.20 35.63 L 62.43 36.41 L 62.43 37.96 L 61.65 38.74 L 61.65 39.51 L 60.10 41.07 L 60.10 41.84 L 56.99 44.95 L 56.99 45.73 L 61.65 50.39 L 61.65 51.17 L 63.98 53.50 L 63.98 54.27 L 64.76 55.05 L 64.76 55.83 L 65.53 56.60 L 65.53 58.16 L 66.31 58.93 L 66.31 61.26 L 67.09 62.04 L 67.09 70.58 L 66.31 71.36 L 66.31 73.69 L 65.53 74.47 L 65.53 75.24 L 64.76 76.02 L 64.76 76.80 L 63.98 77.57 L 63.98 78.35 L 59.32 83.01 L 58.54 83.01 L 56.99 84.56 L 56.21 84.56 L 55.44 85.34 L 53.11 85.34 L 52.33 86.12 L 45.34 86.12 L 44.56 85.34 L 43.01 85.34 L 42.23 84.56 L 41.46 84.56 L 40.68 83.79 L 39.90 83.79 L 35.24 79.13 L 35.24 78.35 L 33.69 76.80 L 33.69 75.24 L 32.91 74.47 L 32.91 73.69 L 32.14 72.91 L 32.14 60.49 L 32.91 59.71 L 32.91 58.16 L 33.69 57.38 L 33.69 56.60 L 34.47 55.83 L 34.47 55.05 L 35.24 54.27 L 35.24 53.50 L 36.80 51.94 L 36.80 51.17 L 40.68 47.28 L 40.68 44.95 L 39.90 44.17 L 39.90 43.40 L 38.35 41.84 L 38.35 41.07 L 36.80 39.51 L 36.80 38.74 L 36.02 37.96 L 36.02 36.41 L 35.24 35.63 L 35.24 33.30 L 34.47 32.52 L 34.47 25.53 L 35.24 24.76 L 35.24 23.20 L 36.02 22.43 L 36.02 21.65 L 36.80 20.87 L 36.80 20.10 L 37.57 19.32 L 37.57 18.54 L 40.68 15.44 L 41.46 15.44 L 42.23 14.66 L 43.01 14.66 L 43.79 13.88 L 44.56 13.88 Z M 47.67 53.50 L 46.12 55.05 L 45.34 55.05 L 45.34 55.83 L 43.01 58.16 L 43.01 58.93 L 42.23 59.71 L 42.23 62.04 L 41.46 62.82 L 41.46 68.25 L 42.23 69.03 L 42.23 71.36 L 43.79 72.91 L 43.79 73.69 L 45.34 75.24 L 46.12 75.24 L 46.89 76.02 L 51.55 76.02 L 52.33 75.24 L 53.11 75.24 L 55.44 72.91 L 55.44 72.14 L 56.21 71.36 L 56.21 69.81 L 56.99 69.03 L 56.99 62.04 L 56.21 61.26 L 56.21 59.71 L 54.66 58.16 L 54.66 57.38 L 51.55 54.27 L 50.78 54.27 L 50.00 53.50 Z M 49.22 56.60 L 50.00 57.38 L 50.78 57.38 L 51.55 58.16 L 51.55 58.93 L 53.11 60.49 L 53.11 61.26 L 53.88 62.04 L 53.88 69.03 L 53.11 69.81 L 53.11 70.58 L 50.78 72.91 L 47.67 72.91 L 45.34 70.58 L 45.34 69.03 L 44.56 68.25 L 44.56 62.82 L 45.34 62.04 L 45.34 60.49 L 46.12 59.71 L 46.12 58.93 L 47.67 57.38 L 48.45 57.38 Z M 46.89 21.65 L 43.79 24.76 L 43.79 25.53 L 43.01 26.31 L 43.01 32.52 L 43.79 33.30 L 43.79 34.85 L 47.67 38.74 L 50.78 38.74 L 51.55 37.96 L 52.33 37.96 L 53.88 36.41 L 53.88 35.63 L 54.66 34.85 L 54.66 34.08 L 55.44 33.30 L 55.44 26.31 L 54.66 25.53 L 54.66 24.76 L 51.55 21.65 Z M 48.45 24.76 L 50.00 24.76 L 52.33 27.09 L 52.33 31.75 L 51.55 32.52 L 51.55 33.30 L 50.00 34.85 L 48.45 34.85 L 46.89 33.30 L 46.89 32.52 L 46.12 31.75 L 46.12 27.09 Z " fill="black" fill-rule="evenodd" stroke="none"/>
</svg>