<svg xmlns="http://www.w3.org/2000/svg" width="100" height="100" viewBox="0 0 100 100">
  <path d="M 49.61 10.00 L 48.06 10.00 L 47.28 10.78 L 43.40 10.78 L 42.62 11.55 L 41.84 11.55 L 41.07 12.33 L 40.29 12.33 L 39.51 13.11 L 38.74 13.11 L 37.18 14.66 L 36.41 14.66 L 34.08 16.99 L 34.08 17.77 L 32.52 19.32 L 32.52 20.10 L 30.97 21.65 L 30.97 23.20 L 30.19 23.98 L 30.19 25.53 L 29.42 26.31 L 29.42 27.86 L 28.64 28.64 L 28.64 41.07 L 29.42 41.84 L 29.42 44.17 L 30.19 44.95 L 30.19 45.73 L 30.97 46.50 L 30.97 47.28 L 31.75 48.06 L 31.75 48.83 L 33.30 50.39 L 33.30 51.17 L 36.41 54.27 L 37.18 54.27 L 38.74 55.83 L 40.29 55.83 L 42.62 57.38 L 49.61 57.38 L 50.39 56.60 L 51.17 57.38 L 51.17 59.71 L 50.39 60.49 L 50.39 61.26 L 49.61 62.04 L 49.61 62.82 L 48.83 63.59 L 48.83 64.37 L 43.40 69.81 L 42.62 69.81 L 41.07 71.36 L 40.29 71.36 L 39.51 72.14 L 38.74 72.14 L 36.41 73.69 L 34.85 73.69 L 34.08 74.47 L 34.08 78.35 L 34.85 79.13 L 34.85 80.68 L 35.63 81.46 L 35.63 83.01 L 36.41 83.79 L 36.41 85.34 L 37.18 86.12 L 37.18 86.89 L 38.74 88.45 L 39.51 88.45 L 40.29 89.22 L 41.07 89.22 L 41.84 88.45 L 43.40 88.45 L 44.17 87.67 L 45.73 87.67 L 46.50 86.89 L 47.28 86.89 L 48.06 86.12 L 48.83 86.12 L 49.61 85.34 L 50.39 85.34 L 51.94 83.79 L 52.72 83.79 L 58.93 77.57 L 58.93 76.80 L 61.26 74.47 L 61.26 73.69 L 62.82 72.14 L 62.82 71.36 L 63.59 70.58 L 63.59 69.81 L 65.15 67.48 L 65.15 65.92 L 66.70 63.59 L 66.70 62.04 L 67.48 61.26 L 67.48 59.71 L 68.25 58.93 L 68.25 55.83 L 69.03 55.05 L 69.03 51.94 L 69.81 51.17 L 69.81 44.17 L 70.58 43.40 L 70.58 37.96 L 69.81 37.18 L 69.81 30.97 L 69.03 30.19 L 69.03 27.86 L 68.25 27.09 L 68.25 24.76 L 67.48 23.98 L 67.48 23.20 L 66.70 22.43 L 66.70 21.65 L 65.92 20.87 L 65.92 20.10 L 64.37 18.54 L 64.37 17.77 L 60.49 13.88 L 59.71 13.88 L 58.16 12.33 L 57.38 12.33 L 56.60 11.55 L 55.05 11.55 L 54.27 10.78 L 50.39 10.78 Z M 50.39 13.11 L 51.17 13.88 L 53.50 13.88 L 54.27 14.66 L 55.83 14.66 L 57.38 16.21 L 58.16 16.21 L 62.82 20.87 L 62.82 21.65 L 63.59 22.43 L 63.59 23.20 L 65.15 25.53 L 65.15 27.09 L 65.92 27.86 L 65.92 30.19 L 66.70 30.97 L 66.70 37.18 L 67.48 37.96 L 67.48 43.40 L 66.70 44.17 L 66.70 50.39 L 65.92 51.17 L 65.92 55.05 L 65.15 55.83 L 65.15 58.16 L 64.37 58.93 L 64.37 60.49 L 63.59 61.26 L 63.59 62.82 L 62.82 63.59 L 62.82 64.37 L 62.04 65.15 L 62.04 65.92 L 61.26 66.70 L 61.26 67.48 L 60.49 68.25 L 60.49 69.03 L 59.71 69.81 L 59.71 70.58 L 58.93 71.36 L 58.93 72.14 L 56.60 74.47 L 56.60 75.24 L 50.39 81.46 L 49.61 81.46 L 48.06 83.01 L 47.28 83.01 L 46.50 83.79 L 45.73 83.79 L 43.40 85.34 L 41.84 85.34 L 41.07 86.12 L 39.51 84.56 L 39.51 83.79 L 38.74 83.01 L 38.74 81.46 L 37.96 80.68 L 37.96 79.13 L 37.18 78.35 L 37.18 76.80 L 38.74 75.24 L 40.29 75.24 L 41.07 74.47 L 41.84 74.47 L 42.62 73.69 L 43.40 73.69 L 44.95 72.14 L 45.73 72.14 L 50.39 67.48 L 50.39 66.70 L 51.94 65.15 L 51.94 64.37 L 52.72 63.59 L 52.72 62.82 L 53.50 62.04 L 53.50 61.26 L 55.05 58.93 L 55.05 56.60 L 55.83 55.83 L 55.83 51.17 L 55.05 51.17 L 54.27 51.94 L 53.50 51.94 L 51.94 53.50 L 50.39 53.50 L 49.61 54.27 L 43.40 54.27 L 42.62 53.50 L 41.07 53.50 L 39.51 51.94 L 38.74 51.94 L 34.85 48.06 L 34.85 47.28 L 34.08 46.50 L 34.08 45.73 L 32.52 43.40 L 32.52 41.07 L 31.75 40.29 L 31.75 29.42 L 32.52 28.64 L 32.52 26.31 L 33.30 25.53 L 33.30 24.76 L 34.08 23.98 L 34.08 23.20 L 34.85 22.43 L 34.85 21.65 L 35.63 20.87 L 35.63 20.10 L 39.51 16.21 L 40.29 16.21 L 41.07 15.44 L 41.84 15.44 L 44.17 13.88 L 46.50 13.88 L 47.28 13.11 Z M 46.50 23.20 L 45.73 23.98 L 44.95 23.98 L 42.62 26.31 L 42.62 27.09 L 41.84 27.86 L 41.84 28.64 L 41.07 29.42 L 41.07 30.97 L 40.29 31.75 L 40.29 37.18 L 41.07 37.96 L 41.07 39.51 L 41.84 40.29 L 41.84 41.07 L 44.95 44.17 L 46.50 44.17 L 47.28 44.95 L 50.39 44.95 L 51.17 44.17 L 51.94 44.17 L 52.72 43.40 L 53.50 43.40 L 55.05 41.84 L 55.05 41.07 L 55.83 40.29 L 55.83 38.74 L 56.60 37.96 L 56.60 30.97 L 55.83 30.19 L 55.83 28.64 L 55.05 27.86 L 55.05 27.09 L 52.72 24.76 L 51.94 24.76 L 51.17 23.98 L 50.39 23.98 L 49.61 23.20 Z M 47.28 26.31 L 49.61 26.31 L 52.72 29.42 L 52.72 30.97 L 53.50 31.75 L 53.50 37.96 L 52.72 38.74 L 52.72 39.51 L 51.17 41.07 L 50.39 41.07 L 49.61 41.84 L 48.06 41.84 L 47.28 41.07 L 46.50 41.07 L 44.17 38.74 L 44.17 37.96 L 43.40 37.18 L 43.40 32.52 L 44.17 31.75 L 44.17 30.19 L 44.95 29.42 L 44.95 28.64 Z " fill="black" fill-rule="evenodd" stroke="none"/>
</svg>