<svg width="96" height="45" viewBox="0 0 96 45" fill="none" xmlns="http://www.w3.org/2000/svg">
<g clip-path="url(#clip0_82_3319)">
<path d="M80.6443 40.2055C76.8445 39.3233 73.4769 38.8038 70.3215 37.5368C69.4959 37.2003 68.4743 37.0626 67.9612 37.7676C67.4683 38.4337 67.9576 39.1564 68.6577 39.6723C69.3932 40.2156 70.201 40.7293 71.0695 41.1264C75.5165 43.2045 80.2874 44.5867 85.1224 45.7574C87.4878 46.3336 88.9067 45.5868 89.7182 43.4176C90.4563 41.4371 90.8562 39.3969 90.5392 37.2409C90.3961 36.3035 90.24 35.3638 90.2287 34.4391C90.2099 33.0251 89.1191 32.2918 87.6911 31.7218C86.1515 31.1003 85.3511 31.9138 84.5503 32.6529C84.3099 32.8757 84.1869 33.1934 83.4369 33.1884C81.4877 30.9356 79.4361 28.5798 77.3844 26.224C75.1183 23.6395 72.4673 21.3371 69.6717 19.0941C66.7476 16.7435 63.7663 14.489 60.4113 12.5292C56.3268 10.1437 51.7114 9.09656 47.0441 8.9524C40.1117 8.72704 33.4573 9.73864 27.2066 11.8821C22.882 13.3681 18.3741 14.5249 14.0624 16.0132C11.6638 16.8418 9.43905 17.9769 7.21975 19.0811C5.39689 19.99 3.67112 21.0328 1.92477 22.0401C1.17483 22.4912 0.41007 22.9503 0.0883539 23.7103C-0.0864146 24.0931 -0.0328657 24.4738 0.350909 24.8066C0.758877 25.1543 1.25271 25.1672 1.68816 24.9788C2.26635 24.7413 2.76984 24.3952 3.34984 24.1475C12.4487 20.3743 21.8017 16.9854 31.8711 14.9319C36.712 13.94 41.6472 12.8692 46.9216 13.4492C51.3156 13.927 55.386 14.719 59.0302 17.4722C63.0058 20.4749 66.6573 23.6431 70.2628 26.9199C73.1639 29.5527 75.2035 32.5852 77.8008 35.3448C79.0313 36.6543 79.5803 38.3314 80.6555 40.2181L80.6443 40.2055Z" fill="#002BFF"/>
</g>
<defs>
<clipPath id="clip0_82_3319">
<rect width="92" height="29" fill="white" transform="matrix(0.984808 0.173648 0.173648 -0.984808 0 28.5596)"/>
</clipPath>
</defs>
</svg>
