<svg width="91" height="36" viewBox="0 0 91 36" fill="none" xmlns="http://www.w3.org/2000/svg">
<path d="M10.0042 31.2836C13.804 30.4015 17.1716 29.8819 20.327 28.6149C21.1526 28.2784 22.1741 28.1407 22.6873 28.8457C23.1801 29.5119 22.6908 30.2345 21.9907 30.7504C21.2552 31.2938 20.4475 31.8074 19.5789 32.2045C15.1319 34.2827 10.361 35.6648 5.52608 36.8356C3.16061 37.4117 1.74176 36.6649 0.930229 34.4958C0.192168 32.5152 -0.207787 30.475 0.109259 28.319C0.252359 27.3816 0.40845 26.4419 0.419701 25.5172C0.438533 24.1032 1.52936 23.3699 2.95736 22.7999C4.49695 22.1784 5.29738 22.9919 6.09811 23.731C6.33851 23.9538 6.46157 24.2715 7.21154 24.2666C9.16069 22.0137 11.2124 19.6579 13.264 17.3021C15.5301 14.7176 18.1812 12.4152 20.9767 10.1722C23.9009 7.82165 26.8821 5.5671 30.2372 3.60728C34.3216 1.22185 38.937 0.174683 43.6044 0.0305205C50.5368 -0.194833 57.1912 0.816765 63.4418 2.96022C67.7665 4.44626 72.2744 5.60299 76.586 7.09133C78.9846 7.91995 81.2094 9.05502 83.4287 10.1592C85.2515 11.0682 86.9773 12.1109 88.7237 13.1182C89.4736 13.5693 90.2384 14.0284 90.5601 14.7884C90.7349 15.1712 90.6813 15.5519 90.2975 15.8847C89.8896 16.2325 89.3957 16.2453 88.9603 16.0569C88.3821 15.8194 87.8786 15.4734 87.2986 15.2256C78.1997 11.4525 68.8467 8.06353 58.7773 6.01007C53.9364 5.01811 49.0012 3.94732 43.7269 4.52731C39.3329 5.00511 35.2624 5.79709 31.6183 8.55036C27.6426 11.553 23.9912 14.7212 20.3857 17.998C17.4845 20.6308 15.4449 23.6633 12.8477 26.4229C11.6171 27.7324 11.0681 29.4096 9.99296 31.2962L10.0042 31.2836Z" fill="#002BFF"/>
</svg>
