<svg width="30" height="35" viewBox="0 0 30 35" fill="none" xmlns="http://www.w3.org/2000/svg">
<path d="M29.7373 12.1109C29.7077 12.2319 29.6741 12.3515 29.6391 12.4679C26.646 22.3557 19.463 29.007 12.1953 34.5734C10.9434 28.2759 6.6406 23.6347 4.43138 17.7843C3.2118 14.5556 2.19123 10.9948 2.86085 7.55968C3.53182 4.12301 6.50883 1.07595 9.46836 1.93435C12.2773 2.74772 13.6394 6.33806 14.6048 9.49067C16.5976 6.39394 18.9171 3.46486 21.8685 1.65805C27.4312 -1.74758 31.0308 6.90618 29.7373 12.1124V12.1109Z" fill="#EF90CB"/>
<path d="M20.6221 25.1133L20.4258 25.2902C20.438 25.298 20.4908 25.2561 20.6221 25.1133Z" fill="#FCF5F9"/>
<path d="M15.793 4.11918C15.8056 4.10211 15.8211 4.08193 15.8338 4.06641C15.8042 4.10211 15.7944 4.11297 15.793 4.11918Z" fill="#FCF5F9"/>
<path d="M12.7148 31.2816C12.7148 31.2816 12.7231 31.2754 12.7259 31.2723C12.7411 31.2568 12.7605 31.2382 12.7743 31.2227L12.7148 31.2801V31.2816Z" fill="#FCF5F9"/>
<path d="M21.9781 21.9079C20.9199 23.3158 20.1669 24.1198 19.4072 24.9317C18.6407 25.7388 17.8568 26.546 16.5848 27.8095C15.3464 28.9815 13.9991 30.2031 12.727 31.2726C12.4541 31.5722 12.0305 31.9152 11.5908 32.2645C11.3703 32.4399 11.1471 32.6168 10.9333 32.7876C10.8271 32.8745 10.7235 32.9599 10.6254 33.0437L10.5891 33.0747L10.5729 33.0887L10.5689 33.0934L10.5555 33.112C10.5461 33.126 10.538 33.1399 10.5286 33.1523C10.503 33.1446 10.4855 33.1322 10.4761 33.112C10.421 33.2641 10.3793 33.0747 10.382 32.963L10.3968 32.9537C10.3807 32.9304 10.3659 32.8978 10.3538 32.8621C10.3363 32.8078 10.3188 32.7519 10.3013 32.6991C10.2825 32.6354 10.2623 32.5734 10.2449 32.5128C10.1722 32.2707 10.1104 32.0611 10.062 31.9369L10.0848 31.9525C10.0512 31.8485 10.023 31.7429 9.98534 31.6405L9.87374 31.3362L9.9329 31.4309C9.75272 31.0025 9.59405 30.557 9.40849 30.1394C9.31975 29.9283 9.23504 29.7188 9.15167 29.5139C9.06427 29.3121 8.97956 29.115 8.89619 28.9225L8.86258 29.0234C8.77921 28.8169 8.69987 28.6276 8.62323 28.4522C8.5439 28.2799 8.46591 28.1231 8.39061 27.9741C8.24001 27.6791 8.10689 27.4137 7.96302 27.1669C7.82183 26.917 7.68334 26.6733 7.53946 26.4001C7.3929 26.13 7.23692 25.8335 7.0675 25.4765L7.0917 25.4843C5.97162 23.8777 5.6395 22.7166 4.54094 21.0526C4.67675 21.2606 4.52211 20.9362 4.54632 20.9439C4.43471 20.7422 4.32042 20.5373 4.2115 20.3432C4.10528 20.1476 4.00712 19.9629 3.91703 19.8062C3.73685 19.4926 3.59029 19.2893 3.52978 19.3187C3.25144 18.6994 3.34153 18.7925 3.35229 18.6839C3.32674 18.7025 3.24741 18.5799 3.14656 18.3936C3.04571 18.2073 2.94083 17.9481 2.83729 17.7044L2.95024 17.9186L2.65711 17.2201C2.56568 16.9811 2.47021 16.7436 2.38281 16.5045C2.38012 16.6163 2.38012 16.7281 2.38012 16.8398C2.13405 16.0559 2.43525 16.5837 2.15288 15.8588L2.06817 15.9085C1.98211 15.6384 1.91219 15.3947 1.8584 15.1603C1.80193 14.9274 1.75621 14.7055 1.71856 14.4851C1.69839 14.3748 1.67957 14.2646 1.6594 14.1529C1.64192 14.0411 1.62444 13.9278 1.60696 13.8114C1.56931 13.5801 1.53032 13.3364 1.48729 13.0663C1.4214 12.7931 1.37434 12.5153 1.31652 12.2374C1.27349 11.958 1.21433 11.6802 1.18206 11.3992C1.096 10.8373 1.05432 10.2692 1.02877 9.70104C1.02742 9.41698 1.01532 9.13137 1.0328 8.84886C1.03684 8.5648 1.06642 8.28229 1.09197 8.00133C1.10138 7.86008 1.13096 7.72193 1.14844 7.58223C1.16995 7.44408 1.18609 7.30127 1.21567 7.16778C1.26542 6.89613 1.33803 6.6307 1.41737 6.36837C1.7468 5.32216 2.286 4.35977 2.96503 3.60848C3.63869 2.85254 4.46026 2.30925 5.29528 2.0966L5.45663 2.13695C5.49966 2.18663 5.71211 2.08107 5.94473 2.01122C6.06037 1.96776 6.18139 1.94758 6.28089 1.92895C6.38039 1.92119 6.45972 1.9243 6.49065 1.95224C6.62108 1.94448 6.75285 1.93206 6.88463 1.93982C6.99354 1.97397 7.21272 2.05779 7.01909 2.03606C7.10649 2.05934 7.17238 2.07486 7.22751 2.08728C7.28264 2.09815 7.32297 2.11522 7.36331 2.12298C7.4413 2.14316 7.50988 2.15248 7.64165 2.18042C7.67123 2.19749 7.70082 2.21301 7.72905 2.23164L7.81242 2.29528L7.97646 2.42101C8.61113 2.79045 9.1436 3.26854 9.62229 3.85529C10.0983 4.44514 10.5178 5.13744 10.8822 5.97565C10.9629 6.18986 11.053 6.42115 11.1431 6.67416C11.2372 6.92252 11.3286 7.19417 11.4295 7.47512C11.4779 7.61638 11.5263 7.76229 11.5774 7.90975C11.611 8.00754 11.6433 8.10533 11.6769 8.20468C11.7213 8.34283 11.7643 8.48098 11.8087 8.62068C11.9848 9.17638 12.1663 9.74916 12.3505 10.3281C12.5764 9.97734 12.805 9.62343 13.035 9.26796C13.2488 8.94044 13.4625 8.61136 13.6763 8.28384C13.8068 8.08981 13.9359 7.89423 14.0649 7.70175C14.1954 7.51238 14.3258 7.323 14.4535 7.13828C14.9685 6.40097 15.4755 5.7335 15.9098 5.20574C16.9277 3.91272 18.2508 2.76096 19.6976 1.91188L19.9679 1.752C20.058 1.70388 20.1467 1.66197 20.2368 1.61695C20.3269 1.57349 20.4143 1.52382 20.5044 1.48656L20.7773 1.38256C20.9562 1.30185 21.1431 1.26925 21.3246 1.21337C21.4147 1.18232 21.5088 1.18077 21.5989 1.16214C21.6903 1.15128 21.7818 1.12334 21.8732 1.12334C22.0561 1.11713 22.2376 1.0954 22.4164 1.11713L22.5509 1.12489C22.5953 1.12489 22.641 1.12955 22.684 1.13886C22.7728 1.15438 22.8602 1.16835 22.9476 1.18388C23.2945 1.2677 23.6374 1.3717 23.9574 1.54555C23.9937 1.5797 24.073 1.60919 24.1362 1.648C24.2008 1.6837 24.2572 1.70853 24.2599 1.70233C24.631 1.96776 24.9739 2.29528 25.2751 2.67558C25.5763 3.05433 25.8573 3.46412 26.09 3.91272C26.09 3.91272 26.0967 3.92514 26.1101 3.94842C26.1236 3.97326 26.1437 4.00586 26.1666 4.05398C26.2137 4.14866 26.2809 4.28681 26.3656 4.45756C26.5216 4.80992 26.7367 5.30508 26.9196 5.89959C27.1038 6.49255 27.2665 7.17554 27.37 7.86318C27.4763 8.55083 27.522 9.24002 27.5233 9.83609C27.5287 10.1357 27.5099 10.4089 27.5032 10.6526C27.4803 10.8932 27.4749 11.1058 27.4574 11.2704C27.4279 11.601 27.4373 11.7748 27.518 11.6926C27.5906 11.6103 27.7627 11.2797 27.9254 10.5563C28.0814 9.83609 28.2279 8.71071 28.0585 7.12742L28.0961 7.20503C27.9603 6.27213 27.7586 5.52861 27.5206 4.88443C27.2813 4.24024 27.0003 3.69386 26.6359 3.18627C26.6413 3.12108 26.5996 3.00311 26.5189 2.86651C26.4396 2.72991 26.3401 2.56072 26.2137 2.40394C26.1518 2.32478 26.09 2.24406 26.0281 2.16489C25.9676 2.08573 25.8977 2.01588 25.8385 1.94603C25.778 1.87773 25.7215 1.81253 25.6731 1.75355C25.6247 1.69456 25.5777 1.648 25.5454 1.60453L25.5817 1.62316C25.1716 1.26304 24.7494 0.892054 24.2787 0.594023C23.8108 0.300649 23.2891 0.0817824 22.7741 0.0724689C22.8144 0.0662599 22.8413 0.0259016 23.0753 0.0662599C22.9825 0.0522897 22.8857 0.0367673 22.7862 0.0212449C22.688 0.00261793 22.5859 0.0103792 22.485 0.00261793C22.3842 0.00106569 22.2833 -0.00824778 22.1865 -0.00359105C22.0897 0.00261793 21.9969 0.0103792 21.9082 0.0165881C21.8208 0.0243494 21.736 0.0212449 21.6621 0.0352151C21.5881 0.0460808 21.5209 0.0553942 21.4644 0.0616032C21.3501 0.0724689 21.2748 0.0724689 21.2574 0.0522897C21.2022 0.0616032 21.1471 0.0755734 21.0933 0.0957526C21.0395 0.112827 20.9844 0.129902 20.9279 0.148529C20.8177 0.185783 20.702 0.215275 20.5904 0.261843C20.4802 0.309962 20.3686 0.358082 20.2543 0.407754C20.1978 0.43259 20.14 0.455873 20.0848 0.483814L19.9208 0.575396C19.8105 0.635934 19.7003 0.698023 19.59 0.760113C19.4811 0.822203 19.3816 0.892054 19.2781 0.9588C19.1759 1.02555 19.0723 1.09385 18.9715 1.16059C18.872 1.232 18.7738 1.3034 18.6757 1.37325C17.8944 1.93982 17.2396 2.55761 16.8712 2.99845L16.9129 2.92394C16.5081 3.4455 16.3239 3.51069 15.8614 4.07415C15.8278 4.09433 15.7901 4.12693 15.7914 4.11762C15.583 4.41099 15.2469 4.7975 14.9295 5.1778C14.7695 5.36717 14.6136 5.555 14.4791 5.72729C14.3446 5.89959 14.2263 6.05016 14.1483 6.17279L14.0851 6.16192C13.8041 6.53912 13.5298 6.92252 13.2635 7.31214C13.3657 7.16933 13.472 7.02963 13.5782 6.88993C13.5809 7.01876 13.4074 7.21745 13.1721 7.50151C13.1156 7.57136 13.0538 7.64432 12.9906 7.72193C12.9543 7.76384 12.9193 7.8042 12.8844 7.84921C12.8507 7.89423 12.8158 7.94235 12.7835 7.99668C12.7539 8.0479 12.7243 8.10688 12.6894 8.18139C12.6625 8.21709 12.6356 8.26521 12.6074 8.31489C12.5711 8.23572 12.528 8.17363 12.4702 8.08826C12.411 8.00444 12.3411 7.89268 12.2605 7.75297C12.0574 7.34939 11.8598 6.9427 11.7199 6.50342C11.4738 6.08431 11.9835 6.84801 11.6621 6.19607C11.7226 6.13553 11.8342 6.48945 11.8194 6.28455C11.5115 5.63726 11.4322 5.1452 10.9535 4.39702L10.9871 4.32717C10.6482 3.85839 10.3659 3.38962 10.0593 2.99379C9.98265 2.89445 9.91273 2.79355 9.83474 2.70508C9.75541 2.61815 9.67742 2.53278 9.59943 2.45361C9.45018 2.28752 9.27941 2.1711 9.12074 2.07176C9.06158 2.0283 9.01183 1.98328 8.96073 1.95068C8.90964 1.91654 8.86257 1.88549 8.82089 1.856C8.73618 1.79701 8.6676 1.74579 8.60978 1.69767C8.49684 1.59833 8.41212 1.544 8.33145 1.4757C8.24942 1.4105 8.16471 1.34686 8.02756 1.27391C7.88503 1.21958 7.69409 1.14973 7.39962 1.0954L7.18044 0.99295L6.95455 0.906024C6.82681 0.878084 6.73806 0.884293 6.66949 0.884293C6.60091 0.887397 6.5525 0.895158 6.50275 0.909129C6.40325 0.933964 6.29837 0.94483 6.01465 0.943278C6.02944 0.909129 5.85061 0.91689 5.70673 0.926203C5.5642 0.935517 5.45798 0.951039 5.61933 0.888949C4.96853 0.960353 4.3379 1.24131 3.74492 1.65731C3.1479 2.07331 2.57509 2.60573 1.96866 3.26078C1.88664 3.45481 1.70108 3.72024 1.54107 3.99189C1.37703 4.25887 1.23584 4.53051 1.19954 4.68419C1.16592 4.6904 0.960193 5.10329 0.827074 5.40443C0.699335 5.70712 0.614623 5.88407 0.763877 5.36873C0.792114 5.2818 0.858001 5.13589 0.868758 5.15452V5.00705C0.595798 5.46186 0.441166 5.9415 0.337629 6.42891C0.286534 6.67106 0.24485 6.92252 0.215268 7.17088C0.200477 7.29506 0.185686 7.41924 0.166862 7.54652C0.157449 7.61017 0.148037 7.67381 0.138624 7.73745C0.131901 7.80264 0.123833 7.86784 0.115766 7.93303C0.138624 7.77781 0.17224 7.59775 0.196443 7.4922C0.220647 7.38664 0.234093 7.35405 0.232748 7.4953L0.191065 7.7359L0.162828 7.9796C0.145348 8.14259 0.123833 8.30402 0.109043 8.46701C0.0955963 8.39715 0.0888731 8.3273 0.0781161 8.25745C0.0606359 8.37853 0.0498789 8.50115 0.0431558 8.62223L0.0176078 8.98856C0.000127636 9.23226 0.00416152 9.47596 -0.00390625 9.72122L0.0579467 9.51943C0.0337434 10.2304 -0.0523129 10.4973 0.118455 11.2812C0.166862 11.4566 0.165517 11.2859 0.166862 11.1664C0.168206 11.1058 0.17224 11.0577 0.180308 11.0701C0.187031 11.0825 0.200477 11.157 0.230059 11.3402C0.250229 11.5746 0.270398 11.8385 0.309392 12.1179C0.328217 12.2576 0.343008 12.4035 0.365867 12.551C0.39007 12.6969 0.414273 12.8474 0.439821 12.9996C0.546047 13.6049 0.684544 14.2351 0.841865 14.8017C0.87817 14.6698 0.960193 14.9756 1.07045 15.2783L1.02473 15.3372C1.24929 15.9116 1.26004 16.028 1.26139 16.1506C1.26408 16.2717 1.26139 16.3943 1.49939 16.9547L1.42409 16.8724L1.64999 17.1192C1.77235 17.3629 1.83958 17.5212 1.87992 17.6408C1.92429 17.7603 1.94043 17.8395 1.95925 17.9217C1.99825 18.0847 2.04531 18.2648 2.35054 18.7894C2.25238 18.5706 2.26314 18.4992 2.31961 18.555C2.37474 18.6125 2.485 18.791 2.59661 19.0642L2.48366 18.9586C2.62888 19.2504 2.69611 19.3358 2.7741 19.5407C2.66787 19.3793 2.65308 19.4957 2.86688 19.9241C2.79696 19.8434 2.73241 19.758 2.66653 19.6727C2.81981 19.9319 2.99327 20.1756 3.15463 20.427C3.21917 20.5916 3.2985 20.7763 3.39128 20.9595C3.48406 21.1426 3.58356 21.3273 3.67634 21.5028C3.86056 21.8536 4.02595 22.1547 4.05956 22.3022C4.05956 22.3022 4.22898 22.6328 4.42933 22.9914C4.63237 23.3468 4.86634 23.7318 4.98736 23.8497C4.79507 23.6293 5.17695 24.3449 5.00887 24.1866C5.2509 24.4753 5.84926 25.4144 6.01196 25.8444L5.96356 25.7761C6.34005 26.5165 6.69907 27.1172 7.03388 27.7071C7.20599 28.0004 7.36062 28.2969 7.5166 28.6012C7.59325 28.7548 7.67258 28.9085 7.74384 29.0699C7.81376 29.2314 7.88234 29.399 7.94957 29.5713C7.98319 29.472 8.27497 30.2015 8.27363 29.9796C8.43902 30.3226 8.57751 30.6625 8.69987 30.9839C8.81013 31.3098 8.89888 31.6187 8.98494 31.895C9.00645 31.9633 9.02796 32.0316 9.04948 32.0953C9.0683 32.1605 9.08578 32.2257 9.10326 32.2862C9.13822 32.4088 9.17453 32.5237 9.21352 32.6261C9.29017 32.8326 9.37488 32.9956 9.4811 33.1058C9.48783 33.1291 9.49321 33.1415 9.50127 33.1725C9.508 33.202 9.51606 33.2315 9.52279 33.261C9.53623 33.3184 9.54834 33.3728 9.56044 33.4255C9.5833 33.5295 9.60347 33.6242 9.62095 33.7112C9.65591 33.885 9.68011 34.0325 9.70162 34.1675C9.74331 34.4376 9.77154 34.6642 9.8334 34.9607L9.76348 34.7248C9.77961 34.7884 9.7944 34.8505 9.80919 34.911C9.81592 34.9421 9.82398 34.9716 9.83071 35.0011C9.83071 35.0135 9.83877 35.0042 9.84415 35.0011L9.86163 34.9871L9.89659 34.9592C9.98937 34.8862 10.0795 34.8148 10.1655 34.7465C10.3349 34.613 10.4909 34.4904 10.6361 34.3755C10.8795 34.183 11.0866 34.0185 11.2843 33.8633C11.5693 33.6398 11.8221 33.4395 12.1865 33.1523C12.5334 32.8372 12.5159 32.6696 13.1775 32.1744C13 32.3933 13.2568 32.1682 13.4962 31.9711C13.3469 32.1046 13.3106 32.162 13.6468 31.9338C13.6817 31.8826 13.7449 31.8159 13.8027 31.7553C13.8081 31.7553 13.8216 31.7491 13.8189 31.76C14.2061 31.4076 14.1268 31.4511 13.9385 31.6001C13.9426 31.5846 13.9224 31.5892 13.8565 31.6234C14.3097 31.3409 14.9995 30.6408 15.1003 30.6781C16.2674 29.621 17.0339 28.7673 17.9469 27.8095C18.0813 27.7443 17.8891 27.9973 17.6282 28.2814L18.2817 27.6062C18.3207 27.6698 17.924 28.0191 17.7291 28.2333C18.595 27.5425 19.2808 26.5087 20.2207 25.5991L20.3645 25.3508L20.4223 25.298C20.3995 25.2778 20.5716 25.0279 20.6899 24.868C20.8513 24.7702 20.7746 24.9844 21.1955 24.4769C21.3824 24.2983 21.607 24.0019 21.8396 23.6837C22.0641 23.3577 22.2994 23.0146 22.489 22.7244C22.2631 23.0162 22.3102 22.8951 22.3882 22.7523C22.5818 22.4838 22.7391 22.372 22.8709 22.1469L22.9489 22.1764C22.8171 22.2292 23.3899 21.4096 23.4289 21.2808C23.5042 21.2218 23.4424 21.3382 23.359 21.481C23.2743 21.6223 23.1681 21.7899 23.16 21.8396C23.3509 21.5648 23.4679 21.391 23.5473 21.2668C23.6279 21.1442 23.6737 21.0743 23.7194 21.0029C23.7651 20.9331 23.8108 20.8632 23.8915 20.739C23.9695 20.6133 24.0797 20.4348 24.2586 20.1492C24.5907 19.5004 24.1308 20.2113 24.2586 19.876C24.4146 19.5997 24.5598 19.3187 24.7171 19.0331C24.8663 18.7413 25.0331 18.4495 25.224 18.1406C25.1689 18.1949 25.1138 18.2493 25.0573 18.302C25.3195 17.7618 25.5279 17.3303 25.7162 16.9438C25.9125 16.562 26.0832 16.222 26.2809 15.8712C26.3817 15.6073 26.4638 15.3497 26.5471 15.1122C26.6318 14.8747 26.7004 14.6465 26.765 14.4323C26.8295 14.2181 26.8927 14.0194 26.9438 13.83C26.9935 13.6406 27.0393 13.4637 27.0823 13.3007C27.1697 12.9747 27.2248 12.6922 27.2719 12.4578C27.3163 12.2234 27.3566 12.031 27.3687 11.8819C27.401 11.5886 27.3902 11.4302 27.3579 11.3976C27.3257 11.3619 27.2705 11.4427 27.202 11.5917C27.0756 11.8509 26.8456 12.4144 26.6601 12.8893C26.5633 13.1268 26.4745 13.3457 26.41 13.5056C26.3481 13.667 26.3038 13.7648 26.3038 13.7648C25.6207 15.345 25.0761 16.5185 24.4603 17.7525C24.1443 18.3641 23.8189 18.9959 23.4182 19.6742C23.0242 20.3572 22.5576 21.0899 21.9754 21.9094L21.9781 21.9079Z" fill="#FCF5F9"/>
<path d="M27.7039 4.49512L27.6992 4.56652C27.7133 4.56031 27.718 4.54013 27.7039 4.49512Z" fill="#FCF5F9"/>
<path d="M24.8493 19.543C24.8493 19.543 24.8477 19.5544 24.8477 19.5609C24.851 19.5495 24.851 19.5462 24.8493 19.543Z" fill="#FCF5F9"/>
<path d="M27.3107 7.05606C27.3107 7.05606 27.3107 7.05443 27.3107 7.05279C27.3057 7.04789 27.3041 7.04299 27.3008 7.03809L27.3123 7.05606H27.3107Z" fill="#FCF5F9"/>
<path d="M26.6393 4.24089C26.7079 4.41784 26.755 4.56531 26.7846 4.70346C26.8155 4.84005 26.8451 4.95802 26.8667 5.0791C26.8882 5.20017 26.9124 5.32125 26.9487 5.45629C26.9837 5.59134 27.02 5.74656 27.0819 5.93128C27.1182 6.11445 27.1586 6.30382 27.203 6.49164C27.238 6.68257 27.2851 6.86884 27.3106 7.05355C27.3712 7.13427 27.3833 7.2569 27.3954 7.38263C27.4061 7.50991 27.4061 7.64185 27.4573 7.74275L27.4035 7.82812C27.4384 7.89797 27.4626 7.98335 27.4304 8.05786L27.4129 8.0532C27.4586 8.1603 27.4344 8.28448 27.4573 8.33881L27.4398 8.33415L27.4492 8.4661L27.425 8.44281C27.468 8.63374 27.468 8.83243 27.4411 9.00472L27.5124 8.99386C27.4115 9.36174 27.5528 9.51231 27.4263 9.83983L27.4102 9.83362C27.4855 10.0587 27.429 10.2248 27.3765 10.3893C27.3254 10.5539 27.2635 10.7168 27.3173 10.9543C27.3039 10.8954 27.2783 10.9699 27.2622 10.9621C27.2541 11.1686 27.2191 11.3843 27.3564 11.4216C27.3281 11.569 27.2918 11.5318 27.2366 11.538C27.2958 11.552 27.2999 11.6886 27.2756 11.8003L27.2649 11.7429L27.2124 12.0689L27.3375 12.0394C27.2662 12.2023 27.1922 12.0409 27.1828 12.2132L27.2743 12.2412C27.2016 12.474 27.016 12.5609 26.8895 12.7581C26.5828 13.6661 26.4213 14.7667 25.9114 15.521H25.8321C25.7325 15.4822 25.8711 15.8299 25.7702 15.8129V15.9355C25.7419 15.9526 25.7002 15.9991 25.7002 15.9386C25.6585 16.0255 25.6706 16.0364 25.6693 16.1171L25.5684 16.1776C25.3625 16.499 25.337 16.8653 25.1325 17.2114C25.0504 17.3015 24.9697 17.4241 24.893 17.5654C24.8136 17.7051 24.7356 17.8618 24.6643 18.0264C24.523 18.3554 24.3871 18.6938 24.2889 18.9453C24.1786 19.3194 23.9136 19.6128 23.662 19.9154C23.397 20.2057 23.1454 20.5037 23.0041 20.8639C22.9785 20.8732 22.9705 20.9477 22.9799 20.9555L22.7835 21.2271L22.579 21.4879C22.579 21.4879 22.5494 21.5282 22.4983 21.595C22.4485 21.6617 22.3826 21.7595 22.3032 21.8635C22.1417 22.0669 21.9601 22.3447 21.8229 22.5527C21.691 22.7685 21.6224 22.961 21.726 23.0339C21.7785 23.0712 21.8753 23.0774 22.0328 23.0386C22.1902 22.9998 22.4162 22.919 22.696 22.7514L22.7014 22.7824C22.8427 22.6552 22.9611 22.5496 23.0431 22.4316C23.1252 22.3137 23.183 22.1926 23.2194 22.0436C23.3512 22.115 23.4225 21.8014 23.5046 21.7595L23.5086 21.775C23.5571 21.5034 23.8544 21.4398 23.9055 21.1821C23.9095 21.1976 23.9378 21.2286 23.9095 21.2737C23.9876 21.1231 24.0817 20.9089 24.1544 20.9555C24.3549 20.6093 24.6683 20.156 24.6899 19.8534L24.6993 19.8829C24.6993 19.7028 24.7854 19.7137 24.8257 19.5445C24.8392 19.5445 24.8486 19.5367 24.8526 19.5414C24.8567 19.3489 25.0652 19.1316 25.0962 18.9965L25.1459 19.0229C25.1944 18.9298 25.2401 18.8335 25.2845 18.7388L25.2199 18.8366C25.1123 18.7109 25.4096 18.683 25.4338 18.4222C25.5509 18.2437 25.3693 17.8587 25.528 17.7019C25.5146 17.5669 25.5845 17.851 25.6087 17.6787C25.6787 17.719 25.6182 17.7734 25.6895 17.7718C25.7258 17.6119 25.8711 17.5886 25.9101 17.3868L25.9666 17.4132C25.9827 17.1276 26.2384 17.0283 26.2168 16.8187C26.2814 16.5564 26.4496 16.7582 26.4577 16.4477L26.572 16.3934C26.6299 16.2941 26.5155 16.2646 26.603 16.1668C26.646 16.2009 26.7052 16.0379 26.7187 16.1326C26.8128 16.0193 26.8465 15.8672 26.8909 15.7104C26.9326 15.5505 26.9824 15.3829 27.1169 15.237C27.0577 15.1113 27.1842 14.9576 27.1384 14.8644C27.1842 14.8769 27.281 14.4997 27.2918 14.7496C27.2918 14.7713 27.2797 14.8024 27.2649 14.7915L27.3106 14.8443C27.4909 14.6859 27.394 14.4345 27.4855 14.2358C27.4452 14.2886 27.4196 14.3724 27.4021 14.2994L27.4801 14.1116L27.5124 14.1737C27.5582 14.0837 27.5958 13.9874 27.6375 13.8943L27.5662 13.9083C27.6429 13.7794 27.7586 13.7701 27.729 13.573C27.7075 13.4798 27.6066 13.6754 27.6375 13.5171C27.7438 13.3464 27.8837 13.0732 27.9725 12.8279C27.8999 12.8279 27.9214 12.7612 27.9268 12.6866L27.9873 12.6991C27.9779 12.4026 28.1407 12.6432 28.1407 12.3467L28.1757 12.384L28.0694 12.2738C28.0075 11.9943 28.2241 12.1729 28.1219 11.8577C28.1125 11.9664 27.982 11.8733 28.0317 11.7506L28.0829 11.7988C28.0829 11.7227 28.064 11.6932 28.0856 11.6482C28.1084 11.6994 28.1649 11.6917 28.1743 11.583L28.2335 11.6715L28.1649 11.4449C28.2564 11.3036 28.2134 11.0366 28.3062 10.99C28.3062 10.99 28.3291 10.9078 28.3425 10.8131C28.356 10.7184 28.3546 10.6113 28.3156 10.5647C28.3627 10.6423 28.4071 10.4576 28.4649 10.5228C28.4125 10.4235 28.3963 10.1549 28.4703 10.0587L28.4757 10.0804C28.5268 9.8895 28.5215 9.71876 28.5107 9.55422C28.4986 9.38813 28.4878 9.2298 28.5389 9.05595C28.469 9.06837 28.5107 8.88365 28.4205 8.92556C28.3802 8.74239 28.43 8.57941 28.4528 8.44126C28.473 8.30466 28.469 8.19445 28.3291 8.13236C28.3102 7.96938 28.3923 7.93523 28.4017 7.8483L28.4192 7.88711C28.3762 7.57821 28.3735 7.48818 28.36 7.2569C28.321 7.14514 28.1918 7.14358 28.2013 6.93714C28.2591 6.99457 28.2403 6.91385 28.2335 6.83779C28.247 6.88591 28.2672 6.89833 28.29 6.79122C28.2726 6.78036 28.2591 6.76018 28.2483 6.74C28.2524 6.73845 28.2551 6.73379 28.2605 6.73534C28.2241 6.61116 28.2107 6.636 28.2134 6.69654C28.2053 6.69498 28.1959 6.70119 28.1851 6.72293C28.2309 6.58012 28.1259 6.35815 28.2107 6.324C28.1219 5.9468 27.9793 5.70155 27.8663 5.40973C27.9012 5.36005 27.9577 5.41904 27.9968 5.50286L27.9255 5.28865C27.9887 5.26847 27.9927 5.40197 28.0237 5.46561C28.0385 5.31814 27.986 5.18776 27.9147 5.06047C27.8461 4.93164 27.7748 4.80125 27.7734 4.6305C27.7519 4.61653 27.7263 4.60411 27.7035 4.59014V4.56841C27.6806 4.58083 27.6214 4.53116 27.5972 4.49235C27.6349 4.4256 27.7196 4.43802 27.6618 4.29211C27.6658 4.22226 27.6295 4.14154 27.5797 4.06393C27.5272 3.98787 27.464 3.91336 27.4183 3.84817C27.4438 3.93199 27.4048 3.92268 27.3725 3.89939C27.3402 3.83109 27.3725 3.75969 27.3281 3.71933L27.3927 3.67121C27.3416 3.73641 27.2434 3.52996 27.2003 3.52375C27.2299 3.4539 27.2972 3.60136 27.3416 3.59671C27.2003 3.32351 27.2703 3.46011 27.1277 3.19002C27.0052 3.07826 27.0792 3.25987 26.9864 3.23038C26.911 3.11085 26.794 3.02082 26.7388 2.85163L26.7133 2.94321C26.5236 2.75694 26.4308 2.64518 26.342 2.45891C26.1146 2.35181 25.9182 2.34715 25.7904 2.3844C25.6599 2.42476 25.5926 2.49306 25.5563 2.5567C25.5267 2.61569 25.4984 2.67467 25.5038 2.71814C25.5065 2.76315 25.5307 2.79885 25.567 2.82524C25.6074 2.89199 25.6437 2.9339 25.6693 2.9727C25.6948 3.01151 25.7191 3.0379 25.7191 3.0379C25.8105 3.17294 25.9437 3.29868 26.0998 3.45856C26.1792 3.54083 26.2559 3.62465 26.3527 3.76745C26.4456 3.90095 26.5518 4.04841 26.6447 4.24089H26.6393Z" fill="#FCF5F9"/>
</svg>
