<svg width="35" height="35" viewBox="0 0 35 35" fill="none" xmlns="http://www.w3.org/2000/svg">
<g clip-path="url(#clip0_44_2163)">
<path d="M34.6935 12.1109C34.659 12.2319 34.6198 12.3515 34.579 12.4679C31.087 22.3557 22.7068 29.007 14.2278 34.5734C12.7673 28.2759 7.74737 23.6347 5.16994 17.7843C3.7471 14.5556 2.55643 10.9948 3.33766 7.55968C4.12046 4.12301 7.59364 1.07595 11.0464 1.93435C14.3235 2.74772 15.9126 6.33806 17.039 9.49067C19.3638 6.39394 22.0699 3.46486 25.5133 1.65805C32.0031 -1.74758 36.2026 6.90618 34.6935 12.1124V12.1109Z" fill="#EF90CB"/>
<path d="M24.0536 25.1133L23.8262 25.2902C23.8403 25.298 23.9015 25.2561 24.0536 25.1133Z" fill="#FCF5F9"/>
<path d="M18.4238 4.11918C18.4379 4.10211 18.4552 4.08193 18.4693 4.06641C18.4364 4.10211 18.4254 4.11297 18.4238 4.11918Z" fill="#FCF5F9"/>
<path d="M14.834 31.2816C14.834 31.2816 14.8434 31.2754 14.8465 31.2723C14.8638 31.2568 14.8858 31.2382 14.9014 31.2227L14.834 31.2801V31.2816Z" fill="#FCF5F9"/>
<path d="M25.6398 21.9079C24.4052 23.3158 23.5267 24.1198 22.6404 24.9317C21.7462 25.7388 20.8316 26.546 19.3476 27.8095C17.9028 28.9815 16.3309 30.2031 14.8469 31.2726C14.5285 31.5722 14.0343 31.9152 13.5213 32.2645C13.2641 32.4399 13.0036 32.6168 12.7542 32.7876C12.6303 32.8745 12.5095 32.9599 12.395 33.0437L12.3526 33.0747L12.3338 33.0887L12.3291 33.0934L12.3134 33.112C12.3024 33.126 12.293 33.1399 12.282 33.1523C12.2522 33.1446 12.2318 33.1322 12.2208 33.112C12.1565 33.2641 12.1079 33.0747 12.111 32.963L12.1283 32.9537C12.1095 32.9304 12.0922 32.8978 12.0781 32.8621C12.0577 32.8078 12.0373 32.7519 12.0169 32.6991C11.9949 32.6354 11.9714 32.5734 11.951 32.5128C11.8663 32.2707 11.7941 32.0611 11.7377 31.9369L11.7643 31.9525C11.7251 31.8485 11.6922 31.7429 11.6483 31.6405L11.5181 31.3362L11.5871 31.4309C11.3769 31.0025 11.1918 30.557 10.9753 30.1394C10.8717 29.9283 10.7729 29.7188 10.6756 29.5139C10.5737 29.3121 10.4748 29.115 10.3776 28.9225L10.3384 29.0234C10.2411 28.8169 10.1485 28.6276 10.0591 28.4522C9.96657 28.2799 9.87559 28.1231 9.78774 27.9741C9.61204 27.6791 9.45674 27.4137 9.28888 27.1669C9.12417 26.917 8.96259 26.6733 8.79473 26.4001C8.62374 26.13 8.44177 25.8335 8.24411 25.4765L8.27234 25.4843C6.96559 23.8777 6.57811 22.7166 5.29646 21.0526C5.4549 21.2606 5.2745 20.9362 5.30273 20.9439C5.17253 20.7422 5.03919 20.5373 4.91212 20.3432C4.78819 20.1476 4.67367 19.9629 4.56857 19.8062C4.35836 19.4926 4.18736 19.2893 4.11677 19.3187C3.79204 18.6994 3.89715 18.7925 3.9097 18.6839C3.87989 18.7025 3.78734 18.5799 3.66968 18.3936C3.55203 18.2073 3.42967 17.9481 3.30887 17.7044L3.44065 17.9186L3.09866 17.2201C2.99199 16.9811 2.88061 16.7436 2.77864 16.5045C2.7755 16.6163 2.7755 16.7281 2.7755 16.8398C2.48843 16.0559 2.83982 16.5837 2.51039 15.8588L2.41156 15.9085C2.31116 15.6384 2.22958 15.3947 2.16684 15.1603C2.10095 14.9274 2.04761 14.7055 2.00369 14.4851C1.98016 14.3748 1.95819 14.2646 1.93466 14.1529C1.91427 14.0411 1.89388 13.9278 1.87348 13.8114C1.82956 13.5801 1.78406 13.3364 1.73387 13.0663C1.657 12.7931 1.60209 12.5153 1.53464 12.2374C1.48444 11.958 1.41541 11.6802 1.37776 11.3992C1.27736 10.8373 1.22873 10.2692 1.19893 9.70104C1.19736 9.41698 1.18324 9.13137 1.20363 8.84886C1.20834 8.5648 1.24285 8.28229 1.27266 8.00133C1.28364 7.86008 1.31815 7.72193 1.33854 7.58223C1.36364 7.44408 1.38247 7.30127 1.41698 7.16778C1.47502 6.89613 1.55974 6.6307 1.65229 6.36837C2.03663 5.32216 2.66569 4.35977 3.4579 3.60848C4.24384 2.85254 5.20233 2.30925 6.17652 2.0966L6.36476 2.13695C6.41496 2.18663 6.66282 2.08107 6.93421 2.01122C7.06913 1.96776 7.21031 1.94758 7.3264 1.92895C7.44248 1.92119 7.53504 1.9243 7.57112 1.95224C7.72329 1.94448 7.87702 1.93206 8.03076 1.93982C8.15783 1.97397 8.41353 2.05779 8.18763 2.03606C8.2896 2.05934 8.36647 2.07486 8.43079 2.08728C8.4951 2.09815 8.54217 2.11522 8.58923 2.12298C8.68021 2.14316 8.76022 2.15248 8.91396 2.18042C8.94847 2.19749 8.98298 2.21301 9.01592 2.23164L9.11318 2.29528L9.30457 2.42101C10.045 2.79045 10.6662 3.26854 11.2247 3.85529C11.78 4.44514 12.2695 5.13744 12.6946 5.97565C12.7887 6.18986 12.8938 6.42115 12.9989 6.67416C13.1087 6.92252 13.2154 7.19417 13.3331 7.47512C13.3896 7.61638 13.446 7.76229 13.5056 7.90975C13.5449 8.00754 13.5825 8.10533 13.6217 8.20468C13.6735 8.34283 13.7237 8.48098 13.7755 8.62068C13.981 9.17638 14.1927 9.74916 14.4077 10.3281C14.6712 9.97734 14.9379 9.62343 15.2061 9.26796C15.4556 8.94044 15.705 8.61136 15.9544 8.28384C16.1066 8.08981 16.2572 7.89423 16.4078 7.70175C16.56 7.51238 16.7121 7.323 16.8612 7.13828C17.462 6.40097 18.0534 5.7335 18.5601 5.20574C19.7476 3.91272 21.2913 2.76096 22.9792 1.91188L23.2945 1.752C23.3996 1.70388 23.5032 1.66197 23.6083 1.61695C23.7134 1.57349 23.8153 1.52382 23.9205 1.48656L24.2389 1.38256C24.4475 1.30185 24.6656 1.26925 24.8774 1.21337C24.9825 1.18232 25.0923 1.18077 25.1974 1.16214C25.3041 1.15128 25.4107 1.12334 25.5174 1.12334C25.7308 1.11713 25.9426 1.0954 26.1512 1.11713L26.3081 1.12489C26.3598 1.12489 26.4132 1.12955 26.4634 1.13886C26.5669 1.15438 26.6689 1.16835 26.7708 1.18388C27.1756 1.2677 27.5756 1.3717 27.949 1.54555C27.9913 1.5797 28.0839 1.60919 28.1576 1.648C28.2329 1.6837 28.2988 1.70853 28.3019 1.70233C28.7349 1.96776 29.1349 2.29528 29.4863 2.67558C29.8377 3.05433 30.1656 3.46412 30.437 3.91272C30.437 3.91272 30.4448 3.92514 30.4605 3.94842C30.4762 3.97326 30.4997 4.00586 30.5264 4.05398C30.5813 4.14866 30.6597 4.28681 30.7586 4.45756C30.9405 4.80992 31.1915 5.30508 31.4049 5.89959C31.6198 6.49255 31.8096 7.17554 31.9304 7.86318C32.0543 8.55083 32.1077 9.24002 32.1092 9.83609C32.1155 10.1357 32.0936 10.4089 32.0857 10.6526C32.059 10.8932 32.0528 11.1058 32.0324 11.2704C31.9979 11.601 32.0088 11.7748 32.103 11.6926C32.1877 11.6103 32.3885 11.2797 32.5783 10.5563C32.7603 9.83609 32.9313 8.71071 32.7336 7.12742L32.7775 7.20503C32.6191 6.27213 32.3838 5.52861 32.1061 4.88443C31.8269 4.24024 31.499 3.69386 31.0739 3.18627C31.0802 3.12108 31.0315 3.00311 30.9374 2.86651C30.8448 2.72991 30.7288 2.56072 30.5813 2.40394C30.5091 2.32478 30.437 2.24406 30.3648 2.16489C30.2942 2.08573 30.2126 2.01588 30.1436 1.94603C30.073 1.87773 30.0071 1.81253 29.9507 1.75355C29.8942 1.69456 29.8393 1.648 29.8016 1.60453L29.844 1.62316C29.3655 1.26304 28.8729 0.892054 28.3239 0.594023C27.778 0.300649 27.1693 0.0817824 26.5685 0.0724689C26.6155 0.0662599 26.6469 0.0259016 26.9199 0.0662599C26.8116 0.0522897 26.6987 0.0367673 26.5826 0.0212449C26.4681 0.00261793 26.3489 0.0103792 26.2312 0.00261793C26.1135 0.00106569 25.9959 -0.00824778 25.8829 -0.00359105C25.77 0.00261793 25.6617 0.0103792 25.5582 0.0165881C25.4562 0.0243494 25.3574 0.0212449 25.2711 0.0352151C25.1849 0.0460808 25.1064 0.0553942 25.0405 0.0616032C24.9072 0.0724689 24.8193 0.0724689 24.7989 0.0522897C24.7346 0.0616032 24.6703 0.0755734 24.6076 0.0957526C24.5448 0.112827 24.4805 0.129902 24.4146 0.148529C24.286 0.185783 24.1511 0.215275 24.0209 0.261843C23.8922 0.309962 23.762 0.358082 23.6287 0.407754C23.5628 0.43259 23.4953 0.455873 23.431 0.483814L23.2396 0.575396C23.111 0.635934 22.9824 0.698023 22.8537 0.760113C22.7266 0.822203 22.6106 0.892054 22.4898 0.9588C22.3705 1.02555 22.2498 1.09385 22.1321 1.16059C22.016 1.232 21.9015 1.3034 21.787 1.37325C20.8755 1.93982 20.1116 2.55761 19.6817 2.99845L19.7304 2.92394C19.2582 3.4455 19.0433 3.51069 18.5036 4.07415C18.4644 4.09433 18.4205 4.12693 18.422 4.11762C18.1789 4.41099 17.7867 4.7975 17.4165 5.1778C17.2298 5.36717 17.0478 5.555 16.891 5.72729C16.7341 5.89959 16.596 6.05016 16.5051 6.17279L16.4313 6.16192C16.1035 6.53912 15.7834 6.92252 15.4728 7.31214C15.5921 7.16933 15.716 7.02963 15.8399 6.88993C15.843 7.01876 15.6407 7.21745 15.3662 7.50151C15.3003 7.57136 15.2281 7.64432 15.1544 7.72193C15.112 7.76384 15.0712 7.8042 15.0304 7.84921C14.9912 7.89423 14.9504 7.94235 14.9128 7.99668C14.8783 8.0479 14.8438 8.10688 14.803 8.18139C14.7716 8.21709 14.7402 8.26521 14.7073 8.31489C14.6649 8.23572 14.6147 8.17363 14.5473 8.08826C14.4783 8.00444 14.3967 7.89268 14.3026 7.75297C14.0657 7.34939 13.8351 6.9427 13.6719 6.50342C13.3848 6.08431 13.9794 6.84801 13.6045 6.19607C13.6751 6.13553 13.8053 6.48945 13.788 6.28455C13.4288 5.63726 13.3362 5.1452 12.7777 4.39702L12.817 4.32717C12.4216 3.85839 12.0922 3.38962 11.7345 2.99379C11.6451 2.89445 11.5635 2.79355 11.4726 2.70508C11.38 2.61815 11.289 2.53278 11.198 2.45361C11.0239 2.28752 10.8247 2.1711 10.6396 2.07176C10.5705 2.0283 10.5125 1.98328 10.4529 1.95068C10.3933 1.91654 10.3384 1.88549 10.2897 1.856C10.1909 1.79701 10.1109 1.74579 10.0434 1.69767C9.91167 1.59833 9.81284 1.544 9.71872 1.4757C9.62302 1.4105 9.52419 1.34686 9.36418 1.27391C9.1979 1.21958 8.97514 1.14973 8.63158 1.0954L8.37588 0.99295L8.11233 0.906024C7.9633 0.878084 7.85977 0.884293 7.77976 0.884293C7.69976 0.887397 7.64328 0.895158 7.58524 0.909129C7.46915 0.933964 7.34679 0.94483 7.01579 0.943278C7.03304 0.909129 6.8244 0.91689 6.65655 0.926203C6.49026 0.935517 6.36633 0.951039 6.55458 0.888949C5.79531 0.960353 5.05958 1.24131 4.36777 1.65731C3.67125 2.07331 3.00297 2.60573 2.29547 3.26078C2.19978 3.45481 1.98329 3.72024 1.79661 3.99189C1.60523 4.25887 1.44051 4.53051 1.39816 4.68419C1.35894 4.6904 1.11892 5.10329 0.963618 5.40443C0.814588 5.70712 0.715758 5.88407 0.889887 5.36873C0.92283 5.2818 0.999698 5.13589 1.01225 5.15452V5.00705C0.693796 5.46186 0.513391 5.9415 0.392599 6.42891C0.332987 6.67106 0.284356 6.92252 0.249844 7.17088C0.232588 7.29506 0.215332 7.41924 0.19337 7.54652C0.182389 7.61017 0.171407 7.67381 0.160426 7.73745C0.152583 7.80264 0.14317 7.86784 0.133758 7.93303C0.160426 7.77781 0.199645 7.59775 0.227882 7.4922C0.256119 7.38664 0.271806 7.35405 0.270238 7.4953L0.221607 7.7359L0.188663 7.9796C0.16827 8.14259 0.14317 8.30402 0.125914 8.46701C0.110227 8.39715 0.102383 8.3273 0.0898333 8.25745C0.0694398 8.37853 0.0568899 8.50115 0.0490463 8.62223L0.0192403 8.98856C-0.00115318 9.23226 0.00355302 9.47596 -0.00585938 9.72122L0.0663023 9.51943C0.0380651 10.2304 -0.0623338 10.4973 0.136895 11.2812C0.19337 11.4566 0.191801 11.2859 0.19337 11.1664C0.194938 11.1058 0.199645 11.0577 0.209057 11.0701C0.216901 11.0825 0.232588 11.157 0.2671 11.3402C0.290631 11.5746 0.314162 11.8385 0.359655 12.1179C0.381618 12.2576 0.398874 12.4035 0.425542 12.551C0.453779 12.6969 0.482017 12.8474 0.511822 12.9996C0.635752 13.6049 0.797332 14.2351 0.980874 14.8017C1.02323 14.6698 1.11892 14.9756 1.24756 15.2783L1.19422 15.3372C1.4562 15.9116 1.46875 16.028 1.47032 16.1506C1.47346 16.2717 1.47032 16.3943 1.74798 16.9547L1.66013 16.8724L1.92368 17.1192C2.06644 17.3629 2.14487 17.5212 2.19194 17.6408C2.2437 17.7603 2.26253 17.8395 2.28449 17.9217C2.32998 18.0847 2.38489 18.2648 2.74099 18.7894C2.62647 18.5706 2.63902 18.4992 2.70491 18.555C2.76923 18.6125 2.89787 18.791 3.02807 19.0642L2.8963 18.9586C3.06572 19.2504 3.14416 19.3358 3.23514 19.5407C3.11121 19.3793 3.09396 19.4957 3.34339 19.9241C3.26181 19.8434 3.18651 19.758 3.10964 19.6727C3.28848 19.9319 3.49085 20.1756 3.67909 20.427C3.75439 20.5916 3.84695 20.7763 3.95519 20.9595C4.06343 21.1426 4.17952 21.3273 4.28776 21.5028C4.50268 21.8536 4.69563 22.1547 4.73485 22.3022C4.73485 22.3022 4.93251 22.6328 5.16625 22.9914C5.40313 23.3468 5.67609 23.7318 5.81728 23.8497C5.59295 23.6293 6.03847 24.3449 5.84238 24.1866C6.12475 24.4753 6.82283 25.4144 7.01265 25.8444L6.95618 25.7761C7.39542 26.5165 7.81427 27.1172 8.20489 27.7071C8.40569 28.0004 8.58609 28.2969 8.76806 28.6012C8.85748 28.7548 8.95004 28.9085 9.03318 29.0699C9.11475 29.2314 9.19476 29.399 9.2732 29.5713C9.31241 29.472 9.65283 30.2015 9.65126 29.9796C9.84421 30.3226 10.0058 30.6625 10.1485 30.9839C10.2772 31.3098 10.3807 31.6187 10.4811 31.895C10.5062 31.9633 10.5313 32.0316 10.5564 32.0953C10.5784 32.1605 10.5988 32.2257 10.6192 32.2862C10.66 32.4088 10.7023 32.5237 10.7478 32.6261C10.8372 32.8326 10.9361 32.9956 11.06 33.1058C11.0678 33.1291 11.0741 33.1415 11.0835 33.1725C11.0914 33.202 11.1008 33.2315 11.1086 33.261C11.1243 33.3184 11.1384 33.3728 11.1525 33.4255C11.1792 33.5295 11.2027 33.6242 11.2231 33.7112C11.2639 33.885 11.2922 34.0325 11.3173 34.1675C11.3659 34.4376 11.3988 34.6642 11.471 34.9607L11.3894 34.7248C11.4082 34.7884 11.4255 34.8505 11.4428 34.911C11.4506 34.9421 11.46 34.9716 11.4679 35.0011C11.4679 35.0135 11.4773 35.0042 11.4835 35.0011L11.5039 34.9871L11.5447 34.9592C11.653 34.8862 11.7581 34.8148 11.8585 34.7465C12.0561 34.613 12.2381 34.4904 12.4075 34.3755C12.6915 34.183 12.933 34.0185 13.1637 33.8633C13.4962 33.6398 13.7911 33.4395 14.2163 33.1523C14.621 32.8372 14.6006 32.6696 15.3724 32.1744C15.1654 32.3933 15.465 32.1682 15.7442 31.9711C15.5701 32.1046 15.5277 32.162 15.9199 31.9338C15.9607 31.8826 16.0344 31.8159 16.1019 31.7553C16.1082 31.7553 16.1239 31.7491 16.1207 31.76C16.5725 31.4076 16.48 31.4511 16.2603 31.6001C16.265 31.5846 16.2415 31.5892 16.1646 31.6234C16.6933 31.3409 17.4981 30.6408 17.6157 30.6781C18.9774 29.621 19.8716 28.7673 20.9367 27.8095C21.0936 27.7443 20.8693 27.9973 20.5649 28.2814L21.3273 27.6062C21.3728 27.6698 20.9101 28.0191 20.6826 28.2333C21.6929 27.5425 22.4929 26.5087 23.5895 25.5991L23.7573 25.3508L23.8248 25.298C23.7981 25.2778 23.9989 25.0279 24.1369 24.868C24.3252 24.7702 24.2358 24.9844 24.7268 24.4769C24.9448 24.2983 25.2068 24.0019 25.4782 23.6837C25.7402 23.3577 26.0147 23.0146 26.2359 22.7244C25.9724 23.0162 26.0273 22.8951 26.1182 22.7523C26.3441 22.4838 26.5277 22.372 26.6814 22.1469L26.7724 22.1764C26.6187 22.2292 27.287 21.4096 27.3324 21.2808C27.4203 21.2218 27.3481 21.3382 27.2509 21.481C27.152 21.6223 27.0281 21.7899 27.0187 21.8396C27.2415 21.5648 27.3779 21.391 27.4705 21.2668C27.5646 21.1442 27.618 21.0743 27.6713 21.0029C27.7246 20.9331 27.778 20.8632 27.8721 20.739C27.9631 20.6133 28.0917 20.4348 28.3004 20.1492C28.6878 19.5004 28.1513 20.2113 28.3004 19.876C28.4823 19.5997 28.6518 19.3187 28.8353 19.0331C29.0094 18.7413 29.2039 18.4495 29.4267 18.1406C29.3624 18.1949 29.2981 18.2493 29.2322 18.302C29.5381 17.7618 29.7812 17.3303 30.0009 16.9438C30.2299 16.562 30.4291 16.222 30.6597 15.8712C30.7774 15.6073 30.8731 15.3497 30.9703 15.1122C31.0692 14.8747 31.1492 14.6465 31.2245 14.4323C31.2998 14.2181 31.3735 14.0194 31.4331 13.83C31.4912 13.6406 31.5445 13.4637 31.5947 13.3007C31.6967 12.9747 31.761 12.6922 31.8159 12.4578C31.8677 12.2234 31.9147 12.031 31.9288 11.8819C31.9665 11.5886 31.9539 11.4302 31.9163 11.3976C31.8786 11.3619 31.8143 11.4427 31.7343 11.5917C31.5869 11.8509 31.3186 12.4144 31.1021 12.8893C30.9892 13.1268 30.8856 13.3457 30.8103 13.5056C30.7382 13.667 30.6864 13.7648 30.6864 13.7648C29.8895 15.345 29.2541 16.5185 28.5357 17.7525C28.167 18.3641 27.7874 18.9959 27.3199 19.6742C26.8603 20.3572 26.3159 21.0899 25.6366 21.9094L25.6398 21.9079Z" fill="#FCF5F9"/>
<path d="M32.3133 4.49512L32.3086 4.56652C32.3227 4.56031 32.3274 4.54013 32.3133 4.49512Z" fill="#FCF5F9"/>
<path d="M28.988 19.543C28.988 19.543 28.9863 19.5544 28.9863 19.5609C28.9896 19.5495 28.9896 19.5462 28.988 19.543Z" fill="#FCF5F9"/>
<path d="M31.8556 7.05606C31.8556 7.05606 31.8556 7.05443 31.8556 7.05279C31.8507 7.04789 31.849 7.04299 31.8457 7.03809L31.8573 7.05606H31.8556Z" fill="#FCF5F9"/>
<path d="M31.0727 4.24089C31.1527 4.41784 31.2077 4.56531 31.2422 4.70346C31.2782 4.84005 31.3128 4.95802 31.3379 5.0791C31.363 5.20017 31.3912 5.32125 31.4336 5.45629C31.4743 5.59134 31.5167 5.74656 31.5889 5.93128C31.6312 6.11445 31.6783 6.30382 31.73 6.49164C31.7708 6.68257 31.8257 6.86884 31.8555 7.05355C31.9261 7.13427 31.9402 7.2569 31.9544 7.38263C31.9669 7.50991 31.9669 7.64185 32.0265 7.74275L31.9638 7.82812C32.0046 7.89797 32.0328 7.98335 31.9952 8.05786L31.9748 8.0532C32.0281 8.1603 31.9999 8.28448 32.0265 8.33881L32.0061 8.33415L32.0171 8.4661L31.9889 8.44281C32.0391 8.63374 32.0391 8.83243 32.0077 9.00472L32.0908 8.99386C31.9732 9.36174 32.1379 9.51231 31.9904 9.83983L31.9716 9.83362C32.0595 10.0587 31.9936 10.2248 31.9324 10.3893C31.8728 10.5539 31.8006 10.7168 31.8634 10.9543C31.8477 10.8954 31.8179 10.9699 31.7991 10.9621C31.7897 11.1686 31.7489 11.3843 31.9089 11.4216C31.8759 11.569 31.8336 11.5318 31.7693 11.538C31.8383 11.552 31.843 11.6886 31.8148 11.8003L31.8022 11.7429L31.741 12.0689L31.8869 12.0394C31.8038 12.2023 31.7175 12.0409 31.7065 12.2132L31.8132 12.2412C31.7285 12.474 31.512 12.5609 31.3645 12.7581C31.0069 13.6661 30.8186 14.7667 30.2241 15.521H30.1315C30.0154 15.4822 30.177 15.8299 30.0593 15.8129V15.9355C30.0264 15.9526 29.9778 15.9991 29.9778 15.9386C29.9291 16.0255 29.9433 16.0364 29.9417 16.1171L29.824 16.1776C29.584 16.499 29.5542 16.8653 29.3158 17.2114C29.2201 17.3015 29.1259 17.4241 29.0365 17.5654C28.944 17.7051 28.853 17.8618 28.7698 18.0264C28.6051 18.3554 28.4467 18.6938 28.3322 18.9453C28.2035 19.3194 27.8945 19.6128 27.6011 19.9154C27.2921 20.2057 26.9987 20.5037 26.834 20.8639C26.8042 20.8732 26.7948 20.9477 26.8058 20.9555L26.5768 21.2271L26.3383 21.4879C26.3383 21.4879 26.3038 21.5282 26.2442 21.595C26.1861 21.6617 26.1093 21.7595 26.0167 21.8635C25.8285 22.0669 25.6167 22.3447 25.4567 22.5527C25.3029 22.7685 25.2229 22.961 25.3437 23.0339C25.4049 23.0712 25.5179 23.0774 25.7014 23.0386C25.8849 22.9998 26.1485 22.919 26.4748 22.7514L26.4811 22.7824C26.6458 22.6552 26.7838 22.5496 26.8795 22.4316C26.9752 22.3137 27.0427 22.1926 27.085 22.0436C27.2388 22.115 27.3219 21.8014 27.4176 21.7595L27.4223 21.775C27.4788 21.5034 27.8255 21.4398 27.8851 21.1821C27.8898 21.1976 27.9227 21.2286 27.8898 21.2737C27.9808 21.1231 28.0906 20.9089 28.1753 20.9555C28.409 20.6093 28.7745 20.156 28.7996 19.8534L28.8106 19.8829C28.8106 19.7028 28.911 19.7137 28.9581 19.5445C28.9738 19.5445 28.9848 19.5367 28.9895 19.5414C28.9942 19.3489 29.2373 19.1316 29.2734 18.9965L29.3314 19.0229C29.3879 18.9298 29.4413 18.8335 29.493 18.7388L29.4177 18.8366C29.2922 18.7109 29.6389 18.683 29.6672 18.4222C29.8036 18.2437 29.5919 17.8587 29.777 17.7019C29.7613 17.5669 29.8429 17.851 29.8711 17.6787C29.9527 17.719 29.8821 17.7734 29.9652 17.7718C30.0076 17.6119 30.177 17.5886 30.2225 17.3868L30.2884 17.4132C30.3072 17.1276 30.6053 17.0283 30.5802 16.8187C30.6555 16.5564 30.8515 16.7582 30.861 16.4477L30.9943 16.3934C31.0618 16.2941 30.9284 16.2646 31.0304 16.1668C31.0806 16.2009 31.1496 16.0379 31.1653 16.1326C31.2751 16.0193 31.3143 15.8672 31.3661 15.7104C31.4147 15.5505 31.4728 15.3829 31.6296 15.237C31.5606 15.1113 31.7081 14.9576 31.6547 14.8644C31.7081 14.8769 31.821 14.4997 31.8336 14.7496C31.8336 14.7713 31.8195 14.8024 31.8022 14.7915L31.8555 14.8443C32.0658 14.6859 31.9528 14.4345 32.0595 14.2358C32.0124 14.2886 31.9826 14.3724 31.9622 14.2994L32.0532 14.1116L32.0908 14.1737C32.1442 14.0837 32.1881 13.9874 32.2367 13.8943L32.1536 13.9083C32.243 13.7794 32.3779 13.7701 32.3434 13.573C32.3183 13.4798 32.2007 13.6754 32.2367 13.5171C32.3607 13.3464 32.5238 13.0732 32.6274 12.8279C32.5426 12.8279 32.5677 12.7612 32.574 12.6866L32.6446 12.6991C32.6336 12.4026 32.8234 12.6432 32.8234 12.3467L32.8642 12.384L32.7403 12.2738C32.6681 11.9943 32.9207 12.1729 32.8015 11.8577C32.7905 11.9664 32.6383 11.8733 32.6964 11.7506L32.756 11.7988C32.756 11.7227 32.734 11.6932 32.7591 11.6482C32.7858 11.6994 32.8517 11.6917 32.8627 11.583L32.9317 11.6715L32.8517 11.4449C32.9584 11.3036 32.9082 11.0366 33.0164 10.99C33.0164 10.99 33.0431 10.9078 33.0588 10.8131C33.0744 10.7184 33.0729 10.6113 33.0274 10.5647C33.0823 10.6423 33.1341 10.4576 33.2015 10.5228C33.1403 10.4235 33.1215 10.1549 33.2078 10.0587L33.2141 10.0804C33.2737 9.8895 33.2674 9.71876 33.2548 9.55422C33.2407 9.38813 33.2282 9.2298 33.2878 9.05595C33.2062 9.06837 33.2548 8.88365 33.1497 8.92556C33.1027 8.74239 33.1607 8.57941 33.1874 8.44126C33.2109 8.30466 33.2062 8.19445 33.0431 8.13236C33.0211 7.96938 33.1168 7.93523 33.1278 7.8483L33.1482 7.88711C33.098 7.57821 33.0948 7.48818 33.0791 7.2569C33.0337 7.14514 32.8831 7.14358 32.894 6.93714C32.9615 6.99457 32.9395 6.91385 32.9317 6.83779C32.9474 6.88591 32.9709 6.89833 32.9976 6.79122C32.9772 6.78036 32.9615 6.76018 32.9489 6.74C32.9537 6.73845 32.9568 6.73379 32.9631 6.73534C32.9207 6.61116 32.905 6.636 32.9082 6.69654C32.8987 6.69498 32.8878 6.70119 32.8752 6.72293C32.9286 6.58012 32.8062 6.35815 32.905 6.324C32.8015 5.9468 32.6352 5.70155 32.5034 5.40973C32.5442 5.36005 32.6101 5.41904 32.6556 5.50286L32.5724 5.28865C32.6462 5.26847 32.6509 5.40197 32.687 5.46561C32.7042 5.31814 32.643 5.18776 32.5599 5.06047C32.4799 4.93164 32.3968 4.80125 32.3952 4.6305C32.3701 4.61653 32.3403 4.60411 32.3136 4.59014V4.56841C32.2869 4.58083 32.2179 4.53116 32.1897 4.49235C32.2336 4.4256 32.3324 4.43802 32.265 4.29211C32.2697 4.22226 32.2273 4.14154 32.1693 4.06393C32.1081 3.98787 32.0344 3.91336 31.981 3.84817C32.0108 3.93199 31.9653 3.92268 31.9277 3.89939C31.8901 3.83109 31.9277 3.75969 31.8759 3.71933L31.9512 3.67121C31.8916 3.73641 31.7771 3.52996 31.7269 3.52375C31.7614 3.4539 31.8399 3.60136 31.8916 3.59671C31.7269 3.32351 31.8085 3.46011 31.6422 3.19002C31.4994 3.07826 31.5857 3.25987 31.4775 3.23038C31.3896 3.11085 31.2531 3.02082 31.1888 2.85163L31.159 2.94321C30.9378 2.75694 30.8296 2.64518 30.7261 2.45891C30.4609 2.35181 30.2319 2.34715 30.0829 2.3844C29.9307 2.42476 29.8523 2.49306 29.8099 2.5567C29.7754 2.61569 29.7425 2.67467 29.7487 2.71814C29.7519 2.76315 29.7801 2.79885 29.8225 2.82524C29.8695 2.89199 29.9119 2.9339 29.9417 2.9727C29.9715 3.01151 29.9997 3.0379 29.9997 3.0379C30.1064 3.17294 30.2617 3.29868 30.4437 3.45856C30.5362 3.54083 30.6257 3.62465 30.7386 3.76745C30.8468 3.90095 30.9708 4.04841 31.079 4.24089H31.0727Z" fill="#FCF5F9"/>
</g>
<defs>
<clipPath id="clip0_44_2163">
<rect width="35" height="35" fill="white"/>
</clipPath>
</defs>
</svg>
