<svg width="83" height="76" viewBox="0 0 83 76" fill="none" xmlns="http://www.w3.org/2000/svg">
<g clip-path="url(#clip0_132_566)">
<path d="M82.27 26.2974C82.1882 26.5603 82.0952 26.8198 81.9985 27.0726C73.7174 48.5433 53.8445 62.9862 33.7371 75.0732C30.2737 61.3987 18.3692 51.3206 12.257 38.6169C8.88286 31.6061 6.05927 23.8739 7.9119 16.4148C9.76825 8.95235 18.0046 2.33588 26.1927 4.19982C33.964 5.96601 37.7325 13.7622 40.4036 20.6078C45.9168 13.8835 52.3341 7.52322 60.4998 3.59985C75.89 -3.79522 85.8488 14.9958 82.27 26.3008V26.2974Z" fill="#EF90CB"/>
<path d="M57.0433 54.5322L56.5039 54.9165C56.5374 54.9333 56.6825 54.8423 57.0433 54.5322Z" fill="#FCF5F9"/>
<path d="M43.6914 8.94468C43.7249 8.9076 43.7658 8.86378 43.7993 8.83008C43.7212 8.9076 43.6951 8.9312 43.6914 8.94468Z" fill="#FCF5F9"/>
<path d="M35.1797 67.9269C35.1797 67.9269 35.202 67.9134 35.2094 67.9067C35.2504 67.873 35.3025 67.8325 35.3397 67.7988L35.1797 67.9235V67.9269Z" fill="#FCF5F9"/>
<path d="M60.8051 47.5713C57.8773 50.6284 55.7941 52.3744 53.6922 54.1372C51.5717 55.8899 49.4029 57.6426 45.8836 60.3862C42.4574 62.931 38.7298 65.5837 35.2105 67.906C34.4554 68.5565 33.2835 69.3014 32.067 70.0598C31.4569 70.4407 30.8394 70.825 30.2479 71.1957C29.954 71.3845 29.6675 71.5699 29.396 71.7519L29.2955 71.8193L29.2509 71.8496L29.2397 71.8597L29.2025 71.9002C29.1765 71.9305 29.1542 71.9608 29.1281 71.9878C29.0574 71.971 29.0091 71.944 28.983 71.9002C28.8305 72.2305 28.7152 71.8193 28.7226 71.5766L28.7635 71.5564C28.7189 71.5058 28.678 71.435 28.6445 71.3575C28.5961 71.2395 28.5478 71.1182 28.4994 71.0036C28.4473 70.8654 28.3915 70.7306 28.3432 70.5991C28.1423 70.0733 27.9712 69.6183 27.8372 69.3486L27.9005 69.3823C27.8075 69.1565 27.7293 68.9273 27.6252 68.7048L27.3164 68.0442L27.4801 68.2498C26.9816 67.3195 26.5426 66.3522 26.0292 65.4455C25.7837 64.9871 25.5493 64.5321 25.3187 64.0872C25.0769 63.649 24.8425 63.2209 24.6119 62.803L24.5189 63.022C24.2882 62.5738 24.0687 62.1625 23.8567 61.7817C23.6372 61.4075 23.4214 61.0671 23.2131 60.7435C22.7964 60.1031 22.4282 59.5267 22.0301 58.9908C21.6395 58.4482 21.2563 57.919 20.8583 57.3258C20.4528 56.7393 20.0212 56.0955 19.5525 55.3203L19.6194 55.3371C16.5206 51.8485 15.6017 49.3274 12.5623 45.7141C12.9381 46.1657 12.5103 45.4613 12.5772 45.4781C12.2685 45.04 11.9522 44.595 11.6509 44.1737C11.357 43.749 11.0855 43.3479 10.8362 43.0075C10.3377 42.3266 9.93221 41.8851 9.7648 41.9491C8.99473 40.6043 9.24398 40.8065 9.27375 40.5706C9.20306 40.611 8.98357 40.3447 8.70456 39.9403C8.42555 39.5358 8.13538 38.9729 7.84893 38.4437L8.16142 38.9089L7.35043 37.3921C7.09747 36.873 6.83333 36.3573 6.59153 35.8383C6.58409 36.0809 6.58409 36.3236 6.58409 36.5663C5.9033 34.8642 6.73661 36.0102 5.95538 34.4361L5.72101 34.544C5.48292 33.9575 5.28948 33.4283 5.14067 32.9193C4.98443 32.4137 4.85794 31.9317 4.75378 31.4531C4.69798 31.2138 4.64589 30.9745 4.59009 30.7318C4.54173 30.4891 4.49337 30.2431 4.44501 29.9903C4.34084 29.4881 4.23296 28.9589 4.11391 28.3724C3.93163 27.7792 3.80142 27.1758 3.64146 26.5725C3.52241 25.9658 3.35873 25.3625 3.26944 24.7524C3.03135 23.5322 2.91603 22.2986 2.84535 21.065C2.84163 20.4482 2.80815 19.828 2.85651 19.2145C2.86767 18.5977 2.94951 17.9843 3.02019 17.3742C3.04623 17.0675 3.12808 16.7675 3.17644 16.4641C3.23596 16.1641 3.2806 15.854 3.36245 15.5642C3.50009 14.9743 3.70098 14.398 3.92047 13.8283C4.8319 11.5565 6.32368 9.46678 8.20235 7.83542C10.0661 6.19394 12.3391 5.01424 14.6493 4.55247L15.0958 4.6401C15.2148 4.74796 15.8026 4.51876 16.4462 4.36708C16.7661 4.27271 17.1009 4.22889 17.3762 4.18844C17.6515 4.17159 17.871 4.17833 17.9565 4.239C18.3174 4.22215 18.682 4.19519 19.0465 4.21204C19.3479 4.28619 19.9543 4.4682 19.4186 4.42101C19.6604 4.47157 19.8427 4.50528 19.9952 4.53224C20.1477 4.55584 20.2593 4.59291 20.3709 4.60977C20.5867 4.65358 20.7764 4.67381 21.141 4.73448C21.2228 4.77156 21.3047 4.80526 21.3828 4.84571L21.6134 4.9839L22.0673 5.25692C23.8232 6.05912 25.2964 7.09726 26.6207 8.37134C27.9377 9.65217 29.0984 11.1554 30.1065 12.9756C30.3297 13.4407 30.579 13.9429 30.8282 14.4923C31.0886 15.0316 31.3416 15.6215 31.6206 16.2316C31.7545 16.5383 31.8885 16.8551 32.0298 17.1753C32.1228 17.3877 32.2121 17.6 32.3051 17.8157C32.4279 18.1157 32.5469 18.4157 32.6697 18.719C33.157 19.9257 33.6592 21.1695 34.1689 22.4267C34.7939 21.6649 35.4263 20.8964 36.0625 20.1246C36.654 19.4134 37.2455 18.6988 37.837 17.9876C38.1978 17.5663 38.5549 17.1416 38.9121 16.7237C39.2729 16.3124 39.6338 15.9012 39.9872 15.5001C41.412 13.8991 42.8145 12.4498 44.0161 11.3038C46.8323 8.49605 50.4929 5.99508 54.4957 4.15137L55.2435 3.8042C55.4927 3.69971 55.7383 3.6087 55.9875 3.51096C56.2368 3.41658 56.4786 3.30872 56.7278 3.22783L57.483 3.002C57.9778 2.82673 58.4949 2.75594 58.9971 2.6346C59.2464 2.56719 59.5068 2.56382 59.756 2.52337C60.009 2.49978 60.262 2.43911 60.5149 2.43911C61.0209 2.42563 61.5231 2.37844 62.0179 2.42563L62.3899 2.44248C62.5126 2.44248 62.6391 2.45259 62.7582 2.47282C63.0037 2.50652 63.2455 2.53686 63.4873 2.57056C64.4471 2.75257 65.3957 2.9784 66.2811 3.35591C66.3816 3.43006 66.6011 3.4941 66.7759 3.57837C66.9545 3.65589 67.1107 3.70982 67.1182 3.69634C68.1449 4.27271 69.0936 4.9839 69.9269 5.8097C70.7602 6.63212 71.5377 7.52195 72.1813 8.49605C72.1813 8.49605 72.1999 8.52302 72.2371 8.57358C72.2743 8.62751 72.3301 8.69829 72.3933 8.80278C72.5235 9.00838 72.7095 9.30837 72.9439 9.67913C73.3754 10.4443 73.9707 11.5195 74.4766 12.8104C74.9863 14.098 75.4364 15.581 75.7228 17.0742C76.0167 18.5674 76.1432 20.0639 76.1469 21.3582C76.1618 22.0087 76.1097 22.602 76.0911 23.1311C76.0279 23.6536 76.013 24.1154 75.9647 24.4726C75.8828 25.1906 75.9089 25.5681 76.1321 25.3894C76.3329 25.2108 76.8091 24.4929 77.2593 22.9222C77.6908 21.3582 78.0963 18.9145 77.6276 15.4765L77.7317 15.6451C77.356 13.6193 76.798 12.0048 76.1395 10.606C75.4773 9.20725 74.6998 8.0208 73.6917 6.91862C73.7065 6.77706 73.5912 6.52089 73.368 6.22428C73.1485 5.92767 72.8732 5.56027 72.5235 5.21984C72.3524 5.04794 72.1813 4.87267 72.0101 4.70077C71.8427 4.52887 71.6493 4.3772 71.4856 4.22552C71.3182 4.07721 71.162 3.93565 71.028 3.80757C70.8941 3.67949 70.7639 3.57837 70.6746 3.48399L70.7751 3.52444C69.6404 2.74246 68.4723 1.93689 67.1702 1.28974C65.8756 0.652698 64.4322 0.177445 63.0074 0.157222C63.119 0.143739 63.1934 0.056104 63.8407 0.143739C63.584 0.113404 63.3162 0.0796981 63.0409 0.0459922C62.7693 0.00554514 62.4866 0.0223981 62.2076 0.00554514C61.9286 0.00217455 61.6496 -0.018049 61.3817 -0.00793721C61.1139 0.00554514 60.8572 0.0223981 60.6116 0.0358804C60.3698 0.0527334 60.1355 0.0459922 59.9309 0.0763275C59.7263 0.0999216 59.5402 0.120145 59.384 0.133627C59.0678 0.157222 58.8595 0.157222 58.8111 0.113404C58.6586 0.133627 58.506 0.163963 58.3572 0.20778C58.2084 0.244857 58.0559 0.281933 57.8997 0.32238C57.5946 0.403274 57.2747 0.467316 56.9659 0.568433C56.6609 0.672921 56.3521 0.77741 56.0359 0.885268C55.8796 0.939198 55.7197 0.989757 55.5671 1.05043L55.1133 1.24929C54.8082 1.38074 54.5032 1.51557 54.1981 1.65039C53.8968 1.78522 53.6215 1.93689 53.3351 2.08183C53.0523 2.22676 52.7659 2.37507 52.4869 2.52C52.2116 2.67505 51.94 2.8301 51.6684 2.98177C49.507 4.21204 47.6953 5.55353 46.676 6.51078L46.7913 6.34899C45.6716 7.48151 45.1619 7.62307 43.8822 8.8466C43.7892 8.89041 43.685 8.9612 43.6887 8.94097C43.1121 9.57801 42.1821 10.4173 41.3041 11.2431C40.8614 11.6543 40.4299 12.0621 40.0579 12.4363C39.6859 12.8104 39.3585 13.1374 39.1427 13.4036L38.9679 13.38C38.1904 14.1991 37.4315 15.0316 36.6949 15.8776C36.9776 15.5675 37.2715 15.2642 37.5654 14.9608C37.5728 15.2406 37.0929 15.672 36.4419 16.2889C36.2857 16.4405 36.1145 16.5989 35.9397 16.7675C35.8392 16.8585 35.7425 16.9461 35.6458 17.0439C35.5528 17.1416 35.4561 17.2461 35.3668 17.3641C35.2849 17.4753 35.2031 17.6034 35.1064 17.7652C35.032 17.8427 34.9576 17.9472 34.8795 18.055C34.779 17.8831 34.66 17.7483 34.5 17.5629C34.3363 17.3809 34.1429 17.1382 33.9197 16.8349C33.3579 15.9585 32.8111 15.0754 32.4242 14.1216C31.7434 13.2115 33.1533 14.8698 32.2642 13.4542C32.4316 13.3227 32.7404 14.0912 32.6995 13.6463C31.8475 12.2408 31.6281 11.1723 30.3037 9.54768L30.3967 9.396C29.4592 8.37808 28.678 7.36017 27.8298 6.50067C27.6177 6.28495 27.4243 6.06586 27.2085 5.87374C26.989 5.68498 26.7733 5.4996 26.5575 5.3277C26.1446 4.96705 25.6721 4.71426 25.2331 4.49854C25.0695 4.40416 24.9318 4.30641 24.7904 4.23563C24.6491 4.16148 24.5189 4.09407 24.4035 4.03003C24.1692 3.90194 23.9794 3.79071 23.8195 3.68623C23.507 3.47051 23.2726 3.35254 23.0494 3.20423C22.8225 3.06267 22.5881 2.92447 22.2087 2.76606C21.8143 2.64809 21.2861 2.49641 20.4714 2.37844L19.865 2.15598L19.24 1.96723C18.8866 1.90656 18.6411 1.92004 18.4513 1.92004C18.2616 1.92678 18.1277 1.94363 17.99 1.97397C17.7147 2.0279 17.4246 2.05149 16.6396 2.04812C16.6805 1.97397 16.1858 1.99082 15.7877 2.01104C15.3934 2.03127 15.0995 2.06497 15.5459 1.93015C13.7454 2.0852 12.0006 2.69527 10.36 3.59859C8.70828 4.50191 7.12351 5.65802 5.44572 7.08041C5.21879 7.50173 4.70542 8.0781 4.26272 8.66795C3.80886 9.24769 3.41825 9.83755 3.3178 10.1712C3.2248 10.1847 2.65562 11.0813 2.28733 11.7352C1.93391 12.3925 1.69954 12.7767 2.11248 11.6577C2.1906 11.4689 2.37289 11.1521 2.40265 11.1925V10.8723C1.64746 11.8599 1.21965 12.9014 0.933196 13.9598C0.791831 14.4856 0.676507 15.0316 0.594664 15.5709C0.553742 15.8406 0.512821 16.1102 0.460739 16.3866C0.434698 16.5248 0.408657 16.663 0.382616 16.8012C0.364015 16.9427 0.341694 17.0843 0.319374 17.2259C0.382616 16.8888 0.475619 16.4978 0.542582 16.2686C0.609544 16.0394 0.646746 15.9686 0.643026 16.2754L0.527701 16.7978L0.449578 17.327C0.401217 17.6809 0.341694 18.0314 0.300773 18.3854C0.263571 18.2337 0.244971 18.082 0.21521 17.9303C0.166848 18.1932 0.137087 18.4595 0.118486 18.7224L0.0478035 19.5179C-0.000558336 20.0471 0.0106021 20.5762 -0.0117188 21.1088L0.159408 20.6706C0.0924451 22.2143 -0.145644 22.7941 0.326814 24.4962C0.460739 24.8771 0.457019 24.5063 0.460739 24.2468C0.464459 24.1154 0.475619 24.0109 0.49794 24.0378C0.516541 24.0648 0.553742 24.2266 0.635585 24.6243C0.691387 25.1333 0.747189 25.7063 0.855073 26.313C0.907155 26.6163 0.948077 26.9332 1.01132 27.2534C1.07828 27.5702 1.14524 27.8972 1.21593 28.2275C1.50982 29.542 1.89299 30.9105 2.32825 32.1407C2.42869 31.8542 2.65562 32.5182 2.96067 33.1755L2.83419 33.3036C3.45545 34.5507 3.48521 34.8035 3.48893 35.0698C3.49637 35.3327 3.48893 35.5989 4.1474 36.8157L3.93907 36.6371L4.56405 37.173C4.90258 37.7022 5.08859 38.046 5.20019 38.3055C5.32296 38.5651 5.3676 38.737 5.41968 38.9156C5.52757 39.2695 5.65777 39.6605 6.50224 40.7998C6.23067 40.3245 6.26043 40.1695 6.41668 40.2908C6.56921 40.4155 6.87426 40.8031 7.18303 41.3964L6.87054 41.1672C7.27231 41.8008 7.45832 41.9862 7.67409 42.4311C7.3802 42.0806 7.33927 42.3334 7.93078 43.2637C7.73733 43.0884 7.55876 42.903 7.37648 42.7176C7.80057 43.2805 8.28047 43.8097 8.72688 44.3557C8.90545 44.713 9.12494 45.1141 9.38163 45.5118C9.63832 45.9096 9.91361 46.3107 10.1703 46.6915C10.68 47.4533 11.1375 48.1072 11.2305 48.4274C11.2305 48.4274 11.6993 49.1453 12.2536 49.9239C12.8153 50.6958 13.4626 51.5317 13.7974 51.7879C13.2655 51.3092 14.322 52.8631 13.857 52.5193C14.5266 53.1462 16.182 55.1854 16.6322 56.1191L16.4983 55.9708C17.5399 57.5785 18.5332 58.883 19.4595 60.1638C19.9357 60.8008 20.3635 61.4446 20.795 62.1052C21.0071 62.4389 21.2265 62.7726 21.4237 63.1232C21.6172 63.4737 21.8069 63.8377 21.9929 64.2119C22.0859 63.9961 22.8932 65.5803 22.8894 65.0983C23.347 65.8432 23.7302 66.5814 24.0687 67.2791C24.3738 67.9869 24.6193 68.6577 24.8574 69.2576C24.9169 69.4059 24.9764 69.5542 25.036 69.6924C25.0881 69.834 25.1364 69.9756 25.1848 70.107C25.2815 70.3733 25.3819 70.6227 25.4898 70.8452C25.7019 71.2935 25.9362 71.6474 26.2301 71.8867C26.2487 71.9372 26.2636 71.9642 26.2859 72.0316C26.3045 72.0957 26.3269 72.1597 26.3455 72.2237C26.3827 72.3485 26.4161 72.4664 26.4496 72.581C26.5129 72.8069 26.5687 73.0125 26.617 73.2012C26.7138 73.5787 26.7807 73.8989 26.8402 74.1922C26.9556 74.7786 27.0337 75.2708 27.2048 75.9145L27.0114 75.4022C27.056 75.5404 27.0969 75.6752 27.1378 75.8067C27.1564 75.8741 27.1788 75.9381 27.1974 76.0022C27.1974 76.0291 27.2197 76.0089 27.2346 76.0022L27.2829 75.9718L27.3797 75.9112C27.6363 75.7528 27.8856 75.5977 28.1237 75.4494C28.5924 75.1595 29.024 74.8933 29.4257 74.6438C30.0991 74.2259 30.672 73.8686 31.2188 73.5315C32.0075 73.0462 32.7069 72.6114 33.715 71.9878C34.6748 71.3036 34.6265 70.9396 36.4568 69.8643C35.9657 70.3396 36.6763 69.8509 37.3385 69.4228C36.9255 69.7127 36.8251 69.8374 37.7551 69.3419C37.8518 69.2307 38.0267 69.0857 38.1867 68.9543C38.2015 68.9543 38.2387 68.9408 38.2313 68.9644C39.3027 68.1993 39.0832 68.2936 38.5624 68.6172C38.5736 68.5835 38.5177 68.5936 38.3355 68.6678C39.5891 68.0543 41.4976 66.5342 41.7766 66.6151C45.0057 64.3197 47.1261 62.4659 49.6521 60.3862C50.0241 60.2447 49.4922 60.7941 48.7705 61.4109L50.5784 59.9447C50.6863 60.0829 49.5889 60.8413 49.0495 61.3064C51.4452 59.8065 53.3425 57.5617 55.9429 55.5865L56.3409 55.0472L56.5009 54.9326C56.4377 54.8888 56.9138 54.3462 57.2412 53.999C57.6876 53.7866 57.4756 54.2518 58.64 53.1496C59.1571 52.762 59.7783 52.1182 60.4219 51.4272C61.0432 50.7194 61.6942 49.9745 62.2187 49.3442C61.5938 49.9779 61.724 49.715 61.9397 49.4049C62.4754 48.8218 62.9107 48.5791 63.2753 48.0903L63.491 48.1544C63.1265 48.269 64.7112 46.4893 64.8191 46.2096C65.0275 46.0815 64.8563 46.3343 64.6257 46.6444C64.3913 46.9511 64.0974 47.3151 64.0751 47.423C64.6034 46.8264 64.927 46.4489 65.1465 46.1792C65.3697 45.9129 65.4962 45.7613 65.6227 45.6062C65.7492 45.4545 65.8756 45.3029 66.0988 45.0332C66.3146 44.7602 66.6197 44.3726 67.1144 43.7524C68.0333 42.3435 66.761 43.8872 67.1144 43.1592C67.546 42.5592 67.9478 41.9491 68.383 41.3289C68.796 40.6953 69.2572 40.0616 69.7855 39.3909C69.633 39.5088 69.4805 39.6268 69.3242 39.7414C70.0496 38.5684 70.6263 37.6314 71.1471 36.7921C71.6902 35.963 72.1627 35.2248 72.7095 34.4631C72.9885 33.8901 73.2155 33.3305 73.4461 32.8148C73.6805 32.2991 73.8702 31.8037 74.0488 31.3385C74.2273 30.8734 74.4022 30.4419 74.5436 30.0307C74.6812 29.6195 74.8077 29.2353 74.9267 28.8814C75.1685 28.1735 75.3211 27.5601 75.4513 27.0511C75.574 26.5422 75.6856 26.1242 75.7191 25.8006C75.8084 25.1636 75.7786 24.8198 75.6894 24.749C75.6001 24.6715 75.4476 24.8468 75.2578 25.1703C74.9081 25.7332 74.272 26.9568 73.7586 27.9882C73.4908 28.5039 73.2452 28.9791 73.0667 29.3263C72.8955 29.6768 72.7728 29.8892 72.7728 29.8892C70.8829 33.3204 69.3763 35.8686 67.6725 38.5482C66.7982 39.8762 65.898 41.2481 64.7894 42.721C63.6994 44.2041 62.4085 45.795 60.7976 47.5746L60.8051 47.5713Z" fill="#FCF5F9"/>
<path d="M76.6323 9.76074L76.6211 9.91579C76.6546 9.90231 76.6657 9.85849 76.6323 9.76074Z" fill="#FCF5F9"/>
<path d="M68.7462 42.4355C68.7462 42.4355 68.7422 42.4609 68.7422 42.4754C68.7502 42.45 68.7502 42.4428 68.7462 42.4355Z" fill="#FCF5F9"/>
<path d="M75.5474 15.3221C75.5474 15.3221 75.5474 15.3185 75.5474 15.3148C75.5354 15.304 75.5314 15.2931 75.5234 15.2822L75.5514 15.3221H75.5474Z" fill="#FCF5F9"/>
<path d="M73.6897 9.20795C73.8794 9.59219 74.0096 9.9124 74.0915 10.2124C74.177 10.509 74.2589 10.7652 74.3184 11.0281C74.3779 11.291 74.4449 11.5539 74.5453 11.8471C74.642 12.1404 74.7425 12.4774 74.9136 12.8785C75.0141 13.2762 75.1257 13.6875 75.2484 14.0953C75.3451 14.5099 75.4754 14.9144 75.546 15.3154C75.7134 15.4907 75.7469 15.757 75.7804 16.03C75.8102 16.3064 75.8102 16.5929 75.9515 16.812L75.8027 16.9974C75.8994 17.149 75.9664 17.3344 75.8771 17.4962L75.8288 17.4861C75.9553 17.7187 75.8883 17.9883 75.9515 18.1063L75.9032 18.0962L75.9292 18.3827L75.8622 18.3321C75.9813 18.7467 75.9813 19.1781 75.9069 19.5523L76.1041 19.5287C75.825 20.3275 76.2157 20.6545 75.866 21.3657L75.8213 21.3522C76.0297 21.8409 75.8734 22.2016 75.7283 22.5588C75.587 22.9161 75.4158 23.27 75.5646 23.7857C75.5274 23.6577 75.4568 23.8194 75.4121 23.8026C75.3898 24.2509 75.2931 24.7194 75.6725 24.8003C75.5944 25.1205 75.494 25.0396 75.3414 25.0531C75.5051 25.0834 75.5163 25.38 75.4493 25.6227L75.4195 25.498L75.2745 26.2058L75.6204 26.1418C75.4233 26.4957 75.2187 26.1451 75.1926 26.5193L75.4456 26.58C75.2447 27.0855 74.7313 27.2743 74.3816 27.7024C73.5334 29.6742 73.087 32.0639 71.6771 33.702H71.4576C71.1823 33.6177 71.5655 34.3728 71.2865 34.3357V34.6019C71.2084 34.639 71.093 34.7401 71.093 34.6087C70.9777 34.7974 71.0112 34.821 71.0075 34.9963L70.7285 35.1278C70.1593 35.8255 70.0886 36.6209 69.5231 37.3726C69.2962 37.5681 69.073 37.8343 68.8609 38.1411C68.6415 38.4444 68.4257 38.7848 68.2285 39.1421C67.8379 39.8567 67.4622 40.5915 67.1906 41.1375C66.8856 41.9498 66.1527 42.5869 65.457 43.2441C64.7242 43.8744 64.0285 44.5216 63.6379 45.3036C63.5672 45.3238 63.5449 45.4856 63.5709 45.5024L63.0278 46.0923L62.4623 46.6585C62.4623 46.6585 62.3805 46.7462 62.2391 46.8911C62.1015 47.036 61.9192 47.2484 61.6997 47.4742C61.2533 47.9158 60.751 48.5191 60.3716 48.9708C60.007 49.4393 59.8173 49.8572 60.1037 50.0156C60.2488 50.0965 60.5167 50.11 60.9519 50.0258C61.3872 49.9415 62.0122 49.7662 62.786 49.4022L62.8008 49.4696C63.1915 49.1932 63.5188 48.964 63.7458 48.7079C63.9727 48.4517 64.1327 48.1888 64.2331 47.8652C64.5977 48.0203 64.7948 47.3394 65.0218 47.2484L65.0329 47.2821C65.1668 46.6922 65.989 46.5541 66.1304 45.9945C66.1415 46.0282 66.2196 46.0957 66.1415 46.1934C66.3573 45.8665 66.6177 45.4013 66.8186 45.5024C67.3729 44.7508 68.2397 43.7666 68.2992 43.1093L68.3252 43.1734C68.3252 42.7824 68.5633 42.806 68.6749 42.4386C68.7121 42.4386 68.7382 42.4217 68.7493 42.4318C68.7605 42.0139 69.3371 41.542 69.4227 41.2487L69.5603 41.306C69.6943 41.1038 69.8207 40.8948 69.9435 40.6892L69.7649 40.9016C69.4673 40.6286 70.2895 40.5679 70.3564 40.0016C70.6801 39.614 70.1779 38.7781 70.6169 38.4377C70.5797 38.1444 70.7731 38.7613 70.8401 38.3871C71.0335 38.4748 70.8661 38.5927 71.0633 38.5894C71.1637 38.2422 71.5655 38.1916 71.6734 37.7534L71.8296 37.8107C71.8743 37.1906 72.5811 36.9748 72.5216 36.5198C72.7001 35.9502 73.1651 36.3884 73.1875 35.7142L73.5037 35.5963C73.6636 35.3806 73.3474 35.3165 73.5892 35.1042C73.7083 35.1783 73.872 34.8244 73.9092 35.03C74.1696 34.784 74.2626 34.4536 74.3854 34.1132C74.5007 33.766 74.6383 33.402 75.0103 33.0852C74.8467 32.8122 75.1963 32.4785 75.0699 32.2762C75.1963 32.3032 75.4642 31.4842 75.494 32.0268C75.494 32.074 75.4605 32.1414 75.4195 32.1178L75.546 32.2324C76.0445 31.8886 75.7767 31.3426 76.0297 30.9112C75.918 31.0258 75.8474 31.2078 75.799 31.0494L76.0148 30.6415L76.1041 30.7763C76.2305 30.5808 76.3347 30.3719 76.45 30.1696L76.2529 30.2C76.4649 29.9202 76.7848 29.9 76.703 29.4719C76.6435 29.2697 76.3645 29.6944 76.45 29.3506C76.7439 28.9798 77.1308 28.3866 77.3763 27.854C77.1755 27.854 77.235 27.7091 77.2499 27.5473L77.4173 27.5743C77.3912 26.9305 77.8414 27.4529 77.8414 26.8092L77.9381 26.89L77.6442 26.6507C77.4731 26.044 78.072 26.4316 77.7893 25.7474C77.7632 25.9834 77.4024 25.7811 77.54 25.5148L77.6814 25.6193C77.6814 25.4542 77.6293 25.3901 77.6888 25.2924C77.7521 25.4036 77.9083 25.3868 77.9344 25.1508L78.098 25.3429L77.9083 24.8508C78.1613 24.5441 78.0422 23.9644 78.2989 23.8633C78.2989 23.8633 78.3622 23.6846 78.3994 23.479C78.4366 23.2734 78.4329 23.0408 78.325 22.9397C78.4552 23.1082 78.5779 22.7071 78.7379 22.8487C78.5928 22.633 78.5482 22.0499 78.7528 21.8409L78.7677 21.8881C78.909 21.4735 78.8942 21.1027 78.8644 20.7455C78.8309 20.3848 78.8012 20.041 78.9425 19.6635C78.7491 19.6905 78.8644 19.2894 78.6152 19.3804C78.5035 18.9826 78.6412 18.6287 78.7044 18.3288C78.7602 18.0321 78.7491 17.7928 78.3622 17.658C78.3101 17.3041 78.537 17.2299 78.5631 17.0412L78.6114 17.1255C78.4924 16.4547 78.4849 16.2592 78.4477 15.757C78.3399 15.5143 77.9827 15.5109 78.0088 15.0627C78.1687 15.1874 78.1166 15.0121 78.098 14.8469C78.1352 14.9514 78.1911 14.9784 78.2543 14.7458C78.2059 14.7222 78.1687 14.6784 78.139 14.6346C78.1501 14.6312 78.1576 14.6211 78.1725 14.6245C78.072 14.3548 78.0348 14.4088 78.0422 14.5402C78.0199 14.5368 77.9939 14.5503 77.9641 14.5975C78.0906 14.2874 77.8004 13.8054 78.0348 13.7313C77.7893 12.9122 77.3949 12.3797 77.0825 11.746C77.1792 11.6381 77.3354 11.7662 77.4433 11.9482L77.2461 11.4831C77.421 11.4393 77.4321 11.7291 77.5177 11.8673C77.5586 11.5471 77.4135 11.264 77.2164 10.9876C77.0266 10.7079 76.8295 10.4247 76.8258 10.054C76.7662 10.0236 76.6956 9.99666 76.6323 9.96633V9.91914C76.5691 9.94611 76.4054 9.83825 76.3384 9.75398C76.4426 9.60905 76.677 9.63601 76.517 9.31918C76.5281 9.1675 76.4277 8.99223 76.2901 8.8237C76.145 8.65854 75.9701 8.49675 75.8436 8.35519C75.9143 8.5372 75.8064 8.51698 75.7172 8.46642C75.6279 8.31811 75.7172 8.16306 75.5944 8.07543L75.773 7.97094C75.6316 8.11251 75.36 7.66422 75.241 7.65074C75.3228 7.49906 75.5088 7.81926 75.6316 7.80915C75.241 7.21593 75.4344 7.51254 75.0401 6.92606C74.7016 6.68338 74.9062 7.07773 74.6495 7.01369C74.4412 6.75416 74.1175 6.55867 73.965 6.19127L73.8943 6.39014C73.3698 5.98566 73.1131 5.74298 72.8675 5.33851C72.2388 5.10594 71.6957 5.09583 71.3423 5.17672C70.9814 5.26436 70.7954 5.41266 70.695 5.55086C70.6131 5.67894 70.535 5.80702 70.5499 5.9014C70.5573 5.99915 70.6243 6.07667 70.7247 6.13397C70.8363 6.27891 70.9368 6.36991 71.0075 6.45418C71.0781 6.53844 71.1451 6.59574 71.1451 6.59574C71.3981 6.88898 71.7664 7.162 72.1979 7.50917C72.4174 7.68781 72.6294 7.86982 72.8973 8.17992C73.154 8.46979 73.4479 8.78999 73.7046 9.20795H73.6897Z" fill="#FCF5F9"/>
</g>
<defs>
<clipPath id="clip0_132_566">
<rect width="83" height="76" fill="white"/>
</clipPath>
</defs>
</svg>
