<svg width="120" height="60" viewBox="0 0 120 60" fill="none" xmlns="http://www.w3.org/2000/svg">
<g clip-path="url(#clip0_119_327)">
<path fill-rule="evenodd" clip-rule="evenodd" d="M98.1349 30.293C87.2992 49.1898 73.4808 50.8632 67.6641 50.1174C68.5825 51.5437 79.1167 50.6255 86.3575 45.2976C90.5183 42.2352 98.121 33.1224 98.1349 30.293Z" fill="#206D87"/>
<path fill-rule="evenodd" clip-rule="evenodd" d="M90.2441 42.0899C91.4363 40.4631 94.6554 38.3515 100.871 42.9941C93.9689 46.5227 91.1487 43.8938 90.2441 42.0899Z" fill="#388692"/>
<path fill-rule="evenodd" clip-rule="evenodd" d="M85.8658 29.7344C81.7097 45.5641 72.0243 49.5075 67.6641 50.1182C68.6103 50.9712 76.0599 48.221 80.2671 42.9351C82.6838 39.896 86.4086 31.79 85.8658 29.739V29.7344Z" fill="#206D87"/>
<path fill-rule="evenodd" clip-rule="evenodd" d="M100.482 50.6666C92.3733 47.2173 85.4154 47.2079 80.7861 48.3872L80.5078 47.8139C82.2194 47.3058 84.0749 46.9609 85.9349 46.9329C89.8082 46.8723 99.2059 48.9839 100.486 50.6713L100.482 50.6666Z" fill="#206D87"/>
<path fill-rule="evenodd" clip-rule="evenodd" d="M86.0981 29.5796C84.5581 28.2884 82.6563 24.9416 87.6335 19.0078C90.7135 26.1256 87.9396 28.7825 86.0981 29.5796Z" fill="#388692"/>
<path fill-rule="evenodd" clip-rule="evenodd" d="M82.3548 37.7606C80.5875 37.1966 77.7951 35.0104 79.9752 28.1816C85.0916 33.1785 83.649 36.4321 82.3548 37.7606Z" fill="#194E5D"/>
<path fill-rule="evenodd" clip-rule="evenodd" d="M82.1641 40.8453C83.4768 42.1458 86.6959 43.6048 91.6685 38.5007C84.9101 36.2912 82.7253 39.0833 82.1641 40.8453Z" fill="#194E5D"/>
<path fill-rule="evenodd" clip-rule="evenodd" d="M75.8741 45.8856C74.4408 44.7109 72.6457 41.6392 77.1776 36.1016C80.0999 42.6413 77.5672 45.1305 75.8741 45.8856Z" fill="#388692"/>
<path fill-rule="evenodd" clip-rule="evenodd" d="M68.0721 49.6969C67.149 48.0841 66.5553 44.5741 72.7524 41.0176C73.1699 48.1773 69.9182 49.5943 68.0721 49.6969Z" fill="#388692"/>
<path fill-rule="evenodd" clip-rule="evenodd" d="M68.9441 51.3203C68.021 52.9331 67.4319 56.4431 73.6244 59.9996C74.0419 52.8399 70.7903 51.4229 68.9441 51.3203Z" fill="#388692"/>
<path fill-rule="evenodd" clip-rule="evenodd" d="M74.9659 51.478C74.9242 53.3378 76.0838 56.7032 83.2179 56.8384C80.1657 50.3592 76.6358 50.6762 74.9659 51.478Z" fill="#194E5D"/>
<path fill-rule="evenodd" clip-rule="evenodd" d="M99.3308 28.4847C101.2 28.4147 102.763 23.0543 102.105 21.7165C101.205 19.8939 99.5488 22.6394 99.3586 22.6394C99.1684 22.6394 97.5124 19.8939 96.6126 21.7165C95.9539 23.0543 97.429 28.4147 99.3308 28.4847Z" fill="#F5AEA2"/>
<path fill-rule="evenodd" clip-rule="evenodd" d="M98.6308 29.0248C99.141 27.2162 94.5535 24.0652 93.083 24.2843C91.0792 24.5779 93.1665 27.0158 93.1062 27.1929C93.0506 27.3701 89.9381 28.1112 91.3853 29.5329C92.4476 30.577 97.9768 30.8194 98.6308 29.0248Z" fill="#F5AEA2"/>
<path fill-rule="evenodd" clip-rule="evenodd" d="M98.932 29.8588C97.3781 28.81 92.9807 32.2268 92.7302 33.6997C92.3916 35.7041 95.3371 34.4642 95.4948 34.576C95.6479 34.6879 95.3835 37.8902 97.1786 36.944C98.496 36.2494 100.43 31.0428 98.9366 29.8635L98.932 29.8588Z" fill="#F5AEA2"/>
<path fill-rule="evenodd" clip-rule="evenodd" d="M99.8127 29.832C98.3422 30.9973 100.216 36.2506 101.534 36.9451C103.329 37.8867 103.06 34.6844 103.213 34.5725C103.366 34.4606 106.311 35.7005 105.973 33.6962C105.722 32.2232 101.39 28.7646 99.8127 29.832Z" fill="#F5AEA2"/>
<path fill-rule="evenodd" clip-rule="evenodd" d="M100.06 28.9788C100.71 30.7454 106.262 30.5776 107.324 29.5288C108.771 28.1024 105.659 27.3706 105.599 27.1888C105.538 27.0117 107.626 24.5738 105.622 24.2802C104.151 24.0658 99.5406 27.1376 100.06 28.9741V28.9788Z" fill="#F5AEA2"/>
<path fill-rule="evenodd" clip-rule="evenodd" d="M98.7282 29.384C98.1252 29.5238 97.2949 29.8035 96.9934 30.1111C97.383 30.1671 98.1159 29.934 98.6679 29.6963C97.9907 30.4328 97.0398 31.7099 96.9284 32.4511C97.6242 32.0922 98.5798 30.6705 99.039 29.7942C99.1271 29.8454 99.2245 29.8734 99.3312 29.8781C99.2616 30.5027 99.2477 31.4722 99.4565 31.8778C99.6652 31.4582 99.642 30.4607 99.5631 29.8408C99.6003 29.8268 99.6374 29.8128 99.6745 29.7895C100.134 30.6658 101.094 32.0828 101.79 32.4418C101.669 31.6494 100.593 30.2556 99.9157 29.5518L99.925 29.5378C100.486 29.8035 101.451 30.1344 101.92 30.0552C101.581 29.7196 100.607 29.4352 99.9945 29.3234C99.9992 29.2907 100.004 29.2581 100.004 29.2208C100.004 29.1416 99.9899 29.067 99.9667 28.9971C100.899 28.8572 102.722 28.3492 103.311 27.7525C102.55 27.6313 100.987 28.1907 100.092 28.6195C100.477 28.1581 100.904 27.5334 100.959 27.1466C100.56 27.3563 100.022 28.1301 99.7162 28.6755C99.6466 28.6288 99.5631 28.5916 99.475 28.5776C99.6466 27.7012 99.758 25.6503 99.359 24.8672C98.9601 25.6503 99.0715 27.7059 99.2431 28.5776C99.206 28.5822 99.1735 28.5916 99.1364 28.6055C98.821 28.0695 98.3015 27.3563 97.9165 27.1652C97.986 27.5894 98.4963 28.2886 98.9091 28.75L98.8998 28.7594C98.0927 28.3212 96.2512 27.6173 95.4023 27.7525C95.9914 28.3445 97.819 28.8572 98.7514 28.9924C98.7282 29.0623 98.7143 29.1369 98.7143 29.2115C98.7143 29.2628 98.7189 29.3141 98.7328 29.3607L98.7282 29.384Z" fill="#F08271"/>
<path fill-rule="evenodd" clip-rule="evenodd" d="M99.354 30.5686C98.6211 30.5686 98.0273 29.9673 98.0273 29.2355C98.0273 28.5036 98.6257 27.9023 99.354 27.9023C100.082 27.9023 100.681 28.5036 100.681 29.2355C100.681 29.9673 100.082 30.5686 99.354 30.5686Z" fill="#D5E3E8"/>
<path fill-rule="evenodd" clip-rule="evenodd" d="M100.604 44.7C99.6434 44.3085 98.4049 45.1195 97.839 46.5133C97.2731 47.907 97.5978 49.3613 98.558 49.7529C99.5228 50.1444 100.757 49.3333 101.323 47.9396C101.889 46.5459 101.564 45.0916 100.604 44.7Z" fill="#F7D577"/>
<path fill-rule="evenodd" clip-rule="evenodd" d="M93.904 46.3648C93.236 47.1619 93.621 48.5976 94.7667 49.5671C95.9125 50.5367 97.3829 50.6765 98.0555 49.8794C98.7234 49.0823 98.3384 47.6467 97.1927 46.6771C96.047 45.7076 94.5766 45.5677 93.904 46.3648Z" fill="#F7D577"/>
<path fill-rule="evenodd" clip-rule="evenodd" d="M93.4084 53.2808C93.9557 54.1664 95.4354 54.241 96.7064 53.4439C97.9774 52.6468 98.5665 51.2857 98.0191 50.3954C97.4718 49.5098 95.9921 49.4352 94.7211 50.2323C93.4455 51.0294 92.861 52.3905 93.4084 53.2761V53.2808Z" fill="#F7D577"/>
<path fill-rule="evenodd" clip-rule="evenodd" d="M99.8 55.8912C100.807 55.6395 101.335 54.2504 100.974 52.7914C100.616 51.3278 99.5077 50.3442 98.4965 50.5959C97.4899 50.8477 96.9611 52.2367 97.323 53.6957C97.6848 55.1593 98.7934 56.1429 99.8 55.8912Z" fill="#F7D577"/>
<path fill-rule="evenodd" clip-rule="evenodd" d="M104.249 50.5918C104.323 49.5523 103.172 48.6201 101.679 48.5082C100.185 48.401 98.9096 49.1561 98.8354 50.1956C98.7612 51.235 99.9116 52.1673 101.405 52.2792C102.899 52.3864 104.174 51.6312 104.249 50.5918Z" fill="#F7D577"/>
<path fill-rule="evenodd" clip-rule="evenodd" d="M99.8739 46.5046C99.2524 46.2529 98.4592 46.775 98.0927 47.6746C97.7309 48.5742 97.935 49.5065 98.5566 49.7582C99.1782 50.0099 99.9714 49.4879 100.338 48.5882C100.7 47.6886 100.496 46.7563 99.8739 46.5046Z" fill="url(#paint0_linear_119_327)"/>
<path fill-rule="evenodd" clip-rule="evenodd" d="M95.559 47.5773C95.1276 48.09 95.3781 49.013 96.1156 49.6376C96.8531 50.2622 97.7994 50.3508 98.2308 49.838C98.6622 49.3253 98.4117 48.4023 97.6742 47.7777C96.9366 47.1531 95.9904 47.0646 95.559 47.5773Z" fill="url(#paint1_linear_119_327)"/>
<path fill-rule="evenodd" clip-rule="evenodd" d="M95.2397 52.0274C95.5923 52.5961 96.5432 52.6474 97.3642 52.1346C98.1852 51.6219 98.561 50.7456 98.2084 50.1722C97.8559 49.6036 96.905 49.5523 96.084 50.065C95.2629 50.5778 94.8872 51.4541 95.2397 52.0274Z" fill="url(#paint2_linear_119_327)"/>
<path fill-rule="evenodd" clip-rule="evenodd" d="M99.3543 53.7103C100.004 53.5472 100.342 52.6569 100.11 51.7153C99.8784 50.7737 99.1641 50.1398 98.5147 50.3029C97.8653 50.4661 97.5267 51.3564 97.7586 52.298C97.9905 53.2395 98.7049 53.8735 99.3543 53.7103Z" fill="url(#paint3_linear_119_327)"/>
<path fill-rule="evenodd" clip-rule="evenodd" d="M102.217 50.2984C102.263 49.6272 101.526 49.0258 100.561 48.9559C99.596 48.886 98.7797 49.3708 98.7286 50.042C98.6822 50.7132 99.4198 51.3145 100.385 51.3845C101.349 51.4544 102.166 50.9649 102.212 50.2984H102.217Z" fill="url(#paint4_linear_119_327)"/>
<path fill-rule="evenodd" clip-rule="evenodd" d="M99.1334 48.3355C98.8133 48.205 98.3958 48.4754 98.2103 48.9415C98.0201 49.4076 98.1314 49.8924 98.4515 50.0229C98.7716 50.1535 99.189 49.8831 99.3746 49.417C99.5648 48.9508 99.4581 48.4661 99.1334 48.3309V48.3355Z" fill="#F7D577"/>
<path fill-rule="evenodd" clip-rule="evenodd" d="M96.8921 48.89C96.6695 49.1557 96.7994 49.6358 97.1797 49.9621C97.5647 50.2884 98.0564 50.335 98.2791 50.0693C98.5017 49.8037 98.3765 49.3235 97.9915 48.9973C97.6065 48.671 97.1148 48.6243 96.8921 48.8947V48.89Z" fill="#F7D577"/>
<path fill-rule="evenodd" clip-rule="evenodd" d="M96.7257 51.2074C96.9112 51.5057 97.4029 51.529 97.8297 51.2633C98.2564 50.9976 98.4512 50.5408 98.2703 50.2425C98.0894 49.9441 97.5931 49.9208 97.1664 50.1865C96.7396 50.4522 96.5448 50.909 96.7257 51.2074Z" fill="#F7D577"/>
<path fill-rule="evenodd" clip-rule="evenodd" d="M98.8644 52.078C99.203 51.9941 99.3792 51.528 99.2586 51.0386C99.138 50.5491 98.767 50.2182 98.4283 50.3021C98.0897 50.386 97.9134 50.8521 98.0341 51.3415C98.1547 51.831 98.5257 52.1619 98.8644 52.078Z" fill="#F7D577"/>
<path fill-rule="evenodd" clip-rule="evenodd" d="M100.354 50.3075C100.377 49.9579 99.9919 49.6456 99.491 49.613C98.99 49.5757 98.5633 49.8321 98.5401 50.177C98.5169 50.5219 98.9019 50.8389 99.4028 50.8715C99.9038 50.9088 100.331 50.6524 100.354 50.3075Z" fill="#F7D577"/>
<path fill-rule="evenodd" clip-rule="evenodd" d="M98.7372 49.3202C98.2733 49.1291 97.7399 49.3528 97.5497 49.8236C97.3595 50.2897 97.5868 50.8258 98.0507 51.0169C98.5192 51.208 99.048 50.9843 99.2382 50.5135C99.4283 50.0474 99.201 49.5113 98.7372 49.3202Z" fill="#D5E3E8"/>
<path fill-rule="evenodd" clip-rule="evenodd" d="M20.4844 30.293C31.3201 49.1898 45.1384 50.8632 50.9552 50.1174C50.0368 51.5437 39.5025 50.6255 32.2617 45.2976C28.1009 42.2352 20.4983 33.1224 20.4844 30.293Z" fill="#206D87"/>
<path fill-rule="evenodd" clip-rule="evenodd" d="M28.375 42.0899C27.1829 40.4631 23.9637 38.3515 17.748 42.9941C24.6503 46.5227 27.4705 43.8938 28.375 42.0899Z" fill="#388692"/>
<path fill-rule="evenodd" clip-rule="evenodd" d="M32.7537 29.7344C36.9099 45.5641 46.5952 49.5075 50.9555 50.1182C50.0092 50.9712 42.5597 48.221 38.3571 42.9351C35.9404 39.896 32.2157 31.79 32.7584 29.739L32.7537 29.7344Z" fill="#206D87"/>
<path fill-rule="evenodd" clip-rule="evenodd" d="M18.1375 50.6666C26.2457 47.2173 33.2035 47.2079 37.8328 48.3872L38.1112 47.8139C36.3995 47.3058 34.5441 46.9609 32.684 46.9329C28.8108 46.8723 19.4131 48.9839 18.1328 50.6713L18.1375 50.6666Z" fill="#206D87"/>
<path fill-rule="evenodd" clip-rule="evenodd" d="M32.5219 29.5796C34.0619 28.2884 35.9591 24.9416 30.9865 19.0078C27.9065 26.1256 30.6804 28.7825 32.5219 29.5796Z" fill="#388692"/>
<path fill-rule="evenodd" clip-rule="evenodd" d="M36.2644 37.7606C38.0317 37.1966 40.8242 35.0104 38.644 28.1816C33.5277 33.1785 34.9703 36.4321 36.2644 37.7606Z" fill="#194E5D"/>
<path fill-rule="evenodd" clip-rule="evenodd" d="M36.4556 40.8453C35.1429 42.1458 31.9237 43.6048 26.9512 38.5007C33.7142 36.2912 35.8943 39.0833 36.4556 40.8453Z" fill="#194E5D"/>
<path fill-rule="evenodd" clip-rule="evenodd" d="M42.7461 45.8856C44.1794 44.7109 45.9745 41.6392 41.4426 36.1016C38.5203 42.6413 41.053 45.1305 42.7461 45.8856Z" fill="#388692"/>
<path fill-rule="evenodd" clip-rule="evenodd" d="M38.9827 50.2059C38.8065 52.0564 37.2572 55.2634 30.1602 54.5455C33.9545 48.4719 37.4195 49.2084 38.9827 50.2059Z" fill="#388692"/>
<path fill-rule="evenodd" clip-rule="evenodd" d="M47.8334 51.2461C48.4596 52.9987 48.4225 56.5599 41.7012 58.9605C42.55 51.8427 45.9965 51.0223 47.8334 51.2461Z" fill="#194E5D"/>
<path fill-rule="evenodd" clip-rule="evenodd" d="M21.9963 27.2314C19.3338 27.2314 16.3975 24.8961 17.5572 21.8802C18.7168 18.8597 22.9518 19.1347 24.798 21.6052C26.6442 24.0757 24.2506 27.1661 21.9963 27.2314Z" fill="#F08271"/>
<path fill-rule="evenodd" clip-rule="evenodd" d="M16.4162 29.9216C13.7537 29.9216 10.8175 27.5863 11.9771 24.5658C13.1367 21.5453 17.3718 21.8203 19.2179 24.2908C21.0641 26.7612 18.6706 29.8517 16.4162 29.9169V29.9216Z" fill="#F08271"/>
<path fill-rule="evenodd" clip-rule="evenodd" d="M21.6584 33.747C18.9959 33.747 16.0596 31.4117 17.2193 28.3958C18.3789 25.3753 22.614 25.6504 24.4601 28.1208C26.3063 30.5913 23.9128 33.6817 21.6584 33.747Z" fill="#F08271"/>
<path fill-rule="evenodd" clip-rule="evenodd" d="M18.5213 26.6435C15.8587 26.6435 12.9179 24.3082 14.0822 21.2923C15.2418 18.2718 19.4768 18.5468 21.323 21.0173C23.1691 23.4878 20.7756 26.5782 18.5213 26.6435Z" fill="#F5AEA2"/>
<path fill-rule="evenodd" clip-rule="evenodd" d="M17.3949 25.9588C14.4355 25.3855 13.0578 27.7254 13.2619 29.9908C13.4475 32.0418 16.8939 34.9411 19.5101 32.685C22.2469 30.3218 21.3841 26.7326 17.3949 25.9588Z" fill="#F5AEA2"/>
<path fill-rule="evenodd" clip-rule="evenodd" d="M24.465 30.7263C21.8025 30.7263 18.8663 28.391 20.0259 25.3705C21.1856 22.3499 25.4206 22.625 27.2667 25.0954C29.1129 27.5659 26.7194 30.6563 24.465 30.7216V30.7263Z" fill="#F5AEA2"/>
<path fill-rule="evenodd" clip-rule="evenodd" d="M20.1876 29.9482C18.3136 29.9482 16.2448 28.3075 17.0658 26.1819C17.8822 24.0564 20.8648 24.2522 22.159 25.9862C23.4578 27.7248 21.774 29.897 20.1876 29.9482Z" fill="#D5E3E8"/>
<path fill-rule="evenodd" clip-rule="evenodd" d="M16.6657 44.6263C15.7055 45.0272 15.39 46.4768 15.9652 47.8706C16.5404 49.2643 17.7835 50.0707 18.7437 49.6698C19.7039 49.2689 20.0193 47.8193 19.4442 46.4256C18.869 45.0318 17.6258 44.2254 16.6657 44.6263Z" fill="#5892A5"/>
<path fill-rule="evenodd" clip-rule="evenodd" d="M13.057 50.5372C13.1359 51.5767 14.4161 52.3272 15.9097 52.2106C17.4034 52.0941 18.5537 51.1525 18.4702 50.1131C18.3914 49.0736 17.1111 48.3231 15.6175 48.4397C14.1239 48.5562 12.9735 49.4978 13.057 50.5372Z" fill="#5892A5"/>
<path fill-rule="evenodd" clip-rule="evenodd" d="M17.5381 55.8177C18.5493 56.06 19.6532 55.0719 20.0011 53.6082C20.3537 52.1446 19.8156 50.7555 18.8044 50.5131C17.7932 50.2707 16.6892 51.2589 16.3367 52.7226C15.9841 54.1862 16.5222 55.5753 17.5334 55.8177H17.5381Z" fill="#5892A5"/>
<path fill-rule="evenodd" clip-rule="evenodd" d="M23.9162 53.1652C24.4589 52.2749 23.8652 50.9138 22.585 50.1261C21.3047 49.3383 19.8296 49.4222 19.2869 50.3125C18.7442 51.2028 19.3379 52.5639 20.6182 53.3517C21.8984 54.1394 23.3735 54.0555 23.9162 53.1652Z" fill="#5892A5"/>
<path fill-rule="evenodd" clip-rule="evenodd" d="M23.3787 46.249C22.7015 45.4566 21.2311 45.6011 20.09 46.5799C18.9489 47.5588 18.5732 48.9945 19.2458 49.7915C19.9184 50.584 21.3934 50.4395 22.5345 49.4606C23.6756 48.4817 24.0513 47.0461 23.3787 46.249Z" fill="#5892A5"/>
<path fill-rule="evenodd" clip-rule="evenodd" d="M17.4088 46.4247C16.7919 46.6811 16.5878 47.618 16.9589 48.513C17.3299 49.4079 18.1278 49.93 18.7447 49.669C19.3616 49.4126 19.5657 48.4757 19.1946 47.5807C18.8236 46.6857 18.0257 46.1637 17.4088 46.4247Z" fill="#78ADB5"/>
<path fill-rule="evenodd" clip-rule="evenodd" d="M15.085 50.2325C15.136 50.9037 15.9617 51.3838 16.9219 51.3092C17.8867 51.2346 18.6242 50.6287 18.5686 49.9574C18.5175 49.2862 17.6919 48.8061 16.7317 48.8807C15.7669 48.9553 15.0293 49.5612 15.085 50.2325Z" fill="#78ADB5"/>
<path fill-rule="evenodd" clip-rule="evenodd" d="M17.9705 53.6303C18.6199 53.7888 19.3296 53.1502 19.5569 52.2086C19.7842 51.267 19.4363 50.3721 18.7869 50.2136C18.1375 50.0551 17.4278 50.6937 17.2005 51.6353C16.9732 52.5769 17.3211 53.4718 17.9705 53.6257V53.6303Z" fill="#78ADB5"/>
<path fill-rule="evenodd" clip-rule="evenodd" d="M22.0762 51.9206C22.4241 51.3473 22.0438 50.471 21.2181 49.9629C20.3971 49.4548 19.4462 49.5107 19.0936 50.0841C18.7457 50.6574 19.1261 51.5337 19.9518 52.0418C20.7728 52.5499 21.7237 52.494 22.0762 51.9206Z" fill="#78ADB5"/>
<path fill-rule="evenodd" clip-rule="evenodd" d="M21.7274 47.4697C21.2914 46.9569 20.3451 47.0548 19.6122 47.6841C18.8793 48.3133 18.6335 49.2409 19.0695 49.749C19.5055 50.2618 20.4518 50.1639 21.1847 49.5346C21.9176 48.9053 22.1634 47.9777 21.7274 47.4697Z" fill="#78ADB5"/>
<path fill-rule="evenodd" clip-rule="evenodd" d="M18.159 48.2536C17.839 48.3888 17.7323 48.8735 17.9224 49.3397C18.1126 49.8058 18.5301 50.0761 18.8502 49.941C19.1702 49.8058 19.2769 49.321 19.0867 48.8549C18.8966 48.3888 18.4791 48.1184 18.159 48.2536Z" fill="#5892A5"/>
<path fill-rule="evenodd" clip-rule="evenodd" d="M16.9487 50.2299C16.9765 50.5795 17.4033 50.8312 17.9042 50.7893C18.4052 50.752 18.7902 50.435 18.7624 50.0854C18.7345 49.7358 18.3078 49.4841 17.8068 49.5261C17.3059 49.5633 16.9209 49.8803 16.9487 50.2299Z" fill="#5892A5"/>
<path fill-rule="evenodd" clip-rule="evenodd" d="M18.4521 51.9958C18.7907 52.0751 19.1618 51.7441 19.2778 51.2547C19.3937 50.7653 19.2175 50.2991 18.8788 50.2199C18.5402 50.136 18.1738 50.4716 18.0532 50.961C17.9372 51.4505 18.1135 51.9166 18.4521 51.9958Z" fill="#5892A5"/>
<path fill-rule="evenodd" clip-rule="evenodd" d="M20.5848 51.1108C20.7657 50.8125 20.5662 50.3557 20.1395 50.0946C19.7127 49.8289 19.2164 49.8569 19.0355 50.1552C18.8546 50.4535 19.0541 50.9103 19.4808 51.1714C19.9076 51.4371 20.4039 51.4091 20.5848 51.1108Z" fill="#5892A5"/>
<path fill-rule="evenodd" clip-rule="evenodd" d="M20.4045 48.7953C20.1772 48.5296 19.6856 48.5808 19.3052 48.9071C18.9248 49.2334 18.7996 49.7135 19.0222 49.9792C19.2495 50.2449 19.7412 50.1936 20.1216 49.8674C20.5019 49.5411 20.6318 49.061 20.4045 48.7953Z" fill="#5892A5"/>
<path fill-rule="evenodd" clip-rule="evenodd" d="M18.5623 49.2311C18.0984 49.4222 17.8758 49.9583 18.0706 50.4291C18.2608 50.8952 18.7942 51.1189 19.2627 50.9232C19.7266 50.732 19.9492 50.196 19.7544 49.7252C19.5642 49.2591 19.0308 49.0353 18.5623 49.2311Z" fill="#F08271"/>
<path fill-rule="evenodd" clip-rule="evenodd" d="M112.62 10.4551C111.164 19.6192 105.922 22.388 103.496 22.9799C104.076 23.4088 108.316 21.5023 110.389 18.2814C111.581 16.4308 113.042 11.5784 112.62 10.4551Z" fill="#206D87"/>
<path fill-rule="evenodd" clip-rule="evenodd" d="M108.496 18.7008C106.956 18.766 104.154 17.8524 103.932 11.8906C109.345 14.3378 109.136 17.2884 108.496 18.7008Z" fill="#388692"/>
<path fill-rule="evenodd" clip-rule="evenodd" d="M112.217 16.1147C113.386 17.1262 116.146 18.1564 120 13.621C114.244 12.1666 112.588 14.6138 112.217 16.1147Z" fill="#388692"/>
<path fill-rule="evenodd" clip-rule="evenodd" d="M113.711 5.47244C112.088 6.03179 109.81 5.23005 109.885 3.1418C109.963 1.05355 112.603 0.331048 114.24 1.44975C115.882 2.56846 115.071 4.95504 113.707 5.47244H113.711Z" fill="url(#paint5_linear_119_327)"/>
<path fill-rule="evenodd" clip-rule="evenodd" d="M110.868 8.292C109.244 8.85135 106.967 8.04961 107.041 5.96602C107.12 3.87776 109.759 3.15527 111.396 4.27397C113.039 5.39268 112.222 7.77926 110.863 8.29666L110.868 8.292Z" fill="url(#paint6_linear_119_327)"/>
<path fill-rule="evenodd" clip-rule="evenodd" d="M114.866 9.51856C113.242 10.0826 110.965 9.27617 111.039 7.19258C111.118 5.10433 113.757 4.38183 115.395 5.50054C117.037 6.61924 116.22 9.00582 114.861 9.52322L114.866 9.51856Z" fill="url(#paint7_linear_119_327)"/>
<path fill-rule="evenodd" clip-rule="evenodd" d="M111.471 5.85013C109.848 6.41414 107.57 5.60774 107.644 3.52415C107.723 1.43589 110.363 0.713396 112 1.82744C113.642 2.94615 112.826 5.33272 111.467 5.85013H111.471Z" fill="#F7D577"/>
<path fill-rule="evenodd" clip-rule="evenodd" d="M110.64 5.66804C108.715 5.94306 108.362 7.65841 108.961 8.9962C109.504 10.2081 112.208 11.2476 113.335 9.32249C114.513 7.30415 113.233 5.29514 110.64 5.66804Z" fill="#F7D577"/>
<path fill-rule="evenodd" clip-rule="evenodd" d="M115.948 7.0845C114.324 7.64852 112.047 6.84212 112.121 4.75852C112.2 2.67027 114.839 1.94777 116.477 3.06182C118.119 4.18052 117.302 6.5671 115.943 7.0845H115.948Z" fill="#F7D577"/>
<path fill-rule="evenodd" clip-rule="evenodd" d="M113.172 7.51389C112.031 7.9101 110.426 7.34609 110.482 5.87778C110.538 4.40948 112.393 3.89674 113.548 4.6845C114.703 5.47225 114.132 7.15031 113.172 7.51389Z" fill="#D5E3E8"/>
<path fill-rule="evenodd" clip-rule="evenodd" d="M7.07315 8.28201C6.75772 16.6397 10.9046 20.0144 12.9456 20.9607C12.3565 21.2357 8.94713 18.8072 7.67616 15.5909C6.94327 13.745 6.5026 9.20028 7.07315 8.27734V8.28201Z" fill="#206D87"/>
<path fill-rule="evenodd" clip-rule="evenodd" d="M9.27758 16.2953C10.6274 16.6262 13.2621 16.3093 14.5053 11.084C9.29614 12.2913 8.96216 14.9389 9.27758 16.2953Z" fill="#194E5D"/>
<path fill-rule="evenodd" clip-rule="evenodd" d="M6.44298 13.3583C5.23695 14.0435 2.61616 14.4677 0 9.7784C5.339 9.50805 6.37804 11.9645 6.44298 13.3583Z" fill="#388692"/>
<path fill-rule="evenodd" clip-rule="evenodd" d="M12.107 6.41339C12.2229 7.04266 12.1255 7.6999 11.7915 8.28256C11.1561 9.37796 9.85726 9.85807 8.63731 9.55043C7.74207 10.203 6.47573 10.2822 5.4135 9.6623C4.60175 9.18685 4.08687 8.40375 3.94307 7.56938C2.72776 6.6884 2.31957 5.06162 3.05246 3.80307L3.08493 3.7518C3.02463 3.19244 3.13596 2.61444 3.43283 2.1017C3.90596 1.29064 4.74091 0.815189 5.64079 0.749931C6.53604 -0.089099 7.95544 -0.261566 9.12436 0.423642C9.60214 0.703319 9.97786 1.0902 10.233 1.53303C10.6273 1.5843 11.0169 1.71482 11.388 1.9339C12.7981 2.75894 13.313 4.52091 12.5337 5.86336C12.4131 6.06845 12.2693 6.2549 12.1116 6.41339H12.107Z" fill="#F7D577"/>
<path fill-rule="evenodd" clip-rule="evenodd" d="M5.57521 1.71863V1.82118C5.1902 1.87711 4.79593 2.05424 4.46195 2.35256C4.02128 2.74411 3.7708 3.25685 3.73369 3.75095C3.45538 3.14498 3.57134 2.41782 4.07231 1.975C4.48978 1.60676 5.0696 1.52752 5.57521 1.71863ZM5.57521 8.94361C5.25051 8.59868 5.09743 8.10458 5.18093 7.60117C5.2737 7.79228 5.40822 7.97407 5.57521 8.13255V8.94361ZM5.57521 7.19563C4.76346 7.23292 4.00273 6.7668 3.73369 5.99302C3.43682 5.14467 3.8311 4.21241 4.62894 3.76493C4.37381 4.31496 4.33671 5.01415 4.57327 5.6947C4.77273 6.2727 5.13918 6.73417 5.57521 7.02317V7.19097V7.19563ZM5.57521 6.22143V4.8883C5.37111 5.30315 5.35719 5.79259 5.57521 6.21677V6.22143ZM5.57521 3.14032C5.44069 3.39203 5.37111 3.68103 5.38502 3.98401C5.43605 3.8768 5.50099 3.77425 5.57521 3.67637V3.14032ZM5.76539 1.80719C5.70045 1.80719 5.64015 1.81652 5.57521 1.82584V1.72329C5.64015 1.7466 5.70509 1.77457 5.76539 1.81186V1.80719ZM5.57521 3.14032C5.7422 2.83268 6.01587 2.58563 6.35913 2.45977C6.58178 2.38053 6.80907 2.36189 7.03172 2.39452V2.84666C6.88328 2.86997 6.73021 2.9026 6.58178 2.95853C6.15967 3.10769 5.81177 3.36872 5.57521 3.67637V3.14032ZM5.57521 4.8883C5.64015 4.75778 5.72364 4.63659 5.82105 4.52472C5.73292 4.96288 5.79322 5.46164 6.03443 5.92777C6.27099 6.38923 6.6328 6.72951 7.03636 6.9113V7.00452C6.43798 7.05113 5.85816 6.76214 5.57984 6.22143V4.8883H5.57521ZM5.57521 7.02783V7.19563C5.65406 7.19563 5.73756 7.18165 5.82105 7.16767C5.73756 7.12571 5.65406 7.0791 5.57521 7.02317V7.02783ZM5.57521 8.13255C5.79322 8.34231 6.0669 8.51012 6.38232 8.62199C6.60033 8.69657 6.81834 8.73852 7.03172 8.74784V9.32584C6.74877 9.4144 6.43798 9.4144 6.14111 9.30719C5.91846 9.22795 5.72828 9.1021 5.57521 8.93895V8.12789V8.13255ZM7.03172 5.60148V4.78109C7.01316 4.8044 6.99461 4.83237 6.98069 4.86033C6.84154 5.10272 6.86937 5.39638 7.03172 5.60614V5.60148ZM6.0669 2.0356C6.26172 1.57879 6.61425 1.2292 7.03172 1.03342V1.71863C6.67919 1.75592 6.34985 1.86313 6.0669 2.03094V2.0356ZM7.03172 1.03342C7.06883 1.01944 7.1013 1.00079 7.13841 0.986809V1.70931C7.1013 1.70931 7.06883 1.71397 7.03172 1.71863V1.03342ZM7.03172 2.39452C7.06883 2.39918 7.1013 2.40384 7.13841 2.41316V2.83734C7.1013 2.83734 7.06883 2.84666 7.03172 2.85132V2.39918V2.39452ZM7.03172 4.78109C7.06419 4.73914 7.09666 4.70651 7.13841 4.67388V5.70869C7.09666 5.67606 7.06419 5.63877 7.03172 5.60148V4.78109ZM7.03172 6.91596C7.06883 6.92994 7.1013 6.94859 7.13841 6.95791V6.9952C7.1013 6.99986 7.06883 7.00452 7.03172 7.00918V6.91596ZM7.03172 8.74784C7.06883 8.74784 7.1013 8.74784 7.13841 8.74784V9.28855C7.1013 9.30253 7.06883 9.31186 7.03172 9.32584V8.74784ZM7.07347 7.90415C7.07347 7.90415 7.11985 7.91813 7.14304 7.92746V7.97873C7.11985 7.95542 7.09666 7.92745 7.07347 7.90415ZM7.13841 0.99147C7.39353 0.893583 7.6672 0.851632 7.94552 0.879599V1.78389C7.67184 1.71863 7.39817 1.69998 7.13841 1.71397V0.99147ZM7.13841 2.41316C7.44455 2.47842 7.72751 2.64156 7.94552 2.87929V2.92124C7.69967 2.842 7.42136 2.80937 7.13841 2.83734V2.41316ZM7.13841 4.67388C7.3425 4.50608 7.63937 4.47811 7.88058 4.61795C7.90377 4.63193 7.92696 4.64591 7.94552 4.6599V5.71801C7.74142 5.87183 7.45383 5.8998 7.21726 5.75996C7.18943 5.74131 7.1616 5.72733 7.13841 5.70402V4.66922V4.67388ZM7.13841 6.95791C7.13841 6.95791 7.18479 6.97655 7.20335 6.98121C7.18015 6.98121 7.15696 6.99054 7.13841 6.99054V6.95325V6.95791ZM7.13841 7.92746C7.38425 8.0067 7.66257 8.03466 7.94552 8.01136V8.4402C7.64401 8.37494 7.36106 8.21645 7.13841 7.98339V7.93212V7.92746ZM7.13841 8.7525C7.43064 8.7525 7.70431 8.69191 7.94552 8.58003V8.58936C7.75998 8.92031 7.46775 9.16736 7.13841 9.29787V8.75716V8.7525ZM7.89449 3.47127L7.94552 3.45263V3.48059L7.89449 3.47127ZM7.94552 0.879599C8.02437 0.888922 8.10787 0.902906 8.18672 0.921551C8.83149 1.08003 9.30462 1.57879 9.48553 2.19874V2.77674C9.15619 2.31527 8.62739 1.94703 7.97799 1.78855L7.94552 1.77923V0.874938V0.879599ZM7.94552 2.87929C7.94552 2.87929 7.97799 2.91658 7.99654 2.93522L7.94552 2.91658V2.87463V2.87929ZM7.94552 3.45263C8.48359 3.26617 9.08197 3.38271 9.48553 3.76493V4.71117C9.42059 4.56667 9.33245 4.4315 9.23504 4.29632C8.89179 3.83951 8.41865 3.55984 7.94552 3.47593V3.44796V3.45263ZM7.94552 4.66456V5.72267C8.0151 5.6714 8.07076 5.60614 8.11715 5.5269C8.28877 5.23323 8.20992 4.86499 7.94552 4.66456ZM7.94552 8.01136C8.12178 7.99271 8.30733 7.95542 8.48359 7.89483C8.90107 7.75033 9.24432 7.49862 9.48089 7.19563V7.73168C9.30926 8.03 9.04022 8.26773 8.70161 8.38892C8.45112 8.47749 8.19136 8.48681 7.94552 8.43554V8.0067V8.01136ZM7.94552 8.57537H7.95016L7.94552 8.5847V8.57537ZM9.27679 8.70589C9.34637 8.70589 9.41131 8.69657 9.48089 8.68724V8.79445C9.41131 8.77115 9.34173 8.74318 9.27679 8.70589ZM9.48553 2.19874C9.55047 2.41782 9.57366 2.65089 9.55974 2.88861C9.53655 2.85132 9.51336 2.81403 9.48553 2.77674V2.19874ZM9.48553 3.76493C9.54119 3.81621 9.59221 3.87214 9.6386 3.93274C9.74065 4.06791 9.81487 4.21241 9.86125 4.36624V5.2612C9.8195 5.39172 9.76384 5.52223 9.68962 5.64343C9.6989 5.34044 9.62932 5.01882 9.48553 4.71117V3.76493ZM9.48553 7.19563C9.56438 7.09309 9.63396 6.98588 9.68962 6.87401C9.70354 7.18165 9.62932 7.47997 9.48553 7.73168V7.19563ZM9.48553 8.68724C9.61077 8.6686 9.73601 8.63597 9.86125 8.58936V8.8737C9.73601 8.86437 9.61077 8.83641 9.48553 8.79445V8.68724ZM9.79167 2.52037C9.79167 2.52037 9.83806 2.51105 9.86125 2.51105V2.55766C9.86125 2.55766 9.81487 2.53435 9.79167 2.52037ZM9.86125 2.51105C10.7379 2.39452 11.5914 2.86997 11.879 3.69501C12.1759 4.54337 11.7816 5.47562 10.9838 5.9231C11.2389 5.37307 11.276 4.67388 11.0394 3.99333C10.8122 3.34076 10.3715 2.83268 9.86125 2.55766V2.51105ZM9.86125 4.3709V5.26586C9.94938 4.9722 9.95402 4.6599 9.86125 4.3709ZM10.6962 8.03C11.0534 7.64778 11.2575 7.18631 11.2899 6.73883C11.559 7.30284 11.4894 7.97407 11.0534 8.43554C10.7379 8.77115 10.2926 8.92031 9.85197 8.87836V8.59402C10.1535 8.48215 10.4457 8.2957 10.6916 8.03H10.6962Z" fill="url(#paint8_linear_119_327)"/>
<path fill-rule="evenodd" clip-rule="evenodd" d="M58.4786 44.0818C57.0174 38.5629 50.76 35.1927 48.7747 40.763C46.7893 46.3379 59.0166 57.2359 59.0166 57.2359C59.0166 57.2359 69.9869 53.2599 69.523 44.9535C69.0545 36.6471 62.2172 40.5579 58.4786 44.0818Z" fill="#59BBCA"/>
</g>
<defs>
<linearGradient id="paint0_linear_119_327" x1="98.0278" y1="49.3247" x2="100.414" y2="46.9545" gradientUnits="userSpaceOnUse">
<stop stop-color="#E09C1F"/>
<stop offset="0.1" stop-color="#E09D21"/>
<stop offset="0.17" stop-color="#E2A12A"/>
<stop offset="0.22" stop-color="#E5A838"/>
<stop offset="0.27" stop-color="#E9B34D"/>
<stop offset="0.31" stop-color="#EFC068"/>
<stop offset="0.36" stop-color="#F7D38D"/>
<stop offset="0.41" stop-color="#E7BC63"/>
<stop offset="0.46" stop-color="#D9A93F"/>
<stop offset="0.51" stop-color="#CF9B23"/>
<stop offset="0.56" stop-color="#C7900F"/>
<stop offset="0.62" stop-color="#C38A03"/>
<stop offset="0.67" stop-color="#C28800"/>
<stop offset="0.71" stop-color="#C78B06"/>
<stop offset="0.88" stop-color="#D99718"/>
<stop offset="1" stop-color="#E09C1F"/>
</linearGradient>
<linearGradient id="paint1_linear_119_327" x1="96.0367" y1="49.5723" x2="97.7661" y2="47.8514" gradientUnits="userSpaceOnUse">
<stop stop-color="#E09C1F"/>
<stop offset="0.1" stop-color="#E09D21"/>
<stop offset="0.17" stop-color="#E2A12A"/>
<stop offset="0.22" stop-color="#E5A838"/>
<stop offset="0.27" stop-color="#E9B34D"/>
<stop offset="0.31" stop-color="#EFC068"/>
<stop offset="0.36" stop-color="#F7D38D"/>
<stop offset="0.41" stop-color="#E7BC63"/>
<stop offset="0.46" stop-color="#D9A93F"/>
<stop offset="0.51" stop-color="#CF9B23"/>
<stop offset="0.56" stop-color="#C7900F"/>
<stop offset="0.62" stop-color="#C38A03"/>
<stop offset="0.67" stop-color="#C28800"/>
<stop offset="0.71" stop-color="#C78B06"/>
<stop offset="0.88" stop-color="#D99718"/>
<stop offset="1" stop-color="#E09C1F"/>
</linearGradient>
<linearGradient id="paint2_linear_119_327" x1="95.5041" y1="52.3258" x2="97.9559" y2="49.8859" gradientUnits="userSpaceOnUse">
<stop stop-color="#E09C1F"/>
<stop offset="0.1" stop-color="#E09D21"/>
<stop offset="0.17" stop-color="#E2A12A"/>
<stop offset="0.22" stop-color="#E5A838"/>
<stop offset="0.27" stop-color="#E9B34D"/>
<stop offset="0.31" stop-color="#EFC068"/>
<stop offset="0.36" stop-color="#F7D38D"/>
<stop offset="0.41" stop-color="#E7BC63"/>
<stop offset="0.46" stop-color="#D9A93F"/>
<stop offset="0.51" stop-color="#CF9B23"/>
<stop offset="0.56" stop-color="#C7900F"/>
<stop offset="0.62" stop-color="#C38A03"/>
<stop offset="0.67" stop-color="#C28800"/>
<stop offset="0.71" stop-color="#C78B06"/>
<stop offset="0.88" stop-color="#D99718"/>
<stop offset="1" stop-color="#E09C1F"/>
</linearGradient>
<linearGradient id="paint3_linear_119_327" x1="97.9627" y1="52.9832" x2="99.9204" y2="51.0397" gradientUnits="userSpaceOnUse">
<stop stop-color="#E09C1F"/>
<stop offset="0.1" stop-color="#E09D21"/>
<stop offset="0.17" stop-color="#E2A12A"/>
<stop offset="0.22" stop-color="#E5A838"/>
<stop offset="0.27" stop-color="#E9B34D"/>
<stop offset="0.31" stop-color="#EFC068"/>
<stop offset="0.36" stop-color="#F7D38D"/>
<stop offset="0.41" stop-color="#E7BC63"/>
<stop offset="0.46" stop-color="#D9A93F"/>
<stop offset="0.51" stop-color="#CF9B23"/>
<stop offset="0.56" stop-color="#C7900F"/>
<stop offset="0.62" stop-color="#C38A03"/>
<stop offset="0.67" stop-color="#C28800"/>
<stop offset="0.71" stop-color="#C78B06"/>
<stop offset="0.88" stop-color="#D99718"/>
<stop offset="1" stop-color="#E09C1F"/>
</linearGradient>
<linearGradient id="paint4_linear_119_327" x1="99.443" y1="51.212" x2="101.522" y2="49.1385" gradientUnits="userSpaceOnUse">
<stop stop-color="#E09C1F"/>
<stop offset="0.1" stop-color="#E09D21"/>
<stop offset="0.17" stop-color="#E2A12A"/>
<stop offset="0.22" stop-color="#E5A838"/>
<stop offset="0.27" stop-color="#E9B34D"/>
<stop offset="0.31" stop-color="#EFC068"/>
<stop offset="0.36" stop-color="#F7D38D"/>
<stop offset="0.41" stop-color="#E7BC63"/>
<stop offset="0.46" stop-color="#D9A93F"/>
<stop offset="0.51" stop-color="#CF9B23"/>
<stop offset="0.56" stop-color="#C7900F"/>
<stop offset="0.62" stop-color="#C38A03"/>
<stop offset="0.67" stop-color="#C28800"/>
<stop offset="0.71" stop-color="#C78B06"/>
<stop offset="0.88" stop-color="#D99718"/>
<stop offset="1" stop-color="#E09C1F"/>
</linearGradient>
<linearGradient id="paint5_linear_119_327" x1="110.747" y1="5.06691" x2="114.341" y2="1.49061" gradientUnits="userSpaceOnUse">
<stop stop-color="#E09C1F"/>
<stop offset="0.1" stop-color="#E09D21"/>
<stop offset="0.17" stop-color="#E2A12A"/>
<stop offset="0.22" stop-color="#E5A838"/>
<stop offset="0.27" stop-color="#E9B34D"/>
<stop offset="0.31" stop-color="#EFC068"/>
<stop offset="0.36" stop-color="#F7D38D"/>
<stop offset="0.41" stop-color="#E7BC63"/>
<stop offset="0.46" stop-color="#D9A93F"/>
<stop offset="0.51" stop-color="#CF9B23"/>
<stop offset="0.56" stop-color="#C7900F"/>
<stop offset="0.62" stop-color="#C38A03"/>
<stop offset="0.67" stop-color="#C28800"/>
<stop offset="0.71" stop-color="#C78B06"/>
<stop offset="0.88" stop-color="#D99718"/>
<stop offset="1" stop-color="#E09C1F"/>
</linearGradient>
<linearGradient id="paint6_linear_119_327" x1="107.904" y1="7.88647" x2="111.497" y2="4.3055" gradientUnits="userSpaceOnUse">
<stop stop-color="#E09C1F"/>
<stop offset="0.1" stop-color="#E09D21"/>
<stop offset="0.17" stop-color="#E2A12A"/>
<stop offset="0.22" stop-color="#E5A838"/>
<stop offset="0.27" stop-color="#E9B34D"/>
<stop offset="0.31" stop-color="#EFC068"/>
<stop offset="0.36" stop-color="#F7D38D"/>
<stop offset="0.41" stop-color="#E7BC63"/>
<stop offset="0.46" stop-color="#D9A93F"/>
<stop offset="0.51" stop-color="#CF9B23"/>
<stop offset="0.56" stop-color="#C7900F"/>
<stop offset="0.62" stop-color="#C38A03"/>
<stop offset="0.67" stop-color="#C28800"/>
<stop offset="0.71" stop-color="#C78B06"/>
<stop offset="0.88" stop-color="#D99718"/>
<stop offset="1" stop-color="#E09C1F"/>
</linearGradient>
<linearGradient id="paint7_linear_119_327" x1="111.902" y1="9.11303" x2="115.495" y2="5.53673" gradientUnits="userSpaceOnUse">
<stop stop-color="#E09C1F"/>
<stop offset="0.1" stop-color="#E09D21"/>
<stop offset="0.17" stop-color="#E2A12A"/>
<stop offset="0.22" stop-color="#E5A838"/>
<stop offset="0.27" stop-color="#E9B34D"/>
<stop offset="0.31" stop-color="#EFC068"/>
<stop offset="0.36" stop-color="#F7D38D"/>
<stop offset="0.41" stop-color="#E7BC63"/>
<stop offset="0.46" stop-color="#D9A93F"/>
<stop offset="0.51" stop-color="#CF9B23"/>
<stop offset="0.56" stop-color="#C7900F"/>
<stop offset="0.62" stop-color="#C38A03"/>
<stop offset="0.67" stop-color="#C28800"/>
<stop offset="0.71" stop-color="#C78B06"/>
<stop offset="0.88" stop-color="#D99718"/>
<stop offset="1" stop-color="#E09C1F"/>
</linearGradient>
<linearGradient id="paint8_linear_119_327" x1="4.71243" y1="8.07195" x2="10.6229" y2="2.19031" gradientUnits="userSpaceOnUse">
<stop stop-color="#E09C1F"/>
<stop offset="0.1" stop-color="#E09D21"/>
<stop offset="0.17" stop-color="#E2A12A"/>
<stop offset="0.22" stop-color="#E5A838"/>
<stop offset="0.27" stop-color="#E9B34D"/>
<stop offset="0.31" stop-color="#EFC068"/>
<stop offset="0.36" stop-color="#F7D38D"/>
<stop offset="0.41" stop-color="#E7BC63"/>
<stop offset="0.46" stop-color="#D9A93F"/>
<stop offset="0.51" stop-color="#CF9B23"/>
<stop offset="0.56" stop-color="#C7900F"/>
<stop offset="0.62" stop-color="#C38A03"/>
<stop offset="0.67" stop-color="#C28800"/>
<stop offset="0.71" stop-color="#C78B06"/>
<stop offset="0.88" stop-color="#D99718"/>
<stop offset="1" stop-color="#E09C1F"/>
</linearGradient>
<clipPath id="clip0_119_327">
<rect width="120" height="60" fill="white"/>
</clipPath>
</defs>
</svg>
