<svg width="41" height="49" viewBox="0 0 41 49" fill="none" xmlns="http://www.w3.org/2000/svg">
<g clip-path="url(#clip0_37_4301)">
<path d="M39.102 17.7064C37.4332 16.4367 34.6952 16.5966 33.3562 18.2763C33.2463 18.4063 33.1164 18.6062 32.9965 18.8262C31.4976 16.6466 28.6197 15.5469 26.9109 18.4663C24.4028 22.7254 29.7988 26.3547 31.3177 29.9539C30.0786 33.9931 27.4305 37.6124 25.0023 41.1216C23.8232 36.6725 22.8039 32.2435 22.4242 27.5044C22.1144 23.6352 22.1944 19.816 22.4242 15.9968C26.2614 13.8372 33.7959 10.6679 31.8273 5.039C30.6482 1.65969 26.6012 0.919841 24.4727 3.10939C23.7133 -0.749818 17.7476 -1.07975 15.4293 2.49952C12.2017 7.5085 15.9989 13.9472 20.8853 16.0667C20.2858 21.7756 20.4357 27.8243 21.345 33.6332C17.298 32.4934 14.0004 30.0639 11.772 26.6846C11.772 26.6846 11.792 26.6746 11.792 26.6646C13.7605 23.8752 17.8975 17.2565 13.0111 14.957C10.393 13.7272 7.97478 15.4769 7.69499 17.8464C6.41592 16.6566 4.82708 15.7968 3.00841 16.3867C0.959913 17.0565 -0.179253 19.1961 0.0206004 21.2757C0.250432 23.6152 1.90922 25.4648 3.96771 26.4646C5.7664 27.3444 8.53437 28.0143 10.5629 27.2945C13.0011 31.1337 17.0381 33.9131 21.5349 34.7629C22.4042 39.7319 23.8332 44.5009 25.8517 48.7001C26.1515 49.32 27.1208 48.8801 26.9509 48.2402C26.3813 46.1206 25.8017 44.041 25.2421 41.9715C25.3221 41.9715 25.412 41.9315 25.472 41.8515C28.5397 38.3022 31.6575 34.1531 32.8466 29.554C35.6046 29.0041 38.7123 27.3844 40.1512 24.9749C41.5003 22.7154 41.3204 19.3761 39.112 17.6964L39.102 17.7064ZM9.63357 22.2255C9.40374 21.5256 8.3545 21.8056 8.52438 22.5254C8.82416 23.8152 9.30381 25.0449 9.92336 26.1947C7.34524 25.7348 4.68719 25.9247 2.70863 23.6852C1.44956 22.2555 0.939928 19.936 2.38887 18.4463C4.29747 16.4867 6.51585 18.3863 7.84488 19.946C8.40447 20.6058 9.32379 19.656 8.78419 19.0062C8.72423 18.9362 8.65428 18.8562 8.59433 18.7862C8.60432 15.4469 13.9504 14.807 13.9104 18.8862C13.8905 21.2457 12.1018 23.3453 10.9926 25.3848C10.453 24.3951 9.9933 23.3353 9.63357 22.2155V22.2255ZM21.0052 14.987C18.9168 13.5473 17.188 11.6477 16.3886 9.16816C15.829 7.43851 15.6592 5.33894 16.5885 3.66928C18.2772 0.669893 23.1637 0.839858 23.0537 4.87903C23.0537 5.20897 23.2636 5.41892 23.5234 5.5189C23.7333 5.67887 24.093 5.63888 24.2729 5.36893C24.3228 5.31894 24.3628 5.24896 24.3928 5.16897C24.9624 3.96922 26.7011 2.95943 28.0001 3.27936C29.0094 3.51931 30.0486 4.57909 30.3884 5.5389C31.0579 7.45851 29.8388 9.23814 28.3799 10.3279C26.5612 11.6876 24.5227 12.7874 22.5641 13.9672C22.734 11.8276 22.9338 9.68805 23.1537 7.52849C23.1936 7.10858 22.5441 7.03859 22.4342 7.42851C21.7947 9.82802 21.315 12.3675 20.9853 14.987H21.0052ZM39.142 23.5252C38.1027 26.0947 35.5546 26.8446 33.2063 27.7744C33.3862 26.4846 33.4062 25.1549 33.2163 23.8052C33.1164 23.1053 31.9073 23.2653 31.9772 23.9751C32.1271 25.5048 32.0072 26.9645 31.7174 28.3842C31.1878 27.0945 30.3384 25.9747 29.479 24.785C28.6097 23.5752 27.7603 22.3255 27.7903 20.7858C27.8203 19.1961 28.9994 17.5464 30.7481 18.3363C31.5775 18.7162 32.217 20.0859 32.6767 20.8258C32.9965 21.3457 33.8259 21.0657 33.7659 20.4858C33.7859 20.4659 33.8159 20.4559 33.8359 20.4259C34.0157 20.2159 33.8359 19.986 33.616 20.0159C33.616 19.9959 33.606 19.986 33.596 19.966C34.3455 19.3261 34.5753 18.6462 35.6845 18.3963C36.404 18.2363 37.2534 18.2863 37.8929 18.6662C39.5517 19.626 39.8015 21.9056 39.142 23.5352V23.5252Z" fill="#3C3C3B"/>
</g>
<defs>
<clipPath id="clip0_37_4301">
<rect width="41" height="49" fill="white"/>
</clipPath>
</defs>
</svg>
