<svg width="76" height="22" viewBox="0 0 76 22" fill="none" xmlns="http://www.w3.org/2000/svg">
<path d="M75.8957 13.3064C75.1689 8.87589 71.0272 6.32442 67.1343 4.88056C55.2069 0.440209 43.847 4.03996 33.0546 9.53848C26.9913 12.624 20.5398 16.4611 13.5705 16.8567C9.39892 17.094 4.90872 15.7688 2.64869 12.0207C1.23492 9.67694 1.17519 6.85845 2.71838 4.54432C3.36553 3.58505 4.17198 2.85323 5.12776 2.30931C6.49175 2.20053 7.99512 2.14119 8.89116 3.28836C9.41884 3.96085 9.5184 4.80145 9.45866 5.66183C9.30932 6.25519 9.12015 6.9079 8.87125 7.63971C8.20419 7.43203 7.93537 8.45065 8.58252 8.6781C11.5494 9.7066 14.377 7.42215 13.8493 4.27731C13.3316 1.17203 10.0959 -0.311387 7.18867 0.0545216C6.28267 0.173195 5.41649 0.459988 4.62 0.865455C4.45074 0.885234 4.27153 0.905012 4.10228 0.934681C3.78368 0.984128 3.61443 1.23136 3.58456 1.49838C1.45396 3.04113 0.0302388 5.58271 0.000370536 8.23308C-0.0394538 12.357 3.13654 15.8677 6.80039 17.3907C17.5032 21.8508 29.9184 12.4756 39.1677 8.30231C46.2166 5.1278 53.7036 3.52571 61.4096 5.01901C64.8245 5.68161 68.8169 6.809 71.4851 9.1528C74.0936 11.4471 75.4278 15.1062 72.7994 18.0731C72.6301 18.2511 72.4509 18.3994 72.2816 18.5576C70.9774 19.0917 69.8026 19.8136 68.2594 19.4675C67.2339 19.24 66.3578 18.528 65.9396 17.6478C66.1089 16.8468 66.4673 15.8776 67.0049 14.7304C68.0304 15.0172 68.4585 13.4547 67.443 13.1481C64.6055 12.2779 61.6983 14.3546 62.0667 17.4302C62.5047 21.1684 66.6266 22.6024 69.8922 21.7717C73.7054 20.8124 76.5628 17.2621 75.9056 13.2965L75.8957 13.3064Z" fill="#EF90CB"/>
</svg>
