<svg width="16" height="17" viewBox="0 0 16 17" fill="none" xmlns="http://www.w3.org/2000/svg">
<g clip-path="url(#clip0_44_2374)">
<path d="M15.8428 5.40345V4.80053C15.8864 4.75879 15.9321 4.71473 15.9974 4.65212C15.9669 4.59183 15.9342 4.52458 15.8537 4.36457V3.95644C15.7971 3.90543 15.7645 3.8776 15.7166 3.83586V3.37208C15.6708 3.32106 15.6295 3.27468 15.562 3.19816V2.848C15.5054 2.79698 15.4728 2.76916 15.4336 2.73437V2.36798C15.4684 2.3332 15.5119 2.28914 15.5642 2.24044C15.3857 2.08971 15.205 1.93898 15.0265 1.78825C15.0722 1.57027 14.8872 1.42418 14.8371 1.22476C14.6869 1.2178 14.5345 1.21084 14.3843 1.20389C14.1492 1.02301 14.1209 0.689085 13.7487 0.598647C13.7117 0.624155 13.6572 0.654301 13.6093 0.691404C13.5571 0.730826 13.5114 0.777204 13.4461 0.832858H12.5862C12.5536 0.805031 12.5209 0.777204 12.4861 0.744739C12.4556 0.758653 12.423 0.772566 12.3925 0.791117C12.3729 0.802712 12.3598 0.818944 12.3185 0.853728H11.3084C11.2997 1.0091 11.291 1.14591 11.2823 1.28273C11.217 1.3407 11.1517 1.39636 11.0885 1.45433C11.0428 1.45433 10.9971 1.45433 10.9492 1.45433C10.3506 1.98304 9.75411 2.51639 9.14676 3.03815C9.02921 3.13786 8.98132 3.26077 8.90295 3.37439C8.8137 3.50425 8.7854 3.66426 8.61996 3.76165C8.48935 3.83818 8.38921 3.95644 8.27602 4.05848C8.33697 4.21616 8.0801 4.26718 8.1171 4.43182C8.12581 4.47356 7.9952 4.54081 7.92772 4.59878C7.83411 4.42486 7.67302 4.26718 7.69261 4.0492C7.59683 3.96572 7.47493 4.03065 7.36608 4.00514C7.25289 3.93325 7.3269 3.77093 7.17452 3.71064C7.03955 3.6573 7.0352 3.5228 6.98078 3.42077C6.91765 3.40686 6.85452 3.39063 6.79139 3.37671C6.75874 3.2283 6.66513 3.09149 6.58241 2.96858C6.48227 2.82017 6.40826 2.66712 6.33642 2.50944C6.26894 2.36566 6.02295 2.32392 6.05996 2.1245C5.91193 1.95753 5.65506 1.86246 5.62241 1.61665C5.44173 1.4636 5.25887 1.31056 5.09778 1.17374C5.09343 1.10185 5.09125 1.06243 5.0869 1.00214C4.80391 1.0462 4.74948 0.705317 4.47085 0.72155C4.34676 0.545312 4.10948 0.50589 3.94187 0.380669C3.75901 0.243852 3.55221 0.132544 3.33887 -0.00195312H3.08418C3.00581 0.148777 2.92744 0.304144 2.83819 0.478063H2.27003C2.15901 0.605604 2.22214 0.730826 2.20255 0.846772C2.2918 0.869961 2.41588 0.788799 2.46595 0.918658C2.34404 0.954215 2.25624 0.930253 2.20255 0.846772H2.0001C1.95003 0.886193 1.90214 0.925615 1.85642 0.962718C1.80635 0.925615 1.75846 0.888512 1.69098 0.839815C1.67139 0.91402 1.65615 0.969674 1.63874 1.03924C1.56037 1.11345 1.46676 1.19925 1.37751 1.28273V1.47752C1.32091 1.61202 1.19248 1.70941 1.0684 1.77898C0.942137 1.85086 0.783226 1.87869 0.691797 2.00391V2.36103C0.643906 2.4074 0.598192 2.45146 0.552478 2.4932C0.552478 2.5535 0.552478 2.61379 0.552478 2.68336C0.430573 2.89438 0.304314 3.11236 0.134519 3.40454V4.19297C0.0779199 4.24399 0.0452668 4.27182 0.00825999 4.30428V5.15532C0.0430899 5.19011 0.0888042 5.23417 0.134519 5.27823C0.0909811 5.31997 0.0474437 5.36403 0.00390625 5.40577V5.7652C0.0539743 5.8139 0.0975117 5.85796 0.138872 5.89738V6.22898C0.164995 6.26145 0.204178 6.30551 0.2586 6.37276C0.332614 6.53276 0.184587 6.75538 0.347852 6.9177C0.47411 7.04292 0.323906 7.25163 0.54377 7.33511V7.69686C0.591661 7.74324 0.637376 7.7873 0.685267 7.836V8.07021C0.733158 8.11658 0.778872 8.16064 0.826763 8.2047V8.43891C0.874655 8.48761 0.920369 8.53167 0.961729 8.57109C0.961729 8.67776 0.961729 8.7798 0.961729 8.87951C1.09016 9.09749 1.2186 9.31315 1.36663 9.56359C1.37316 9.65635 1.38187 9.79316 1.39057 9.92302C1.47329 9.94158 1.53642 9.95549 1.59955 9.9694C1.7171 10.0946 1.60173 10.243 1.70622 10.4378C1.74758 10.5004 1.83248 10.6326 1.92608 10.7764V11.0755C2.11112 11.1984 2.05887 11.3863 2.06323 11.5602C2.24826 11.6947 2.19384 11.8825 2.20037 12.0564C2.42241 12.1724 2.23738 12.4553 2.4703 12.5643C2.41806 12.7034 2.62921 12.7521 2.60962 12.8773C2.59003 13.0095 2.64227 13.1069 2.74894 13.1904C2.66622 13.3875 2.89261 13.5058 2.90567 13.6797C3.11901 13.7632 2.96445 13.9719 3.09289 14.0994C3.21479 14.2223 3.26921 14.3962 3.34976 14.5493C3.42159 14.6838 3.4869 14.8252 3.57833 14.9504C3.66976 15.078 3.70459 15.231 3.82649 15.347C3.91357 15.4305 3.79384 15.5789 3.92663 15.6739C4.02676 15.7458 3.9854 15.9058 4.12472 15.9638C4.07248 16.1029 4.27275 16.1516 4.2684 16.2769C4.25969 16.4601 4.49479 16.3487 4.5601 16.4624C4.59928 16.5319 4.68418 16.5783 4.74948 16.6363H4.89533C4.9367 16.7151 4.98023 16.7963 5.02595 16.8798C5.06731 16.8427 5.09996 16.8149 5.13697 16.7824C5.28064 16.7963 5.30894 16.9401 5.53316 16.9934H5.87275C5.93588 16.9238 6.0186 16.8288 6.08391 16.7569C6.17316 16.7569 6.21887 16.7569 6.26459 16.7569C6.3952 16.6433 6.54105 16.5389 6.64989 16.4114C6.76527 16.2745 6.98513 16.3001 7.08527 16.1563C7.23112 15.9429 7.51846 15.8942 7.71656 15.7342C7.91901 15.5696 7.99738 15.34 8.19329 15.1731C8.70486 14.7371 9.20336 14.2895 9.70622 13.8443C9.78676 13.7724 9.86078 13.6936 9.95221 13.6333C10.0175 13.5892 10.1111 13.58 10.183 13.5429C10.2396 13.5127 10.2809 13.4594 10.331 13.4176C10.331 13.3365 10.331 13.2553 10.331 13.1765C10.2853 13.1324 10.2417 13.0907 10.1982 13.0466C10.3484 12.9469 10.6096 12.9585 10.6074 12.7173C10.8055 12.4993 11.0123 12.293 11.2801 12.1399C11.3345 12.1098 11.4151 12.1028 11.4477 12.0611C11.6502 11.8129 12.0072 11.7411 12.227 11.5092C12.4469 11.2773 12.7081 11.0755 12.9519 10.8622C13.0651 10.7625 13.1783 10.6628 13.2937 10.5607C13.4874 10.3891 13.6725 10.2059 13.8815 10.0482C14.0708 9.90447 14.0861 9.65171 14.3234 9.54736V9.28764C14.6194 9.12763 14.6455 8.80299 14.848 8.57805C14.8959 8.52471 14.8785 8.42732 14.9002 8.29514C14.9547 8.24644 15.0809 8.17688 15.1353 8.07716C15.181 7.98904 15.1919 7.89165 15.2942 7.83368V7.46961C15.4488 7.39772 15.414 7.22612 15.5315 7.12873C15.6447 7.03365 15.4836 6.83886 15.6948 6.75538V6.30319C15.7949 6.17101 15.8254 6.04579 15.8624 5.91361C15.8951 5.79071 16.0126 5.68172 15.9821 5.52635C15.943 5.48693 15.8972 5.44287 15.8493 5.39649L15.8428 5.40345ZM1.6518 7.71077V7.5786C1.70404 7.56004 1.76064 7.53917 1.83901 7.51367C1.90867 7.58787 1.97615 7.65976 2.04146 7.73164C1.92173 7.81049 1.78459 7.81744 1.6518 7.71077ZM6.47574 4.80517C6.50622 4.7843 6.53452 4.75415 6.56935 4.73792C6.62377 4.71473 6.6869 4.70082 6.7435 4.67995C6.77615 4.66835 6.80663 4.64748 6.90676 4.59646C6.8654 4.77038 6.93071 4.87242 6.84581 4.95822C6.71955 4.97909 6.59112 5.02547 6.47792 4.92343V4.80749L6.47574 4.80517ZM2.5269 1.23171C2.5552 1.24563 2.58568 1.25954 2.61615 1.27577C2.60091 1.28969 2.58132 1.31519 2.57044 1.31287C2.53778 1.30592 2.50948 1.28737 2.47901 1.27577C2.49425 1.26186 2.50948 1.24794 2.52908 1.23171H2.5269ZM2.57044 8.23717C2.53778 8.23021 2.50948 8.21166 2.47901 8.20007C2.49425 8.18615 2.51384 8.16064 2.52472 8.16296C2.55738 8.16992 2.58568 8.18847 2.61615 8.20007C2.60091 8.21398 2.58132 8.23949 2.57044 8.23717ZM3.08853 10.0853C3.01452 9.96476 3.0167 9.83954 2.87955 9.76997C2.92962 9.68649 2.83819 9.57982 2.9601 9.47315C3.02758 9.53576 3.10159 9.59374 3.1669 9.66098V9.90679C3.21044 9.93926 3.2605 9.97868 3.34323 10.0436C3.23221 10.0622 3.15601 10.0738 3.08853 10.0853ZM5.09561 14.8809C5.18704 14.7928 5.28064 14.7928 5.37207 14.8809C5.28064 14.969 5.18704 14.969 5.09561 14.8809ZM6.73914 15.1313C6.61724 15.187 6.50622 15.238 6.39302 15.2913C6.38214 15.2751 6.35819 15.2449 6.3103 15.18C6.49533 15.0038 6.53234 14.7162 6.8567 14.591C6.86976 14.649 6.88282 14.7046 6.90241 14.7858C6.80663 14.8507 6.70431 14.9226 6.60418 14.9922C6.66295 15.0548 6.70214 15.0942 6.73914 15.1336V15.1313ZM14.0491 5.64694C14.0012 5.69331 13.9555 5.73737 13.9076 5.78375V6.05275C13.7726 6.40058 13.544 6.61161 13.494 6.90611C13.4722 7.03133 13.4156 7.18438 13.3111 7.25627C13.1391 7.37685 13.2806 7.55077 13.1391 7.6899C12.9759 7.84759 12.9258 8.0934 12.8083 8.2905C12.7495 8.39022 12.7016 8.49921 12.6319 8.58964C12.5318 8.72182 12.3881 8.83313 12.2488 8.93516C12.1051 9.03951 12.1117 9.21575 11.9636 9.3201C11.7699 9.45924 11.6023 9.63084 11.4238 9.78853C11.2453 9.94621 11.0668 10.1039 10.8883 10.2593C10.8839 10.5167 10.5748 10.5793 10.4747 10.7602C10.4659 10.8529 10.4921 10.9596 10.4442 11.0036C10.3201 11.1173 10.3136 11.2912 10.1612 11.3909C10.0349 11.4744 9.94132 11.5996 9.81506 11.6854C9.66268 11.7851 9.67792 11.9799 9.52336 12.0634C9.37533 12.1422 9.4167 12.3602 9.2752 12.3788C9.08146 12.4043 9.02703 12.5411 8.90078 12.6153C8.88989 12.6199 8.86812 12.6107 8.85289 12.6083C8.78976 12.5249 8.842 12.3463 8.64391 12.3857C8.1454 12.8263 7.65996 13.253 7.16363 13.6913C7.16799 13.8861 6.93724 13.9533 6.81533 14.0855C6.69996 14.2107 6.55846 14.3174 6.43003 14.431C6.28418 14.5585 6.13833 14.6884 5.9903 14.8183H5.69207C5.65942 14.7858 5.61806 14.7394 5.57016 14.6954C5.47874 14.6119 5.51574 14.4611 5.37642 14.4032C5.41996 14.2664 5.2284 14.2153 5.23057 14.0924C5.23275 13.9695 5.04118 13.9185 5.08472 13.7817C4.94323 13.7075 4.96282 13.5869 4.94976 13.4663C4.9367 13.3573 4.80826 13.2878 4.80608 13.1533C4.80608 13.0327 4.74295 12.8657 4.64064 12.8008C4.45561 12.6825 4.62976 12.4854 4.45996 12.3718C4.36418 12.3092 4.37071 12.1677 4.27493 12.075C4.2118 12.0147 4.32282 11.8732 4.20962 11.799C4.06812 11.7086 4.16391 11.5741 4.11384 11.4697C4.03329 11.3979 3.95275 11.326 3.87003 11.2564C3.80908 11.1544 3.90268 11.0268 3.7786 10.9225C3.69153 10.8483 3.6567 10.7277 3.57833 10.5932V10.2732C3.53044 10.2291 3.48472 10.1851 3.43683 10.1387V9.90447C3.38676 9.85577 3.34323 9.81172 3.30187 9.77229C3.29316 9.64939 3.32799 9.53576 3.19738 9.43605C3.1103 9.3688 3.08635 9.23894 3.01016 9.09053V8.67081C2.84037 8.58733 2.89479 8.45515 2.88608 8.33224C2.84472 8.29282 2.80119 8.24876 2.75112 8.20007V7.96585C2.70323 7.91948 2.65751 7.87542 2.60962 7.83136V7.47424C2.56173 7.42787 2.51601 7.38381 2.47248 7.34207C2.50731 7.08467 2.32445 6.90611 2.18513 6.69045V5.88115C2.13942 5.84172 2.10676 5.8139 2.07629 5.78375V3.32802C2.12418 3.28628 2.15683 3.25845 2.19384 3.22366V2.99409C2.25044 2.92916 2.30268 2.86887 2.36799 2.79235C2.30704 2.72278 2.25479 2.6648 2.21778 2.62075C2.39846 2.31233 2.57479 2.01319 2.74894 1.71173C2.75765 1.6955 2.75547 1.66999 2.74894 1.65144C2.74241 1.63289 2.72499 1.61897 2.7054 1.59578C2.64445 1.62361 2.58132 1.64912 2.51819 1.67926C2.45071 1.60506 2.45289 1.53549 2.52472 1.47056H3.11248C3.20826 1.55636 3.2888 1.62825 3.36935 1.70013H3.57615C3.57615 1.66071 3.57615 1.61897 3.61533 1.59346C3.50867 1.56564 3.402 1.57491 3.49561 1.46824C3.52826 1.50071 3.55874 1.53549 3.57615 1.57955C3.78948 1.561 3.93533 1.63057 3.98976 1.82304C4.08554 1.82072 4.13125 1.86014 4.1269 1.94362C4.22268 1.9413 4.2684 1.98072 4.26404 2.0642C4.35982 2.06189 4.40554 2.10131 4.40119 2.18479C4.49697 2.18247 4.54268 2.22189 4.53833 2.30537C4.58404 2.30537 4.62976 2.30537 4.67547 2.30537C4.69506 2.18711 4.79302 2.12913 4.89969 2.07812C4.9171 2.11058 4.95193 2.14305 4.94758 2.17319C4.94105 2.22189 4.9084 2.26595 4.89098 2.30537H4.67765C4.66241 2.33784 4.6537 2.39813 4.63193 2.40277C4.54921 2.419 4.53615 2.36566 4.5405 2.30537C4.44472 2.30769 4.39901 2.26827 4.40336 2.18479C4.30758 2.18711 4.26187 2.14769 4.26622 2.0642C4.17044 2.06652 4.12472 2.0271 4.12908 1.94362H3.99193V2.09203C4.15085 2.28914 4.28146 2.4677 4.43166 2.63234C4.62758 2.84336 4.90622 2.99177 5.01942 3.26772C5.04336 3.3257 5.11302 3.40918 5.22622 3.40222C5.36772 3.39295 5.39819 3.52049 5.50704 3.57382C5.50704 3.64803 5.47874 3.73846 5.51357 3.80339C5.58323 3.94021 5.68336 4.06543 5.7835 4.21616V4.5524C5.83139 4.59646 5.8771 4.64052 5.92499 4.6869V5.03938C5.97506 5.09039 6.0186 5.13445 6.0752 5.19011C5.94459 5.45446 6.24499 5.65621 6.22105 5.91129C6.37343 6.05043 6.38649 6.28232 6.61071 6.36116V6.61624C6.56282 6.6603 6.5171 6.70436 6.47574 6.74378V7.46961C6.52581 7.52062 6.56935 7.56468 6.60418 7.59715C6.64989 7.70845 6.55193 7.75251 6.49533 7.83831C6.79139 7.67599 7.17234 7.71773 7.51193 7.75715C7.74268 7.78266 7.99084 7.84527 8.22595 7.82904C8.2869 7.8244 8.34567 7.81281 8.40445 7.80121V7.59483C8.45452 7.54613 8.49806 7.50207 8.54159 7.46033C8.51112 7.3096 8.60255 7.20061 8.66785 7.07771C8.71792 6.98031 8.69397 6.86437 8.78323 6.75306C8.85942 6.65798 8.82023 6.4887 8.83112 6.3658C8.90948 6.29623 8.99438 6.24754 9.03574 6.18029C9.18812 5.93216 9.30132 5.67012 9.47112 5.42896C9.51248 5.36867 9.49506 5.27591 9.50595 5.19938C9.50812 5.18083 9.51901 5.1646 9.52554 5.14605C9.61261 5.03706 9.7737 4.98836 9.79112 4.81444C9.80418 4.6869 10.0371 4.64516 10.0567 4.48979C10.0763 4.33211 10.2809 4.30196 10.3223 4.19297C10.3353 4.0863 10.3353 4.00514 10.3571 3.93093C10.3636 3.91006 10.4311 3.90079 10.4703 3.88688C10.4659 3.80339 10.5117 3.76165 10.6074 3.76629C10.6031 3.68281 10.6488 3.64107 10.7293 3.67817C10.7598 3.5831 10.7489 3.49034 10.8708 3.5715C10.8338 3.59933 10.7968 3.62716 10.7468 3.64339C10.7511 3.72687 10.7054 3.76861 10.6096 3.76397C10.614 3.84745 10.5683 3.88919 10.4725 3.88456C10.4899 3.95876 10.4289 4.04688 10.5443 4.12572C10.9079 3.80571 11.2736 3.48106 11.6415 3.15873C11.7068 3.10076 11.8113 3.05206 11.8287 2.98482C11.9157 2.65321 12.2466 2.56741 12.5231 2.42596C12.7756 2.42596 13.0281 2.42596 13.2806 2.42596C13.2981 2.42596 13.3176 2.44451 13.3699 2.47697C13.4483 2.59524 13.5462 2.74133 13.6594 2.91061V3.47179C13.7073 3.51353 13.74 3.54136 13.7726 3.5715C13.7813 3.70832 13.7879 3.84282 13.7944 3.95644C13.8532 4.00746 13.8836 4.03529 13.9185 4.06543V4.42486C13.9664 4.46892 14.0121 4.51298 14.0556 4.55472V5.6423L14.0491 5.64694Z" fill="#EF90CB"/>
</g>
<defs>
<clipPath id="clip0_44_2374">
<rect width="16" height="17" fill="white"/>
</clipPath>
</defs>
</svg>
