<svg width="24" height="29" viewBox="0 0 24 29" fill="none" xmlns="http://www.w3.org/2000/svg">
<g clip-path="url(#clip0_68_1025)">
<path d="M20.6982 1.44792H21.0019C21.0769 1.51517 21.1479 1.58242 21.215 1.64571C21.2899 1.58242 21.3609 1.51913 21.4635 1.43606C21.495 1.56264 21.5148 1.65758 21.5424 1.77626C21.6607 1.90284 21.8027 2.04921 21.9329 2.19161V2.5239C22.0157 2.75334 22.209 2.91948 22.3984 3.03816C22.5877 3.16079 22.8284 3.20826 22.9625 3.42187V4.03106C23.0335 4.11018 23.1045 4.18534 23.1716 4.25654C23.1716 4.3594 23.1716 4.46225 23.1716 4.58092C23.357 4.9409 23.5463 5.31274 23.7988 5.81118V7.15615C23.8816 7.24318 23.9329 7.29065 23.9881 7.34603V8.79781C23.9329 8.85714 23.8658 8.93231 23.7988 9.00747C23.8619 9.07867 23.929 9.15383 23.996 9.22503V9.83818C23.9211 9.92126 23.854 9.99642 23.7909 10.0637V10.6293C23.7514 10.6847 23.6923 10.7599 23.6094 10.8746C23.499 11.1476 23.7199 11.5273 23.4753 11.8042C23.286 12.0178 23.5108 12.3739 23.1794 12.5163V13.1334C23.1084 13.2125 23.0414 13.2876 22.9664 13.3707V13.7703C22.8954 13.8494 22.8244 13.9245 22.7534 13.9997V14.3992C22.6785 14.4823 22.6114 14.5575 22.5483 14.6247C22.5483 14.8067 22.5483 14.9807 22.5483 15.1508C22.355 15.5227 22.1656 15.8906 21.9408 16.3178C21.9329 16.476 21.9171 16.7094 21.9053 16.9309C21.7791 16.9626 21.6883 16.9863 21.5937 17.0101C21.4161 17.2237 21.5937 17.4768 21.4319 17.8091C21.3688 17.9159 21.2426 18.1414 21.1006 18.3867V18.897C20.8244 19.1066 20.9033 19.4271 20.8954 19.7237C20.6153 19.9532 20.6982 20.2736 20.6903 20.5703C20.3589 20.7681 20.6351 21.2507 20.284 21.4366C20.3629 21.674 20.0473 21.757 20.0749 21.9706C20.1065 22.1961 20.0276 22.3623 19.8658 22.5047C19.9921 22.8409 19.6528 23.0427 19.6292 23.3393C19.3096 23.4818 19.5424 23.8378 19.3491 24.0553C19.1676 24.265 19.0848 24.5617 18.9664 24.8228C18.8599 25.0522 18.7613 25.2935 18.6232 25.5071C18.4852 25.7247 18.4339 25.9858 18.2485 26.1836C18.1183 26.326 18.2998 26.5791 18.0986 26.7413C17.9487 26.864 18.0118 27.1369 17.8027 27.2358C17.8816 27.4732 17.5779 27.5562 17.5897 27.7698C17.6015 28.0823 17.2505 27.8925 17.1518 28.0863C17.0927 28.205 16.9664 28.2841 16.8678 28.383H16.6508C16.5877 28.5175 16.5246 28.6559 16.4576 28.7984L16.2919 28.6322C16.0789 28.6559 16.0315 28.9012 15.6962 28.9922H15.1873C15.0927 28.8735 14.9664 28.7113 14.8718 28.5887C14.7376 28.5887 14.6666 28.5887 14.5996 28.5887C14.4063 28.3949 14.1854 28.2168 14.0236 27.9993C13.8501 27.7659 13.5187 27.8094 13.3727 27.5641C13.1518 27.2002 12.7219 27.1171 12.426 26.8442C12.1222 26.5633 12.0039 26.1717 11.712 25.8869C10.9428 25.1432 10.1972 24.3797 9.44375 23.6202C9.32146 23.4976 9.21101 23.3631 9.07688 23.2602C8.97826 23.1851 8.83625 23.1692 8.72974 23.106C8.64296 23.0545 8.57984 22.9635 8.50884 22.8923V22.4809C8.5759 22.4058 8.64296 22.3346 8.71002 22.2594C8.48517 22.0893 8.09069 22.1091 8.09464 21.6977C7.79878 21.3258 7.48714 20.9738 7.08477 20.7166C7.00588 20.6652 6.88359 20.6534 6.83231 20.5821C6.52856 20.1589 5.99602 20.0362 5.66466 19.6407C5.33329 19.2451 4.94276 18.9009 4.5759 18.537L4.06308 18.0227C3.77116 17.73 3.49503 17.4175 3.18339 17.1485C2.89937 16.9032 2.8757 16.4721 2.52067 16.2941V15.851C2.07491 15.5781 2.03546 15.0242 1.73566 14.6405C1.66466 14.5495 1.68832 14.3834 1.65677 14.1579C1.57393 14.0749 1.38458 13.9562 1.30568 13.7861C1.23862 13.6358 1.2189 13.4696 1.06899 13.3707V12.7497C0.836253 12.627 0.887535 12.3343 0.713965 12.1682C0.54434 12.006 0.784971 11.6737 0.469389 11.5313V10.7599C0.319488 10.5344 0.272151 10.3208 0.216924 10.0953C0.165642 9.88565 -0.00792807 9.69973 0.0354644 9.43469C0.094636 9.36744 0.161697 9.29228 0.236648 9.21317V8.18466C0.169587 8.11345 0.102526 8.03829 0.00390625 7.93149C0.0472988 7.82864 0.0985808 7.71392 0.220869 7.44097V6.74474L0.425997 6.53904V5.74788C0.493058 5.66085 0.556174 5.58174 0.658739 5.4512V4.85387C0.745524 4.76684 0.792861 4.71937 0.852032 4.66004V4.03502C0.80075 3.97568 0.733689 3.90052 0.658739 3.81745C0.926983 3.56032 1.19917 3.3032 1.46742 3.04607C1.39641 2.67422 1.67649 2.42501 1.75144 2.08481C1.97629 2.07294 2.20509 2.06107 2.42994 2.04921C2.78103 1.74065 2.82442 1.17102 3.38458 1.01674C3.4398 1.06025 3.52264 1.11168 3.59365 1.17497C3.67254 1.24222 3.73961 1.32134 3.83823 1.41628H5.12817C5.1755 1.36881 5.22284 1.32134 5.27807 1.26596C5.32541 1.28969 5.37274 1.31343 5.42008 1.34507C5.44769 1.36485 5.47136 1.39254 5.53053 1.45188H7.04533C7.06111 1.71692 7.07294 1.95031 7.08477 2.1837C7.18339 2.2826 7.27807 2.37754 7.37669 2.47643C7.44375 2.47643 7.51475 2.47643 7.58576 2.47643C8.48517 3.37836 9.38063 4.28819 10.2919 5.17825C10.4694 5.34835 10.5404 5.558 10.6587 5.75184C10.7929 5.97336 10.8363 6.24631 11.0848 6.41246C11.282 6.543 11.4319 6.74475 11.6015 6.9188C11.5108 7.1878 11.8935 7.27482 11.8422 7.55569C11.8264 7.62689 12.0236 7.74161 12.1262 7.8405C12.2682 7.54382 12.5049 7.27482 12.4773 6.90298C12.6232 6.76057 12.8047 6.87133 12.9664 6.82782C13.1361 6.70519 13.0256 6.42828 13.2544 6.32543C13.4556 6.23445 13.4635 6.00501 13.5463 5.83095C13.641 5.80722 13.7357 5.77953 13.8303 5.75579C13.8816 5.49867 14.0197 5.26923 14.142 5.05957C14.2919 4.8064 14.4023 4.54532 14.5128 4.27632C14.6114 4.03106 14.9822 3.95986 14.927 3.61966C15.1518 3.33484 15.5345 3.17265 15.5818 2.75334C15.854 2.49226 16.1262 2.23117 16.3708 1.99778C16.3787 1.87515 16.3826 1.8079 16.3865 1.70505C16.8086 1.78021 16.8915 1.19871 17.3096 1.2264C17.495 0.925757 17.854 0.858509 18.1065 0.644895C18.3826 0.411503 18.6903 0.221624 19.0098 -0.0078125H19.3925C19.5108 0.249315 19.6292 0.514354 19.7633 0.811039H20.6153C20.781 1.02861 20.6864 1.24222 20.714 1.44001C20.5798 1.47957 20.3944 1.34112 20.3195 1.56264C20.5009 1.6233 20.6324 1.58242 20.714 1.44001L20.6982 1.44792ZM8.09069 6.42037C8.08675 6.56278 8.15381 6.63398 8.29582 6.62607C8.26821 6.75266 8.36288 6.90298 8.18931 7.03748C7.64493 6.49157 7.09266 5.93776 6.54434 5.3879C6.44572 5.28901 6.28793 5.20594 6.26426 5.09122C6.13014 4.52554 5.63704 4.37917 5.22284 4.13787C4.84414 4.13787 4.46544 4.13787 4.08675 4.13787C4.05913 4.13787 4.03152 4.16952 3.95262 4.2249C3.83428 4.42664 3.68832 4.67586 3.5187 4.96463V5.92194C3.44769 5.99314 3.40036 6.04061 3.34907 6.09204C3.33724 6.32543 3.3254 6.55487 3.31357 6.7487C3.22679 6.83573 3.17945 6.8832 3.12817 6.93462V7.54777C3.05716 7.62293 2.9901 7.69809 2.92304 7.7693V9.62457C2.99799 9.70369 3.06505 9.77885 3.13606 9.85796V10.3168C3.33724 10.9102 3.68043 11.2702 3.75933 11.7726C3.79089 11.9862 3.87767 12.2473 4.03152 12.3699C4.28793 12.5756 4.07886 12.8723 4.29187 13.1096C4.53645 13.3786 4.6114 13.7979 4.78892 14.1342C4.87965 14.3043 4.95065 14.4902 5.05322 14.6445C5.20312 14.87 5.41613 15.0598 5.62915 15.2339C5.84612 15.4119 5.83428 15.7126 6.05519 15.8906C6.3471 16.1279 6.59562 16.4206 6.86387 16.6896L7.66466 17.4927C7.6686 17.9318 8.13408 18.0386 8.28399 18.3471C8.29582 18.5054 8.26032 18.6873 8.33132 18.7625C8.51673 18.9563 8.52856 19.253 8.75341 19.4231C8.94276 19.5655 9.08083 19.7791 9.27412 19.9255C9.50292 20.0956 9.47925 20.4279 9.71199 20.5703C9.9329 20.7048 9.86978 21.0766 10.0828 21.1083C10.3708 21.1518 10.4536 21.3852 10.643 21.5118C10.6587 21.5197 10.6903 21.5038 10.714 21.4999C10.8086 21.3575 10.7297 21.0529 11.0256 21.1201C11.7751 21.8717 12.5009 22.5996 13.2465 23.3473C13.2386 23.6795 13.5858 23.7943 13.7712 24.0197C13.9447 24.2334 14.1538 24.4153 14.351 24.6092C14.568 24.8267 14.7889 25.0483 15.0098 25.2698H15.4556C15.5029 25.2144 15.566 25.1353 15.637 25.0601C15.7751 24.9177 15.7199 24.6606 15.929 24.5617C15.8658 24.3283 16.1499 24.2413 16.1459 24.0316C16.1459 23.822 16.4299 23.7349 16.3629 23.5015C16.572 23.3749 16.5443 23.1692 16.568 22.9635C16.5877 22.7776 16.781 22.6589 16.785 22.4295C16.785 22.2238 16.8796 21.939 17.0335 21.8282C17.3136 21.6265 17.0493 21.2902 17.3057 21.0964C17.4477 20.9896 17.4398 20.7483 17.5818 20.5901C17.6765 20.4872 17.5108 20.2459 17.6765 20.1193C17.8856 19.965 17.7475 19.7356 17.8185 19.5576C17.9408 19.435 18.0631 19.3123 18.1854 19.1937C18.2761 19.0196 18.138 18.802 18.3234 18.624C18.4536 18.4974 18.5088 18.2917 18.6272 18.0623V17.5164C18.6982 17.4412 18.7652 17.3661 18.8402 17.287V16.8874C18.9151 16.8044 18.9822 16.7292 19.0414 16.6619C19.0532 16.4523 19.0019 16.2585 19.1952 16.0884C19.3254 15.9736 19.3609 15.7521 19.4753 15.4989V14.7829C19.7317 14.6405 19.6489 14.415 19.6607 14.2054C19.7238 14.1381 19.7909 14.063 19.8619 13.9799V13.5804C19.9329 13.5013 20.0039 13.4261 20.0749 13.3509V12.7417C20.1459 12.6626 20.2169 12.5875 20.28 12.5163C20.2288 12.0772 20.5009 11.7726 20.71 11.4047V10.0241C20.7771 9.95686 20.8244 9.90939 20.8757 9.85796V5.66877C20.8047 5.59756 20.7574 5.55009 20.6982 5.49076V5.09913C20.6114 4.98837 20.5325 4.88552 20.4339 4.75498C20.5246 4.6363 20.6035 4.53741 20.6587 4.46225C20.3905 3.93612 20.1222 3.42583 19.8619 2.91157C19.8461 2.88388 19.854 2.84037 19.8619 2.80872C19.8698 2.77707 19.8974 2.75334 19.925 2.71378C20.0157 2.76125 20.1104 2.80476 20.209 2.85619C20.3116 2.7296 20.3077 2.61093 20.1972 2.50017H19.3175C19.1716 2.64653 19.0532 2.76916 18.9309 2.89179H18.6193C18.6193 2.82454 18.6193 2.75334 18.5601 2.70982C18.7219 2.66236 18.8796 2.67818 18.7416 2.49621C18.6942 2.55159 18.6469 2.61093 18.6193 2.68609C18.2998 2.65444 18.0789 2.77312 18 3.10145C17.858 3.09749 17.7869 3.16474 17.7948 3.30715C17.6528 3.3032 17.5818 3.37044 17.5897 3.51285C17.4477 3.5089 17.3767 3.57615 17.3846 3.71855C17.2426 3.7146 17.1716 3.78185 17.1794 3.92426C17.1124 3.92426 17.0414 3.92426 16.9743 3.92426C16.9428 3.72251 16.7968 3.62362 16.639 3.53659C16.6114 3.59197 16.5601 3.64735 16.568 3.69878C16.5798 3.78185 16.6272 3.85701 16.6548 3.92426H16.9783C17.0019 3.97964 17.0138 4.08249 17.0493 4.0904C17.1716 4.11809 17.1952 4.02711 17.1873 3.92426C17.3293 3.92821 17.4004 3.86096 17.3925 3.71855C17.5345 3.72251 17.6055 3.65526 17.5976 3.51285C17.7396 3.51681 17.8106 3.44956 17.8027 3.30715H18.0079V3.56032C17.7712 3.89657 17.5739 4.20116 17.3491 4.48203C17.0572 4.842 16.6351 5.09517 16.4654 5.56592C16.4299 5.66481 16.3274 5.80722 16.1578 5.79535C15.9487 5.77953 15.9013 5.9971 15.7357 6.08808C15.7357 6.21467 15.7751 6.36894 15.7278 6.47971C15.6252 6.7131 15.4753 6.92671 15.3215 7.18384V7.75743C15.2505 7.83259 15.1794 7.90775 15.1084 7.98687V8.58815C15.0335 8.67518 14.9664 8.75034 14.8836 8.84528C15.0808 9.29624 14.6272 9.64039 14.6666 10.0755C14.4378 10.3129 14.4181 10.7085 14.0828 10.843V11.2781C14.1538 11.3533 14.2248 11.4284 14.284 11.4957V12.7338C14.209 12.8209 14.142 12.896 14.0907 12.9514C14.0079 13.1888 14.2564 13.2441 14.3037 13.4815V15.6532L14.4694 15.8194V16.4918C14.351 16.6026 14.2524 16.6936 14.1775 16.7648C13.9842 16.8004 13.7988 16.6975 13.6883 16.8439C13.6647 16.9665 13.6449 17.0615 13.6213 17.1643H13.0019C12.8047 17.0575 12.6942 16.9982 12.5996 16.9468C12.4576 17.0496 12.355 17.1287 12.2327 17.2197C12.138 17.1564 12.0631 17.0931 11.9802 17.0496C11.8658 16.9942 11.7436 16.9547 11.6292 16.9072C11.5897 16.6659 11.5384 16.4286 11.7988 16.2624C11.7357 16.1912 11.6686 16.116 11.6015 16.0409V15.4317C11.5305 15.3565 11.4635 15.2814 11.3885 15.2023V12.9395C11.3136 12.8565 11.2465 12.7813 11.1834 12.7101C11.2268 12.453 11.0927 12.267 10.994 12.0574C10.9191 11.8912 10.9546 11.6935 10.8205 11.5036C10.7061 11.3414 10.7652 11.0526 10.7495 10.843C10.6311 10.7243 10.5049 10.6452 10.4418 10.5265C10.213 10.1032 10.0434 9.65622 9.78694 9.24481C9.72383 9.14196 9.75144 8.98373 9.73566 8.85319C9.73566 8.82154 9.71594 8.79385 9.70805 8.76221C9.57787 8.57628 9.33724 8.49321 9.30963 8.19653C9.2899 7.97896 8.93882 7.90775 8.9112 7.64271C8.88359 7.37372 8.57195 7.32229 8.51278 7.13637C8.49306 6.9544 8.49306 6.81595 8.45755 6.68936C8.44967 6.65376 8.3471 6.63794 8.28793 6.6142C8.29187 6.47179 8.22481 6.40059 8.0828 6.4085C8.08675 6.26609 8.01969 6.19489 7.90134 6.25818C7.854 6.09599 7.86978 5.93776 7.68832 6.07621C7.74355 6.12368 7.80272 6.17115 7.87767 6.19884C7.87373 6.34125 7.94079 6.41246 8.0828 6.40455L8.09069 6.42037ZM14.4102 26.0847C14.426 26.057 14.4615 26.0056 14.5325 25.8948C14.2524 25.5942 14.1972 25.1036 13.712 24.89C13.6923 24.9889 13.6725 25.0839 13.6449 25.2223C13.7869 25.3331 13.9447 25.4557 14.0907 25.5744C14.0039 25.6812 13.9447 25.7484 13.8895 25.8157C14.071 25.9106 14.2406 25.9976 14.4102 26.0886V26.0847ZM19.5621 16.1596C19.4635 16.2664 19.3491 16.3653 19.2505 16.48V16.8993C19.1834 16.9547 19.1124 17.0219 18.9862 17.1327C19.1518 17.1643 19.2662 17.1841 19.3688 17.2039C19.4793 16.9982 19.4793 16.7846 19.6844 16.6659C19.6094 16.5235 19.7475 16.3415 19.5621 16.1596ZM13.641 7.8405C13.7041 8.13719 13.6055 8.31124 13.7317 8.45761C13.9211 8.49321 14.1144 8.57233 14.284 8.39827V8.20048C14.2406 8.16488 14.1972 8.11345 14.142 8.08576C14.0591 8.04621 13.9684 8.02247 13.8816 7.98687C13.8303 7.96709 13.7869 7.93149 13.637 7.84446L13.641 7.8405ZM21.5226 12.9277C21.4437 12.896 21.357 12.8604 21.2426 12.8169C21.14 12.9435 21.0374 13.0661 20.9388 13.1888C21.1163 13.3232 21.3215 13.3351 21.5226 13.1531V12.9277ZM16.3589 25.3845C16.2209 25.2342 16.0828 25.2342 15.9447 25.3845C16.0828 25.5348 16.2209 25.5348 16.3589 25.3845ZM20.209 2.10063C20.1656 2.12437 20.1222 2.1481 20.0749 2.17579C20.0986 2.19953 20.1262 2.24304 20.142 2.23908C20.1893 2.22722 20.2366 2.19557 20.28 2.17579C20.2564 2.15206 20.2327 2.12832 20.2051 2.10063H20.209ZM20.284 13.9878C20.2603 13.9641 20.2327 13.9206 20.2169 13.9245C20.1696 13.9364 20.1222 13.968 20.0789 13.9878C20.1025 14.0116 20.1301 14.0551 20.1459 14.0511C20.1933 14.0392 20.2406 14.0076 20.284 13.9878Z" fill="#002BFF"/>
<path d="M18.0117 3.31508V3.10938H18.4259C18.3825 3.17662 18.351 3.27947 18.2879 3.30717C18.209 3.34277 18.1064 3.31508 18.0117 3.31508Z" fill="#002BFF"/>
<path d="M18.422 3.10571C18.4181 2.9633 18.4852 2.8921 18.6272 2.90001C18.6311 3.04242 18.5641 3.11362 18.422 3.10571Z" fill="#002BFF"/>
</g>
<defs>
<clipPath id="clip0_68_1025">
<rect width="24" height="29" fill="white"/>
</clipPath>
</defs>
</svg>
