<svg width="24" height="29" viewBox="0 0 24 29" fill="none" xmlns="http://www.w3.org/2000/svg">
<path d="M3.29791 1.44792H2.99416C2.91921 1.51517 2.8482 1.58242 2.78114 1.64571C2.70619 1.58242 2.63519 1.51913 2.53262 1.43606C2.50106 1.56264 2.48134 1.65758 2.45373 1.77626C2.33538 1.90284 2.19337 2.04921 2.06319 2.19161V2.5239C1.98035 2.75334 1.78706 2.91948 1.59771 3.03816C1.40836 3.16079 1.16773 3.20826 1.03361 3.42187V4.03106C0.962603 4.11018 0.891596 4.18534 0.824533 4.25654C0.824533 4.3594 0.824533 4.46225 0.824533 4.58092C0.63913 4.9409 0.44978 5.31274 0.197315 5.81118V7.15615C0.114475 7.24318 0.0631924 7.29065 0.00796509 7.34603V8.79781C0.0631924 8.85714 0.130253 8.93231 0.197315 9.00747C0.134199 9.07867 0.0671368 9.15383 7.62939e-05 9.22503V9.83818C0.0750275 9.92126 0.142088 9.99642 0.205204 10.0637V10.6293C0.244652 10.6847 0.303825 10.7599 0.386665 10.8746C0.49712 11.1476 0.276213 11.5273 0.520788 11.8042C0.710136 12.0178 0.485285 12.3739 0.816647 12.5163V13.1334C0.887651 13.2125 0.954712 13.2876 1.02966 13.3707V13.7703C1.10067 13.8494 1.17167 13.9245 1.24268 13.9997V14.3992C1.31763 14.4823 1.38469 14.5575 1.44781 14.6247C1.44781 14.8067 1.44781 14.9807 1.44781 15.1508C1.6411 15.5227 1.83045 15.8906 2.0553 16.3178C2.06319 16.476 2.07897 16.7094 2.09081 16.9309C2.21704 16.9626 2.30777 16.9863 2.40244 17.0101C2.57996 17.2237 2.40244 17.4768 2.56418 17.8091C2.62729 17.9159 2.75353 18.1414 2.89554 18.3867V18.897C3.17167 19.1066 3.09278 19.4271 3.10067 19.7237C3.38075 19.9532 3.29791 20.2736 3.3058 20.5703C3.63716 20.7681 3.36102 21.2507 3.71211 21.4366C3.63321 21.674 3.9488 21.757 3.92118 21.9706C3.88962 22.1961 3.96852 22.3623 4.13025 22.5047C4.00402 22.8409 4.34327 23.0427 4.36694 23.3393C4.68647 23.4818 4.45373 23.8378 4.64702 24.0553C4.82848 24.265 4.91132 24.5617 5.02966 24.8228C5.13617 25.0522 5.23479 25.2935 5.37286 25.5071C5.51093 25.7247 5.56221 25.9858 5.74761 26.1836C5.87779 26.326 5.69633 26.5791 5.89751 26.7413C6.04741 26.864 5.9843 27.1369 6.19337 27.2358C6.11448 27.4732 6.41822 27.5562 6.40639 27.7698C6.39455 28.0823 6.74564 27.8925 6.84426 28.0863C6.90343 28.205 7.02966 28.2841 7.12828 28.383H7.34525C7.40836 28.5175 7.47148 28.6559 7.53854 28.7984L7.70422 28.6322C7.91724 28.6559 7.96457 28.9012 8.29988 28.9922H8.80875C8.90343 28.8735 9.02966 28.7113 9.12434 28.5887C9.25846 28.5887 9.32947 28.5887 9.39653 28.5887C9.58982 28.3949 9.81073 28.2168 9.97246 27.9993C10.146 27.7659 10.4774 27.8094 10.6234 27.5641C10.8443 27.2002 11.2742 27.1171 11.5701 26.8442C11.8738 26.5633 11.9922 26.1717 12.2841 25.8869C13.0533 25.1432 13.7989 24.3797 14.5523 23.6202C14.6746 23.4976 14.7851 23.3631 14.9192 23.2602C15.0178 23.1851 15.1598 23.1692 15.2663 23.106C15.3531 23.0545 15.4163 22.9635 15.4873 22.8923V22.4809C15.4202 22.4058 15.3531 22.3346 15.2861 22.2594C15.5109 22.0893 15.9054 22.1091 15.9015 21.6977C16.1973 21.3258 16.509 20.9738 16.9113 20.7166C16.9902 20.6652 17.1125 20.6534 17.1638 20.5821C17.4675 20.1589 18.0001 20.0362 18.3314 19.6407C18.6628 19.2451 19.0533 18.9009 19.4202 18.537L19.933 18.0227C20.2249 17.73 20.5011 17.4175 20.8127 17.1485C21.0967 16.9032 21.1204 16.4721 21.4754 16.2941V15.851C21.9212 15.5781 21.9606 15.0242 22.2604 14.6405C22.3314 14.5495 22.3078 14.3834 22.3393 14.1579C22.4222 14.0749 22.6115 13.9562 22.6904 13.7861C22.7575 13.6358 22.7772 13.4696 22.9271 13.3707V12.7497C23.1598 12.627 23.1086 12.3343 23.2821 12.1682C23.4518 12.006 23.2111 11.6737 23.5267 11.5313V10.7599C23.6766 10.5344 23.7239 10.3208 23.7792 10.0953C23.8305 9.88565 24.004 9.69973 23.9606 9.43469C23.9015 9.36744 23.8344 9.29228 23.7594 9.21317V8.18466C23.8265 8.11345 23.8936 8.03829 23.9922 7.93149C23.9488 7.82864 23.8975 7.71392 23.7752 7.44097V6.74474L23.5701 6.53904V5.74788C23.503 5.66085 23.4399 5.58174 23.3374 5.4512V4.85387C23.2506 4.76684 23.2032 4.71937 23.1441 4.66004V4.03502C23.1953 3.97568 23.2624 3.90052 23.3374 3.81745C23.0691 3.56032 22.7969 3.3032 22.5287 3.04607C22.5997 2.67422 22.3196 2.42501 22.2447 2.08481C22.0198 2.07294 21.791 2.06107 21.5662 2.04921C21.2151 1.74065 21.1717 1.17102 20.6115 1.01674C20.5563 1.06025 20.4735 1.11168 20.4024 1.17497C20.3235 1.24222 20.2565 1.32134 20.1579 1.41628H18.8679C18.8206 1.36881 18.7733 1.32134 18.718 1.26596C18.6707 1.28969 18.6234 1.31343 18.576 1.34507C18.5484 1.36485 18.5247 1.39254 18.4656 1.45188H16.9508C16.935 1.71692 16.9232 1.95031 16.9113 2.1837C16.8127 2.2826 16.718 2.37754 16.6194 2.47643C16.5523 2.47643 16.4813 2.47643 16.4103 2.47643C15.5109 3.37836 14.6155 4.28819 13.7042 5.17825C13.5267 5.34835 13.4557 5.558 13.3374 5.75184C13.2032 5.97336 13.1598 6.24631 12.9113 6.41246C12.7141 6.543 12.5642 6.74475 12.3946 6.9188C12.4853 7.1878 12.1026 7.27482 12.1539 7.55569C12.1697 7.62689 11.9725 7.74161 11.8699 7.8405C11.7279 7.54382 11.4912 7.27482 11.5188 6.90298C11.3729 6.76057 11.1914 6.87133 11.0297 6.82782C10.86 6.70519 10.9705 6.42828 10.7417 6.32543C10.5405 6.23445 10.5326 6.00501 10.4498 5.83095C10.3551 5.80722 10.2604 5.77953 10.1658 5.75579C10.1145 5.49867 9.97641 5.26923 9.85412 5.05957C9.70422 4.8064 9.59376 4.54532 9.48331 4.27632C9.38469 4.03106 9.01388 3.95986 9.06911 3.61966C8.84426 3.33484 8.46162 3.17265 8.41428 2.75334C8.14209 2.49226 7.8699 2.23117 7.62532 1.99778C7.61743 1.87515 7.61349 1.8079 7.60954 1.70505C7.18745 1.78021 7.10461 1.19871 6.68647 1.2264C6.50106 0.925757 6.14209 0.858509 5.88962 0.644895C5.61349 0.411503 5.3058 0.221624 4.98627 -0.0078125H4.60363C4.48528 0.249315 4.36694 0.514354 4.23282 0.811039H3.38075C3.21507 1.02861 3.30974 1.24222 3.28213 1.44001C3.41625 1.47957 3.60166 1.34112 3.67661 1.56264C3.49515 1.6233 3.36366 1.58242 3.28213 1.44001L3.29791 1.44792ZM15.9054 6.42037C15.9093 6.56278 15.8423 6.63398 15.7003 6.62607C15.7279 6.75266 15.6332 6.90298 15.8068 7.03748C16.3512 6.49157 16.9034 5.93776 17.4518 5.3879C17.5504 5.28901 17.7082 5.20594 17.7318 5.09122C17.866 4.52554 18.3591 4.37917 18.7733 4.13787C19.152 4.13787 19.5306 4.13787 19.9093 4.13787C19.937 4.13787 19.9646 4.16952 20.0435 4.2249C20.1618 4.42664 20.3078 4.67586 20.4774 4.96463V5.92194C20.5484 5.99314 20.5957 6.04061 20.647 6.09204C20.6589 6.32543 20.6707 6.55487 20.6825 6.7487C20.7693 6.83573 20.8166 6.8832 20.8679 6.93462V7.54777C20.9389 7.62293 21.006 7.69809 21.0731 7.7693V9.62457C20.9981 9.70369 20.931 9.77885 20.86 9.85796V10.3168C20.6589 10.9102 20.3157 11.2702 20.2368 11.7726C20.2052 11.9862 20.1184 12.2473 19.9646 12.3699C19.7082 12.5756 19.9172 12.8723 19.7042 13.1096C19.4596 13.3786 19.3847 13.7979 19.2072 14.1342C19.1164 14.3043 19.0454 14.4902 18.9429 14.6445C18.793 14.87 18.58 15.0598 18.3669 15.2339C18.15 15.4119 18.1618 15.7126 17.9409 15.8906C17.649 16.1279 17.4005 16.4206 17.1322 16.6896L16.3314 17.4927C16.3275 17.9318 15.862 18.0386 15.7121 18.3471C15.7003 18.5054 15.7358 18.6873 15.6648 18.7625C15.4794 18.9563 15.4675 19.253 15.2427 19.4231C15.0533 19.5655 14.9153 19.7791 14.722 19.9255C14.4932 20.0956 14.5168 20.4279 14.2841 20.5703C14.0632 20.7048 14.1263 21.0766 13.9133 21.1083C13.6253 21.1518 13.5425 21.3852 13.3531 21.5118C13.3374 21.5197 13.3058 21.5038 13.2821 21.4999C13.1875 21.3575 13.2663 21.0529 12.9705 21.1201C12.221 21.8717 11.4951 22.5996 10.7496 23.3473C10.7575 23.6795 10.4103 23.7943 10.2249 24.0197C10.0514 24.2334 9.84229 24.4153 9.64505 24.6092C9.42808 24.8267 9.20718 25.0483 8.98627 25.2698H8.54051C8.49317 25.2144 8.43006 25.1353 8.35905 25.0601C8.22098 24.9177 8.27621 24.6606 8.06714 24.5617C8.13025 24.3283 7.84623 24.2413 7.85018 24.0316C7.85018 23.822 7.56615 23.7349 7.63321 23.5015C7.42414 23.3749 7.45175 23.1692 7.42809 22.9635C7.40836 22.7776 7.21507 22.6589 7.21112 22.4295C7.21112 22.2238 7.11645 21.939 6.9626 21.8282C6.68252 21.6265 6.94682 21.2902 6.69041 21.0964C6.5484 20.9896 6.55629 20.7483 6.41428 20.5901C6.3196 20.4872 6.48528 20.2459 6.3196 20.1193C6.11053 19.965 6.2486 19.7356 6.17759 19.5576C6.0553 19.435 5.93302 19.3123 5.81073 19.1937C5.72 19.0196 5.85806 18.802 5.67266 18.624C5.54248 18.4974 5.48726 18.2917 5.36891 18.0623V17.5164C5.29791 17.4412 5.23085 17.3661 5.1559 17.287V16.8874C5.08095 16.8044 5.01388 16.7292 4.95471 16.6619C4.94288 16.4523 4.99416 16.2585 4.80087 16.0884C4.67069 15.9736 4.63519 15.7521 4.52079 15.4989V14.7829C4.26438 14.6405 4.34722 14.415 4.33538 14.2054C4.27227 14.1381 4.20521 14.063 4.1342 13.9799V13.5804C4.06319 13.5013 3.99219 13.4261 3.92118 13.3509V12.7417C3.85018 12.6626 3.77917 12.5875 3.71605 12.5163C3.76734 12.0772 3.49515 11.7726 3.28607 11.4047V10.0241C3.21901 9.95686 3.17167 9.90939 3.12039 9.85796V5.66877C3.1914 5.59756 3.23874 5.55009 3.29791 5.49076V5.09913C3.38469 4.98837 3.46359 4.88552 3.56221 4.75498C3.47148 4.6363 3.39258 4.53741 3.33735 4.46225C3.6056 3.93612 3.87384 3.42583 4.1342 2.91157C4.14998 2.88388 4.14209 2.84037 4.1342 2.80872C4.12631 2.77707 4.0987 2.75334 4.07108 2.71378C3.98035 2.76125 3.88568 2.80476 3.78706 2.85619C3.6845 2.7296 3.68844 2.61093 3.79889 2.50017H4.67858C4.82453 2.64653 4.94288 2.76916 5.06516 2.89179H5.3768C5.3768 2.82454 5.3768 2.75334 5.43597 2.70982C5.27424 2.66236 5.11645 2.67818 5.25451 2.49621C5.30185 2.55159 5.34919 2.61093 5.3768 2.68609C5.69633 2.65444 5.91724 2.77312 5.99613 3.10145C6.13814 3.09749 6.20915 3.16474 6.20126 3.30715C6.34327 3.3032 6.41428 3.37044 6.40639 3.51285C6.5484 3.5089 6.61941 3.57615 6.61152 3.71855C6.75353 3.7146 6.82454 3.78185 6.81664 3.92426C6.88371 3.92426 6.95471 3.92426 7.02177 3.92426C7.05333 3.72251 7.19929 3.62362 7.35708 3.53659C7.38469 3.59197 7.43597 3.64735 7.42809 3.69878C7.41625 3.78185 7.36891 3.85701 7.3413 3.92426H7.01783C6.99416 3.97964 6.98232 4.08249 6.94682 4.0904C6.82453 4.11809 6.80087 4.02711 6.80876 3.92426C6.66674 3.92821 6.59574 3.86096 6.60363 3.71855C6.46161 3.72251 6.39061 3.65526 6.3985 3.51285C6.25649 3.51681 6.18548 3.44956 6.19337 3.30715H5.98824V3.56032C6.22493 3.89657 6.42217 4.20116 6.64702 4.48203C6.93893 4.842 7.36102 5.09517 7.53065 5.56592C7.56615 5.66481 7.66872 5.80722 7.83834 5.79535C8.04741 5.77953 8.09475 5.9971 8.26043 6.08808C8.26043 6.21467 8.22098 6.36894 8.26832 6.47971C8.37089 6.7131 8.52079 6.92671 8.67463 7.18384V7.75743C8.74564 7.83259 8.81664 7.90775 8.88765 7.98687V8.58815C8.9626 8.67518 9.02966 8.75034 9.1125 8.84528C8.91526 9.29624 9.36891 9.64039 9.32946 10.0755C9.55826 10.3129 9.57799 10.7085 9.91329 10.843V11.2781C9.84229 11.3533 9.77128 11.4284 9.71211 11.4957V12.7338C9.78706 12.8209 9.85412 12.896 9.9054 12.9514C9.98824 13.1888 9.73972 13.2441 9.69238 13.4815V15.6532L9.5267 15.8194V16.4918C9.64505 16.6026 9.74367 16.6936 9.81862 16.7648C10.0119 16.8004 10.1973 16.6975 10.3078 16.8439C10.3314 16.9665 10.3512 17.0615 10.3748 17.1643H10.9942C11.1914 17.0575 11.3019 16.9982 11.3965 16.9468C11.5385 17.0496 11.6411 17.1287 11.7634 17.2197C11.8581 17.1564 11.933 17.0931 12.0159 17.0496C12.1303 16.9942 12.2525 16.9547 12.3669 16.9072C12.4064 16.6659 12.4577 16.4286 12.1973 16.2624C12.2604 16.1912 12.3275 16.116 12.3946 16.0409V15.4317C12.4656 15.3565 12.5326 15.2814 12.6076 15.2023V12.9395C12.6825 12.8565 12.7496 12.7813 12.8127 12.7101C12.7693 12.453 12.9034 12.267 13.002 12.0574C13.077 11.8912 13.0415 11.6935 13.1756 11.5036C13.29 11.3414 13.2308 11.0526 13.2466 10.843C13.365 10.7243 13.4912 10.6452 13.5543 10.5265C13.7831 10.1032 13.9527 9.65622 14.2092 9.24481C14.2723 9.14196 14.2447 8.98373 14.2604 8.85319C14.2604 8.82154 14.2802 8.79385 14.288 8.76221C14.4182 8.57628 14.6589 8.49321 14.6865 8.19653C14.7062 7.97896 15.0573 7.90775 15.0849 7.64271C15.1125 7.37372 15.4241 7.32229 15.4833 7.13637C15.503 6.9544 15.503 6.81595 15.5385 6.68936C15.5464 6.65376 15.649 6.63794 15.7082 6.6142C15.7042 6.47179 15.7713 6.40059 15.9133 6.4085C15.9093 6.26609 15.9764 6.19489 16.0948 6.25818C16.1421 6.09599 16.1263 5.93776 16.3078 6.07621C16.2525 6.12368 16.1934 6.17115 16.1184 6.19884C16.1224 6.34125 16.0553 6.41246 15.9133 6.40455L15.9054 6.42037ZM9.58588 26.0847C9.5701 26.057 9.53459 26.0056 9.46359 25.8948C9.74367 25.5942 9.79889 25.1036 10.2841 24.89C10.3038 24.9889 10.3235 25.0839 10.3512 25.2223C10.2091 25.3331 10.0514 25.4557 9.9054 25.5744C9.99219 25.6812 10.0514 25.7484 10.1066 25.8157C9.92513 25.9106 9.7555 25.9976 9.58588 26.0886V26.0847ZM4.434 16.1596C4.53262 16.2664 4.64702 16.3653 4.74564 16.48V16.8993C4.8127 16.9547 4.88371 17.0219 5.00994 17.1327C4.84426 17.1643 4.72986 17.1841 4.6273 17.2039C4.51684 16.9982 4.51684 16.7846 4.31171 16.6659C4.38666 16.5235 4.2486 16.3415 4.434 16.1596ZM10.3551 7.8405C10.292 8.13719 10.3906 8.31124 10.2644 8.45761C10.075 8.49321 9.88173 8.57233 9.71211 8.39827V8.20048C9.7555 8.16488 9.79889 8.11345 9.85412 8.08576C9.93696 8.04621 10.0277 8.02247 10.1145 7.98687C10.1658 7.96709 10.2091 7.93149 10.3591 7.84446L10.3551 7.8405ZM2.47345 12.9277C2.55235 12.896 2.63913 12.8604 2.75353 12.8169C2.85609 12.9435 2.95866 13.0661 3.05728 13.1888C2.87976 13.3232 2.67463 13.3351 2.47345 13.1531V12.9277ZM7.63716 25.3845C7.77522 25.2342 7.91329 25.2342 8.05136 25.3845C7.91329 25.5348 7.77522 25.5348 7.63716 25.3845ZM3.78706 2.10063C3.83045 2.12437 3.87384 2.1481 3.92118 2.17579C3.89751 2.19953 3.8699 2.24304 3.85412 2.23908C3.80678 2.22722 3.75945 2.19557 3.71605 2.17579C3.73972 2.15206 3.76339 2.12832 3.791 2.10063H3.78706ZM3.71211 13.9878C3.73578 13.9641 3.76339 13.9206 3.77917 13.9245C3.82651 13.9364 3.87384 13.968 3.91724 13.9878C3.89357 14.0116 3.86596 14.0551 3.85018 14.0511C3.80284 14.0392 3.7555 14.0076 3.71211 13.9878Z" fill="#002BFF"/>
</svg>
