<svg width="50" height="50" viewBox="0 0 50 50" fill="none" xmlns="http://www.w3.org/2000/svg">
<path d="M45.2542 22.6349C42.9548 20.9411 40.1984 21.0703 37.5001 21.6445C39.0234 20.6396 40.329 19.3262 41.0906 17.6826C42.4035 14.8619 41.9683 11.3379 39.3715 9.40721C36.6151 7.36169 32.5531 7.00282 29.7895 9.13447C28.7595 9.92397 27.403 11.4886 26.5834 13.1107C26.7792 11.8547 26.9896 10.5986 26.7647 9.32108C26.4818 7.72055 25.6404 6.01953 24.4943 4.84964C22.5068 2.82565 19.4458 2.55291 16.878 3.59362C10.4513 6.19897 10.444 15.1131 15.2242 19.2616C10.0669 17.0654 0.209187 18.8812 1.05061 26.0513C1.834 32.7262 9.33425 32.8338 14.6294 31.1759C10.0161 35.2239 5.96131 42.2217 11.8585 46.5424C14.1507 48.2219 17.2625 48.4803 19.7867 47.1597C22.0789 45.9611 23.1669 43.9227 23.5949 41.6332C24.7845 46.0329 30.377 48.8894 34.9976 46.6501C40.4596 44.0017 37.2099 36.8316 33.6194 33.1138C38.813 35.389 47.4085 35.9201 48.852 30.1639C49.5774 27.2643 47.5173 24.3001 45.2615 22.6349H45.2542ZM30.4568 10.1178C33.1769 8.1153 38.298 8.70384 40.0389 11.9121C42.2004 15.8883 39.328 18.9889 36.0711 21.0057C36.5209 20.4028 36.9125 19.7353 37.2027 19.0032C38.2037 16.5055 37.9861 13.2758 35.6939 11.5173C32.9811 9.42156 29.6517 11.0867 27.8092 13.448C27.3885 13.9935 26.9968 14.5892 26.6342 15.2065C27.3087 13.2973 29.1584 11.0723 30.4496 10.1106L30.4568 10.1178ZM27.744 15.5223C29.5646 12.6944 34.0473 9.40003 36.1436 14.1155C38.5301 19.4769 32.3137 23.0512 28.1502 24.4723C28.1139 24.2642 28.0704 24.056 28.0051 23.8622C27.6061 22.599 26.3948 21.8167 25.1109 21.6516C25.1399 21.6014 25.1472 21.5368 25.1254 21.4722C25.4373 20.5033 25.7129 19.4913 25.9088 18.4506C26.5181 17.3094 27.3015 16.1969 27.7367 15.5223H27.744ZM19.8012 28.5275C19.6634 28.4198 19.4748 28.3768 19.3007 28.4916C19.1774 28.5705 19.0614 28.671 18.9381 28.75C18.5899 28.8433 18.2054 28.9366 17.8065 29.0371C17.7122 29.0084 17.5889 29.0155 17.4656 29.0873C17.4365 29.1017 17.4075 29.1232 17.3713 29.1447C12.7725 30.25 5.91778 31.262 6.04835 25.3192C6.17891 19.6348 14.6657 19.9363 19.1774 21.9172C19.5836 22.1756 20.0043 22.4053 20.4395 22.5847C20.5846 22.678 20.7224 22.7713 20.8457 22.8718C19.823 23.69 19.1702 25.1254 19.1992 26.4532C19.2209 27.214 19.4386 27.9246 19.794 28.5347L19.8012 28.5275ZM18.9671 20.5822C17.85 19.6635 16.8925 18.5439 16.2324 17.3237C14.7672 14.6036 14.8542 10.5053 18.1909 9.14883C21.5421 7.78515 24.3275 10.8068 24.9658 13.7853C25.3575 15.6227 25.0891 17.4529 24.6467 19.2473C24.4943 19.642 24.3855 20.0009 24.3565 20.3597C24.2332 20.8047 24.1099 21.2425 23.9793 21.6804C23.5078 21.7593 23.0581 21.9244 22.6664 22.1971C22.3908 22.1971 22.1296 22.2402 21.8758 22.3191C21.8032 22.2904 21.7307 22.2545 21.6582 22.2187C21.6437 22.2043 21.6436 22.1899 21.6219 22.1756C20.9546 21.5512 20.0333 21.0129 18.9671 20.5822ZM17.9951 4.31134C21.5421 3.34241 24.4798 5.49559 25.4518 8.86174C25.7637 9.93833 25.7129 11.0077 25.5896 12.0843C25.3357 11.4312 24.9948 10.8068 24.5451 10.2254C22.884 8.07224 19.8593 6.95258 17.335 8.29473C12.6419 10.7924 13.7299 16.3118 16.82 19.8645C12.5113 15.472 10.1974 6.44299 17.9951 4.31134ZM2.42879 27.2715C0.970814 23.7331 3.82874 20.6755 7.10013 19.7568C8.7322 19.2975 10.3498 19.2975 11.9673 19.4985C8.38402 19.7353 5.19968 21.2784 4.80798 24.7451C4.50333 27.3863 6.25146 29.7548 8.68868 30.695C9.22545 30.9032 9.78397 31.0323 10.3643 31.1113C7.06386 31.4414 3.88678 30.774 2.43605 27.2643L2.42879 27.2715ZM19.9318 45.8391C16.9723 47.8272 12.8015 47.131 10.843 44.0591C7.78198 39.2647 12.4533 34.2621 16.305 31.0826C14.8543 32.6975 13.7299 34.6138 13.1497 36.6665C12.4388 39.1714 12.1922 43.1548 14.9703 44.5687C17.4293 45.8175 20.8748 44.7768 22.2167 42.4657C22.4706 42.0279 22.6954 41.5542 22.8913 41.0662C22.4778 42.9394 21.7162 44.6261 19.9318 45.8247V45.8391ZM22.4923 38.267C22.1732 39.6738 21.7452 41.7265 20.6717 42.76C19.7214 43.5639 18.6406 43.9299 17.422 43.8725C16.305 44.1022 15.4998 43.6859 15.0283 42.6308C11.1477 38.3316 16.5371 32.073 19.8593 29.2165C19.9898 29.1017 20.0116 28.9581 19.9826 28.8217C20.7007 29.8481 21.8467 30.5515 23.1379 30.6878C23.1379 33.2501 23.0654 35.755 22.4923 38.2742V38.267ZM20.4541 27.0418C20.1494 25.714 20.7515 23.9914 21.9411 23.3096C22.0353 23.568 22.3182 23.7474 22.6447 23.568C24.2767 22.6636 26.7284 22.2832 26.9896 24.8599C27.0984 25.9006 26.8155 27.1638 26.1772 28.1112C25.9813 28.1184 25.8508 28.3265 25.8725 28.4988C25.5316 28.8863 25.1181 29.1878 24.6321 29.3529C22.8115 29.9773 20.8748 28.8863 20.4541 27.0418ZM24.4871 30.6304C25.4736 30.4295 26.2932 29.8696 26.9098 29.1088C27.2652 29.2883 27.6061 29.4749 27.9471 29.683C28.5128 30.2213 29.1584 30.6807 29.8548 31.0682C30.4931 31.6281 31.0661 32.2597 31.5666 32.9702C32.778 34.6999 34.1489 37.7431 33.7064 39.8676C32.836 44.0447 29.0424 42.4083 27.4248 40.693C26.6704 39.8963 26.0611 38.9273 25.5969 37.9441C24.5161 35.6545 24.2477 33.1712 24.2259 30.6735C24.313 30.6591 24.4073 30.6519 24.4943 30.6376L24.4871 30.6304ZM35.6939 37.5637C36.6369 39.8389 37.5364 43.6787 35.0629 45.4084C32.9303 46.9013 29.5356 46.5927 27.4393 45.2577C24.9731 43.6931 24.1607 40.98 24.5233 38.2886C24.9295 39.1857 25.4228 40.0398 26.0466 40.8293C27.6714 42.882 30.776 45.0567 33.38 43.2481C35.9768 41.4538 34.6784 36.8675 33.6629 34.5707C33.5469 34.3052 33.4091 34.0468 33.264 33.7956C34.2795 34.8937 35.0991 36.1497 35.6867 37.5708L35.6939 37.5637ZM27.7222 28.2404C27.6569 28.1973 27.5844 28.1901 27.5118 28.1901C27.918 27.4222 28.1574 26.5537 28.2082 25.6996C28.2372 25.6996 28.2662 25.6996 28.3025 25.6996C28.4113 25.8647 28.7014 25.8791 28.7522 25.6422C28.7522 25.6135 28.7812 25.5848 28.7957 25.5561C29.8403 25.2475 30.8848 24.8527 31.8713 24.3575C33.351 24.056 34.9178 23.8622 35.4836 23.7761C37.0794 23.5321 38.784 23.4962 40.2057 24.3934C42.4833 25.8288 43.2232 28.6638 40.8585 30.3146C36.6369 33.2645 31.3635 30.5802 27.7222 28.2476V28.2404ZM47.5464 30.5443C45.791 34.5564 39.7487 34.097 35.2732 32.5755C35.7955 32.6113 36.3177 32.6257 36.8255 32.597C39.5093 32.4463 43.7164 31.341 43.6076 27.982C43.4988 24.7092 40.4668 22.6493 37.4348 22.5416C39.1684 22.2186 40.9311 22.0033 42.5341 22.4124C45.7112 23.2163 48.9681 27.3002 47.5464 30.5443Z" fill="#3C3C3B"/>
</svg>
