<svg width="50" height="50" viewBox="0 0 50 50" fill="none" xmlns="http://www.w3.org/2000/svg">
<path d="M34.7886 4.108C33.4797 3.83175 32.2619 4.24612 31.4335 5.09212C30.9116 3.54687 29.4536 2.21744 27.9625 2.02752C26.3222 1.82034 24.6322 2.80446 23.8618 4.25475C23.7624 4.04757 23.6547 3.84901 23.5304 3.68499C22.7434 2.56275 21.4345 1.99299 20.1173 2.14838C18.4522 2.3383 17.2759 3.77995 17.1682 5.31657C16.2238 4.35834 14.7906 4.09936 13.4486 4.89357C11.071 6.28343 10.955 9.50342 11.4107 11.9465C12.6284 18.49 17.3587 24.9991 24.0275 25.517C23.3482 28.8924 22.8428 32.4577 22.876 35.9539C19.8522 32.7685 16.1741 30.6276 11.9905 29.5398C11.6343 29.4449 11.2947 29.6607 11.187 30.0146C10.2426 33.0965 13.0592 35.9971 15.5196 37.2575C17.8723 38.4574 20.5315 38.6387 22.9505 37.7064C23.1908 41.5911 24.1683 45.3635 26.3636 48.6871C26.8524 49.4209 28.0039 48.7303 27.5151 47.9879C23.199 41.0213 24.3091 33.3382 25.063 25.5516C25.2121 25.5516 25.3695 25.5516 25.5186 25.5429C32.0134 25.1803 38.5496 18.0929 38.9804 11.394C39.1709 8.3898 37.9863 4.77271 34.7969 4.108H34.7886ZM17.483 36.5927C15.4699 35.9108 12.1645 33.7181 12.3302 31.0592C16.0249 32.0865 19.2475 34.0893 21.915 36.9553C20.4404 37.197 18.9741 37.0934 17.4747 36.5927H17.483ZM34.2584 18.913C31.6323 22.0812 27.8051 24.602 23.663 24.0322C19.8854 23.5142 16.7954 20.9762 14.8652 17.6095C14.3598 16.7203 13.929 15.7707 13.5811 14.7952C13.5811 14.7607 13.5728 14.7348 13.5563 14.7003C12.8604 13.0687 13.6722 10.9019 15.2959 10.2976C15.561 10.2027 15.8096 10.1509 16.0415 10.1336C16.1823 10.2804 16.406 10.3581 16.7125 10.3494C17.1019 10.5566 17.4581 10.7983 17.7895 11.0918C18.3694 11.6098 18.8001 12.2313 19.1481 12.9306C19.438 13.509 20.399 13.2586 20.3576 12.5853C20.2664 11.2213 20.7801 8.05313 22.5363 10.4962C22.8677 10.9537 22.9671 12.076 23.3316 12.404C23.3564 12.4644 23.3813 12.5162 23.3979 12.5766C23.4393 12.663 23.4724 12.7148 23.5056 12.7579C23.489 12.9651 23.5801 13.1809 23.7955 13.3191C23.8286 13.345 23.8701 13.3622 23.9032 13.3881C24.1434 13.5435 24.5079 13.5003 24.7068 13.2759L24.7896 13.1809C24.9884 12.9479 25.0547 12.6025 24.8973 12.3263C24.7979 12.1536 24.6985 11.9465 24.5991 11.7393C24.7399 10.9969 25.0796 10.3149 25.7092 9.84872C26.0902 9.57248 26.5707 9.40846 27.0346 9.38256C27.482 9.35666 27.8879 9.52931 28.3187 9.52931C28.3849 9.65017 28.4429 9.77966 28.4926 9.90052C28.5672 10.3408 28.5755 10.8415 28.6003 11.3594C28.6086 11.6357 28.7826 11.8342 28.998 11.9292C29.0311 12.3263 29.0394 12.732 29.0063 13.1464C28.9566 13.8802 29.9921 13.9665 30.1909 13.3104C30.6465 11.817 31.4832 10.4098 32.9495 9.81419C34.2833 9.27033 35.2608 9.63291 36.2549 10.3839C36.8265 11.3508 36.8597 12.4213 37.0751 13.5953C37.0916 13.673 37.1165 13.7334 37.1413 13.7939C36.5614 15.7017 35.501 17.4109 34.2584 18.913Z" fill="#3C3C3B"/>
</svg>
