<svg width="24" height="24" viewBox="0 0 24 24" fill="none" xmlns="http://www.w3.org/2000/svg">
<path d="M23.4839 8.47548C23.7618 8.47548 24 8.23774 24 7.95641V4.97276C24 4.69539 23.7618 4.45369 23.4839 4.45369H20.2958L19.1404 0.356612C19.061 0.158494 18.9022 0 18.6601 0H5.34392C5.10571 0 4.9072 0.158494 4.86352 0.356612L3.70819 4.45369H0.5201C0.242184 4.45369 0 4.69143 0 4.97276V7.95641C0 8.23378 0.238214 8.47548 0.5201 8.47548H2.63226L1.67543 11.9782H0.559801C0.281886 11.9782 0.0436727 12.2159 0.0436727 12.4973V20.4537C0.0436727 20.7311 0.281886 20.9728 0.559801 20.9728H2.55285V22.9619H0.559801C0.281886 22.9619 0.0436727 23.1996 0.0436727 23.4809C0.0436727 23.7623 0.281886 24 0.559801 24H23.4839C23.7618 24 24 23.7623 24 23.4809C24 23.1996 23.7618 22.9619 23.4839 22.9619H21.4908V20.9728H23.4839C23.7618 20.9728 24 20.735 24 20.4537V12.4973C24 12.2199 23.7618 11.9782 23.4839 11.9782H22.3682L21.3717 8.47548H23.4839ZM22.9638 5.49183V7.48093H21.328L20.6491 5.49183H22.9598H22.9638ZM1.03623 5.49183H3.3469L2.66799 7.48093H1.03226V5.49183H1.03623ZM3.54938 22.8787V20.8895H6.53896V22.8787H3.54938ZM16.5042 20.8895V22.8787H7.53548V20.8895H16.5042ZM20.4943 22.8787H17.5047V20.8895H20.4943V22.8787ZM22.9638 19.895H1.03623V12.9331H22.9638V19.895ZM2.67196 11.9386L5.74094 0.994552H11.5216V3.50272H9.52854C9.25062 3.50272 9.00844 3.74047 9.00844 4.02179V6.0109C9.00844 6.28826 9.24665 6.52997 9.52854 6.52997H14.5112C14.7891 6.52997 15.0313 6.29222 15.0313 6.0109V4.02179C15.0313 3.74443 14.7931 3.50272 14.5112 3.50272H12.5181V0.994552H18.2988L21.328 11.9386H2.67196ZM13.995 4.49728V5.49183H10.0089V4.49728H13.995Z" fill="black"/>
<path d="M4.54774 14.4424C3.43211 14.4424 2.55469 15.3181 2.55469 16.4315C2.55469 17.5449 3.43211 18.4206 4.54774 18.4206C5.66337 18.4206 6.54079 17.5449 6.54079 16.4315C6.54079 15.3181 5.62367 14.4424 4.54774 14.4424ZM4.54774 17.426C3.98794 17.426 3.55121 16.9902 3.55121 16.4315C3.55121 15.8728 3.99191 15.4369 4.54774 15.4369C5.10357 15.4369 5.54427 15.8728 5.54427 16.4315C5.54427 16.9902 5.06387 17.426 4.54774 17.426Z" fill="black"/>
<path d="M19.497 14.4424C18.3813 14.4424 17.5039 15.3181 17.5039 16.4315C17.5039 17.5449 18.3813 18.4206 19.497 18.4206C20.6126 18.4206 21.49 17.5449 21.49 16.4315C21.49 15.3181 20.5729 14.4424 19.497 14.4424ZM19.497 17.426C18.9372 17.426 18.5004 16.9902 18.5004 16.4315C18.5004 15.8728 18.9372 15.4369 19.497 15.4369C20.0568 15.4369 20.4935 15.8728 20.4935 16.4315C20.4935 16.9902 20.0171 17.426 19.497 17.426Z" fill="black"/>
<path d="M15.9884 14.9209H8.01619C7.73828 14.9209 7.49609 15.1586 7.49609 15.44C7.49609 15.7213 7.73431 15.959 8.01619 15.959H15.9884C16.2663 15.959 16.5085 15.7213 16.5085 15.44C16.5085 15.1586 16.2703 14.9209 15.9884 14.9209Z" fill="black"/>
<path d="M15.9884 17.4258H8.01619C7.73828 17.4258 7.49609 17.6635 7.49609 17.9449C7.49609 18.2262 7.73431 18.4639 8.01619 18.4639H15.9884C16.2663 18.4639 16.5085 18.2262 16.5085 17.9449C16.5085 17.6279 16.2703 17.4258 15.9884 17.4258Z" fill="black"/>
</svg>
