<svg width="100" height="50" viewBox="0 0 100 50" fill="none" xmlns="http://www.w3.org/2000/svg">
<path d="M92.3388 25.255C86.3331 28.0926 80.3474 27.7493 74.1118 25.8407C73.822 25.7498 73.5322 25.659 73.2524 25.5681C70.7541 23.6797 69.505 19.903 72.1831 17.4996C73.3823 16.4191 75.171 15.9243 76.7499 16.2878C77.7991 16.5302 78.8084 17.1664 79.368 18.1156C80.5472 20.1049 78.6785 22.7002 76.62 21.0542C76.2902 20.7815 75.7406 21.1249 75.9904 21.549C77.3594 23.8615 80.5072 22.3265 80.807 20.0342C81.1967 17.025 78.069 15.0154 75.4108 15.1164C72.6628 15.2174 70.0546 17.1462 69.6249 19.9838C69.3751 21.6601 69.8748 23.4373 70.914 24.74C66.9768 23.2455 63.0596 21.4379 58.9325 20.8421C55.9247 20.4079 51.9475 21.6399 49.8689 23.9019C48.0602 23.9019 46.1916 24.2755 44.4128 23.71C41.6548 22.8113 40.9752 20.2362 41.0652 17.6208C41.1351 15.5102 41.7047 13.016 43.9731 12.3495C47.5406 11.2993 48.7397 15.3083 46.6612 17.6511C46.3814 17.9641 46.7312 18.4589 47.1209 18.2469C49.2394 17.0553 49.5092 13.9349 47.8204 12.2182C45.9317 10.2996 42.8039 10.754 41.265 12.8342C39.4863 15.2477 39.3064 19.5899 40.7154 22.2054C42.2243 24.9925 45.482 25.4671 48.34 24.9016C45.532 26.4668 42.8739 28.2643 39.8261 29.3751C36.3785 30.6273 32.5912 31.2534 28.9438 31.5058C22.8281 31.9198 17.0322 30.6071 13.4547 25.9013C12.2956 23.6393 11.4861 21.0845 13.4248 18.9638C15.3434 16.8533 18.721 15.8132 21.3591 17.126C23.7075 18.2974 25.0765 21.2763 23.4976 23.6797C21.6589 26.4668 18.4412 25.2449 17.2321 22.6901C17.0622 22.3366 16.4726 22.5083 16.5026 22.892C16.7224 25.9114 20.4398 27.3555 22.8981 25.871C25.746 24.1442 25.9659 20.0544 23.8574 17.6814C21.2292 14.7226 16.8723 14.9649 13.8644 17.1765C11.606 18.8326 11.0165 20.7916 11.3962 22.7911C11.2063 22.8214 11.0164 23.0132 11.0664 23.2354C11.596 25.6085 12.8452 27.4564 14.494 28.8803C11.4462 28.2441 8.20844 31.5563 8.00858 34.9897C7.71879 39.7964 14.8637 40.5841 15.0336 35.6966C15.0536 35.222 14.3441 35.1311 14.2242 35.5855C13.7645 37.2921 12.0257 38.6856 10.3269 37.5546C8.73807 36.4943 9.12779 34.3131 9.85728 32.8489C11.0065 30.5263 14.3041 28.5268 16.6625 30.6071C16.7624 30.698 16.8723 30.6374 16.9123 30.5465C19.7403 32.0612 23.1479 32.7378 26.2557 32.7782C34.3299 32.8893 42.4941 30.6778 48.7897 25.5378C48.4 26.5072 48.33 27.5877 48.7297 28.7591C48.9396 30.395 49.739 31.9703 51.168 32.8489C52.7269 33.8183 54.8454 33.8688 56.2444 32.5762C57.4736 31.4351 57.9832 29.4559 56.9139 28.032C55.9746 26.7698 54.2358 26.4062 52.9268 27.2646C52.5171 27.5372 52.8768 28.1532 53.3165 27.931C54.6755 27.2343 56.4343 28.1835 56.4043 29.779C56.3743 31.2635 55.0453 32.3743 53.6263 32.3945C52.1573 32.4046 51.118 31.6472 50.3886 30.5869C50.3886 30.5364 50.3786 30.4758 50.3386 30.4253C47.8604 26.2749 51.3879 22.377 55.5149 21.8014C58.0132 21.4581 60.4515 22.1044 62.8098 22.8819C66.727 24.1846 70.5043 25.8811 74.4715 27.0525C75.5407 27.3656 76.64 27.6483 77.7592 27.8806C76.1104 28.3653 74.6314 29.4155 74.0218 31.0716C73.1524 33.4245 74.4915 36.2924 76.9098 36.9891C79.1382 37.6354 82.0362 36.3934 82.4459 33.9092C82.7756 31.9299 80.6171 30.0012 78.9383 31.5361C78.5686 31.8694 79.0383 32.455 79.458 32.2127C80.5272 31.7684 81.1468 32.142 81.3267 33.3235C81.2767 33.9193 81.0568 34.4343 80.6571 34.8685C80.0875 35.5148 79.2181 35.8884 78.3687 35.9187C76.8198 35.9793 75.4908 34.9695 75.0911 33.4548C74.2517 30.3344 77.5393 28.85 79.9476 28.2643C84.3745 28.8702 88.9213 28.4864 92.7785 26.0629C93.2782 25.7498 92.8485 25.0228 92.3189 25.2752L92.3388 25.255Z" fill="#3C3C3B"/>
</svg>
