<svg width="50" height="50" viewBox="0 0 50 50" fill="none" xmlns="http://www.w3.org/2000/svg">
<path d="M44.0973 18.7044C42.4289 17.4345 39.6915 17.5945 38.3528 19.2744C38.2429 19.4044 38.113 19.6043 37.9931 19.8243C36.4946 17.6445 33.6173 16.5446 31.909 19.4643C29.4014 23.7239 34.7962 27.3536 36.3147 30.9532C35.0759 34.9929 32.4285 38.6125 30.0008 42.1222C28.8219 37.6726 27.8029 33.243 27.4233 28.5035C27.1135 24.6338 27.1935 20.8142 27.4233 16.9946C31.2596 14.8348 38.7924 11.6651 36.8243 6.03564C35.6454 2.65596 31.5993 1.91603 29.4713 4.10582C28.712 0.246194 22.7477 -0.0837735 20.4299 3.49588C17.203 8.5054 20.9994 14.9448 25.8847 17.0646C25.2853 22.774 25.4352 28.8234 26.3443 34.6329C22.2982 33.493 19.0013 31.0632 16.7734 27.6836C16.7734 27.6836 16.7934 27.6736 16.7934 27.6636C18.7615 24.8738 22.8976 18.2545 18.0123 15.9547C15.3948 14.7248 12.9771 16.4746 12.6973 18.8444C11.4186 17.6545 9.83008 16.7946 8.01182 17.3845C5.95379 18.0545 4.81488 20.1943 5.02468 22.2741C5.25446 24.6139 6.91288 26.4637 8.97091 27.4636C10.7692 28.3435 13.5365 29.0134 15.5646 28.2935C18.0023 32.1331 22.0384 34.9129 26.5341 35.7628C27.4033 40.7323 28.8319 45.5018 30.85 49.7014C31.1497 50.3214 32.1188 49.8814 31.9489 49.2415C31.3795 47.1217 30.8 45.0419 30.2406 42.9721C30.3205 42.9721 30.4104 42.9321 30.4703 42.8521C33.5374 39.3024 36.6544 35.1528 37.8433 30.5533C40.6006 30.0033 43.7077 28.3835 45.1463 25.9737C46.495 23.7139 46.3152 20.3743 44.1073 18.6944L44.0973 18.7044ZM14.6355 23.234C14.4057 22.534 13.3567 22.814 13.5265 23.534C13.8263 24.8238 14.3058 26.0537 14.9252 27.2036C12.3477 26.7436 9.69022 26.9336 7.71211 24.6938C6.45331 23.264 5.9438 20.9442 7.39242 19.4543C9.30059 17.4945 11.5185 19.3944 12.8472 20.9542C13.4067 21.6141 14.3258 20.6642 13.7863 20.0143C13.7264 19.9443 13.6564 19.8643 13.5965 19.7943C13.6065 16.4546 18.9514 15.8147 18.9114 19.8943C18.8914 22.2541 17.1031 24.3539 15.9942 26.3937C15.4547 25.4038 14.9951 24.3439 14.6355 23.224V23.234ZM26.0046 15.9847C23.9166 14.5448 22.1883 12.645 21.389 10.1652C20.8296 8.43541 20.6597 6.33561 21.5888 4.66577C23.2772 1.66606 28.1625 1.83604 28.0526 5.87565C28.0526 6.20562 28.2624 6.4156 28.5222 6.51559C28.732 6.67558 29.0917 6.63558 29.2715 6.36561C29.3214 6.31561 29.3614 6.24562 29.3914 6.16563C29.9608 4.96574 31.6992 3.95584 32.9979 4.27581C34.007 4.51578 35.046 5.57568 35.3856 6.53559C36.055 8.4554 34.8362 10.2352 33.3776 11.3251C31.5593 12.685 29.5212 13.7849 27.5631 14.9648C27.733 12.825 27.9328 10.6852 28.1526 8.5254C28.1925 8.10544 27.5431 8.03545 27.4332 8.42541C26.7939 10.8252 26.3143 13.3649 25.9846 15.9847H26.0046ZM44.1373 24.5239C43.0983 27.0936 40.5507 27.8435 38.2029 28.7734C38.3828 27.4836 38.4028 26.1537 38.2129 24.8038C38.113 24.1039 36.9042 24.2639 36.9741 24.9738C37.124 26.5037 37.0041 27.9635 36.7144 29.3834C36.1849 28.0935 35.3357 26.9736 34.4765 25.7837C33.6073 24.5739 32.7582 23.324 32.7881 21.7841C32.8181 20.1943 33.997 18.5444 35.7453 19.3344C36.5745 19.7143 37.2139 21.0842 37.6735 21.8241C37.9931 22.3441 38.8223 22.0641 38.7624 21.4842C38.7824 21.4642 38.8124 21.4542 38.8323 21.4242C39.0122 21.2142 38.8323 20.9842 38.6126 21.0142C38.6126 20.9942 38.6026 20.9842 38.5926 20.9642C39.3419 20.3243 39.5716 19.6443 40.6806 19.3944C41.3999 19.2344 42.2491 19.2844 42.8885 19.6643C44.5469 20.6242 44.7966 22.904 44.1373 24.5339V24.5239Z" fill="#3C3C3B"/>
</svg>
