<svg width="26" height="26" viewBox="0 0 26 26" fill="none" xmlns="http://www.w3.org/2000/svg">
<path d="M9.52444 11.0327H14.4853C15.6067 11.0327 16.4863 10.114 16.4863 9.03289V7.03305C16.4863 5.91234 15.5671 5.0332 14.4853 5.0332H9.52444C8.40309 5.0332 7.52344 5.95194 7.52344 7.03305V9.03289C7.52344 10.114 8.40309 11.0327 9.52444 11.0327ZM8.52592 7.03305C8.52592 6.47467 8.96575 6.0351 9.52444 6.0351H14.4853C15.044 6.0351 15.4839 6.47467 15.4839 7.03305V9.03289C15.4839 9.59126 15.044 10.0308 14.4853 10.0308H9.52444C8.96575 10.0308 8.52592 9.59126 8.52592 9.03289V7.03305Z" fill="black"/>
<path d="M23.7218 23.0635L17.6039 20.0262C18.642 19.947 19.482 19.0678 19.482 18.0263V4.03533C19.482 2.91462 18.5628 2.03548 17.481 2.03548H16.0031V0.518771C16.0031 0.237605 15.7614 0 15.484 0H8.52606C8.24473 0 8.00698 0.241565 8.00698 0.518771V2.03944H6.52505C5.4037 2.03944 4.52405 2.95818 4.52405 4.03929V17.9907C4.52405 19.0718 5.36407 19.9509 6.40222 19.9905L0.288263 23.0239C0.0465579 23.1427 -0.0723135 23.4635 0.0465579 23.7051C0.165429 23.9466 0.486382 24.0654 0.728088 23.9466L3.60874 22.5091H20.3657L23.2463 23.9466C23.488 24.0654 23.805 23.9862 23.9278 23.7051C24.0863 23.5071 23.9675 23.1863 23.7297 23.0675L23.7218 23.0635ZM9.0055 1.03754H15.0045V2.03548H9.0055V1.03754ZM5.52653 18.0263V4.03533C5.52653 3.47696 5.96636 3.03739 6.52505 3.03739H17.485C18.0437 3.03739 18.4835 3.47696 18.4835 4.03533V17.9867C18.4835 18.5451 18.0437 18.9847 17.485 18.9847H6.52505C5.96636 19.0243 5.52653 18.5847 5.52653 18.0263ZM5.60578 21.5033L8.6053 19.9826H15.4048L18.4043 21.5033H5.60578Z" fill="black"/>
<path d="M8.5254 17.5081C9.36543 17.5081 10.047 16.827 10.047 15.9875C10.047 15.1479 9.36543 14.4668 8.5254 14.4668C7.68538 14.4668 7.00781 15.1875 7.00781 16.0271C7.00781 16.8666 7.68934 17.5042 8.5254 17.5042V17.5081ZM8.5254 15.5083C8.80673 15.5083 9.04448 15.7499 9.04448 16.0271C9.04448 16.3043 8.80277 16.5458 8.5254 16.5458C8.24804 16.5458 8.00633 16.3043 8.00633 16.0271C8.00633 15.7499 8.24804 15.5083 8.5254 15.5083Z" fill="black"/>
<path d="M14.0078 16.0275C14.0078 16.867 14.6893 17.5482 15.5294 17.5482C16.3694 17.5482 17.047 16.867 17.047 16.0275C17.047 15.188 16.3654 14.5068 15.5294 14.5068C14.6933 14.5068 14.0078 15.188 14.0078 16.0275ZM16.0049 16.0275C16.0049 16.3087 15.7631 16.5463 15.4858 16.5463C15.2084 16.5463 14.9667 16.3047 14.9667 16.0275C14.9667 15.7503 15.2084 15.5087 15.4858 15.5087C15.7631 15.5087 16.0049 15.7503 16.0049 16.0275Z" fill="black"/>
</svg>
