<svg width="100" height="50" viewBox="0 0 100 50" fill="none" xmlns="http://www.w3.org/2000/svg">
<path d="M87.8957 27.3064C87.1689 22.8759 83.0272 20.3244 79.1343 18.8806C67.2069 14.4402 55.847 18.04 45.0546 23.5385C38.9913 26.624 32.5398 30.4611 25.5705 30.8567C21.3989 31.094 16.9087 29.7688 14.6487 26.0207C13.2349 23.6769 13.1752 20.8584 14.7184 18.5443C15.3655 17.585 16.172 16.8532 17.1278 16.3093C18.4917 16.2005 19.9951 16.1412 20.8912 17.2884C21.4188 17.9608 21.5184 18.8014 21.4587 19.6618C21.3093 20.2552 21.1202 20.9079 20.8712 21.6397C20.2042 21.432 19.9354 22.4506 20.5825 22.6781C23.5494 23.7066 26.377 21.4221 25.8493 18.2773C25.3316 15.172 22.0959 13.6886 19.1887 14.0545C18.2827 14.1732 17.4165 14.46 16.62 14.8655C16.4507 14.8852 16.2715 14.905 16.1023 14.9347C15.7837 14.9841 15.6144 15.2314 15.5846 15.4984C13.454 17.0411 12.0302 19.5827 12.0004 22.2331C11.9605 26.357 15.1365 29.8677 18.8004 31.3907C29.5032 35.8508 41.9184 26.4756 51.1677 22.3023C58.2166 19.1278 65.7036 17.5257 73.4096 19.019C76.8245 19.6816 80.8169 20.809 83.4851 23.1528C86.0936 25.4471 87.4278 29.1062 84.7994 32.0731C84.6301 32.2511 84.4509 32.3994 84.2816 32.5576C82.9774 33.0917 81.8026 33.8136 80.2594 33.4675C79.2339 33.24 78.3578 32.528 77.9396 31.6478C78.1089 30.8468 78.4673 29.8776 79.0049 28.7304C80.0304 29.0172 80.4585 27.4547 79.443 27.1481C76.6055 26.2779 73.6983 28.3546 74.0667 31.4302C74.5047 35.1685 78.6266 36.6024 81.8922 35.7717C85.7054 34.8124 88.5627 31.2621 87.9056 27.2965L87.8957 27.3064Z" fill="#3C3C3B"/>
</svg>
