<svg width="50" height="50" viewBox="0 0 50 50" fill="none" xmlns="http://www.w3.org/2000/svg">
<path d="M45.8478 25.9817C44.5169 24.9594 44.0044 23.4678 44.3103 21.507C44.674 21.155 45.0542 20.8366 45.4593 20.5349C46.1206 19.9483 46.7158 19.4623 47.1126 18.6579C47.683 17.4931 47.6995 16.0685 47.2366 14.8618C46.1867 12.1468 43.0868 10.9736 40.4251 11.6356C41.6485 8.82843 42.1527 4.57152 38.7222 3.70841C34.9362 2.7615 30.7534 5.72793 27.3228 2.87882C26.0168 1.79783 25.6944 0.406796 23.7848 0.0799864C19.7591 -0.598772 17.1387 3.16373 16.7667 6.76701C16.7088 7.3536 16.684 7.94856 16.6923 8.5519C16.6179 8.43458 16.5104 8.33403 16.3534 8.27537C12.8154 7.07706 8.92189 8.52676 7.39261 12.1049C6.54117 14.0825 7.05368 15.4819 7.16115 17.4596C7.32648 20.426 4.15217 21.1718 3.27594 23.7527C2.09384 27.2219 4.90442 29.6018 8.00431 30.0794C4.92921 31.6632 3.49912 35.4927 4.81347 38.8446C5.54918 40.7217 7.0454 42.272 8.79788 43.2105C11.625 44.7356 14.3281 43.906 16.3864 46.7719C18.4365 49.621 22.0158 51.5651 24.9091 48.2886C25.5621 47.5512 25.9424 46.6797 26.1656 45.7412C25.7192 49.445 29.902 50.3835 32.7869 49.5623C34.7874 48.9925 35.8951 48.0456 36.7135 46.1685C37.5732 44.1993 38.0526 43.5624 40.392 42.9088C41.3013 42.6574 42.1445 42.6993 43.0373 42.2803C45.6412 41.0653 46.9803 38.124 46.1123 35.5346C46.319 35.5346 46.5339 35.4676 46.6827 35.2497C49.0717 31.8811 47.8565 28.9649 45.8478 25.9566V25.9817ZM18.9407 3.83411C20.7676 0.624669 24.2808 0.792264 26.2317 3.52406C27.4386 5.21676 28.3313 5.99608 30.4971 5.78659C32.448 5.59385 34.341 5.03241 36.3249 4.97375C40.9376 4.84806 40.2597 9.05468 38.7139 12.2138C38.6809 12.2725 38.6726 12.3395 38.6643 12.3982C37.35 13.2194 36.2836 14.4512 35.2255 15.5574C33.225 17.6439 31.3321 19.7891 29.4473 21.9679C28.8521 21.4483 28.1247 21.0796 27.3476 20.8785C27.637 19.0182 28.2817 17.5015 29.4142 15.9261C29.6788 15.549 29.1001 15.1132 28.7943 15.44C27.4799 16.8227 26.6781 18.8171 26.6533 20.7528C26.24 20.7109 25.8184 20.7109 25.3885 20.7779C26.0416 18.2892 25.2314 15.549 23.5451 13.6635C23.2723 13.3619 22.735 13.7641 22.9747 14.1077C24.4627 16.2613 24.9173 18.4567 24.7603 21.0209C24.0411 20.912 23.3467 21.0293 22.7267 21.331C20.7015 18.1886 19.0069 14.9205 18.3208 11.1664C17.8909 8.81167 17.7173 5.9877 18.949 3.83411H18.9407ZM7.52485 28.5208C5.21026 28.0851 4.38362 26.384 5.04493 23.4092C5.62358 22.5712 6.3097 21.8505 7.095 21.2304C8.04564 20.2081 8.5995 19.7053 8.65736 18.2305C8.76482 15.8171 7.61578 14.116 9.10373 11.7949C10.6991 9.30607 13.394 8.85357 16.0062 9.54909C16.3534 9.64126 16.5931 9.47367 16.7171 9.23066C16.9568 13.7976 19.0482 18.4567 22.082 21.7248C21.834 21.9092 21.6108 22.1271 21.4041 22.3701C19.9492 21.5237 19.1061 20.1327 18.7341 18.4651C18.6514 18.0964 18.1306 18.2054 18.1141 18.5489C17.9984 20.4763 19.3045 22.1941 21.0239 22.8812C20.9164 23.0488 20.8172 23.2164 20.7263 23.4008C18.6349 22.3282 15.6176 22.5628 13.6089 23.3421C13.146 23.5181 13.3196 24.2136 13.8156 24.0963C15.1961 23.7946 16.5683 23.56 17.9901 23.6689C18.825 23.736 19.6351 23.9539 20.4452 24.1214C20.3543 24.4231 20.2881 24.7332 20.2633 25.06C20.222 25.4957 20.2386 25.9398 20.2964 26.384C17.3784 27.2136 14.6174 28.3197 11.5506 28.613C10.2858 28.7303 8.78133 28.8476 7.54964 28.5292L7.52485 28.5208ZM25.0992 41.987C25.0248 43.2524 25.0744 44.7356 24.5288 45.9088C23.5368 48.0707 20.594 49.4785 18.5109 47.4758C17.5768 46.5791 17.3536 45.0875 16.3864 44.2077C14.4438 42.4312 11.2943 43.1183 9.0872 41.7859C4.76389 39.1798 4.55724 33.1129 9.22774 30.8001C9.4592 30.6828 9.52531 30.4565 9.49225 30.2303C13.1708 30.3895 17.4362 29.3085 20.4452 27.2303C20.5279 27.532 20.6353 27.8253 20.7593 28.1102C20.3543 28.3951 20.0402 28.8895 19.6516 29.2582C18.5109 30.3308 17.1965 30.5906 15.7664 31.0263C15.32 31.1604 15.4523 31.747 15.8656 31.7973C16.9899 31.9397 18.1554 31.4705 19.1061 30.8755C19.5359 30.6074 19.9492 30.2806 20.3047 29.9202C20.5196 29.7024 20.8255 29.1996 21.1396 28.8476C21.4206 29.3001 21.7513 29.7107 22.1398 30.0711C20.346 31.6213 18.9903 34.3782 19.2218 36.7413C19.2549 37.0933 19.7756 37.219 19.8666 36.8335C20.1642 35.6184 20.3212 34.4118 20.8089 33.2554C21.2553 32.2079 21.8836 31.328 22.5449 30.423C23.2227 30.9342 24.0246 31.2694 24.9256 31.3364C25.1157 31.3532 25.2976 31.3364 25.4877 31.3364C25.2232 34.881 25.3058 38.4508 25.0909 41.9954L25.0992 41.987ZM25.1819 29.8867C20.6023 29.7359 20.5692 22.1103 25.0909 21.8924C25.1984 22.0098 25.3472 22.0935 25.5373 22.0935C27.5874 22.0517 29.5382 23.1997 29.6622 25.479C29.7862 27.775 27.422 29.9621 25.1819 29.8867ZM40.392 41.4424C38.8627 41.6854 37.7054 41.4172 36.6391 42.7915C36.0604 43.5373 35.986 44.4842 35.5314 45.2719C34.961 46.2607 33.5557 47.878 32.4067 48.188C31.1336 48.5316 27.3973 46.8724 27.1989 45.5065C27.1327 45.0624 26.4797 45.0121 26.2565 45.3389C26.5127 44.0401 26.5127 42.649 26.5706 41.3753C26.7111 38.0067 26.7607 34.5794 26.3061 31.2275C26.5706 31.1772 26.8269 31.0934 27.0831 31.0012C27.5378 32.409 27.7775 33.7749 28.0089 35.2916C28.0751 35.7106 28.7116 35.5933 28.7199 35.1911C28.7447 33.6995 28.3148 32.1241 27.6948 30.7414C27.794 30.6912 27.8932 30.6241 27.9924 30.5655C29.2324 32.5934 31.4726 33.8838 33.8202 34.0012C34.2584 34.0263 34.3658 33.2805 33.9277 33.2135C31.7454 32.9034 29.9764 31.8476 28.6455 30.1549C29.3894 29.6102 30.0342 28.9063 30.4723 28.0934C33.068 29.3672 35.705 30.5655 38.375 31.68C39.7886 32.2665 41.3426 32.7526 42.6074 33.6492C44.178 34.7637 44.4756 35.3084 44.4756 37.286C44.4756 40.001 43.1199 41.0234 40.4003 41.4507L40.392 41.4424ZM45.6164 34.5207C45.4758 34.2861 45.3188 34.0598 45.1286 33.8419C43.9052 32.3922 42.0701 31.6464 40.3755 30.9342C37.2342 29.6102 34.0269 28.437 30.7865 27.3644C30.9601 26.8868 31.0675 26.3924 31.0923 25.8896C33.2498 25.5376 35.0767 25.7639 37.1433 26.8365C37.5732 27.0627 37.8955 26.4762 37.5153 26.1912C35.7463 24.8589 33.1837 24.4315 31.0592 25.1438C31.0262 24.8253 30.96 24.5321 30.8774 24.2388C32.4893 23.5181 34.093 22.1187 34.5394 20.426C34.6221 20.1243 34.2005 19.94 34.0351 20.2081C33.5392 21.0461 33.2002 21.8589 32.5059 22.5796C31.9933 23.1075 31.3982 23.5432 30.7534 23.8868C30.555 23.3673 30.2905 22.898 29.9433 22.4874C32.4397 20.669 34.465 18.331 36.606 16.1104C38.3915 14.2585 40.5408 12.13 43.3679 13.0518C45.5006 13.7473 46.4843 15.8339 45.6081 17.8702C45.0377 19.1942 44.798 19.1523 43.8639 20.0154C42.533 21.264 41.9048 22.5628 42.6983 24.3728C43.1695 25.4538 44.0953 26.1242 44.8641 26.9706C46.8728 29.1912 47.1208 31.9146 45.6081 34.5291L45.6164 34.5207Z" fill="#3C3C3B"/>
</svg>
