<svg width="150" height="50" viewBox="0 0 150 50" fill="none" xmlns="http://www.w3.org/2000/svg">
<path d="M146.798 24.8249C136.146 18.7326 122.596 18.864 110.815 20.238C104.21 21.0059 97.6751 22.2385 91.11 23.2892C87.153 23.9257 83.176 24.5117 79.179 24.8654C78.4295 24.9361 77.6201 25.027 76.8107 25.0775C76.7408 25.0674 76.6709 25.0573 76.5909 25.0775C76.5509 25.0775 76.521 25.0876 76.481 25.0977C75.2819 25.1584 74.0728 25.1078 72.9936 24.734C70.0558 23.7035 68.9666 21.4403 69.7061 17.9446C75.202 16.3381 77.0306 17.399 75.192 21.1271C75.0021 21.3898 75.4318 21.7232 75.6416 21.4807C78.6594 17.9345 74.2327 13.1657 70.3856 15.833C68.0273 17.4697 67.6476 20.5916 69.1265 22.9457C70.1058 24.5016 71.4847 25.32 73.0336 25.7241C66.6983 26.8658 60.3631 27.9267 53.9579 28.6541C47.183 29.422 40.3581 29.624 33.5732 30.301C33.5532 30.1595 33.4333 30.0383 33.2534 30.0686C24.8997 31.3315 15.8265 32.2307 8.9916 26.0677C4.98461 22.4608 3.47574 16.712 7.41279 12.3574C10.7303 8.68989 18.9541 6.97232 20.9926 12.5696C20.9227 14.9944 19.3438 17.3485 16.7158 17.2979C15.087 17.2676 12.7388 16.0047 13.4882 14.0346C14.1677 12.2564 15.9864 12.6908 17.4752 12.8222C17.9249 12.8626 18.0148 12.2362 17.6851 12.024C16.0363 10.9328 13.5682 11.2966 12.459 13.0343C11.2699 14.9034 12.509 17.0353 14.2377 17.985C17.5352 19.7935 21.5822 17.4293 21.782 14.0346C21.9819 13.9942 22.1617 13.8426 22.1617 13.6102C22.1817 8.97279 17.0955 7.49769 13.2884 8.14431C8.21219 8.99299 3.82548 13.297 4.00534 18.7326C4.18521 24.0874 8.94164 28.1186 13.4483 30.0989C18.3446 32.2509 23.9104 32.5338 29.1765 31.5942C27.8075 32.3519 26.6683 33.4835 26.0488 35.0596C24.8497 38.1412 26.6284 41.3439 29.5462 42.5361C32.1342 43.597 35.5717 42.8392 36.9806 40.2528C38.1697 38.0704 37.2404 35.2011 34.9022 34.3625C34.6324 34.2615 34.4625 34.6858 34.7123 34.8273C37.1505 36.1912 37.1105 39.495 34.8122 41.0206C32.8437 42.3341 30.2557 42.0714 28.457 40.6165C26.0888 38.6968 26.0988 35.5749 28.1772 33.4027C29.766 31.7457 31.9844 31.2305 34.1427 30.8668C48.2122 31.382 63.171 29.0886 76.8407 26.1081C76.8907 26.098 76.9207 26.0778 76.9506 26.0576C77.1805 26.0576 77.4103 26.0373 77.6401 26.0272C86.0138 25.512 94.2677 23.8651 102.551 22.5517C99.6736 24.5218 97.5552 27.1386 97.6851 31.1395C97.825 35.3122 101.033 39.0707 105.289 39.1717C109.047 39.2626 113.044 35.9588 113.393 32.0994C113.703 28.6642 110.436 26.4314 107.408 27.8863C107.088 28.0378 107.318 28.5127 107.638 28.4419C110.765 27.765 112.924 31.2911 111.545 34.0089C111.145 34.8071 110.476 35.5648 109.816 36.1508C107.078 38.6362 102.871 38.414 100.563 35.4941C97.1355 31.1597 99.5937 24.7542 104.13 22.3092C107.288 21.8242 110.456 21.41 113.643 21.1372C125.115 20.1471 135.707 21.3999 146.409 25.7241C146.918 25.9262 147.238 25.1078 146.778 24.8452L146.798 24.8249Z" fill="#3C3C3B"/>
</svg>
