<svg width="50" height="50" viewBox="0 0 50 50" fill="none" xmlns="http://www.w3.org/2000/svg">
<path d="M34.961 24.34C34.1124 23.614 33.0903 23.4571 32.0586 23.5159C32.4443 22.7606 32.6371 21.9365 32.3382 21.0438C31.9718 19.9451 30.9015 19.2289 29.7636 19.484C28.298 19.8175 27.1987 21.5735 26.4852 22.7802C25.9741 23.6337 25.5691 24.5362 25.2606 25.4681C24.9906 22.6036 24.7784 19.7292 24.6242 16.8255C24.6242 16.7764 24.6145 16.7372 24.6049 16.6979C24.9424 16.9039 25.4148 16.8941 25.6366 16.4527C27.6712 12.3619 34.3439 6.4366 30.1879 1.60023C27.0444 -2.05893 23.7081 1.22745 22.821 4.75907C21.9917 3.33661 20.7961 2.04168 19.2725 1.767C17.3922 1.44327 15.8976 3.10117 15.4348 4.7885C14.2295 9.13437 18.2601 13.2938 22.0014 15.5502C22.3871 15.9524 22.7631 16.1878 23.1296 16.178C23.3128 16.2663 23.496 16.3644 23.6695 16.4429C23.5828 16.5312 23.5249 16.6489 23.5249 16.8157C23.467 19.5919 23.5153 22.4172 23.6695 25.2621C22.4739 22.8489 20.5839 20.5533 18.1058 21.3381C15.8398 22.0444 15.4926 24.3988 16.5533 25.9881C14.7695 26.5374 13.1977 27.9893 14.4512 29.9023C16.2351 32.6197 21.2878 31.1776 24.0456 30.1966C24.6917 36.838 25.9066 43.4696 27.7676 49.6696C27.9412 50.2484 28.7512 50.0031 28.6451 49.4243C27.4494 42.8418 26.4466 36.3573 25.7138 29.814C28.5294 30.9029 33.9871 30.4615 35.607 27.8422C36.3399 26.6453 36.0024 25.2229 34.9706 24.3302L34.961 24.34ZM18.6554 10.5274C18.7133 10.5764 18.7711 10.6255 18.829 10.6647C19.0411 10.8609 19.2725 11.0179 19.504 11.1552C19.61 11.4005 19.7257 11.6654 19.8414 11.9302C19.4172 11.4888 19.0218 11.0277 18.6458 10.5372L18.6554 10.5274Z" fill="#3C3C3B"/>
</svg>
