<svg width="50" height="50" viewBox="0 0 50 50" fill="none" xmlns="http://www.w3.org/2000/svg">
<path d="M37.2743 6.61764C37.3189 5.6848 37.1227 4.75196 36.6057 3.9124C34.6978 0.842511 28.6087 1.63967 27.6637 5.08269C26.2016 4.70956 24.5612 4.97245 23.3309 5.82049C21.646 6.99078 21.013 9.15327 21.3874 11.0529C21.7262 12.7744 23.0011 14.8436 25.0426 14.6485C24.793 16.599 26.7009 18.2781 28.6533 19.0075C28.9743 19.1262 29.313 19.2279 29.6518 19.3043C27.4319 24.4094 26.4334 29.9047 26.4334 35.4085C25.2298 33.5767 23.0724 32.0842 21.1913 31.3973C21.8421 30.5492 22.1542 29.4977 22.0204 28.4461C22.0383 28.4376 22.065 28.4376 22.0828 28.4207C25.1942 26.3938 25.319 21.5092 21.6282 19.9488C19.5777 19.0838 17.4647 20.0081 16.4127 21.5685C14.4514 19.7028 11.0369 19.635 9.23603 21.7721C8.38018 22.7897 7.99683 24.1635 8.23754 25.4525C8.31777 25.8681 8.55849 26.6313 8.96859 26.962C8.24646 27.8185 7.85417 28.9464 8.0503 30.2185C8.30884 31.8806 9.59262 33.1781 11.2776 33.6191C12.4633 33.9244 14.2999 33.7209 15.1112 32.7287C16.4039 33.5174 18.3741 33.3223 19.6935 32.6439C20.0145 32.4828 20.2909 32.2707 20.5583 32.0503C21.9313 32.7626 23.1437 33.6446 24.16 34.7894C25.0337 35.7816 25.4617 36.9265 26.0857 38.0119C23.848 36.8925 20.7901 37.5964 19.23 39.5045C19.0338 39.7419 18.9536 40.1066 19.23 40.3356C21.5033 42.2267 25.1229 41.9384 26.6206 39.3603C26.8792 42.4726 27.4319 45.568 28.2699 48.57C28.4839 49.3248 29.6964 49.0025 29.5002 48.2477C27.9222 42.32 27.6013 36.494 28.2343 30.6849C29.5359 30.8121 30.8108 30.3542 31.8449 29.557C32.781 28.8362 34.4304 27.0723 33.9935 25.7833C33.5478 24.4773 31.8271 25.1812 31.0337 25.673C30.1154 26.2412 29.2952 26.9451 28.6355 27.7677C29.0812 25.0115 29.732 22.2554 30.5522 19.4824C32.3798 19.7028 34.2877 19.3127 35.4734 18.0152C36.3382 18.2781 37.4437 17.9389 38.2906 17.5488C39.9399 16.7941 41.2683 15.3524 41.7764 13.6733C42.7304 10.4677 40.5194 7.33847 37.2743 6.62612V6.61764ZM14.077 31.5075C14.1572 31.7026 14.2642 31.8722 14.3801 32.0333C12.3296 33.0594 9.4411 32.3386 9.30737 29.7182C9.18256 27.3521 11.447 26.1903 13.5064 26.7246C12.597 27.1401 11.8838 27.9203 11.9552 28.904C11.973 29.0991 12.2761 29.2263 12.3831 29.0143C12.82 28.1238 13.3905 27.3521 14.282 27.0129C14.3622 27.0468 14.4336 27.0808 14.5138 27.1232C14.603 27.174 14.6921 27.191 14.7724 27.191C13.9254 28.5055 13.5242 30.1591 14.0859 31.5075H14.077ZM9.67287 26.2921C9.3965 25.8426 9.4054 25.0455 9.44107 24.6215C9.53022 23.6886 9.99384 22.7473 10.7605 22.1537C12.2672 20.9919 14.4603 21.3311 15.7352 22.6201C15.7798 22.671 15.8333 22.6879 15.8779 22.7219C15.6193 23.6123 15.6906 24.6045 16.2434 25.5458C16.2523 25.5628 16.2701 25.5713 16.2879 25.5882C16.172 25.673 16.0562 25.7663 15.9403 25.8596C15.0933 24.9437 14.0324 24.2229 12.7932 23.8752C12.4901 23.7904 12.2761 24.2398 12.5703 24.3755C13.6758 24.8504 14.6921 25.4101 15.5926 26.1818C15.5212 26.2582 15.441 26.326 15.3697 26.4023C15.334 26.343 15.2894 26.2921 15.227 26.2412C13.4261 24.9098 11.1706 25.1557 9.66395 26.3006L9.67287 26.2921ZM18.6772 31.7704C17.0814 32.3386 15.12 31.9315 15.1914 29.998C15.2359 28.7344 15.9135 27.615 16.6178 26.5719C16.6178 26.5719 16.6356 26.5889 16.6445 26.5889C16.0205 27.403 15.7798 28.5563 16.2968 29.4553C16.4038 29.6503 16.7961 29.574 16.7604 29.3365C16.6267 28.3613 16.6356 27.5302 17.1259 26.6737C17.224 26.6398 17.331 26.6228 17.4291 26.5974C18.3206 26.979 18.9714 27.6913 19.3994 28.5479C19.5331 28.8108 19.9521 28.6242 19.8808 28.3528C19.6846 27.5811 19.1676 26.9451 18.4989 26.5041C19.435 26.5719 20.2909 27.0299 20.6653 27.9966C21.2626 29.5485 20.2552 31.1937 18.6861 31.7534L18.6772 31.7704ZM18.5346 25.3508C19.2924 24.9267 20.1215 24.7063 21.0397 24.4942C21.3785 24.4179 21.2805 23.9769 20.9595 23.9515C19.6133 23.8497 18.285 24.596 17.3845 25.5204C17.3132 25.5458 17.233 25.5543 17.1616 25.5882C17.5361 25.1896 17.9284 24.808 18.3919 24.5027C18.9536 24.1296 19.5955 23.9176 20.175 23.5868C20.4068 23.4512 20.3265 23.0356 20.0234 23.0611C18.8555 23.1713 17.7411 23.9685 16.9744 24.8843C17.0903 24.172 16.9744 23.4512 17.2151 22.7303C17.6698 21.3565 19.3904 20.6018 20.799 21.0427C22.1452 21.4668 23.0546 22.7982 23.0813 24.1126C23.1081 25.3508 22.4483 26.309 21.6103 27.174C21.0041 26.0886 19.7827 25.3932 18.5346 25.3508ZM20.585 39.8352C21.9491 38.5717 23.8124 38.2664 25.5776 38.7582C24.374 40.361 22.3324 40.9377 20.585 39.8352ZM30.2046 27.5217C30.6414 27.1656 31.105 26.8518 31.6042 26.5719C32.0322 26.3345 32.7988 25.8002 32.683 26.5719C32.5581 27.42 31.4527 28.3783 30.7573 28.8277C30.0263 29.3026 29.2328 29.5146 28.3948 29.4637C28.3948 29.4553 28.3948 29.4383 28.3948 29.4298C28.9386 28.7429 29.5181 28.0814 30.2135 27.5217H30.2046ZM35.8746 5.54911C36.1866 6.77029 35.7409 8.04234 35.099 9.08543C34.7335 9.67905 34.2699 10.2218 33.7973 10.7476C33.6636 10.8833 33.5299 11.0274 33.4051 11.1631C33.2446 11.2649 33.1376 11.3497 33.0752 11.4175C33.0485 11.4175 33.0217 11.4345 33.0039 11.443C33.0217 10.773 33.1644 10.1115 33.4586 9.49248C33.5923 9.21263 33.1733 8.95822 33.0128 9.24655C32.5849 10.0098 32.4244 10.7985 32.4868 11.6295C32.469 11.6295 32.4601 11.6295 32.4423 11.6211C32.5671 10.3914 32.4244 8.94974 31.8895 7.85577C31.729 7.52504 31.1495 7.68617 31.1763 8.04234C31.2209 8.67837 31.3902 9.28047 31.4972 9.90802C31.5685 10.3405 31.6131 10.7815 31.6666 11.214C31.4705 11.1038 31.2387 11.0274 30.998 10.985C31.1852 9.04302 30.8821 6.82117 29.0634 5.67632C28.8494 5.54063 28.6355 5.43039 28.4037 5.32862C29.8034 2.70819 35.0722 2.33506 35.9013 5.54911H35.8746ZM25.6043 13.2578C25.4349 13.5122 25.3101 13.7581 25.2209 14.0125C25.212 14.0125 25.2031 14.0125 25.1942 14.0125C23.3934 13.8344 22.5464 11.5278 22.5285 10.0861C22.5107 8.58508 23.2418 7.07558 24.7395 6.44803C25.9342 5.94769 27.4408 5.99857 28.4928 6.78725C29.8747 7.81337 29.7588 9.50944 29.7766 11.0189C29.6785 11.0359 29.5716 11.0614 29.4735 11.0868C28.8851 9.80626 27.842 8.76317 26.4691 8.22043C26.1303 8.08474 25.9609 8.5766 26.2373 8.75469C27.2982 9.43312 28.1719 10.2557 28.8494 11.2649C27.4587 11.7059 26.0946 12.5709 25.6221 13.2747L25.6043 13.2578ZM35.2505 16.0308C35.2149 16.1665 35.1703 16.2853 35.1168 16.404C34.6889 16.3785 34.3234 16.8789 34.5373 17.269C33.5121 18.3375 31.7112 18.575 30.1867 18.2612C28.6444 17.9389 26.2373 16.8874 26.2194 15.0641C26.2105 13.6733 27.5656 12.8253 28.7781 12.4352C29.3754 12.2401 30.4987 11.8755 31.2743 12.0366C31.2565 12.2571 31.3724 12.4776 31.6755 12.5624C33.414 13.0542 35.9013 13.6903 35.2595 16.0224L35.2505 16.0308ZM39.0663 15.3355C38.4957 15.8697 37.2921 16.6669 36.2847 16.7093C37.096 14.6825 36.0529 13.2323 34.4482 12.3588C35.4556 11.8839 36.4808 11.5108 37.5774 11.2564C38.0231 11.1546 37.8181 10.561 37.3902 10.6204C36.6591 10.7221 35.9459 10.9257 35.2773 11.2225C35.83 10.5101 36.2758 9.72145 36.5343 9.22111C36.8196 8.66989 37.0336 8.08474 37.1584 7.48264C39.1108 8.36459 40.671 10.2472 40.5551 12.3758C40.4927 13.4698 39.8864 14.5637 39.0751 15.3185L39.0663 15.3355Z" fill="#3C3C3B"/>
</svg>
