<svg width="50" height="50" viewBox="0 0 50 50" fill="none" xmlns="http://www.w3.org/2000/svg">
<g clip-path="url(#clip0_109_310)">
<path d="M44.608 16.7346C43.459 16.6714 42.2832 16.9152 41.1252 17.3486C44.2873 13.9985 46.3272 10.2963 43.8776 7.8763C41.9269 4.98674 37.8027 5.35697 35.2819 7.39772C34.3109 8.18331 33.5182 9.16757 32.8323 10.2241C33.8834 5.64592 33.6963 1.23032 29.6879 0.381508C29.6879 0.381508 29.6701 0.372478 29.6612 0.372478C20.6735 -2.44484 21.6979 11.425 23.0429 18.2516C20.344 12.4635 13.7168 5.40211 7.53496 7.75891C3.91851 8.76122 3.89179 13.1768 5.88707 16.0393C8.87109 20.3375 14.3759 22.0983 19.1325 23.6154C14.9727 22.5318 10.6704 21.999 6.36808 22.2157C4.62221 22.306 2.73381 22.4595 1.60256 23.6605C1.37097 23.6154 1.12156 23.6876 0.96122 23.9043C-1.29238 27.1641 0.631642 31.7693 4.4975 32.573C7.02723 33.0967 9.68167 31.6971 11.962 30.7851C11.9709 30.7851 11.9798 30.7851 11.9887 30.776C10.5101 31.959 9.16504 33.2954 8.0516 34.8124C7.77547 35.1826 6.24337 37.8464 6.05632 39.3815C4.3728 43.4269 10.2874 45.5399 13.4406 43.9867C14.2334 43.5985 14.9193 43.0657 15.5428 42.4517C15.5072 42.7045 15.4716 42.9483 15.4448 43.1921C15.2578 45.0432 15.6942 47.3368 16.9858 48.5197C18.6693 51.2558 22.366 49.7749 23.8981 47.4994C25.1896 45.5941 25.448 43.2373 25.6885 40.9888C25.6974 40.8895 25.7063 40.7811 25.7152 40.6818C26.4367 44.7362 27.8085 48.3572 30.3916 48.4746C30.4718 48.6462 30.641 48.7816 30.8815 48.8087C34.0972 49.2331 36.3864 47.102 36.0568 43.7971C35.8608 41.8376 34.694 39.9143 33.6874 38.1896C34.3466 38.7765 35.0324 39.3364 35.754 39.8601C37.6691 41.2326 41.624 43.5443 43.6104 41.8105C43.8598 42.0453 44.2784 42.1266 44.5635 41.8467C50.5939 36.0043 45.0712 31.1101 38.6756 28.5366C43.8331 28.1483 49.133 26.4507 49.4181 22.911C49.7387 22.8568 50.0327 22.6221 49.9971 22.2248C49.7387 19.2449 47.6188 16.87 44.5813 16.6985L44.608 16.7346ZM33.1886 12.4183C35.0235 9.28496 39.7178 4.47204 42.9334 9.06824C42.969 9.12242 43.0136 9.14951 43.0581 9.18563C44.2428 12.4454 39.5218 16.8881 37.6602 18.6128C35.5402 20.5633 33.1886 22.0622 30.7479 23.5431C30.7479 23.516 30.7479 23.4889 30.739 23.4709C30.4807 22.2789 29.7414 21.2676 28.7883 20.5994C28.8417 20.5001 28.9041 20.3917 28.9664 20.2833C28.9842 20.2743 29.0021 20.2743 29.0199 20.2562C30.8014 17.9807 31.7189 14.9377 33.1975 12.4274L33.1886 12.4183ZM21.6979 24.8795C21.7424 25.4213 21.9117 25.8728 22.17 26.243C22.1878 26.3966 22.2145 26.532 22.2591 26.6765C21.8582 26.1527 21.5999 25.5026 21.5643 24.7531C21.5198 23.823 21.8315 23.1458 22.3303 22.6582C21.885 23.2993 21.6356 24.0759 21.6979 24.8886V24.8795ZM27.176 27.2905C28.1648 26.83 28.9842 25.9451 29.3227 24.7712C29.2158 25.8728 28.5389 26.83 27.6214 27.435C27.274 27.3898 26.891 27.5704 26.7396 27.8775C26.5347 27.9587 26.312 28.0129 26.0982 28.0581C26.4812 27.8684 26.8464 27.6066 27.176 27.2905ZM29.4385 1.64569C34.7919 6.02518 29.7592 14.739 27.6392 20.0124C26.6683 19.6693 25.5905 19.6422 24.5839 20.0847C24.094 16.8971 23.8892 13.7457 23.8535 10.522C23.8179 6.44958 23.8892 1.08584 29.4296 1.64569H29.4385ZM12.1134 19.1817C10.7149 18.3961 9.34319 17.5021 8.23866 16.3192C6.5106 14.4862 4.12339 9.90802 8.47916 8.96891C8.62168 8.94182 8.72857 8.85152 8.79983 8.7522C12.345 8.58063 15.4003 10.6936 17.7608 13.4297C19.7026 15.6781 20.825 18.5225 22.7223 20.7529C21.7246 21.1863 20.8606 22.0983 20.4241 23.1277C20.3974 23.0013 20.3172 22.8839 20.1747 22.8207C17.4936 21.5836 14.6966 20.6174 12.1134 19.1636V19.1817ZM11.0089 29.5209C9.92218 29.9363 8.79983 30.4329 7.67748 30.758C3.33062 32.0041 0.88996 28.4915 1.99449 24.5816C4.11448 23.0736 7.89126 23.5973 10.2072 23.7418C13.5653 23.9495 16.8344 24.5816 20.0767 25.4574C20.1124 25.4665 20.1391 25.4574 20.1747 25.4574C20.1925 25.5658 20.2014 25.6742 20.2282 25.7825C20.0856 25.6471 19.863 25.5839 19.6225 25.7103C16.8166 27.1551 13.9484 28.3922 11 29.5119L11.0089 29.5209ZM14.1711 41.6119C11.8106 43.6255 8.11395 43.3637 7.43698 40.3296C7.65076 40.2484 7.74874 39.9052 7.49933 39.7878C7.42807 39.7517 7.37463 39.7066 7.339 39.6434C7.32118 39.4357 7.32118 39.228 7.33009 39.0113C7.66858 37.7019 9.56587 35.2729 9.76184 35.0381C10.6081 34.0358 11.5612 33.1148 12.5766 32.284C15.1063 30.2162 18.0191 28.8166 20.8428 27.2183C21.1011 27.6246 21.4129 27.9948 21.7781 28.3109C19.9966 31.381 17.832 35.0652 16.5315 38.7494C15.8724 39.8059 15.1242 40.7992 14.18 41.6119H14.1711ZM24.4592 38.9752C24.2633 40.5193 24.1475 42.1356 23.7734 43.6526C23.2923 45.6031 20.9497 50.8675 17.9389 47.3549C17.7697 47.1562 17.5648 47.1111 17.3689 47.1382C16.3356 45.2329 17.1194 41.8737 18.4288 38.5056C18.509 38.3611 18.5892 38.2167 18.6694 38.0812C19.7293 36.1669 20.7804 34.099 21.4752 31.9499C22.0987 30.758 22.651 29.7557 23.0073 29.0965C23.6308 29.3854 24.3078 29.566 25.0115 29.6022C24.967 29.6925 24.9402 29.8008 24.9402 29.9272C24.9402 30.6225 24.9402 31.986 25.0115 33.6746C24.8423 35.4355 24.673 37.2053 24.4503 38.9661L24.4592 38.9752ZM34.3644 43.2192C34.881 45.9282 33.8745 46.5783 32.3424 47.1382C25.8132 47.102 26.5614 34.397 26.4634 29.9453C26.4634 29.7737 26.4011 29.6383 26.3209 29.5299C26.597 29.4757 26.8732 29.4035 27.1404 29.3132C27.7995 30.758 28.5834 32.1305 29.4742 33.4218C30.3115 35.011 31.1488 36.6093 31.9861 38.1986C32.7878 39.7246 34.0259 41.5035 34.3555 43.2192H34.3644ZM40.0474 30.6496C41.5617 31.5075 43.361 32.582 44.3675 34.0358C45.7749 36.0675 45.4453 37.8916 44.4655 39.6434C44.2963 39.526 44.0379 39.544 43.8954 39.7517C41.4815 43.2011 35.1928 37.5304 33.3311 35.607C31.318 33.5392 29.8037 31.1734 28.53 28.6089C28.9664 28.3109 29.3673 27.9497 29.6969 27.5433C30.837 28.1574 32.9036 28.5366 35.2908 28.6269C36.9387 29.1236 38.5331 29.7828 40.0563 30.6496H40.0474ZM36.6803 26.839C34.7919 26.821 32.7343 26.3695 30.837 26.6404C30.6589 26.6313 30.4718 26.6223 30.3026 26.6133C30.5609 26.1076 30.739 25.5658 30.8014 24.9879C30.935 25.006 31.0775 25.006 31.2378 24.9337C32.0306 24.5725 33.3133 23.805 34.7741 22.7665C36.1281 21.9719 37.482 21.1592 38.8449 20.3646C40.0741 19.6422 41.6329 18.4322 43.0581 18.3509C45.187 18.2336 46.9062 19.0192 47.8949 20.5723C49.6051 26.3514 39.6644 26.848 36.6803 26.821V26.839Z" fill="#3C3C3B"/>
</g>
<defs>
<clipPath id="clip0_109_310">
<rect width="50" height="50" fill="white"/>
</clipPath>
</defs>
</svg>
