<svg width="140" height="60" viewBox="0 0 140 60" fill="none" xmlns="http://www.w3.org/2000/svg">
<g clip-path="url(#clip0_119_463)">
<path d="M82.5976 10.7126C81.5225 5.10837 77.0532 0.436185 71.2309 0.0367496C62.9082 -0.520039 57.1584 5.03574 51.1791 9.9379C46.13 4.80576 41.8055 0.436185 33.9056 1.01718C26.6822 1.54976 22.2853 8.03756 21.4518 14.7069C20.4492 22.7561 25.0756 29.7281 30.7771 34.8723C36.1886 39.7503 43.3155 45.0156 50.853 45.7055C51.4207 45.6813 51.9885 45.6934 52.5441 45.7055C53.1239 45.3787 53.7279 45.0761 54.356 44.8824C57.6295 43.0789 60.8426 41.348 63.9229 39.4356C63.6571 39.1935 63.4276 38.9151 63.2464 38.6004C59.7313 40.7186 56.0109 42.5342 52.3992 44.5193C45.067 44.4709 38.532 39.5808 33.0601 35.1628C27.2499 30.4785 22.7926 24.4023 22.5993 16.7041C22.4061 9.28428 27.3707 2.79648 34.9082 2.2397C42.2283 1.69501 46.5044 7.04502 51.1429 11.7656C51.469 11.4872 51.8073 11.2209 52.1576 10.9789C52.1213 10.9425 52.0851 10.9062 52.0489 10.8699C57.5933 6.31877 62.7995 1.17453 70.482 1.28347C77.7538 1.39241 81.3776 7.97704 81.7641 14.4769C81.8487 15.8689 81.6433 17.2609 81.2447 18.6165C81.5105 18.7497 81.7762 18.8828 82.0661 18.9797C82.0903 18.9797 82.1023 19.0039 82.1265 19.016C82.9117 16.4136 83.1533 13.6539 82.5855 10.7247L82.5976 10.7126Z" fill="#38CE00"/>
<path d="M114.754 23.7486C113.787 18.6891 109.741 14.4648 104.474 14.1138C96.9608 13.6054 91.7667 18.6286 86.3672 23.0587C81.8133 18.4228 77.8996 14.4769 70.7607 14.9974C64.2378 15.4815 60.2637 21.3399 59.5148 27.3557C58.6088 34.6181 62.7883 40.9244 67.9341 45.5723C72.79 49.954 79.1679 54.6625 85.9203 55.3403C86.5242 55.3403 87.1403 55.3887 87.7443 55.4372C87.8167 55.4372 87.8892 55.4372 87.9496 55.4372C88.1429 55.3161 88.3482 55.183 88.5536 55.074C88.5536 55.0377 88.5777 55.0014 88.5898 54.9651C95.3663 51.2128 101.913 47.9447 107.349 42.1711C112.133 37.0753 116.131 30.9869 114.73 23.7607L114.754 23.7486ZM104.269 43.6962C99.4733 48.4168 93.3129 51.0797 87.5027 54.2752C80.8711 54.2389 74.9764 49.8088 70.0359 45.8265C64.7814 41.6022 60.7589 36.0948 60.5898 29.1471C60.4207 22.4414 64.9022 16.583 71.7149 16.0746C78.2499 15.5905 82.1032 20.299 86.2343 24.5233C86.5726 24.3175 86.9108 24.1118 87.249 23.9181C87.2369 23.906 87.2128 23.8818 87.2007 23.8697C92.2136 19.7543 96.9125 15.1184 103.858 15.2153C110.429 15.3121 113.703 21.2552 114.041 27.1378C114.416 33.4803 108.424 39.6171 104.281 43.6962H104.269Z" fill="#38CE00"/>
<path d="M36.5279 4.70955C35.9964 3.69281 34.3053 3.86226 33.4114 3.99541C33.2906 3.93489 33.1577 3.89858 32.9886 3.92279C30.2708 4.35853 27.8549 6.68252 26.7436 9.13965C26.1517 10.4469 26.804 13.3398 28.7608 12.0688C30.0533 11.2337 30.9955 9.99904 32.3484 9.18807C33.653 8.4013 35.1146 7.7961 36.2259 6.73094C36.8419 6.14994 36.8903 5.41159 36.5279 4.70955ZM35.3079 5.84734C34.9092 6.36781 34.112 6.71883 33.5684 7.03354C32.288 7.78399 30.923 8.4013 29.7876 9.38173C29.703 9.45436 27.7703 11.4273 27.7462 10.3864C27.722 9.39384 28.5796 8.51024 29.1474 7.8082C30.1862 6.52517 31.4666 5.56894 33.0732 5.23003C33.1698 5.27844 33.2664 5.30265 33.3993 5.27844C33.6409 5.24213 35.9722 5.00005 35.3199 5.83523L35.3079 5.84734Z" fill="#38CE00"/>
<path d="M28.9527 16.2201C28.8199 14.9128 27.6965 14.1745 26.4523 14.2471C26.2228 14.2471 26.0778 14.3681 25.9691 14.5134C24.9424 14.7676 24.435 15.8932 24.6162 16.9584C24.8457 18.302 26.0778 18.9798 27.3703 18.6772C28.4333 18.423 29.0614 17.261 28.9527 16.2322V16.2201ZM27.2254 17.3457C25.9208 18.193 25.2927 15.7117 26.4644 15.7359C26.6697 15.7359 26.8147 15.6633 26.9113 15.5543C27.2616 15.6148 27.5394 15.8085 27.6602 16.2201C27.769 16.6316 27.5757 17.1158 27.2254 17.3457Z" fill="#38CE00"/>
<path d="M75.4595 19.0045C74.928 17.9877 73.2369 18.1572 72.343 18.2903C72.2222 18.2298 72.0894 18.1814 71.9203 18.2177C69.2024 18.6535 66.7865 20.9774 65.6752 23.4346C65.0833 24.7418 65.7356 27.6347 67.6925 26.3638C68.985 25.5165 69.9272 24.294 71.2801 23.483C72.5846 22.6962 74.0462 22.091 75.1696 21.0259C75.7857 20.4449 75.834 19.7065 75.4716 19.0045H75.4595ZM74.2516 20.1302C73.853 20.6506 73.0436 21.0017 72.5001 21.3164C71.2317 22.0668 69.8547 22.6962 68.7192 23.6645C68.6347 23.7372 66.702 25.7101 66.6778 24.6692C66.6537 23.6767 67.5113 22.7931 68.079 22.0789C69.1178 20.7959 70.3983 19.8518 72.0048 19.5007C72.1015 19.5492 72.1981 19.5734 72.331 19.5492C72.5725 19.5128 74.9039 19.2708 74.2516 20.1059V20.1302Z" fill="#38CE00"/>
<path d="M67.8844 30.5033C67.7515 29.196 66.6281 28.4577 65.3839 28.5303C65.1544 28.5424 65.0095 28.6513 64.9008 28.7966C63.874 29.0508 63.3667 30.1764 63.5479 31.2416C63.7774 32.5852 65.0095 33.263 66.2899 32.9604C67.3529 32.7062 67.981 31.5442 67.8723 30.5033H67.8844ZM66.1691 31.6289C64.8645 32.4762 64.2364 29.9949 65.4081 30.0191C65.6134 30.0191 65.7584 29.9465 65.855 29.8375C66.2053 29.8981 66.4832 30.0917 66.604 30.5033C66.7127 30.9148 66.5194 31.399 66.1691 31.6289Z" fill="#38CE00"/>
<path d="M49.8145 58.7545C39.8128 56.7452 30.4996 52.1336 23.3003 44.8106C16.9465 38.347 13.516 29.8257 11.5712 21.0987C11.7886 18.0121 16.7412 5.71437 11.6799 4.40713C7.33132 3.28145 9.32441 15.4703 9.96462 18.811C9.89215 18.9442 9.85591 19.0894 9.89215 19.2589C10.0129 19.8883 10.17 20.5056 10.3028 21.135C10.3028 21.1713 10.3028 21.1955 10.3028 21.2318C10.3028 21.3892 10.3391 21.4981 10.4116 21.5949C11.2934 25.4925 12.4892 29.2568 14.0595 32.8397C13.9025 32.7549 13.7455 32.6581 13.5764 32.5976C13.4556 32.5492 13.3468 32.5492 13.2502 32.5734C9.66264 30.1889 7.54875 26.836 5.27782 23.2774C4.62554 22.2607 2.57204 18.5568 0.832612 19.6099C-1.07593 20.7719 0.856771 25.2867 1.81104 26.4608C5.33822 30.7941 10.4236 33.3843 15.3158 35.8536C15.3883 35.8899 15.4607 35.902 15.5332 35.9141C16.7049 38.1776 18.0699 40.3442 19.6281 42.4019C19.0966 42.3414 18.5531 42.2687 18.0216 42.184C17.9491 42.0751 17.8525 41.9782 17.7075 41.9177C13.2744 40.1868 9.72303 37.5602 5.62812 35.2726C3.91285 34.3164 1.11044 33.227 0.325278 35.7688C-0.49612 38.4438 3.74374 39.9811 5.49525 40.6105C7.06557 41.1794 8.72045 41.5546 10.3632 41.8814C13.7938 42.5834 17.2485 43.4913 20.7515 43.8181C20.7515 43.8181 20.7515 43.8181 20.7636 43.8181C21.0897 44.2175 21.4038 44.6169 21.7541 45.0043C23.6143 47.0983 25.692 48.9623 27.9387 50.6448C27.975 50.6932 28.0354 50.7174 28.0958 50.7537C27.3831 50.8263 26.6342 50.9232 25.849 51.0321C22.2856 50.7295 18.4564 47.6067 15.0863 46.6988C13.2019 46.1905 10.0129 46.9046 11.0155 49.628C12.6583 54.1065 20.667 53.0414 26.0302 52.3272C26.7066 52.3636 27.3952 52.3272 28.1562 52.1215C28.2166 52.1094 28.2649 52.0731 28.3132 52.0489C28.8326 51.9883 29.3037 51.952 29.6902 51.9399C29.7144 51.9399 29.7386 51.9399 29.7627 51.9278C31.2968 52.9567 32.8913 53.9008 34.5341 54.7602C31.5505 55.6922 27.7455 54.7481 24.7015 54.9054C22.7446 55.0023 21.0897 55.668 21.5246 57.9072C21.8749 59.7107 24.8464 59.6381 26.1268 59.5655C29.8835 59.3718 33.1087 57.1447 36.6721 56.1642C36.8171 56.1279 36.9137 56.0432 36.9862 55.9464C41.0086 57.7983 45.2606 59.1419 49.5246 60.0012C50.3339 60.1586 50.648 58.924 49.8507 58.7666L49.8145 58.7545ZM10.3512 11.9601C10.2787 11.0039 10.2908 10.0355 10.2787 9.07931C10.2787 8.78881 10.2787 8.51042 10.2787 8.21992C11.9456 6.22275 12.6946 6.34379 12.5013 8.60725C12.7791 11.5001 11.7282 14.3809 10.9793 17.2617C10.6773 15.5066 10.484 13.7394 10.3632 11.9601H10.3512ZM5.20535 28.2038C3.67127 26.9934 2.2459 25.2746 1.72649 23.3742C1.65401 23.108 1.37618 20.675 1.62985 20.7961C2.17342 21.0503 2.76531 21.9218 3.09146 22.3454C5.49525 25.4683 7.17429 28.6879 9.79551 31.3508C8.21311 30.3825 6.66695 29.3658 5.20535 28.2038ZM8.90164 40.2474C7.6333 39.9448 6.38913 39.5695 5.15703 39.1338C4.69801 38.9643 -0.604834 35.7325 2.28214 35.4299C4.33563 35.2121 7.07765 37.6329 8.67213 38.7343C10.0009 39.6543 11.3658 40.441 12.7912 41.1431C11.4866 40.8526 10.1821 40.55 8.90164 40.2474ZM12.7187 50.0517C11.4504 49.047 12.5375 47.7519 13.7213 47.7519C14.4702 47.7519 15.2916 48.0666 16.0043 48.2966C17.1519 48.6718 18.239 49.2165 19.3503 49.7007C20.5703 50.2453 21.6937 50.899 22.8292 51.4194C19.0846 51.8552 15.1708 51.9883 12.7308 50.0638L12.7187 50.0517ZM27.9629 57.9799C27.2019 58.1977 26.3805 58.2583 25.5833 58.2946C25.245 58.3067 24.9068 58.2946 24.5686 58.2825C24.4961 58.2825 20.7757 57.3868 23.2157 56.3942C26.1631 55.208 29.4366 56.3095 32.5772 56.249C31.0552 56.8663 29.5453 57.5199 27.9508 57.9799H27.9629Z" fill="#38CE00"/>
<path d="M90.4973 59.9875C94.7613 59.1281 99.0132 57.7725 103.036 55.9326C103.108 56.0295 103.205 56.1142 103.35 56.1505C106.913 57.1188 110.126 59.346 113.883 59.5518C115.163 59.6244 118.135 59.6849 118.485 57.8935C118.932 55.6542 117.265 54.9885 115.308 54.8917C112.264 54.7343 108.459 55.6784 105.476 54.7464C107.118 53.887 108.713 52.9429 110.247 51.9141C110.271 51.9141 110.283 51.9262 110.32 51.9262C110.706 51.9262 111.177 51.9867 111.697 52.0351C111.745 52.0593 111.793 52.0956 111.854 52.1077C112.615 52.3135 113.303 52.3619 113.98 52.3135C119.343 53.0398 127.351 54.0928 128.994 49.6143C129.997 46.8788 126.808 46.1767 124.923 46.6851C121.553 47.5929 117.736 50.7279 114.161 51.0184C113.376 50.9094 112.615 50.8126 111.914 50.74C111.974 50.7037 112.035 50.6795 112.071 50.631C114.306 48.9607 116.395 47.0845 118.256 44.9905C118.606 44.6032 118.92 44.2038 119.246 43.8043C119.246 43.8043 119.246 43.8043 119.258 43.8043C122.749 43.4654 126.204 42.5576 129.647 41.8677C131.277 41.5409 132.932 41.1656 134.515 40.5967C136.266 39.9673 140.506 38.4301 139.685 35.7551C138.899 33.2132 136.097 34.3026 134.382 35.2588C130.287 37.5344 126.735 40.161 122.302 41.904C122.157 41.9645 122.061 42.0613 121.988 42.1703C121.445 42.255 120.913 42.3155 120.382 42.3881C121.94 40.3183 123.293 38.1517 124.477 35.9004C124.549 35.9004 124.622 35.8761 124.694 35.8398C129.586 33.3706 134.672 30.7682 138.199 26.4471C139.153 25.273 141.086 20.7581 139.177 19.5961C137.438 18.531 135.372 22.2348 134.732 23.2637C132.461 26.8223 130.347 30.1751 126.76 32.5596C126.663 32.5354 126.554 32.5354 126.433 32.5838C126.264 32.6565 126.107 32.7412 125.95 32.8259C127.521 29.2431 128.716 25.4787 129.598 21.5812C129.671 21.4844 129.719 21.3754 129.707 21.2181C129.707 21.1818 129.707 21.1576 129.707 21.1213C129.84 20.4918 129.997 19.8745 130.118 19.2451C130.154 19.0757 130.118 18.9183 130.045 18.7973C130.685 15.4686 132.678 3.26771 128.33 4.39339C123.269 5.70064 128.221 18.0105 128.439 21.0849C126.494 29.812 123.063 38.3333 116.71 44.7969C109.522 52.1198 100.197 56.7315 90.1953 58.7408C89.386 58.8981 89.7121 60.1449 90.5094 59.9754L90.4973 59.9875ZM129.018 17.26C128.269 14.3793 127.219 11.5106 127.496 8.60562C127.315 6.34215 128.052 6.20901 129.719 8.21829C129.719 8.50879 129.719 8.78718 129.719 9.07768C129.707 10.0339 129.719 11.0022 129.647 11.9585C129.526 13.7378 129.32 15.505 129.03 17.26H129.018ZM130.202 31.3613C132.823 28.6984 134.502 25.4787 136.906 22.3559C137.232 21.9322 137.824 21.0607 138.368 20.8065C138.622 20.6855 138.344 23.1184 138.271 23.3847C137.752 25.2851 136.326 27.0038 134.792 28.2143C133.319 29.3762 131.785 30.4051 130.202 31.3613ZM127.207 41.1414C128.62 40.4394 129.997 39.6526 131.326 38.7327C132.932 37.6191 135.662 35.2104 137.716 35.4283C140.603 35.7309 135.3 38.9627 134.841 39.1321C133.621 39.58 132.364 39.9552 131.096 40.2457C129.816 40.5483 128.511 40.8509 127.207 41.1414ZM117.181 51.4057C118.316 50.8852 119.427 50.2316 120.659 49.6869C121.759 49.1907 122.846 48.646 124.005 48.2828C124.718 48.0529 125.54 47.7382 126.288 47.7382C127.472 47.7382 128.559 49.0333 127.291 50.0379C124.851 51.9625 120.925 51.8414 117.193 51.3936L117.181 51.4057ZM107.42 56.2473C110.561 56.3079 113.835 55.2064 116.782 56.3926C119.222 57.3851 115.514 58.2687 115.429 58.2808C115.091 58.305 114.753 58.305 114.414 58.2929C113.617 58.2566 112.808 58.2082 112.035 57.9782C110.452 57.5183 108.93 56.8646 107.408 56.2473H107.42Z" fill="#38CE00"/>
</g>
<defs>
<clipPath id="clip0_119_463">
<rect width="140" height="60" fill="white"/>
</clipPath>
</defs>
</svg>
