<svg width="116" height="58" viewBox="0 0 116 58" fill="none" xmlns="http://www.w3.org/2000/svg">
<g clip-path="url(#clip0_119_436)">
<path d="M40.4135 48.6608C29.688 46.6469 22.6737 37.3268 22.3752 27.6507C22.3752 27.3603 22.3752 27.0793 22.3752 26.7889C22.6837 21.8432 24.8228 16.8974 28.5737 13.5253C30.7626 11.5583 33.1007 9.73172 35.8368 8.49529C40.1548 6.7062 45.0997 6.06925 50.0246 6.99657C60.7501 9.01047 67.7644 18.34 68.0629 28.0066C67.8937 33.299 65.7944 38.048 62.4415 41.7105C62.6802 41.8885 62.9091 42.0664 63.128 42.2538C66.7396 38.2635 68.9782 33.121 69.1474 27.6413C68.7394 14.1529 56.8499 4.53307 42.8113 5.69457C36.4536 6.21912 30.9715 9.20717 27.1211 13.5441C23.4796 17.0567 21.5395 22.171 21.3405 27.1168C21.3206 27.4165 21.2808 27.7069 21.2709 28.0066C20.8629 41.5419 34.1752 51.0681 47.6069 49.9534C52.0045 49.5881 55.9744 48.0425 59.2875 45.7008C59.0388 45.5041 58.79 45.3168 58.5413 45.1201C53.6362 48.4453 47.2587 49.944 40.3936 48.6608H40.4135Z" fill="#0062FF"/>
<path d="M53.7054 42.5169C47.8551 45.814 37.7963 44.3903 33.0803 39.8192C32.9609 39.6974 32.8116 39.6693 32.6823 39.6881C29.4686 36.5033 27.5484 32.1383 27.4191 27.6796C27.0907 17.0294 38.0948 9.22673 48.9595 11.3062C57.317 12.9079 62.7693 20.2985 63.008 27.9606C62.9882 28.6819 62.9185 29.4031 62.8091 30.0963C62.3713 31.773 61.7246 33.3935 61.0779 35.0889C60.7794 35.857 60.3914 36.5689 59.9237 37.2433C59.864 37.3276 59.8043 37.4213 59.7347 37.5056C59.3467 38.0395 58.8989 38.5359 58.4214 39.0043C58.7199 39.0792 58.9984 39.201 59.2571 39.3789C59.486 39.126 59.7247 38.8731 59.9436 38.6109C61.7146 36.4658 62.9981 33.9367 63.6548 31.2203C63.6548 31.2016 63.6647 31.1829 63.6747 31.1641C63.9433 30.0214 64.1025 28.8599 64.1423 27.6703C63.8139 17.0013 54.4217 9.39534 43.3182 10.3133C33.6872 11.1095 26.5535 19.0152 26.2848 27.9606C25.9565 38.6671 36.483 46.1887 47.1089 45.3176C48.3725 45.2146 49.5963 44.9804 50.7603 44.6432C51.4866 44.4558 52.203 44.2404 52.8696 43.9594C53.8347 43.5566 54.7401 43.0789 55.5858 42.5356C55.3371 42.3014 55.0784 42.0673 54.8296 41.8331C54.4615 42.0673 54.0834 42.2921 53.7054 42.5075V42.5169Z" fill="#0062FF"/>
<path d="M70.0229 8.09255C66.5406 8.38292 63.3468 9.46949 60.561 11.1181C60.8595 11.3429 61.138 11.5864 61.4166 11.83C62.0832 11.4272 62.7498 11.0338 63.4662 10.7153C67.5156 9.03861 72.162 8.43912 76.7785 9.31025C86.8473 11.2024 93.4139 19.9511 93.7024 29.0183C93.3144 41.5326 81.5542 50.9838 67.7544 48.3892C57.6856 46.497 51.119 37.7483 50.8305 28.6811C50.8305 28.4095 50.8305 28.1472 50.8305 27.8755C51.119 23.2389 53.1288 18.6023 56.6509 15.4269C56.8897 15.2114 57.1483 14.996 57.3971 14.7899C57.1682 14.5932 56.9891 14.4433 56.8499 14.3497C56.7504 14.2841 56.6608 14.2092 56.5713 14.1342C56.1235 14.5557 55.7057 14.996 55.2978 15.455C51.8851 18.7521 50.0644 23.548 49.8753 28.1847C49.8554 28.4657 49.8156 28.7373 49.8057 29.0277C49.4177 41.7293 61.9141 50.656 74.51 49.6162C85.9319 48.6702 94.3889 39.2939 94.7173 28.6811C94.3292 16.0264 83.176 7.00598 70.0129 8.09255H70.0229Z" fill="#0062FF"/>
<path d="M70.4913 12.4392C68.0039 12.6453 65.6957 13.3665 63.6461 14.4718C63.7854 14.6873 63.9247 14.9121 64.054 15.1369C67.5164 13.3197 71.6553 12.5703 75.7843 13.3665C83.6245 14.8652 88.7384 21.7968 88.9673 28.9906C88.9474 29.6744 88.8777 30.3394 88.7783 30.9951C88.3703 32.5688 87.7634 34.0862 87.1565 35.6786C86.8779 36.3999 86.5098 37.0649 86.072 37.7019C86.0123 37.7862 85.9526 37.8705 85.9029 37.9454C84.4801 39.8937 82.3907 41.4299 80.2417 42.6382C74.7496 45.7293 65.3176 44.3992 60.9 40.1092C60.7806 39.9968 60.6513 39.9687 60.5319 39.9874C57.5172 36.9993 55.7164 32.906 55.5871 28.719C55.4577 24.5132 57.2188 20.7851 60.0543 18.0219C60.0046 17.9189 59.9548 17.8065 59.9449 17.7877C59.8653 17.6566 59.7758 17.5254 59.6962 17.3849C56.592 20.4292 54.6618 24.5694 54.5324 28.9812C54.224 39.0226 64.1037 46.0853 74.0631 45.261C75.2471 45.1673 76.3912 44.9425 77.4857 44.6334C78.1722 44.4554 78.8388 44.2494 79.4557 43.9964C82.152 42.8724 84.3806 41.1114 86.1019 38.9758C87.7634 36.9619 88.9673 34.592 89.5841 32.0442C89.5841 32.0255 89.5941 32.0068 89.604 31.988C89.8528 30.9202 90.012 29.8243 90.0418 28.7096C89.7334 18.7057 80.9182 11.5681 70.5112 12.4298L70.4913 12.4392Z" fill="#0062FF"/>
<path d="M69.0288 7.92444C69.1979 8.06494 69.3571 8.18671 69.5163 8.30848C69.9441 8.25228 70.3719 8.20545 70.7998 8.17735C70.4913 7.92444 70.173 7.6528 69.8645 7.39052V3.95285H72.0832V8.11178C72.4116 8.11178 72.7399 8.11178 73.0682 8.11178V0.458981C73.0682 0.149871 72.7996 0.00936695 72.5509 0.0187339C72.521 0.0187339 72.4812 0 72.4514 0H68.1234C67.994 0 67.8945 0.0468347 67.815 0.112403C67.7553 0.12177 67.6956 0.140504 67.6259 0.187339C66.3623 0.98353 65.1187 1.84529 64.2431 3.03489C64.0839 3.25033 64.4919 4.14019 64.6809 4.2526C66.2927 5.17992 67.616 6.77231 69.0387 7.93381L69.0288 7.92444ZM69.8546 0.927328H72.0733V3.01616H69.8546V0.927328ZM68.1333 0.98353C68.1333 0.98353 68.1632 0.946062 68.1831 0.936695H68.8696V3.02552H65.5067C66.2529 2.2106 67.208 1.57365 68.1433 0.98353H68.1333ZM65.9246 3.95285H68.8596V6.52876C68.7303 6.41636 68.6208 6.32269 68.5711 6.27586C67.7155 5.5265 66.8698 4.65537 65.9246 3.95285Z" fill="#0062FF"/>
<path d="M80.8993 3.02513C80.0238 1.83552 78.7702 0.973764 77.5165 0.177573C77.4568 0.140106 77.3872 0.112005 77.3275 0.102638C77.2479 0.0370691 77.1484 -0.00976562 77.0191 -0.00976562H72.6911C72.6911 -0.00976562 72.6214 -0.000398675 72.5916 0.00896828C72.3329 -0.00976562 72.0742 0.130739 72.0742 0.449215V8.11138C72.4025 8.11138 72.7309 8.11138 73.0592 8.11138V3.95245H75.3177C75.3575 4.95472 75.4471 5.96635 75.3874 6.96861C75.2978 7.08102 75.258 7.22152 75.3177 7.36202C74.9993 7.63367 74.671 7.91467 74.3526 8.16758C74.681 8.19568 75.0093 8.22378 75.3277 8.25189C75.5366 8.13948 75.7654 8.03644 76.0142 7.98961C76.044 7.96151 76.0739 7.94278 76.1137 7.91467C77.5364 6.75317 78.8597 5.16079 80.4715 4.23346C80.6605 4.13043 81.0685 3.2312 80.9093 3.01576L80.8993 3.02513ZM75.2779 3.02513H73.0592V0.926929H75.2779V3.01576V3.02513ZM76.5514 6.27546C76.5514 6.27546 76.4619 6.35976 76.3923 6.41596C76.3923 5.59167 76.3326 4.76738 76.3027 3.95245H79.2079C78.2627 4.65498 77.417 5.5261 76.5614 6.27546H76.5514ZM76.2629 3.02513V0.936296H76.9494C76.9494 0.936296 76.9793 0.973764 76.9992 0.983131C77.9344 1.57325 78.8896 2.21957 79.6258 3.02513H76.2629Z" fill="#0062FF"/>
<path d="M30.7739 56.5964C25.4411 54.1704 20.6455 51.0418 16.7851 47.1358C19.4217 43.8948 20.8942 38.1529 18.3571 34.6871C18.2178 34.4998 17.8994 34.4061 17.6805 34.5466C14.5763 36.4387 13.4023 41.0192 14.4072 44.4475C13.85 43.7731 13.3128 43.0799 12.8153 42.3586C11.5816 40.5602 10.6861 38.6868 10.0096 36.7759C13.452 32.336 16.8448 26.8189 15.6907 21.3017C15.6509 21.1238 15.4121 20.9833 15.2131 20.9926C12.3974 21.1612 11.2831 24.0182 10.5966 25.9946C9.86031 28.1209 9.36285 30.5001 9.26335 32.8044C9.09421 32.4765 8.92507 32.158 8.76588 31.8208C8.29826 28.9545 8.19877 26.032 8.21866 23.1002C8.26841 23.0908 8.30821 23.0627 8.34801 23.044C7.97988 23.1377 7.6018 23.1564 7.24362 23.1096C7.24362 25.0579 7.27347 26.9875 7.44261 28.8983C7.01479 27.9429 6.58696 26.9875 6.08949 26.0695C5.43283 24.8518 3.5126 20.7023 1.17449 21.5453C-1.35265 22.4539 0.87601 26.669 1.55257 27.9335C2.69675 30.0879 5.1443 34.0221 8.29826 34.2656C8.95492 36.9726 9.97971 39.6329 11.5816 42.1994C11.8701 42.6584 12.1686 43.108 12.487 43.5482C9.75087 41.5531 6.97499 39.6703 3.10467 39.8296C2.85594 39.8389 2.58731 40.0263 2.61715 40.2604C2.95543 42.5366 4.55729 43.9979 6.66656 45.2718C7.83064 45.9743 9.34295 46.8548 10.706 47.2107C12.4074 47.651 14.0689 47.4543 15.8101 47.5386C19.7799 51.6132 24.8342 54.8635 30.2864 57.3458C30.8535 57.5987 31.3311 56.8587 30.7739 56.5964ZM12.7257 23.606C13.1138 22.9597 14.7156 20.9926 14.9246 22.6225C15.1434 24.2992 14.7057 26.0039 14.1983 27.6151C13.3725 30.1722 11.9198 32.5889 10.2782 34.8463C10.0096 31.212 10.7757 26.8376 12.7357 23.606H12.7257ZM2.63705 27.9054C1.8809 26.6503 1.25409 25.2452 1.0949 23.8308C0.905858 22.1729 2.06994 22.1073 3.09473 23.222C5.45273 25.7979 6.45762 29.0388 7.86049 32.0737C7.94008 32.514 8.01968 32.9449 8.10922 33.3757C5.63182 33.0198 3.64194 29.5634 2.647 27.9054H2.63705ZM12.9844 46.6862C11.3925 46.7236 10.0792 46.0118 8.74598 45.3748C6.52727 44.2976 4.28865 42.93 3.72154 40.6913C8.11917 40.7663 11.104 43.7543 14.4072 46.0118C14.5962 46.2366 14.7952 46.452 14.9942 46.6674C14.3276 46.6674 13.661 46.6674 12.9844 46.6862ZM17.79 35.5582C19.5908 38.5838 18.4466 43.3328 16.3473 46.1897C14.2181 43.4265 14.7455 37.8344 17.79 35.5582Z" fill="#0062FF"/>
<path d="M11.4423 8.76821C11.2433 8.53403 10.925 8.50593 10.6663 8.69327C8.12918 10.5479 6.97505 13.0489 6.56713 15.859C6.20895 18.2944 6.0995 21.2825 7.26358 23.568C7.43272 23.8958 7.84065 23.8209 8.03964 23.5867C8.14908 23.5399 8.23862 23.465 8.28837 23.3432C9.4823 20.4301 11.1041 17.723 11.7906 14.66C12.1786 12.9459 12.696 10.2669 11.4423 8.76821ZM10.4971 15.8122C9.89022 18.0321 8.6963 20.0741 7.73121 22.191C7.0646 20.1022 7.31333 17.4795 7.60186 15.4562C7.93019 13.2269 9.01468 11.2223 10.8653 9.68617C11.6911 11.3722 10.8951 14.2947 10.4872 15.8122H10.4971Z" fill="#0062FF"/>
<path d="M85.7146 57.336C91.1669 54.8538 96.2211 51.6034 100.191 47.5288C101.932 47.4445 103.594 47.6506 105.295 47.201C106.658 46.845 108.17 45.9645 109.334 45.262C111.444 43.9881 113.046 42.5268 113.384 40.2507C113.414 40.0165 113.145 39.8292 112.896 39.8198C109.026 39.6512 106.26 41.5433 103.514 43.5385C103.822 43.0982 104.131 42.6486 104.419 42.1896C106.021 39.6137 107.046 36.9629 107.703 34.2558C110.857 34.0123 113.304 30.0782 114.448 27.9238C115.125 26.6499 117.344 22.4441 114.827 21.5355C112.488 20.6925 110.568 24.842 109.912 26.0598C109.414 26.9777 108.976 27.9331 108.558 28.8886C108.728 26.9777 108.767 25.0481 108.757 23.0998C108.399 23.1466 108.021 23.1279 107.653 23.0342C107.693 23.053 107.733 23.0811 107.782 23.0904C107.802 26.0223 107.703 28.9541 107.235 31.8111C107.076 32.1389 106.917 32.4667 106.738 32.7946C106.638 30.4903 106.141 28.1017 105.404 25.9848C104.718 24.0084 103.604 21.1515 100.788 20.9829C100.589 20.9735 100.34 21.114 100.31 21.292C99.1562 26.8091 102.539 32.3262 105.991 36.7662C105.325 38.677 104.419 40.5504 103.186 42.3489C102.688 43.0701 102.151 43.7633 101.594 44.4377C102.599 41.0094 101.425 36.4196 98.3205 34.5368C98.1016 34.3963 97.7832 34.49 97.6439 34.6773C95.1068 38.1525 96.5694 43.8851 99.2159 47.126C95.3556 51.032 90.5599 54.1606 85.2271 56.5866C84.66 56.8395 85.1475 57.5889 85.7146 57.336ZM105.723 34.8459C104.081 32.5885 102.619 30.1718 101.803 27.6147C101.285 26.0129 100.858 24.2988 101.076 22.6221C101.285 20.9922 102.887 22.9593 103.275 23.6056C105.225 26.8372 105.991 31.2116 105.733 34.8459H105.723ZM107.902 33.3753C107.991 32.9445 108.081 32.5042 108.15 32.0733C109.553 29.0384 110.558 25.7975 112.906 23.2216C113.921 22.1069 115.095 22.1725 114.906 23.8304C114.747 25.2542 114.12 26.6499 113.364 27.905C112.369 29.5724 110.379 33.0288 107.902 33.3753ZM101.007 46.667C101.206 46.4516 101.395 46.2268 101.594 46.0114C104.897 43.7539 107.892 40.7752 112.279 40.6909C111.702 42.9296 109.474 44.2972 107.255 45.3744C105.922 46.0207 104.608 46.7232 103.017 46.6858C102.34 46.667 101.673 46.6577 101.007 46.667ZM99.6537 46.1987C97.5544 43.3418 96.4201 38.5927 98.211 35.5672C101.246 37.8527 101.783 43.4448 99.6537 46.1987Z" fill="#0062FF"/>
<path d="M104.211 14.66C104.897 17.723 106.529 20.4207 107.713 23.3432C107.763 23.465 107.852 23.5399 107.962 23.5867C108.161 23.8115 108.569 23.8865 108.738 23.568C109.912 21.2825 109.792 18.3038 109.434 15.859C109.026 13.0395 107.872 10.5479 105.335 8.69327C105.076 8.50593 104.758 8.53403 104.559 8.76821C103.305 10.2763 103.823 12.9552 104.211 14.66ZM105.126 9.68617C106.977 11.2223 108.071 13.2269 108.389 15.4562C108.688 17.4795 108.927 20.1022 108.26 22.191C107.305 20.0741 106.101 18.0228 105.494 15.8122C105.086 14.3041 104.29 11.3722 105.116 9.68617H105.126Z" fill="#0062FF"/>
</g>
<defs>
<clipPath id="clip0_119_436">
<rect width="116" height="57.3913" fill="white"/>
</clipPath>
</defs>
</svg>
